<?xml version="1.0"?>
<!-- Generated by SVGo -->
<svg width="338.802mm" height="129.251mm"
     viewBox="0.000 0.000 338.802 129.251"
     xmlns="http://www.w3.org/2000/svg" 
     xmlns:xlink="http://www.w3.org/1999/xlink">
<polygon points="331.958,5.007 332.114,5.025 332.268,5.056 332.420,5.098 332.567,5.153 332.709,5.218 332.846,5.295 332.977,5.382 333.100,5.480 333.216,5.586 333.322,5.702 333.420,5.825 333.507,5.956 333.584,6.093 333.649,6.235 333.704,6.382 333.746,6.534 333.777,6.688 333.795,6.844 333.802,7.000 333.802,122.251 333.795,122.408 333.777,122.564 333.746,122.718 333.704,122.870 333.649,123.017 333.584,123.159 333.507,123.296 333.420,123.427 333.322,123.550 333.216,123.666 333.100,123.772 332.977,123.870 332.846,123.957 332.709,124.034 332.567,124.099 332.420,124.154 332.268,124.196 332.114,124.227 331.958,124.245 331.802,124.251 7.001,124.251 6.844,124.245 6.688,124.227 6.534,124.196 6.382,124.154 6.235,124.099 6.093,124.034 5.956,123.957 5.825,123.870 5.702,123.772 5.586,123.666 5.480,123.550 5.382,123.427 5.295,123.296 5.218,123.159 5.153,123.017 5.098,122.870 5.056,122.718 5.025,122.564 5.007,122.408 5.000,122.252 5.001,7.000 5.007,6.844 5.025,6.688 5.056,6.534 5.098,6.382 5.153,6.235 5.218,6.093 5.295,5.956 5.382,5.825 5.480,5.702 5.586,5.586 5.702,5.480 5.825,5.382 5.956,5.295 6.093,5.218 6.235,5.153 6.382,5.098 6.534,5.056 6.688,5.025 6.844,5.007 7.001,5.000 331.802,5.000" style="fill:none;stroke-width:0.050000mm;stroke:black"/>
<polygon points="9.506,117.730 9.060,117.957 8.706,118.311 8.479,118.757 8.400,119.251 8.479,119.746 8.706,120.192 9.060,120.546 9.506,120.773 10.000,120.851 10.495,120.773 10.941,120.546 11.295,120.192 11.522,119.746 11.600,119.251 11.522,118.757 11.295,118.311 10.941,117.957 10.495,117.730 10.000,117.652" style="fill:none;stroke-width:0.050000mm;stroke:black"/>
<polygon points="115.773,117.730 115.327,117.957 114.973,118.311 114.746,118.757 114.668,119.251 114.746,119.746 114.973,120.192 115.327,120.546 115.773,120.773 116.268,120.851 116.762,120.773 117.208,120.546 117.562,120.192 117.789,119.746 117.868,119.251 117.789,118.757 117.562,118.311 117.208,117.957 116.762,117.730 116.268,117.652" style="fill:none;stroke-width:0.050000mm;stroke:black"/>
<polygon points="222.040,117.730 221.594,117.957 221.240,118.311 221.013,118.757 220.935,119.251 221.013,119.746 221.240,120.192 221.594,120.546 222.040,120.773 222.535,120.851 223.029,120.773 223.475,120.546 223.829,120.192 224.056,119.746 224.135,119.251 224.056,118.757 223.829,118.311 223.475,117.957 223.029,117.730 222.535,117.652" style="fill:none;stroke-width:0.050000mm;stroke:black"/>
<polygon points="328.307,117.730 327.861,117.957 327.507,118.311 327.280,118.757 327.202,119.251 327.280,119.746 327.507,120.192 327.861,120.546 328.307,120.773 328.802,120.851 329.296,120.773 329.742,120.546 330.096,120.192 330.323,119.746 330.402,119.251 330.323,118.757 330.096,118.311 329.742,117.957 329.296,117.730 328.802,117.652" style="fill:none;stroke-width:0.050000mm;stroke:black"/>
<polygon points="9.506,8.479 9.060,8.706 8.706,9.060 8.479,9.506 8.400,10.001 8.479,10.495 8.706,10.941 9.060,11.295 9.506,11.522 10.000,11.601 10.495,11.522 10.941,11.295 11.295,10.941 11.522,10.495 11.600,10.001 11.522,9.506 11.295,9.060 10.941,8.706 10.495,8.479 10.000,8.401" style="fill:none;stroke-width:0.050000mm;stroke:black"/>
<polygon points="328.307,8.479 327.861,8.706 327.507,9.060 327.280,9.506 327.202,10.001 327.280,10.495 327.507,10.941 327.861,11.295 328.307,11.522 328.802,11.601 329.296,11.522 329.742,11.295 330.096,10.941 330.323,10.495 330.402,10.001 330.323,9.506 330.096,9.060 329.742,8.706 329.296,8.479 328.802,8.401" style="fill:none;stroke-width:0.050000mm;stroke:black"/>
<polygon points="222.040,8.479 221.594,8.706 221.240,9.060 221.013,9.506 220.935,10.001 221.013,10.495 221.240,10.941 221.594,11.295 222.040,11.522 222.535,11.601 223.029,11.522 223.475,11.295 223.829,10.941 224.056,10.495 224.135,10.001 224.056,9.506 223.829,9.060 223.475,8.706 223.029,8.479 222.535,8.401" style="fill:none;stroke-width:0.050000mm;stroke:black"/>
<polygon points="115.773,8.479 115.327,8.706 114.973,9.060 114.746,9.506 114.668,10.001 114.746,10.495 114.973,10.941 115.327,11.295 115.773,11.522 116.268,11.601 116.762,11.522 117.208,11.295 117.562,10.941 117.789,10.495 117.868,10.001 117.789,9.506 117.562,9.060 117.208,8.706 116.762,8.479 116.268,8.401" style="fill:none;stroke-width:0.050000mm;stroke:black"/>
</svg>
