<?xml version="1.0"?>
<!-- Generated by SVGo -->
<svg width="346.802mm" height="137.252mm"
     viewBox="0.000 0.000 346.802 137.252"
     xmlns="http://www.w3.org/2000/svg" 
     xmlns:xlink="http://www.w3.org/1999/xlink">
<polygon points="339.802,5.001 339.958,5.007 340.114,5.025 340.268,5.056 340.420,5.098 340.567,5.153 340.709,5.218 340.846,5.295 340.977,5.382 341.100,5.480 341.216,5.586 341.322,5.702 341.420,5.825 341.507,5.956 341.584,6.093 341.649,6.235 341.704,6.382 341.746,6.534 341.777,6.688 341.795,6.844 341.802,7.001 341.802,130.251 341.795,130.408 341.777,130.563 341.746,130.718 341.704,130.870 341.649,131.015 341.584,131.159 341.507,131.296 341.420,131.427 341.322,131.550 341.216,131.666 341.100,131.772 340.977,131.870 340.846,131.957 340.709,132.034 340.567,132.099 340.420,132.154 340.268,132.196 340.114,132.227 339.958,132.245 339.802,132.252 7.001,132.251 6.844,132.245 6.688,132.227 6.534,132.196 6.382,132.154 6.235,132.099 6.093,132.034 5.956,131.957 5.825,131.870 5.702,131.772 5.586,131.666 5.480,131.550 5.382,131.427 5.295,131.296 5.218,131.159 5.153,131.015 5.098,130.870 5.056,130.718 5.025,130.563 5.007,130.408 5.000,130.251 5.001,7.001 5.007,6.844 5.025,6.688 5.056,6.534 5.098,6.382 5.153,6.235 5.218,6.093 5.295,5.956 5.382,5.825 5.480,5.702 5.586,5.586 5.702,5.480 5.825,5.382 5.956,5.295 6.093,5.218 6.235,5.153 6.382,5.098 6.534,5.056 6.688,5.025 6.844,5.007 7.001,5.000" style="fill:none;stroke-width:0.050000mm;stroke:black"/>
<polygon points="9.506,125.730 9.060,125.957 8.706,126.311 8.479,126.757 8.400,127.251 8.479,127.746 8.706,128.192 9.060,128.545 9.506,128.771 10.000,128.851 10.495,128.771 10.941,128.545 11.295,128.192 11.522,127.746 11.600,127.251 11.522,126.757 11.295,126.311 10.941,125.957 10.495,125.730 10.000,125.651" style="fill:none;stroke-width:0.050000mm;stroke:black"/>
<polygon points="118.440,125.730 117.994,125.957 117.640,126.311 117.412,126.757 117.334,127.251 117.412,127.746 117.640,128.192 117.994,128.545 118.440,128.771 118.934,128.851 119.429,128.771 119.875,128.545 120.229,128.192 120.456,127.746 120.534,127.251 120.456,126.757 120.229,126.311 119.875,125.957 119.429,125.730 118.934,125.651" style="fill:none;stroke-width:0.050000mm;stroke:black"/>
<polygon points="227.373,125.730 226.927,125.957 226.573,126.311 226.346,126.757 226.268,127.251 226.346,127.746 226.573,128.192 226.927,128.545 227.373,128.771 227.868,128.851 228.362,128.771 228.808,128.545 229.162,128.192 229.390,127.746 229.468,127.251 229.390,126.757 229.162,126.311 228.808,125.957 228.362,125.730 227.868,125.651" style="fill:none;stroke-width:0.050000mm;stroke:black"/>
<polygon points="336.307,125.730 335.861,125.957 335.507,126.311 335.280,126.757 335.202,127.251 335.280,127.746 335.507,128.192 335.861,128.545 336.307,128.771 336.802,128.851 337.296,128.771 337.742,128.545 338.096,128.192 338.323,127.746 338.402,127.251 338.323,126.757 338.096,126.311 337.742,125.957 337.296,125.730 336.802,125.651" style="fill:none;stroke-width:0.050000mm;stroke:black"/>
<polygon points="144.969,99.726 144.969,100.726 144.169,100.726 144.169,103.825 144.969,103.825 144.969,104.426 105.344,104.426 105.344,101.196 98.594,101.196 98.594,104.426 97.769,104.426 97.769,107.226 98.594,107.226 98.594,113.495 100.319,113.495 100.319,114.696 103.619,114.696 103.619,113.495 105.344,113.495 105.344,109.025 144.969,109.025 144.969,109.626 144.169,109.626 144.169,112.726 144.969,112.726 144.969,113.726 158.969,113.726 158.969,112.726 159.769,112.726 159.769,109.626 158.969,109.626 158.969,109.025 198.594,109.025 198.594,113.495 200.319,113.495 200.319,114.696 203.619,114.696 203.619,113.495 205.344,113.495 205.344,107.226 206.169,107.226 206.169,104.426 205.344,104.426 205.344,101.196 198.594,101.196 198.594,104.426 158.969,104.426 158.969,103.825 159.769,103.825 159.769,100.726 158.969,100.726 158.969,99.726" style="fill:none;stroke-width:0.050000mm;stroke:black"/>
<polygon points="309.276,99.726 309.276,100.726 308.476,100.726 308.476,103.825 309.276,103.825 309.276,109.626 308.476,109.626 308.476,112.726 309.276,112.726 309.276,113.726 323.276,113.726 323.276,112.726 324.076,112.726 324.076,109.626 323.276,109.626 323.276,103.825 324.076,103.825 324.076,100.726 323.276,100.726 323.276,99.726" style="fill:none;stroke-width:0.050000mm;stroke:black"/>
<polygon points="290.226,99.726 290.226,100.726 289.426,100.726 289.426,103.825 290.226,103.825 290.226,109.626 289.426,109.626 289.426,112.726 290.226,112.726 290.226,113.726 304.226,113.726 304.226,112.726 305.026,112.726 305.026,109.626 304.226,109.626 304.226,103.825 305.026,103.825 305.026,100.726 304.226,100.726 304.226,99.726" style="fill:none;stroke-width:0.050000mm;stroke:black"/>
<polygon points="271.176,99.726 271.176,100.726 270.376,100.726 270.376,103.825 271.176,103.825 271.176,109.626 270.376,109.626 270.376,112.726 271.176,112.726 271.176,113.726 285.176,113.726 285.176,112.726 285.976,112.726 285.976,109.626 285.176,109.626 285.176,103.825 285.976,103.825 285.976,100.726 285.176,100.726 285.176,99.726" style="fill:none;stroke-width:0.050000mm;stroke:black"/>
<polygon points="247.363,99.726 247.363,100.726 246.563,100.726 246.563,103.825 247.363,103.825 247.363,109.626 246.563,109.626 246.563,112.726 247.363,112.726 247.363,113.726 261.363,113.726 261.363,112.726 262.163,112.726 262.163,109.626 261.363,109.626 261.363,103.825 262.163,103.825 262.163,100.726 261.363,100.726 261.363,99.726" style="fill:none;stroke-width:0.050000mm;stroke:black"/>
<polygon points="218.788,99.726 218.788,100.726 217.988,100.726 217.988,103.825 218.788,103.825 218.788,109.626 217.988,109.626 217.988,112.726 218.788,112.726 218.788,113.726 232.788,113.726 232.788,112.726 233.588,112.726 233.588,109.626 232.788,109.626 232.788,103.825 233.588,103.825 233.588,100.726 232.788,100.726 232.788,99.726" style="fill:none;stroke-width:0.050000mm;stroke:black"/>
<polygon points="73.532,99.726 73.532,100.726 72.732,100.726 72.732,103.825 73.532,103.825 73.532,109.626 72.732,109.626 72.732,112.726 73.532,112.726 73.532,113.726 87.532,113.726 87.532,112.726 88.332,112.726 88.332,109.626 87.532,109.626 87.532,103.825 88.332,103.825 88.332,100.726 87.532,100.726 87.532,99.726" style="fill:none;stroke-width:0.050000mm;stroke:black"/>
<polygon points="49.719,99.726 49.719,100.726 48.919,100.726 48.919,103.825 49.719,103.825 49.719,109.626 48.919,109.626 48.919,112.726 49.719,112.726 49.719,113.726 63.719,113.726 63.719,112.726 64.519,112.726 64.519,109.626 63.719,109.626 63.719,103.825 64.519,103.825 64.519,100.726 63.719,100.726 63.719,99.726" style="fill:none;stroke-width:0.050000mm;stroke:black"/>
<polygon points="25.907,99.726 25.907,100.726 25.107,100.726 25.107,103.825 25.907,103.825 25.907,109.626 25.107,109.626 25.107,112.726 25.907,112.726 25.907,113.726 39.907,113.726 39.907,112.726 40.707,112.726 40.707,109.626 39.907,109.626 39.907,103.825 40.707,103.825 40.707,100.726 39.907,100.726 39.907,99.726" style="fill:none;stroke-width:0.050000mm;stroke:black"/>
<polygon points="35.432,80.676 35.432,81.676 34.632,81.676 34.632,84.775 35.432,84.775 35.432,85.376 33.907,85.376 33.907,82.146 27.157,82.146 27.157,85.376 26.332,85.376 26.332,88.176 27.157,88.176 27.157,94.446 28.882,94.446 28.882,95.646 32.181,95.646 32.181,94.446 33.907,94.446 33.907,89.976 35.432,89.976 35.432,90.576 34.632,90.576 34.632,93.676 35.432,93.676 35.432,94.676 49.432,94.676 49.432,93.676 50.232,93.676 50.232,90.576 49.432,90.576 49.432,89.976 50.957,89.976 50.957,94.446 52.682,94.446 52.682,95.646 55.982,95.646 55.982,94.446 57.707,94.446 57.707,88.176 58.532,88.176 58.532,85.376 57.707,85.376 57.707,82.146 50.957,82.146 50.957,85.376 49.432,85.376 49.432,84.775 50.232,84.775 50.232,81.676 49.432,81.676 49.432,80.676" style="fill:none;stroke-width:0.050000mm;stroke:black"/>
<polygon points="309.276,80.676 309.276,81.676 308.476,81.676 308.476,84.775 309.276,84.775 309.276,90.576 308.476,90.576 308.476,93.676 309.276,93.676 309.276,94.676 323.276,94.676 323.276,93.676 324.076,93.676 324.076,90.576 323.276,90.576 323.276,84.775 324.076,84.775 324.076,81.676 323.276,81.676 323.276,80.676" style="fill:none;stroke-width:0.050000mm;stroke:black"/>
<polygon points="290.226,80.676 290.226,81.676 289.426,81.676 289.426,84.775 290.226,84.775 290.226,90.576 289.426,90.576 289.426,93.676 290.226,93.676 290.226,94.676 304.226,94.676 304.226,93.676 305.026,93.676 305.026,90.576 304.226,90.576 304.226,84.775 305.026,84.775 305.026,81.676 304.226,81.676 304.226,80.676" style="fill:none;stroke-width:0.050000mm;stroke:black"/>
<polygon points="264.032,80.676 264.032,81.676 263.232,81.676 263.232,84.775 264.032,84.775 264.032,90.576 263.232,90.576 263.232,93.676 264.032,93.676 264.032,94.676 278.032,94.676 278.032,93.676 278.832,93.676 278.832,90.576 278.032,90.576 278.032,84.775 278.832,84.775 278.832,81.676 278.032,81.676 278.032,80.676" style="fill:none;stroke-width:0.050000mm;stroke:black"/>
<polygon points="237.838,80.676 237.838,81.676 237.038,81.676 237.038,84.775 237.838,84.775 237.838,90.576 237.038,90.576 237.038,93.676 237.838,93.676 237.838,94.676 251.838,94.676 251.838,93.676 252.638,93.676 252.638,90.576 251.838,90.576 251.838,84.775 252.638,84.775 252.638,81.676 251.838,81.676 251.838,80.676" style="fill:none;stroke-width:0.050000mm;stroke:black"/>
<polygon points="218.788,80.676 218.788,81.676 217.988,81.676 217.988,84.775 218.788,84.775 218.788,90.576 217.988,90.576 217.988,93.676 218.788,93.676 218.788,94.676 232.788,94.676 232.788,93.676 233.588,93.676 233.588,90.576 232.788,90.576 232.788,84.775 233.588,84.775 233.588,81.676 232.788,81.676 232.788,80.676" style="fill:none;stroke-width:0.050000mm;stroke:black"/>
<polygon points="199.738,80.676 199.738,81.676 198.938,81.676 198.938,84.775 199.738,84.775 199.738,90.576 198.938,90.576 198.938,93.676 199.738,93.676 199.738,94.676 213.738,94.676 213.738,93.676 214.538,93.676 214.538,90.576 213.738,90.576 213.738,84.775 214.538,84.775 214.538,81.676 213.738,81.676 213.738,80.676" style="fill:none;stroke-width:0.050000mm;stroke:black"/>
<polygon points="180.688,80.676 180.688,81.676 179.888,81.676 179.888,84.775 180.688,84.775 180.688,90.576 179.888,90.576 179.888,93.676 180.688,93.676 180.688,94.676 194.688,94.676 194.688,93.676 195.488,93.676 195.488,90.576 194.688,90.576 194.688,84.775 195.488,84.775 195.488,81.676 194.688,81.676 194.688,80.676" style="fill:none;stroke-width:0.050000mm;stroke:black"/>
<polygon points="161.638,80.676 161.638,81.676 160.838,81.676 160.838,84.775 161.638,84.775 161.638,90.576 160.838,90.576 160.838,93.676 161.638,93.676 161.638,94.676 175.638,94.676 175.638,93.676 176.438,93.676 176.438,90.576 175.638,90.576 175.638,84.775 176.438,84.775 176.438,81.676 175.638,81.676 175.638,80.676" style="fill:none;stroke-width:0.050000mm;stroke:black"/>
<polygon points="142.588,80.676 142.588,81.676 141.788,81.676 141.788,84.775 142.588,84.775 142.588,90.576 141.788,90.576 141.788,93.676 142.588,93.676 142.588,94.676 156.588,94.676 156.588,93.676 157.388,93.676 157.388,90.576 156.588,90.576 156.588,84.775 157.388,84.775 157.388,81.676 156.588,81.676 156.588,80.676" style="fill:none;stroke-width:0.050000mm;stroke:black"/>
<polygon points="123.538,80.676 123.538,81.676 122.738,81.676 122.738,84.775 123.538,84.775 123.538,90.576 122.738,90.576 122.738,93.676 123.538,93.676 123.538,94.676 137.538,94.676 137.538,93.676 138.338,93.676 138.338,90.576 137.538,90.576 137.538,84.775 138.338,84.775 138.338,81.676 137.538,81.676 137.538,80.676" style="fill:none;stroke-width:0.050000mm;stroke:black"/>
<polygon points="104.488,80.676 104.488,81.676 103.688,81.676 103.688,84.775 104.488,84.775 104.488,90.576 103.688,90.576 103.688,93.676 104.488,93.676 104.488,94.676 118.488,94.676 118.488,93.676 119.288,93.676 119.288,90.576 118.488,90.576 118.488,84.775 119.288,84.775 119.288,81.676 118.488,81.676 118.488,80.676" style="fill:none;stroke-width:0.050000mm;stroke:black"/>
<polygon points="85.438,80.676 85.438,81.676 84.638,81.676 84.638,84.775 85.438,84.775 85.438,90.576 84.638,90.576 84.638,93.676 85.438,93.676 85.438,94.676 99.438,94.676 99.438,93.676 100.238,93.676 100.238,90.576 99.438,90.576 99.438,84.775 100.238,84.775 100.238,81.676 99.438,81.676 99.438,80.676" style="fill:none;stroke-width:0.050000mm;stroke:black"/>
<polygon points="66.388,80.676 66.388,81.676 65.588,81.676 65.588,84.775 66.388,84.775 66.388,90.576 65.588,90.576 65.588,93.676 66.388,93.676 66.388,94.676 80.388,94.676 80.388,93.676 81.188,93.676 81.188,90.576 80.388,90.576 80.388,84.775 81.188,84.775 81.188,81.676 80.388,81.676 80.388,80.676" style="fill:none;stroke-width:0.050000mm;stroke:black"/>
<polygon points="278.319,61.626 278.319,62.626 277.519,62.626 277.519,65.726 278.319,65.726 278.319,66.326 276.794,66.326 276.794,63.096 270.044,63.096 270.044,66.326 269.219,66.326 269.219,69.126 270.044,69.126 270.044,75.396 271.769,75.396 271.769,76.596 275.069,76.596 275.069,75.396 276.794,75.396 276.794,70.926 278.319,70.926 278.319,71.526 277.519,71.526 277.519,74.626 278.319,74.626 278.319,75.626 292.319,75.626 292.319,74.626 293.119,74.626 293.119,71.526 292.319,71.526 292.319,70.926 293.844,70.926 293.844,75.396 295.569,75.396 295.569,76.596 298.869,76.596 298.869,75.396 300.594,75.396 300.594,69.126 301.419,69.126 301.419,66.326 300.594,66.326 300.594,63.096 293.844,63.096 293.844,66.326 292.319,66.326 292.319,65.726 293.119,65.726 293.119,62.626 292.319,62.626 292.319,61.626" style="fill:none;stroke-width:0.050000mm;stroke:black"/>
<polygon points="309.276,61.626 309.276,62.626 308.476,62.626 308.476,65.726 309.276,65.726 309.276,71.526 308.476,71.526 308.476,74.626 309.276,74.626 309.276,75.626 323.276,75.626 323.276,74.626 324.076,74.626 324.076,71.526 323.276,71.526 323.276,65.726 324.076,65.726 324.076,62.626 323.276,62.626 323.276,61.626" style="fill:none;stroke-width:0.050000mm;stroke:black"/>
<polygon points="247.363,61.626 247.363,62.626 246.563,62.626 246.563,65.726 247.363,65.726 247.363,71.526 246.563,71.526 246.563,74.626 247.363,74.626 247.363,75.626 261.363,75.626 261.363,74.626 262.163,74.626 262.163,71.526 261.363,71.526 261.363,65.726 262.163,65.726 262.163,62.626 261.363,62.626 261.363,61.626" style="fill:none;stroke-width:0.050000mm;stroke:black"/>
<polygon points="228.313,61.626 228.313,62.626 227.513,62.626 227.513,65.726 228.313,65.726 228.313,71.526 227.513,71.526 227.513,74.626 228.313,74.626 228.313,75.626 242.313,75.626 242.313,74.626 243.113,74.626 243.113,71.526 242.313,71.526 242.313,65.726 243.113,65.726 243.113,62.626 242.313,62.626 242.313,61.626" style="fill:none;stroke-width:0.050000mm;stroke:black"/>
<polygon points="209.263,61.626 209.263,62.626 208.463,62.626 208.463,65.726 209.263,65.726 209.263,71.526 208.463,71.526 208.463,74.626 209.263,74.626 209.263,75.626 223.263,75.626 223.263,74.626 224.063,74.626 224.063,71.526 223.263,71.526 223.263,65.726 224.063,65.726 224.063,62.626 223.263,62.626 223.263,61.626" style="fill:none;stroke-width:0.050000mm;stroke:black"/>
<polygon points="190.213,61.626 190.213,62.626 189.413,62.626 189.413,65.726 190.213,65.726 190.213,71.526 189.413,71.526 189.413,74.626 190.213,74.626 190.213,75.626 204.213,75.626 204.213,74.626 205.013,74.626 205.013,71.526 204.213,71.526 204.213,65.726 205.013,65.726 205.013,62.626 204.213,62.626 204.213,61.626" style="fill:none;stroke-width:0.050000mm;stroke:black"/>
<polygon points="171.163,61.626 171.163,62.626 170.363,62.626 170.363,65.726 171.163,65.726 171.163,71.526 170.363,71.526 170.363,74.626 171.163,74.626 171.163,75.626 185.163,75.626 185.163,74.626 185.963,74.626 185.963,71.526 185.163,71.526 185.163,65.726 185.963,65.726 185.963,62.626 185.163,62.626 185.163,61.626" style="fill:none;stroke-width:0.050000mm;stroke:black"/>
<polygon points="152.113,61.626 152.113,62.626 151.313,62.626 151.313,65.726 152.113,65.726 152.113,71.526 151.313,71.526 151.313,74.626 152.113,74.626 152.113,75.626 166.113,75.626 166.113,74.626 166.913,74.626 166.913,71.526 166.113,71.526 166.113,65.726 166.913,65.726 166.913,62.626 166.113,62.626 166.113,61.626" style="fill:none;stroke-width:0.050000mm;stroke:black"/>
<polygon points="133.063,61.626 133.063,62.626 132.263,62.626 132.263,65.726 133.063,65.726 133.063,71.526 132.263,71.526 132.263,74.626 133.063,74.626 133.063,75.626 147.063,75.626 147.063,74.626 147.863,74.626 147.863,71.526 147.063,71.526 147.063,65.726 147.863,65.726 147.863,62.626 147.063,62.626 147.063,61.626" style="fill:none;stroke-width:0.050000mm;stroke:black"/>
<polygon points="114.013,61.626 114.013,62.626 113.213,62.626 113.213,65.726 114.013,65.726 114.013,71.526 113.213,71.526 113.213,74.626 114.013,74.626 114.013,75.626 128.013,75.626 128.013,74.626 128.813,74.626 128.813,71.526 128.013,71.526 128.013,65.726 128.813,65.726 128.813,62.626 128.013,62.626 128.013,61.626" style="fill:none;stroke-width:0.050000mm;stroke:black"/>
<polygon points="94.963,61.626 94.963,62.626 94.163,62.626 94.163,65.726 94.963,65.726 94.963,71.526 94.163,71.526 94.163,74.626 94.963,74.626 94.963,75.626 108.963,75.626 108.963,74.626 109.763,74.626 109.763,71.526 108.963,71.526 108.963,65.726 109.763,65.726 109.763,62.626 108.963,62.626 108.963,61.626" style="fill:none;stroke-width:0.050000mm;stroke:black"/>
<polygon points="75.913,61.626 75.913,62.626 75.113,62.626 75.113,65.726 75.913,65.726 75.913,71.526 75.113,71.526 75.113,74.626 75.913,74.626 75.913,75.626 89.913,75.626 89.913,74.626 90.713,74.626 90.713,71.526 89.913,71.526 89.913,65.726 90.713,65.726 90.713,62.626 89.913,62.626 89.913,61.626" style="fill:none;stroke-width:0.050000mm;stroke:black"/>
<polygon points="56.863,61.626 56.863,62.626 56.063,62.626 56.063,65.726 56.863,65.726 56.863,71.526 56.063,71.526 56.063,74.626 56.863,74.626 56.863,75.626 70.863,75.626 70.863,74.626 71.663,74.626 71.663,71.526 70.863,71.526 70.863,65.726 71.663,65.726 71.663,62.626 70.863,62.626 70.863,61.626" style="fill:none;stroke-width:0.050000mm;stroke:black"/>
<polygon points="30.669,61.626 30.669,62.626 29.869,62.626 29.869,65.726 30.669,65.726 30.669,71.526 29.869,71.526 29.869,74.626 30.669,74.626 30.669,75.626 44.669,75.626 44.669,74.626 45.469,74.626 45.469,71.526 44.669,71.526 44.669,65.726 45.469,65.726 45.469,62.626 44.669,62.626 44.669,61.626" style="fill:none;stroke-width:0.050000mm;stroke:black"/>
<polygon points="9.506,67.104 9.060,67.332 8.706,67.686 8.479,68.132 8.400,68.626 8.479,69.120 8.706,69.566 9.060,69.920 9.506,70.148 10.000,70.226 10.495,70.148 10.941,69.920 11.295,69.566 11.522,69.120 11.600,68.626 11.522,68.132 11.295,67.686 10.941,67.332 10.495,67.104 10.000,67.026" style="fill:none;stroke-width:0.050000mm;stroke:black"/>
<polygon points="336.307,67.104 335.861,67.332 335.507,67.686 335.280,68.132 335.202,68.626 335.280,69.120 335.507,69.566 335.861,69.920 336.307,70.148 336.802,70.226 337.296,70.148 337.742,69.920 338.096,69.566 338.323,69.120 338.402,68.626 338.323,68.132 338.096,67.686 337.742,67.332 337.296,67.104 336.802,67.026" style="fill:none;stroke-width:0.050000mm;stroke:black"/>
<polygon points="309.276,42.576 309.276,43.576 308.476,43.576 308.476,46.676 309.276,46.676 309.276,52.476 308.476,52.476 308.476,55.576 309.276,55.576 309.276,56.576 323.276,56.576 323.276,55.576 324.076,55.576 324.076,52.476 323.276,52.476 323.276,46.676 324.076,46.676 324.076,43.576 323.276,43.576 323.276,42.576" style="fill:none;stroke-width:0.050000mm;stroke:black"/>
<polygon points="285.463,42.576 285.463,43.576 284.663,43.576 284.663,46.676 285.463,46.676 285.463,52.476 284.663,52.476 284.663,55.576 285.463,55.576 285.463,56.576 299.463,56.576 299.463,55.576 300.263,55.576 300.263,52.476 299.463,52.476 299.463,46.676 300.263,46.676 300.263,43.576 299.463,43.576 299.463,42.576" style="fill:none;stroke-width:0.050000mm;stroke:black"/>
<polygon points="261.650,42.576 261.650,43.576 260.851,43.576 260.851,46.676 261.650,46.676 261.650,52.476 260.851,52.476 260.851,55.576 261.650,55.576 261.650,56.576 275.651,56.576 275.651,55.576 276.451,55.576 276.451,52.476 275.651,52.476 275.651,46.676 276.451,46.676 276.451,43.576 275.651,43.576 275.651,42.576" style="fill:none;stroke-width:0.050000mm;stroke:black"/>
<polygon points="242.601,42.576 242.601,43.576 241.801,43.576 241.801,46.676 242.601,46.676 242.601,52.476 241.801,52.476 241.801,55.576 242.601,55.576 242.601,56.576 256.601,56.576 256.601,55.576 257.400,55.576 257.400,52.476 256.601,52.476 256.601,46.676 257.400,46.676 257.400,43.576 256.601,43.576 256.601,42.576" style="fill:none;stroke-width:0.050000mm;stroke:black"/>
<polygon points="223.551,42.576 223.551,43.576 222.751,43.576 222.751,46.676 223.551,46.676 223.551,52.476 222.751,52.476 222.751,55.576 223.551,55.576 223.551,56.576 237.551,56.576 237.551,55.576 238.351,55.576 238.351,52.476 237.551,52.476 237.551,46.676 238.351,46.676 238.351,43.576 237.551,43.576 237.551,42.576" style="fill:none;stroke-width:0.050000mm;stroke:black"/>
<polygon points="204.501,42.576 204.501,43.576 203.701,43.576 203.701,46.676 204.501,46.676 204.501,52.476 203.701,52.476 203.701,55.576 204.501,55.576 204.501,56.576 218.501,56.576 218.501,55.576 219.301,55.576 219.301,52.476 218.501,52.476 218.501,46.676 219.301,46.676 219.301,43.576 218.501,43.576 218.501,42.576" style="fill:none;stroke-width:0.050000mm;stroke:black"/>
<polygon points="185.451,42.576 185.451,43.576 184.651,43.576 184.651,46.676 185.451,46.676 185.451,52.476 184.651,52.476 184.651,55.576 185.451,55.576 185.451,56.576 199.451,56.576 199.451,55.576 200.251,55.576 200.251,52.476 199.451,52.476 199.451,46.676 200.251,46.676 200.251,43.576 199.451,43.576 199.451,42.576" style="fill:none;stroke-width:0.050000mm;stroke:black"/>
<polygon points="166.401,42.576 166.401,43.576 165.601,43.576 165.601,46.676 166.401,46.676 166.401,52.476 165.601,52.476 165.601,55.576 166.401,55.576 166.401,56.576 180.401,56.576 180.401,55.576 181.201,55.576 181.201,52.476 180.401,52.476 180.401,46.676 181.201,46.676 181.201,43.576 180.401,43.576 180.401,42.576" style="fill:none;stroke-width:0.050000mm;stroke:black"/>
<polygon points="147.351,42.576 147.351,43.576 146.551,43.576 146.551,46.676 147.351,46.676 147.351,52.476 146.551,52.476 146.551,55.576 147.351,55.576 147.351,56.576 161.351,56.576 161.351,55.576 162.151,55.576 162.151,52.476 161.351,52.476 161.351,46.676 162.151,46.676 162.151,43.576 161.351,43.576 161.351,42.576" style="fill:none;stroke-width:0.050000mm;stroke:black"/>
<polygon points="128.301,42.576 128.301,43.576 127.501,43.576 127.501,46.676 128.301,46.676 128.301,52.476 127.501,52.476 127.501,55.576 128.301,55.576 128.301,56.576 142.301,56.576 142.301,55.576 143.101,55.576 143.101,52.476 142.301,52.476 142.301,46.676 143.101,46.676 143.101,43.576 142.301,43.576 142.301,42.576" style="fill:none;stroke-width:0.050000mm;stroke:black"/>
<polygon points="109.251,42.576 109.251,43.576 108.451,43.576 108.451,46.676 109.251,46.676 109.251,52.476 108.451,52.476 108.451,55.576 109.251,55.576 109.251,56.576 123.251,56.576 123.251,55.576 124.051,55.576 124.051,52.476 123.251,52.476 123.251,46.676 124.051,46.676 124.051,43.576 123.251,43.576 123.251,42.576" style="fill:none;stroke-width:0.050000mm;stroke:black"/>
<polygon points="90.201,42.576 90.201,43.576 89.401,43.576 89.401,46.676 90.201,46.676 90.201,52.476 89.401,52.476 89.401,55.576 90.201,55.576 90.201,56.576 104.201,56.576 104.201,55.576 105.001,55.576 105.001,52.476 104.201,52.476 104.201,46.676 105.001,46.676 105.001,43.576 104.201,43.576 104.201,42.576" style="fill:none;stroke-width:0.050000mm;stroke:black"/>
<polygon points="71.151,42.576 71.151,43.576 70.351,43.576 70.351,46.676 71.151,46.676 71.151,52.476 70.351,52.476 70.351,55.576 71.151,55.576 71.151,56.576 85.151,56.576 85.151,55.576 85.951,55.576 85.951,52.476 85.151,52.476 85.151,46.676 85.951,46.676 85.951,43.576 85.151,43.576 85.151,42.576" style="fill:none;stroke-width:0.050000mm;stroke:black"/>
<polygon points="52.101,42.576 52.101,43.576 51.301,43.576 51.301,46.676 52.101,46.676 52.101,52.476 51.301,52.476 51.301,55.576 52.101,55.576 52.101,56.576 66.101,56.576 66.101,55.576 66.901,55.576 66.901,52.476 66.101,52.476 66.101,46.676 66.901,46.676 66.901,43.576 66.101,43.576 66.101,42.576" style="fill:none;stroke-width:0.050000mm;stroke:black"/>
<polygon points="28.288,42.576 28.288,43.576 27.488,43.576 27.488,46.676 28.288,46.676 28.288,52.476 27.488,52.476 27.488,55.576 28.288,55.576 28.288,56.576 42.288,56.576 42.288,55.576 43.088,55.576 43.088,52.476 42.288,52.476 42.288,46.676 43.088,46.676 43.088,43.576 42.288,43.576 42.288,42.576" style="fill:none;stroke-width:0.050000mm;stroke:black"/>
<polygon points="280.701,23.526 280.701,24.526 279.901,24.526 279.901,27.626 280.701,27.626 280.701,28.225 279.176,28.225 279.176,24.995 272.426,24.995 272.426,28.225 271.601,28.225 271.601,31.026 272.426,31.026 272.426,37.296 274.151,37.296 274.151,38.496 277.451,38.496 277.451,37.296 279.176,37.296 279.176,32.825 280.701,32.825 280.701,33.426 279.901,33.426 279.901,36.526 280.701,36.526 280.701,37.526 294.701,37.526 294.701,36.526 295.501,36.526 295.501,33.426 294.701,33.426 294.701,32.825 296.226,32.825 296.226,37.296 297.951,37.296 297.951,38.496 301.251,38.496 301.251,37.296 302.976,37.296 302.976,31.026 303.801,31.026 303.801,28.225 302.976,28.225 302.976,24.995 296.226,24.995 296.226,28.225 294.701,28.225 294.701,27.626 295.501,27.626 295.501,24.526 294.701,24.526 294.701,23.526" style="fill:none;stroke-width:0.050000mm;stroke:black"/>
<polygon points="309.276,23.526 309.276,24.526 308.476,24.526 308.476,27.626 309.276,27.626 309.276,33.426 308.476,33.426 308.476,36.526 309.276,36.526 309.276,37.526 323.276,37.526 323.276,36.526 324.076,36.526 324.076,33.426 323.276,33.426 323.276,27.626 324.076,27.626 324.076,24.526 323.276,24.526 323.276,23.526" style="fill:none;stroke-width:0.050000mm;stroke:black"/>
<polygon points="252.126,23.526 252.126,24.526 251.326,24.526 251.326,27.626 252.126,27.626 252.126,33.426 251.326,33.426 251.326,36.526 252.126,36.526 252.126,37.526 266.126,37.526 266.126,36.526 266.926,36.526 266.926,33.426 266.126,33.426 266.126,27.626 266.926,27.626 266.926,24.526 266.126,24.526 266.126,23.526" style="fill:none;stroke-width:0.050000mm;stroke:black"/>
<polygon points="233.076,23.526 233.076,24.526 232.276,24.526 232.276,27.626 233.076,27.626 233.076,33.426 232.276,33.426 232.276,36.526 233.076,36.526 233.076,37.526 247.076,37.526 247.076,36.526 247.876,36.526 247.876,33.426 247.076,33.426 247.076,27.626 247.876,27.626 247.876,24.526 247.076,24.526 247.076,23.526" style="fill:none;stroke-width:0.050000mm;stroke:black"/>
<polygon points="214.026,23.526 214.026,24.526 213.226,24.526 213.226,27.626 214.026,27.626 214.026,33.426 213.226,33.426 213.226,36.526 214.026,36.526 214.026,37.526 228.026,37.526 228.026,36.526 228.826,36.526 228.826,33.426 228.026,33.426 228.026,27.626 228.826,27.626 228.826,24.526 228.026,24.526 228.026,23.526" style="fill:none;stroke-width:0.050000mm;stroke:black"/>
<polygon points="194.976,23.526 194.976,24.526 194.176,24.526 194.176,27.626 194.976,27.626 194.976,33.426 194.176,33.426 194.176,36.526 194.976,36.526 194.976,37.526 208.976,37.526 208.976,36.526 209.776,36.526 209.776,33.426 208.976,33.426 208.976,27.626 209.776,27.626 209.776,24.526 208.976,24.526 208.976,23.526" style="fill:none;stroke-width:0.050000mm;stroke:black"/>
<polygon points="175.926,23.526 175.926,24.526 175.126,24.526 175.126,27.626 175.926,27.626 175.926,33.426 175.126,33.426 175.126,36.526 175.926,36.526 175.926,37.526 189.926,37.526 189.926,36.526 190.726,36.526 190.726,33.426 189.926,33.426 189.926,27.626 190.726,27.626 190.726,24.526 189.926,24.526 189.926,23.526" style="fill:none;stroke-width:0.050000mm;stroke:black"/>
<polygon points="156.876,23.526 156.876,24.526 156.076,24.526 156.076,27.626 156.876,27.626 156.876,33.426 156.076,33.426 156.076,36.526 156.876,36.526 156.876,37.526 170.876,37.526 170.876,36.526 171.676,36.526 171.676,33.426 170.876,33.426 170.876,27.626 171.676,27.626 171.676,24.526 170.876,24.526 170.876,23.526" style="fill:none;stroke-width:0.050000mm;stroke:black"/>
<polygon points="137.826,23.526 137.826,24.526 137.025,24.526 137.025,27.626 137.826,27.626 137.826,33.426 137.025,33.426 137.025,36.526 137.826,36.526 137.826,37.526 151.826,37.526 151.826,36.526 152.626,36.526 152.626,33.426 151.826,33.426 151.826,27.626 152.626,27.626 152.626,24.526 151.826,24.526 151.826,23.526" style="fill:none;stroke-width:0.050000mm;stroke:black"/>
<polygon points="118.775,23.526 118.775,24.526 117.976,24.526 117.976,27.626 118.775,27.626 118.775,33.426 117.976,33.426 117.976,36.526 118.775,36.526 118.775,37.526 132.775,37.526 132.775,36.526 133.576,36.526 133.576,33.426 132.775,33.426 132.775,27.626 133.576,27.626 133.576,24.526 132.775,24.526 132.775,23.526" style="fill:none;stroke-width:0.050000mm;stroke:black"/>
<polygon points="99.726,23.526 99.726,24.526 98.926,24.526 98.926,27.626 99.726,27.626 99.726,33.426 98.926,33.426 98.926,36.526 99.726,36.526 99.726,37.526 113.726,37.526 113.726,36.526 114.525,36.526 114.525,33.426 113.726,33.426 113.726,27.626 114.525,27.626 114.525,24.526 113.726,24.526 113.726,23.526" style="fill:none;stroke-width:0.050000mm;stroke:black"/>
<polygon points="80.676,23.526 80.676,24.526 79.876,24.526 79.876,27.626 80.676,27.626 80.676,33.426 79.876,33.426 79.876,36.526 80.676,36.526 80.676,37.526 94.676,37.526 94.676,36.526 95.476,36.526 95.476,33.426 94.676,33.426 94.676,27.626 95.476,27.626 95.476,24.526 94.676,24.526 94.676,23.526" style="fill:none;stroke-width:0.050000mm;stroke:black"/>
<polygon points="61.626,23.526 61.626,24.526 60.826,24.526 60.826,27.626 61.626,27.626 61.626,33.426 60.826,33.426 60.826,36.526 61.626,36.526 61.626,37.526 75.626,37.526 75.626,36.526 76.426,36.526 76.426,33.426 75.626,33.426 75.626,27.626 76.426,27.626 76.426,24.526 75.626,24.526 75.626,23.526" style="fill:none;stroke-width:0.050000mm;stroke:black"/>
<polygon points="42.576,23.526 42.576,24.526 41.776,24.526 41.776,27.626 42.576,27.626 42.576,33.426 41.776,33.426 41.776,36.526 42.576,36.526 42.576,37.526 56.576,37.526 56.576,36.526 57.376,36.526 57.376,33.426 56.576,33.426 56.576,27.626 57.376,27.626 57.376,24.526 56.576,24.526 56.576,23.526" style="fill:none;stroke-width:0.050000mm;stroke:black"/>
<polygon points="23.526,23.526 23.526,24.526 22.725,24.526 22.725,27.626 23.526,27.626 23.526,33.426 22.725,33.426 22.725,36.526 23.526,36.526 23.526,37.526 37.526,37.526 37.526,36.526 38.325,36.526 38.325,33.426 37.526,33.426 37.526,27.626 38.325,27.626 38.325,24.526 37.526,24.526 37.526,23.526" style="fill:none;stroke-width:0.050000mm;stroke:black"/>
<polygon points="9.506,8.479 9.060,8.706 8.706,9.060 8.479,9.506 8.400,10.001 8.479,10.495 8.706,10.941 9.060,11.295 9.506,11.522 10.000,11.601 10.495,11.522 10.941,11.295 11.295,10.941 11.522,10.495 11.600,10.001 11.522,9.506 11.295,9.060 10.941,8.706 10.495,8.479 10.000,8.401" style="fill:none;stroke-width:0.050000mm;stroke:black"/>
<polygon points="336.307,8.479 335.861,8.706 335.507,9.060 335.280,9.506 335.202,10.001 335.280,10.495 335.507,10.941 335.861,11.295 336.307,11.522 336.802,11.601 337.296,11.522 337.742,11.295 338.096,10.941 338.323,10.495 338.402,10.001 338.323,9.506 338.096,9.060 337.742,8.706 337.296,8.479 336.802,8.401" style="fill:none;stroke-width:0.050000mm;stroke:black"/>
<polygon points="227.373,8.479 226.927,8.706 226.573,9.060 226.346,9.506 226.268,10.001 226.346,10.495 226.573,10.941 226.927,11.295 227.373,11.522 227.868,11.601 228.362,11.522 228.808,11.295 229.162,10.941 229.390,10.495 229.468,10.001 229.390,9.506 229.162,9.060 228.808,8.706 228.362,8.479 227.868,8.401" style="fill:none;stroke-width:0.050000mm;stroke:black"/>
<polygon points="118.440,8.479 117.994,8.706 117.640,9.060 117.412,9.506 117.334,10.001 117.412,10.495 117.640,10.941 117.994,11.295 118.440,11.522 118.934,11.601 119.429,11.522 119.875,11.295 120.229,10.941 120.456,10.495 120.534,10.001 120.456,9.506 120.229,9.060 119.875,8.706 119.429,8.479 118.934,8.401" style="fill:none;stroke-width:0.050000mm;stroke:black"/>
</svg>
