<?xml version="1.0" encoding="utf-8"?>
<!-- Generator: Adobe Illustrator 24.2.2, SVG Export Plug-In . SVG Version: 6.00 Build 0)  -->
<svg version="1.1" id="Layer_1" xmlns="http://www.w3.org/2000/svg" xmlns:xlink="http://www.w3.org/1999/xlink" x="0px" y="0px"
	 viewBox="0 0 983.1 389.1" style="enable-background:new 0 0 983.1 389.1;" xml:space="preserve">
<style type="text/css">
	.st0{fill:none;stroke:#000000;stroke-width:0.4018;stroke-miterlimit:11.3386;}
</style>
<polygon class="st0" points="963.2,14.2 963.7,14.2 964.1,14.2 964.5,14.3 965,14.5 965.4,14.6 965.8,14.8 966.2,15 966.5,15.3 
	966.9,15.5 967.2,15.8 967.5,16.2 967.8,16.5 968.1,16.9 968.3,17.3 968.5,17.7 968.6,18.1 968.7,18.5 968.8,19 968.9,19.4 
	968.9,19.8 968.9,369.2 968.9,369.7 968.8,370.1 968.7,370.5 968.6,371 968.5,371.4 968.3,371.8 968.1,372.2 967.8,372.5 
	967.5,372.9 967.2,373.2 966.9,373.5 966.5,373.8 966.2,374.1 965.8,374.3 965.4,374.5 965,374.6 964.5,374.7 964.1,374.8 
	963.7,374.9 963.2,374.9 19.8,374.9 19.4,374.9 19,374.8 18.5,374.7 18.1,374.6 17.7,374.5 17.3,374.3 16.9,374.1 16.5,373.8 
	16.2,373.5 15.8,373.2 15.5,372.9 15.3,372.5 15,372.2 14.8,371.8 14.6,371.4 14.5,371 14.3,370.5 14.2,370.1 14.2,369.7 
	14.2,369.2 14.2,19.8 14.2,19.4 14.2,19 14.3,18.5 14.5,18.1 14.6,17.7 14.8,17.3 15,16.9 15.3,16.5 15.5,16.2 15.8,15.8 16.2,15.5 
	16.5,15.3 16.9,15 17.3,14.8 17.7,14.6 18.1,14.5 18.5,14.3 19,14.2 19.4,14.2 19.8,14.2 "/>
<polygon class="st0" points="26.9,356.4 25.7,357 24.7,358 24,359.3 23.8,360.7 24,362.1 24.7,363.4 25.7,364.4 26.9,365 
	28.3,365.2 29.7,365 31,364.4 32,363.4 32.7,362.1 32.9,360.7 32.7,359.3 32,358 31,357 29.7,356.4 28.3,356.2 "/>
<polygon class="st0" points="335.7,356.4 334.5,357 333.5,358 332.8,359.3 332.6,360.7 332.8,362.1 333.5,363.4 334.5,364.4 
	335.7,365 337.1,365.2 338.5,365 339.8,364.4 340.8,363.4 341.5,362.1 341.7,360.7 341.5,359.3 340.8,358 339.8,357 338.5,356.4 
	337.1,356.2 "/>
<polygon class="st0" points="644.5,356.4 643.3,357 642.3,358 641.6,359.3 641.4,360.7 641.6,362.1 642.3,363.4 643.3,364.4 
	644.5,365 645.9,365.2 647.3,365 648.6,364.4 649.6,363.4 650.2,362.1 650.5,360.7 650.2,359.3 649.6,358 648.6,357 647.3,356.4 
	645.9,356.2 "/>
<polygon class="st0" points="953.3,356.4 952,357 951,358 950.4,359.3 950.2,360.7 950.4,362.1 951,363.4 952,364.4 953.3,365 
	954.7,365.2 956.1,365 957.4,364.4 958.4,363.4 959,362.1 959.2,360.7 959,359.3 958.4,358 957.4,357 956.1,356.4 954.7,356.2 "/>
<polygon class="st0" points="26.9,190.2 25.7,190.9 24.7,191.9 24,193.1 23.8,194.5 24,195.9 24.7,197.2 25.7,198.2 26.9,198.8 
	28.3,199.1 29.7,198.8 31,198.2 32,197.2 32.7,195.9 32.9,194.5 32.7,193.1 32,191.9 31,190.9 29.7,190.2 28.3,190 "/>
<polygon class="st0" points="953.3,190.2 952,190.9 951,191.9 950.4,193.1 950.2,194.5 950.4,195.9 951,197.2 952,198.2 
	953.3,198.8 954.7,199.1 956.1,198.8 957.4,198.2 958.4,197.2 959,195.9 959.2,194.5 959,193.1 958.4,191.9 957.4,190.9 
	956.1,190.2 954.7,190 "/>
<polygon class="st0" points="26.9,24 25.7,24.7 24.7,25.7 24,26.9 23.8,28.3 24,29.7 24.7,31 25.7,32 26.9,32.7 28.3,32.9 
	29.7,32.7 31,32 32,31 32.7,29.7 32.9,28.3 32.7,26.9 32,25.7 31,24.7 29.7,24 28.3,23.8 "/>
<polygon class="st0" points="953.3,24 952,24.7 951,25.7 950.4,26.9 950.2,28.3 950.4,29.7 951,31 952,32 953.3,32.7 954.7,32.9 
	956.1,32.7 957.4,32 958.4,31 959,29.7 959.2,28.3 959,26.9 958.4,25.7 957.4,24.7 956.1,24 954.7,23.8 "/>
<polygon class="st0" points="644.5,24 643.3,24.7 642.3,25.7 641.6,26.9 641.4,28.3 641.6,29.7 642.3,31 643.3,32 644.5,32.7 
	645.9,32.9 647.3,32.7 648.6,32 649.6,31 650.2,29.7 650.5,28.3 650.2,26.9 649.6,25.7 648.6,24.7 647.3,24 645.9,23.8 "/>
<polygon class="st0" points="335.7,24 334.5,24.7 333.5,25.7 332.8,26.9 332.6,28.3 332.8,29.7 333.5,31 334.5,32 335.7,32.7 
	337.1,32.9 338.5,32.7 339.8,32 340.8,31 341.5,29.7 341.7,28.3 341.5,26.9 340.8,25.7 339.8,24.7 338.5,24 337.1,23.8 "/>
</svg>
