  0
SECTION
  2
HEADER
  9
$ACADVER
  1
AC1009
  9
$EXTMIN
 10
0.0
 20
0.0
 30
0.0
  9
$EXTMAX
 10
1000.0
 20
1000.0
 30
0.0
  9
$FILLMODE
 70
 0
  9
$SPLFRAME
 70
 1
  0
ENDSEC
  0
SECTION
  2
TABLES
  0
TABLE
  2
LAYER
 70
1
  0
LAYER
  2
0
 70
     0
 62
     7
  6
CONTINUOUS
  0
ENDTAB
  0
ENDSEC
  0
SECTION
  2
ENTITIES
  0
LINE
  8
0
 62
     0
 10
327.053
 20
119.49
 30
0.0
 11
327.208
 21
119.472
 31
0.0
  0
LINE
  8
0
 62
     0
 10
327.208
 20
119.472
 30
0.0
 11
327.363
 21
119.441
 31
0.0
  0
LINE
  8
0
 62
     0
 10
327.363
 20
119.441
 30
0.0
 11
327.514
 21
119.399
 31
0.0
  0
LINE
  8
0
 62
     0
 10
327.514
 20
119.399
 30
0.0
 11
327.662
 21
119.344
 31
0.0
  0
LINE
  8
0
 62
     0
 10
327.662
 20
119.344
 30
0.0
 11
327.804
 21
119.279
 31
0.0
  0
LINE
  8
0
 62
     0
 10
327.804
 20
119.279
 30
0.0
 11
327.94
 21
119.202
 31
0.0
  0
LINE
  8
0
 62
     0
 10
327.94
 20
119.202
 30
0.0
 11
328.071
 21
119.115
 31
0.0
  0
LINE
  8
0
 62
     0
 10
328.071
 20
119.115
 30
0.0
 11
328.195
 21
119.017
 31
0.0
  0
LINE
  8
0
 62
     0
 10
328.195
 20
119.017
 30
0.0
 11
328.311
 21
118.911
 31
0.0
  0
LINE
  8
0
 62
     0
 10
328.311
 20
118.911
 30
0.0
 11
328.417
 21
118.795
 31
0.0
  0
LINE
  8
0
 62
     0
 10
328.417
 20
118.795
 30
0.0
 11
328.515
 21
118.673
 31
0.0
  0
LINE
  8
0
 62
     0
 10
328.515
 20
118.673
 30
0.0
 11
328.602
 21
118.541
 31
0.0
  0
LINE
  8
0
 62
     0
 10
328.602
 20
118.541
 30
0.0
 11
328.679
 21
118.404
 31
0.0
  0
LINE
  8
0
 62
     0
 10
328.679
 20
118.404
 30
0.0
 11
328.743
 21
118.262
 31
0.0
  0
LINE
  8
0
 62
     0
 10
328.743
 20
118.262
 30
0.0
 11
328.798
 21
118.116
 31
0.0
  0
LINE
  8
0
 62
     0
 10
328.798
 20
118.116
 30
0.0
 11
328.84
 21
117.963
 31
0.0
  0
LINE
  8
0
 62
     0
 10
328.84
 20
117.963
 30
0.0
 11
328.871
 21
117.81
 31
0.0
  0
LINE
  8
0
 62
     0
 10
328.871
 20
117.81
 30
0.0
 11
328.889
 21
117.653
 31
0.0
  0
LINE
  8
0
 62
     0
 10
328.889
 20
117.653
 30
0.0
 11
328.896
 21
117.497
 31
0.0
  0
LINE
  8
0
 62
     0
 10
328.896
 20
117.497
 30
0.0
 11
328.896
 21
2.2462
 31
0.0
  0
LINE
  8
0
 62
     0
 10
328.896
 20
2.2462
 30
0.0
 11
328.889
 21
2.08911
 31
0.0
  0
LINE
  8
0
 62
     0
 10
328.889
 20
2.08911
 30
0.0
 11
328.871
 21
1.93339
 31
0.0
  0
LINE
  8
0
 62
     0
 10
328.871
 20
1.93339
 30
0.0
 11
328.84
 21
1.77905
 31
0.0
  0
LINE
  8
0
 62
     0
 10
328.84
 20
1.77905
 30
0.0
 11
328.798
 21
1.62746
 31
0.0
  0
LINE
  8
0
 62
     0
 10
328.798
 20
1.62746
 30
0.0
 11
328.743
 21
1.48001
 31
0.0
  0
LINE
  8
0
 62
     0
 10
328.743
 20
1.48001
 30
0.0
 11
328.679
 21
1.33808
 31
0.0
  0
LINE
  8
0
 62
     0
 10
328.679
 20
1.33808
 30
0.0
 11
328.602
 21
1.20165
 31
0.0
  0
LINE
  8
0
 62
     0
 10
328.602
 20
1.20165
 30
0.0
 11
328.515
 21
1.07074
 31
0.0
  0
LINE
  8
0
 62
     0
 10
328.515
 20
1.07074
 30
0.0
 11
328.417
 21
0.946711
 31
0.0
  0
LINE
  8
0
 62
     0
 10
328.417
 20
0.946711
 30
0.0
 11
328.311
 21
0.830957
 31
0.0
  0
LINE
  8
0
 62
     0
 10
328.311
 20
0.830957
 30
0.0
 11
328.195
 21
0.724849
 31
0.0
  0
LINE
  8
0
 62
     0
 10
328.195
 20
0.724849
 30
0.0
 11
328.071
 21
0.627006
 31
0.0
  0
LINE
  8
0
 62
     0
 10
328.071
 20
0.627006
 30
0.0
 11
327.94
 21
0.540191
 31
0.0
  0
LINE
  8
0
 62
     0
 10
327.94
 20
0.540191
 30
0.0
 11
327.804
 21
0.463021
 31
0.0
  0
LINE
  8
0
 62
     0
 10
327.804
 20
0.463021
 30
0.0
 11
327.662
 21
0.398254
 31
0.0
  0
LINE
  8
0
 62
     0
 10
327.662
 20
0.398254
 30
0.0
 11
327.514
 21
0.343131
 31
0.0
  0
LINE
  8
0
 62
     0
 10
327.514
 20
0.343131
 30
0.0
 11
327.363
 21
0.30179
 31
0.0
  0
LINE
  8
0
 62
     0
 10
327.363
 20
0.30179
 30
0.0
 11
327.208
 21
0.270095
 31
0.0
  0
LINE
  8
0
 62
     0
 10
327.208
 20
0.270095
 30
0.0
 11
327.053
 21
0.252181
 31
0.0
  0
LINE
  8
0
 62
     0
 10
327.053
 20
0.252181
 30
0.0
 11
326.897
 21
0.246669
 31
0.0
  0
LINE
  8
0
 62
     0
 10
326.897
 20
0.246669
 30
0.0
 11
2.096
 21
0.246669
 31
0.0
  0
LINE
  8
0
 62
     0
 10
2.096
 20
0.246669
 30
0.0
 11
1.9389
 21
0.252181
 31
0.0
  0
LINE
  8
0
 62
     0
 10
1.9389
 20
0.252181
 30
0.0
 11
1.7818
 21
0.270095
 31
0.0
  0
LINE
  8
0
 62
     0
 10
1.7818
 20
0.270095
 30
0.0
 11
1.62884
 21
0.30179
 31
0.0
  0
LINE
  8
0
 62
     0
 10
1.62884
 20
0.30179
 30
0.0
 11
1.47588
 21
0.343131
 31
0.0
  0
LINE
  8
0
 62
     0
 10
1.47588
 20
0.343131
 30
0.0
 11
1.32981
 21
0.398254
 31
0.0
  0
LINE
  8
0
 62
     0
 10
1.32981
 20
0.398254
 30
0.0
 11
1.18787
 21
0.463021
 31
0.0
  0
LINE
  8
0
 62
     0
 10
1.18787
 20
0.463021
 30
0.0
 11
1.05006
 21
0.540191
 31
0.0
  0
LINE
  8
0
 62
     0
 10
1.05006
 20
0.540191
 30
0.0
 11
0.919152
 21
0.627006
 31
0.0
  0
LINE
  8
0
 62
     0
 10
0.919152
 20
0.627006
 30
0.0
 11
0.796505
 21
0.724849
 31
0.0
  0
LINE
  8
0
 62
     0
 10
0.796505
 20
0.724849
 30
0.0
 11
0.680752
 21
0.830957
 31
0.0
  0
LINE
  8
0
 62
     0
 10
0.680752
 20
0.830957
 30
0.0
 11
0.574643
 21
0.946711
 31
0.0
  0
LINE
  8
0
 62
     0
 10
0.574643
 20
0.946711
 30
0.0
 11
0.4768
 21
1.07074
 31
0.0
  0
LINE
  8
0
 62
     0
 10
0.4768
 20
1.07074
 30
0.0
 11
0.389985
 21
1.20165
 31
0.0
  0
LINE
  8
0
 62
     0
 10
0.389985
 20
1.20165
 30
0.0
 11
0.312815
 21
1.33808
 31
0.0
  0
LINE
  8
0
 62
     0
 10
0.312815
 20
1.33808
 30
0.0
 11
0.248047
 21
1.48001
 31
0.0
  0
LINE
  8
0
 62
     0
 10
0.248047
 20
1.48001
 30
0.0
 11
0.192925
 21
1.62746
 31
0.0
  0
LINE
  8
0
 62
     0
 10
0.192925
 20
1.62746
 30
0.0
 11
0.150206
 21
1.77905
 31
0.0
  0
LINE
  8
0
 62
     0
 10
0.150206
 20
1.77905
 30
0.0
 11
0.119889
 21
1.93339
 31
0.0
  0
LINE
  8
0
 62
     0
 10
0.119889
 20
1.93339
 30
0.0
 11
0.101975
 21
2.08911
 31
0.0
  0
LINE
  8
0
 62
     0
 10
0.101975
 20
2.08911
 30
0.0
 11
0.0950846
 21
2.24482
 31
0.0
  0
LINE
  8
0
 62
     0
 10
0.0950846
 20
2.24482
 30
0.0
 11
0.0950846
 21
117.497
 31
0.0
  0
LINE
  8
0
 62
     0
 10
0.0950846
 20
117.497
 30
0.0
 11
0.101975
 21
117.653
 31
0.0
  0
LINE
  8
0
 62
     0
 10
0.101975
 20
117.653
 30
0.0
 11
0.119889
 21
117.81
 31
0.0
  0
LINE
  8
0
 62
     0
 10
0.119889
 20
117.81
 30
0.0
 11
0.150206
 21
117.963
 31
0.0
  0
LINE
  8
0
 62
     0
 10
0.150206
 20
117.963
 30
0.0
 11
0.192925
 21
118.116
 31
0.0
  0
LINE
  8
0
 62
     0
 10
0.192925
 20
118.116
 30
0.0
 11
0.248047
 21
118.262
 31
0.0
  0
LINE
  8
0
 62
     0
 10
0.248047
 20
118.262
 30
0.0
 11
0.312815
 21
118.404
 31
0.0
  0
LINE
  8
0
 62
     0
 10
0.312815
 20
118.404
 30
0.0
 11
0.389985
 21
118.541
 31
0.0
  0
LINE
  8
0
 62
     0
 10
0.389985
 20
118.541
 30
0.0
 11
0.4768
 21
118.673
 31
0.0
  0
LINE
  8
0
 62
     0
 10
0.4768
 20
118.673
 30
0.0
 11
0.574643
 21
118.795
 31
0.0
  0
LINE
  8
0
 62
     0
 10
0.574643
 20
118.795
 30
0.0
 11
0.680752
 21
118.911
 31
0.0
  0
LINE
  8
0
 62
     0
 10
0.680752
 20
118.911
 30
0.0
 11
0.796505
 21
119.017
 31
0.0
  0
LINE
  8
0
 62
     0
 10
0.796505
 20
119.017
 30
0.0
 11
0.919152
 21
119.115
 31
0.0
  0
LINE
  8
0
 62
     0
 10
0.919152
 20
119.115
 30
0.0
 11
1.05006
 21
119.202
 31
0.0
  0
LINE
  8
0
 62
     0
 10
1.05006
 20
119.202
 30
0.0
 11
1.18787
 21
119.279
 31
0.0
  0
LINE
  8
0
 62
     0
 10
1.18787
 20
119.279
 30
0.0
 11
1.32981
 21
119.344
 31
0.0
  0
LINE
  8
0
 62
     0
 10
1.32981
 20
119.344
 30
0.0
 11
1.47588
 21
119.399
 31
0.0
  0
LINE
  8
0
 62
     0
 10
1.47588
 20
119.399
 30
0.0
 11
1.62884
 21
119.441
 31
0.0
  0
LINE
  8
0
 62
     0
 10
1.62884
 20
119.441
 30
0.0
 11
1.7818
 21
119.472
 31
0.0
  0
LINE
  8
0
 62
     0
 10
1.7818
 20
119.472
 30
0.0
 11
1.9389
 21
119.49
 31
0.0
  0
LINE
  8
0
 62
     0
 10
1.9389
 20
119.49
 30
0.0
 11
2.096
 21
119.496
 31
0.0
  0
LINE
  8
0
 62
     0
 10
2.096
 20
119.496
 30
0.0
 11
326.897
 21
119.496
 31
0.0
  0
LINE
  8
0
 62
     0
 10
326.897
 20
119.496
 30
0.0
 11
327.053
 21
119.49
 31
0.0
  0
LINE
  8
0
 62
     0
 10
4.5999
 20
6.76755
 30
0.0
 11
4.15477
 21
6.54018
 31
0.0
  0
LINE
  8
0
 62
     0
 10
4.15477
 20
6.54018
 30
0.0
 11
3.80062
 21
6.18603
 31
0.0
  0
LINE
  8
0
 62
     0
 10
3.80062
 20
6.18603
 30
0.0
 11
3.57325
 21
5.73952
 31
0.0
  0
LINE
  8
0
 62
     0
 10
3.57325
 20
5.73952
 30
0.0
 11
3.4947
 21
5.24619
 31
0.0
  0
LINE
  8
0
 62
     0
 10
3.4947
 20
5.24619
 30
0.0
 11
3.57325
 21
4.75149
 31
0.0
  0
LINE
  8
0
 62
     0
 10
3.57325
 20
4.75149
 30
0.0
 11
3.80062
 21
4.30498
 31
0.0
  0
LINE
  8
0
 62
     0
 10
3.80062
 20
4.30498
 30
0.0
 11
4.15477
 21
3.95083
 31
0.0
  0
LINE
  8
0
 62
     0
 10
4.15477
 20
3.95083
 30
0.0
 11
4.5999
 21
3.72484
 31
0.0
  0
LINE
  8
0
 62
     0
 10
4.5999
 20
3.72484
 30
0.0
 11
5.0946
 21
3.64628
 31
0.0
  0
LINE
  8
0
 62
     0
 10
5.0946
 20
3.64628
 30
0.0
 11
5.58934
 21
3.72484
 31
0.0
  0
LINE
  8
0
 62
     0
 10
5.58934
 20
3.72484
 30
0.0
 11
6.03582
 21
3.95083
 31
0.0
  0
LINE
  8
0
 62
     0
 10
6.03582
 20
3.95083
 30
0.0
 11
6.38997
 21
4.30498
 31
0.0
  0
LINE
  8
0
 62
     0
 10
6.38997
 20
4.30498
 30
0.0
 11
6.61596
 21
4.75149
 31
0.0
  0
LINE
  8
0
 62
     0
 10
6.61596
 20
4.75149
 30
0.0
 11
6.69452
 21
5.24619
 31
0.0
  0
LINE
  8
0
 62
     0
 10
6.69452
 20
5.24619
 30
0.0
 11
6.61596
 21
5.73952
 31
0.0
  0
LINE
  8
0
 62
     0
 10
6.61596
 20
5.73952
 30
0.0
 11
6.38997
 21
6.18603
 31
0.0
  0
LINE
  8
0
 62
     0
 10
6.38997
 20
6.18603
 30
0.0
 11
6.03582
 21
6.54018
 31
0.0
  0
LINE
  8
0
 62
     0
 10
6.03582
 20
6.54018
 30
0.0
 11
5.58934
 21
6.76755
 31
0.0
  0
LINE
  8
0
 62
     0
 10
5.58934
 20
6.76755
 30
0.0
 11
5.0946
 21
6.8447
 31
0.0
  0
LINE
  8
0
 62
     0
 10
5.0946
 20
6.8447
 30
0.0
 11
4.5999
 21
6.76755
 31
0.0
  0
LINE
  8
0
 62
     0
 10
110.867
 20
6.76755
 30
0.0
 11
110.421
 21
6.54018
 31
0.0
  0
LINE
  8
0
 62
     0
 10
110.421
 20
6.54018
 30
0.0
 11
110.068
 21
6.18603
 31
0.0
  0
LINE
  8
0
 62
     0
 10
110.068
 20
6.18603
 30
0.0
 11
109.841
 21
5.73952
 31
0.0
  0
LINE
  8
0
 62
     0
 10
109.841
 20
5.73952
 30
0.0
 11
109.762
 21
5.24619
 31
0.0
  0
LINE
  8
0
 62
     0
 10
109.762
 20
5.24619
 30
0.0
 11
109.841
 21
4.75149
 31
0.0
  0
LINE
  8
0
 62
     0
 10
109.841
 20
4.75149
 30
0.0
 11
110.068
 21
4.30498
 31
0.0
  0
LINE
  8
0
 62
     0
 10
110.068
 20
4.30498
 30
0.0
 11
110.421
 21
3.95083
 31
0.0
  0
LINE
  8
0
 62
     0
 10
110.421
 20
3.95083
 30
0.0
 11
110.867
 21
3.72484
 31
0.0
  0
LINE
  8
0
 62
     0
 10
110.867
 20
3.72484
 30
0.0
 11
111.362
 21
3.64628
 31
0.0
  0
LINE
  8
0
 62
     0
 10
111.362
 20
3.64628
 30
0.0
 11
111.857
 21
3.72484
 31
0.0
  0
LINE
  8
0
 62
     0
 10
111.857
 20
3.72484
 30
0.0
 11
112.302
 21
3.95083
 31
0.0
  0
LINE
  8
0
 62
     0
 10
112.302
 20
3.95083
 30
0.0
 11
112.656
 21
4.30498
 31
0.0
  0
LINE
  8
0
 62
     0
 10
112.656
 20
4.30498
 30
0.0
 11
112.883
 21
4.75149
 31
0.0
  0
LINE
  8
0
 62
     0
 10
112.883
 20
4.75149
 30
0.0
 11
112.962
 21
5.24619
 31
0.0
  0
LINE
  8
0
 62
     0
 10
112.962
 20
5.24619
 30
0.0
 11
112.883
 21
5.73952
 31
0.0
  0
LINE
  8
0
 62
     0
 10
112.883
 20
5.73952
 30
0.0
 11
112.656
 21
6.18603
 31
0.0
  0
LINE
  8
0
 62
     0
 10
112.656
 20
6.18603
 30
0.0
 11
112.302
 21
6.54018
 31
0.0
  0
LINE
  8
0
 62
     0
 10
112.302
 20
6.54018
 30
0.0
 11
111.857
 21
6.76755
 31
0.0
  0
LINE
  8
0
 62
     0
 10
111.857
 20
6.76755
 30
0.0
 11
111.362
 21
6.8447
 31
0.0
  0
LINE
  8
0
 62
     0
 10
111.362
 20
6.8447
 30
0.0
 11
110.867
 21
6.76755
 31
0.0
  0
LINE
  8
0
 62
     0
 10
217.135
 20
6.76755
 30
0.0
 11
216.688
 21
6.54018
 31
0.0
  0
LINE
  8
0
 62
     0
 10
216.688
 20
6.54018
 30
0.0
 11
216.334
 21
6.18603
 31
0.0
  0
LINE
  8
0
 62
     0
 10
216.334
 20
6.18603
 30
0.0
 11
216.108
 21
5.73952
 31
0.0
  0
LINE
  8
0
 62
     0
 10
216.108
 20
5.73952
 30
0.0
 11
216.029
 21
5.24619
 31
0.0
  0
LINE
  8
0
 62
     0
 10
216.029
 20
5.24619
 30
0.0
 11
216.108
 21
4.75149
 31
0.0
  0
LINE
  8
0
 62
     0
 10
216.108
 20
4.75149
 30
0.0
 11
216.334
 21
4.30498
 31
0.0
  0
LINE
  8
0
 62
     0
 10
216.334
 20
4.30498
 30
0.0
 11
216.688
 21
3.95083
 31
0.0
  0
LINE
  8
0
 62
     0
 10
216.688
 20
3.95083
 30
0.0
 11
217.135
 21
3.72484
 31
0.0
  0
LINE
  8
0
 62
     0
 10
217.135
 20
3.72484
 30
0.0
 11
217.629
 21
3.64628
 31
0.0
  0
LINE
  8
0
 62
     0
 10
217.629
 20
3.64628
 30
0.0
 11
218.124
 21
3.72484
 31
0.0
  0
LINE
  8
0
 62
     0
 10
218.124
 20
3.72484
 30
0.0
 11
218.569
 21
3.95083
 31
0.0
  0
LINE
  8
0
 62
     0
 10
218.569
 20
3.95083
 30
0.0
 11
218.923
 21
4.30498
 31
0.0
  0
LINE
  8
0
 62
     0
 10
218.923
 20
4.30498
 30
0.0
 11
219.151
 21
4.75149
 31
0.0
  0
LINE
  8
0
 62
     0
 10
219.151
 20
4.75149
 30
0.0
 11
219.23
 21
5.24619
 31
0.0
  0
LINE
  8
0
 62
     0
 10
219.23
 20
5.24619
 30
0.0
 11
219.151
 21
5.73952
 31
0.0
  0
LINE
  8
0
 62
     0
 10
219.151
 20
5.73952
 30
0.0
 11
218.923
 21
6.18603
 31
0.0
  0
LINE
  8
0
 62
     0
 10
218.923
 20
6.18603
 30
0.0
 11
218.569
 21
6.54018
 31
0.0
  0
LINE
  8
0
 62
     0
 10
218.569
 20
6.54018
 30
0.0
 11
218.124
 21
6.76755
 31
0.0
  0
LINE
  8
0
 62
     0
 10
218.124
 20
6.76755
 30
0.0
 11
217.629
 21
6.8447
 31
0.0
  0
LINE
  8
0
 62
     0
 10
217.629
 20
6.8447
 30
0.0
 11
217.135
 21
6.76755
 31
0.0
  0
LINE
  8
0
 62
     0
 10
323.402
 20
6.76755
 30
0.0
 11
322.956
 21
6.54018
 31
0.0
  0
LINE
  8
0
 62
     0
 10
322.956
 20
6.54018
 30
0.0
 11
322.602
 21
6.18603
 31
0.0
  0
LINE
  8
0
 62
     0
 10
322.602
 20
6.18603
 30
0.0
 11
322.374
 21
5.73952
 31
0.0
  0
LINE
  8
0
 62
     0
 10
322.374
 20
5.73952
 30
0.0
 11
322.297
 21
5.24619
 31
0.0
  0
LINE
  8
0
 62
     0
 10
322.297
 20
5.24619
 30
0.0
 11
322.374
 21
4.75149
 31
0.0
  0
LINE
  8
0
 62
     0
 10
322.374
 20
4.75149
 30
0.0
 11
322.602
 21
4.30498
 31
0.0
  0
LINE
  8
0
 62
     0
 10
322.602
 20
4.30498
 30
0.0
 11
322.956
 21
3.95083
 31
0.0
  0
LINE
  8
0
 62
     0
 10
322.956
 20
3.95083
 30
0.0
 11
323.402
 21
3.72484
 31
0.0
  0
LINE
  8
0
 62
     0
 10
323.402
 20
3.72484
 30
0.0
 11
323.897
 21
3.64628
 31
0.0
  0
LINE
  8
0
 62
     0
 10
323.897
 20
3.64628
 30
0.0
 11
324.39
 21
3.72484
 31
0.0
  0
LINE
  8
0
 62
     0
 10
324.39
 20
3.72484
 30
0.0
 11
324.837
 21
3.95083
 31
0.0
  0
LINE
  8
0
 62
     0
 10
324.837
 20
3.95083
 30
0.0
 11
325.191
 21
4.30498
 31
0.0
  0
LINE
  8
0
 62
     0
 10
325.191
 20
4.30498
 30
0.0
 11
325.417
 21
4.75149
 31
0.0
  0
LINE
  8
0
 62
     0
 10
325.417
 20
4.75149
 30
0.0
 11
325.497
 21
5.24619
 31
0.0
  0
LINE
  8
0
 62
     0
 10
325.497
 20
5.24619
 30
0.0
 11
325.417
 21
5.73952
 31
0.0
  0
LINE
  8
0
 62
     0
 10
325.417
 20
5.73952
 30
0.0
 11
325.191
 21
6.18603
 31
0.0
  0
LINE
  8
0
 62
     0
 10
325.191
 20
6.18603
 30
0.0
 11
324.837
 21
6.54018
 31
0.0
  0
LINE
  8
0
 62
     0
 10
324.837
 20
6.54018
 30
0.0
 11
324.39
 21
6.76755
 31
0.0
  0
LINE
  8
0
 62
     0
 10
324.39
 20
6.76755
 30
0.0
 11
323.897
 21
6.8447
 31
0.0
  0
LINE
  8
0
 62
     0
 10
323.897
 20
6.8447
 30
0.0
 11
323.402
 21
6.76755
 31
0.0
  0
LINE
  8
0
 62
     0
 10
4.5999
 20
116.018
 30
0.0
 11
4.15477
 21
115.791
 31
0.0
  0
LINE
  8
0
 62
     0
 10
4.15477
 20
115.791
 30
0.0
 11
3.80062
 21
115.437
 31
0.0
  0
LINE
  8
0
 62
     0
 10
3.80062
 20
115.437
 30
0.0
 11
3.57325
 21
114.992
 31
0.0
  0
LINE
  8
0
 62
     0
 10
3.57325
 20
114.992
 30
0.0
 11
3.4947
 21
114.496
 31
0.0
  0
LINE
  8
0
 62
     0
 10
3.4947
 20
114.496
 30
0.0
 11
3.57325
 21
114.002
 31
0.0
  0
LINE
  8
0
 62
     0
 10
3.57325
 20
114.002
 30
0.0
 11
3.80062
 21
113.556
 31
0.0
  0
LINE
  8
0
 62
     0
 10
3.80062
 20
113.556
 30
0.0
 11
4.15477
 21
113.202
 31
0.0
  0
LINE
  8
0
 62
     0
 10
4.15477
 20
113.202
 30
0.0
 11
4.5999
 21
112.976
 31
0.0
  0
LINE
  8
0
 62
     0
 10
4.5999
 20
112.976
 30
0.0
 11
5.0946
 21
112.896
 31
0.0
  0
LINE
  8
0
 62
     0
 10
5.0946
 20
112.896
 30
0.0
 11
5.58934
 21
112.976
 31
0.0
  0
LINE
  8
0
 62
     0
 10
5.58934
 20
112.976
 30
0.0
 11
6.03582
 21
113.202
 31
0.0
  0
LINE
  8
0
 62
     0
 10
6.03582
 20
113.202
 30
0.0
 11
6.38997
 21
113.556
 31
0.0
  0
LINE
  8
0
 62
     0
 10
6.38997
 20
113.556
 30
0.0
 11
6.61596
 21
114.002
 31
0.0
  0
LINE
  8
0
 62
     0
 10
6.61596
 20
114.002
 30
0.0
 11
6.69452
 21
114.496
 31
0.0
  0
LINE
  8
0
 62
     0
 10
6.69452
 20
114.496
 30
0.0
 11
6.61596
 21
114.992
 31
0.0
  0
LINE
  8
0
 62
     0
 10
6.61596
 20
114.992
 30
0.0
 11
6.38997
 21
115.437
 31
0.0
  0
LINE
  8
0
 62
     0
 10
6.38997
 20
115.437
 30
0.0
 11
6.03582
 21
115.791
 31
0.0
  0
LINE
  8
0
 62
     0
 10
6.03582
 20
115.791
 30
0.0
 11
5.58934
 21
116.018
 31
0.0
  0
LINE
  8
0
 62
     0
 10
5.58934
 20
116.018
 30
0.0
 11
5.0946
 21
116.096
 31
0.0
  0
LINE
  8
0
 62
     0
 10
5.0946
 20
116.096
 30
0.0
 11
4.5999
 21
116.018
 31
0.0
  0
LINE
  8
0
 62
     0
 10
323.402
 20
116.018
 30
0.0
 11
322.956
 21
115.791
 31
0.0
  0
LINE
  8
0
 62
     0
 10
322.956
 20
115.791
 30
0.0
 11
322.602
 21
115.437
 31
0.0
  0
LINE
  8
0
 62
     0
 10
322.602
 20
115.437
 30
0.0
 11
322.374
 21
114.992
 31
0.0
  0
LINE
  8
0
 62
     0
 10
322.374
 20
114.992
 30
0.0
 11
322.297
 21
114.496
 31
0.0
  0
LINE
  8
0
 62
     0
 10
322.297
 20
114.496
 30
0.0
 11
322.374
 21
114.002
 31
0.0
  0
LINE
  8
0
 62
     0
 10
322.374
 20
114.002
 30
0.0
 11
322.602
 21
113.556
 31
0.0
  0
LINE
  8
0
 62
     0
 10
322.602
 20
113.556
 30
0.0
 11
322.956
 21
113.202
 31
0.0
  0
LINE
  8
0
 62
     0
 10
322.956
 20
113.202
 30
0.0
 11
323.402
 21
112.976
 31
0.0
  0
LINE
  8
0
 62
     0
 10
323.402
 20
112.976
 30
0.0
 11
323.897
 21
112.896
 31
0.0
  0
LINE
  8
0
 62
     0
 10
323.897
 20
112.896
 30
0.0
 11
324.39
 21
112.976
 31
0.0
  0
LINE
  8
0
 62
     0
 10
324.39
 20
112.976
 30
0.0
 11
324.837
 21
113.202
 31
0.0
  0
LINE
  8
0
 62
     0
 10
324.837
 20
113.202
 30
0.0
 11
325.191
 21
113.556
 31
0.0
  0
LINE
  8
0
 62
     0
 10
325.191
 20
113.556
 30
0.0
 11
325.417
 21
114.002
 31
0.0
  0
LINE
  8
0
 62
     0
 10
325.417
 20
114.002
 30
0.0
 11
325.497
 21
114.496
 31
0.0
  0
LINE
  8
0
 62
     0
 10
325.497
 20
114.496
 30
0.0
 11
325.417
 21
114.992
 31
0.0
  0
LINE
  8
0
 62
     0
 10
325.417
 20
114.992
 30
0.0
 11
325.191
 21
115.437
 31
0.0
  0
LINE
  8
0
 62
     0
 10
325.191
 20
115.437
 30
0.0
 11
324.837
 21
115.791
 31
0.0
  0
LINE
  8
0
 62
     0
 10
324.837
 20
115.791
 30
0.0
 11
324.39
 21
116.018
 31
0.0
  0
LINE
  8
0
 62
     0
 10
324.39
 20
116.018
 30
0.0
 11
323.897
 21
116.096
 31
0.0
  0
LINE
  8
0
 62
     0
 10
323.897
 20
116.096
 30
0.0
 11
323.402
 21
116.018
 31
0.0
  0
LINE
  8
0
 62
     0
 10
217.135
 20
116.018
 30
0.0
 11
216.688
 21
115.791
 31
0.0
  0
LINE
  8
0
 62
     0
 10
216.688
 20
115.791
 30
0.0
 11
216.334
 21
115.437
 31
0.0
  0
LINE
  8
0
 62
     0
 10
216.334
 20
115.437
 30
0.0
 11
216.108
 21
114.992
 31
0.0
  0
LINE
  8
0
 62
     0
 10
216.108
 20
114.992
 30
0.0
 11
216.029
 21
114.496
 31
0.0
  0
LINE
  8
0
 62
     0
 10
216.029
 20
114.496
 30
0.0
 11
216.108
 21
114.002
 31
0.0
  0
LINE
  8
0
 62
     0
 10
216.108
 20
114.002
 30
0.0
 11
216.334
 21
113.556
 31
0.0
  0
LINE
  8
0
 62
     0
 10
216.334
 20
113.556
 30
0.0
 11
216.688
 21
113.202
 31
0.0
  0
LINE
  8
0
 62
     0
 10
216.688
 20
113.202
 30
0.0
 11
217.135
 21
112.976
 31
0.0
  0
LINE
  8
0
 62
     0
 10
217.135
 20
112.976
 30
0.0
 11
217.629
 21
112.896
 31
0.0
  0
LINE
  8
0
 62
     0
 10
217.629
 20
112.896
 30
0.0
 11
218.124
 21
112.976
 31
0.0
  0
LINE
  8
0
 62
     0
 10
218.124
 20
112.976
 30
0.0
 11
218.569
 21
113.202
 31
0.0
  0
LINE
  8
0
 62
     0
 10
218.569
 20
113.202
 30
0.0
 11
218.923
 21
113.556
 31
0.0
  0
LINE
  8
0
 62
     0
 10
218.923
 20
113.556
 30
0.0
 11
219.151
 21
114.002
 31
0.0
  0
LINE
  8
0
 62
     0
 10
219.151
 20
114.002
 30
0.0
 11
219.23
 21
114.496
 31
0.0
  0
LINE
  8
0
 62
     0
 10
219.23
 20
114.496
 30
0.0
 11
219.151
 21
114.992
 31
0.0
  0
LINE
  8
0
 62
     0
 10
219.151
 20
114.992
 30
0.0
 11
218.923
 21
115.437
 31
0.0
  0
LINE
  8
0
 62
     0
 10
218.923
 20
115.437
 30
0.0
 11
218.569
 21
115.791
 31
0.0
  0
LINE
  8
0
 62
     0
 10
218.569
 20
115.791
 30
0.0
 11
218.124
 21
116.018
 31
0.0
  0
LINE
  8
0
 62
     0
 10
218.124
 20
116.018
 30
0.0
 11
217.629
 21
116.096
 31
0.0
  0
LINE
  8
0
 62
     0
 10
217.629
 20
116.096
 30
0.0
 11
217.135
 21
116.018
 31
0.0
  0
LINE
  8
0
 62
     0
 10
110.867
 20
116.018
 30
0.0
 11
110.421
 21
115.791
 31
0.0
  0
LINE
  8
0
 62
     0
 10
110.421
 20
115.791
 30
0.0
 11
110.068
 21
115.437
 31
0.0
  0
LINE
  8
0
 62
     0
 10
110.068
 20
115.437
 30
0.0
 11
109.841
 21
114.992
 31
0.0
  0
LINE
  8
0
 62
     0
 10
109.841
 20
114.992
 30
0.0
 11
109.762
 21
114.496
 31
0.0
  0
LINE
  8
0
 62
     0
 10
109.762
 20
114.496
 30
0.0
 11
109.841
 21
114.002
 31
0.0
  0
LINE
  8
0
 62
     0
 10
109.841
 20
114.002
 30
0.0
 11
110.068
 21
113.556
 31
0.0
  0
LINE
  8
0
 62
     0
 10
110.068
 20
113.556
 30
0.0
 11
110.421
 21
113.202
 31
0.0
  0
LINE
  8
0
 62
     0
 10
110.421
 20
113.202
 30
0.0
 11
110.867
 21
112.976
 31
0.0
  0
LINE
  8
0
 62
     0
 10
110.867
 20
112.976
 30
0.0
 11
111.362
 21
112.896
 31
0.0
  0
LINE
  8
0
 62
     0
 10
111.362
 20
112.896
 30
0.0
 11
111.857
 21
112.976
 31
0.0
  0
LINE
  8
0
 62
     0
 10
111.857
 20
112.976
 30
0.0
 11
112.302
 21
113.202
 31
0.0
  0
LINE
  8
0
 62
     0
 10
112.302
 20
113.202
 30
0.0
 11
112.656
 21
113.556
 31
0.0
  0
LINE
  8
0
 62
     0
 10
112.656
 20
113.556
 30
0.0
 11
112.883
 21
114.002
 31
0.0
  0
LINE
  8
0
 62
     0
 10
112.883
 20
114.002
 30
0.0
 11
112.962
 21
114.496
 31
0.0
  0
LINE
  8
0
 62
     0
 10
112.962
 20
114.496
 30
0.0
 11
112.883
 21
114.992
 31
0.0
  0
LINE
  8
0
 62
     0
 10
112.883
 20
114.992
 30
0.0
 11
112.656
 21
115.437
 31
0.0
  0
LINE
  8
0
 62
     0
 10
112.656
 20
115.437
 30
0.0
 11
112.302
 21
115.791
 31
0.0
  0
LINE
  8
0
 62
     0
 10
112.302
 20
115.791
 30
0.0
 11
111.857
 21
116.018
 31
0.0
  0
LINE
  8
0
 62
     0
 10
111.857
 20
116.018
 30
0.0
 11
111.362
 21
116.096
 31
0.0
  0
LINE
  8
0
 62
     0
 10
111.362
 20
116.096
 30
0.0
 11
110.867
 21
116.018
 31
0.0
  0
ENDSEC
  0
EOF
