  0
SECTION
  2
HEADER
  9
$ACADVER
  1
AC1009
  9
$EXTMIN
 10
0.0
 20
0.0
 30
0.0
  9
$EXTMAX
 10
1000.0
 20
1000.0
 30
0.0
  9
$FILLMODE
 70
 0
  9
$SPLFRAME
 70
 1
  0
ENDSEC
  0
SECTION
  2
TABLES
  0
TABLE
  2
LAYER
 70
1
  0
LAYER
  2
0
 70
     0
 62
     7
  6
CONTINUOUS
  0
ENDTAB
  0
ENDSEC
  0
SECTION
  2
ENTITIES
  0
LINE
  8
0
 62
     0
 10
327.053
 20
119.49
 30
0.0
 11
327.208
 21
119.472
 31
0.0
  0
LINE
  8
0
 62
     0
 10
327.208
 20
119.472
 30
0.0
 11
327.363
 21
119.441
 31
0.0
  0
LINE
  8
0
 62
     0
 10
327.363
 20
119.441
 30
0.0
 11
327.514
 21
119.399
 31
0.0
  0
LINE
  8
0
 62
     0
 10
327.514
 20
119.399
 30
0.0
 11
327.662
 21
119.344
 31
0.0
  0
LINE
  8
0
 62
     0
 10
327.662
 20
119.344
 30
0.0
 11
327.804
 21
119.279
 31
0.0
  0
LINE
  8
0
 62
     0
 10
327.804
 20
119.279
 30
0.0
 11
327.94
 21
119.202
 31
0.0
  0
LINE
  8
0
 62
     0
 10
327.94
 20
119.202
 30
0.0
 11
328.071
 21
119.115
 31
0.0
  0
LINE
  8
0
 62
     0
 10
328.071
 20
119.115
 30
0.0
 11
328.195
 21
119.017
 31
0.0
  0
LINE
  8
0
 62
     0
 10
328.195
 20
119.017
 30
0.0
 11
328.311
 21
118.911
 31
0.0
  0
LINE
  8
0
 62
     0
 10
328.311
 20
118.911
 30
0.0
 11
328.417
 21
118.795
 31
0.0
  0
LINE
  8
0
 62
     0
 10
328.417
 20
118.795
 30
0.0
 11
328.515
 21
118.673
 31
0.0
  0
LINE
  8
0
 62
     0
 10
328.515
 20
118.673
 30
0.0
 11
328.602
 21
118.541
 31
0.0
  0
LINE
  8
0
 62
     0
 10
328.602
 20
118.541
 30
0.0
 11
328.679
 21
118.404
 31
0.0
  0
LINE
  8
0
 62
     0
 10
328.679
 20
118.404
 30
0.0
 11
328.743
 21
118.262
 31
0.0
  0
LINE
  8
0
 62
     0
 10
328.743
 20
118.262
 30
0.0
 11
328.798
 21
118.116
 31
0.0
  0
LINE
  8
0
 62
     0
 10
328.798
 20
118.116
 30
0.0
 11
328.84
 21
117.963
 31
0.0
  0
LINE
  8
0
 62
     0
 10
328.84
 20
117.963
 30
0.0
 11
328.871
 21
117.81
 31
0.0
  0
LINE
  8
0
 62
     0
 10
328.871
 20
117.81
 30
0.0
 11
328.889
 21
117.653
 31
0.0
  0
LINE
  8
0
 62
     0
 10
328.889
 20
117.653
 30
0.0
 11
328.896
 21
117.497
 31
0.0
  0
LINE
  8
0
 62
     0
 10
328.896
 20
117.497
 30
0.0
 11
328.896
 21
2.2462
 31
0.0
  0
LINE
  8
0
 62
     0
 10
328.896
 20
2.2462
 30
0.0
 11
328.889
 21
2.08911
 31
0.0
  0
LINE
  8
0
 62
     0
 10
328.889
 20
2.08911
 30
0.0
 11
328.871
 21
1.93339
 31
0.0
  0
LINE
  8
0
 62
     0
 10
328.871
 20
1.93339
 30
0.0
 11
328.84
 21
1.77905
 31
0.0
  0
LINE
  8
0
 62
     0
 10
328.84
 20
1.77905
 30
0.0
 11
328.798
 21
1.62746
 31
0.0
  0
LINE
  8
0
 62
     0
 10
328.798
 20
1.62746
 30
0.0
 11
328.743
 21
1.48001
 31
0.0
  0
LINE
  8
0
 62
     0
 10
328.743
 20
1.48001
 30
0.0
 11
328.679
 21
1.33808
 31
0.0
  0
LINE
  8
0
 62
     0
 10
328.679
 20
1.33808
 30
0.0
 11
328.602
 21
1.20165
 31
0.0
  0
LINE
  8
0
 62
     0
 10
328.602
 20
1.20165
 30
0.0
 11
328.515
 21
1.07074
 31
0.0
  0
LINE
  8
0
 62
     0
 10
328.515
 20
1.07074
 30
0.0
 11
328.417
 21
0.946711
 31
0.0
  0
LINE
  8
0
 62
     0
 10
328.417
 20
0.946711
 30
0.0
 11
328.311
 21
0.830957
 31
0.0
  0
LINE
  8
0
 62
     0
 10
328.311
 20
0.830957
 30
0.0
 11
328.195
 21
0.724849
 31
0.0
  0
LINE
  8
0
 62
     0
 10
328.195
 20
0.724849
 30
0.0
 11
328.071
 21
0.627006
 31
0.0
  0
LINE
  8
0
 62
     0
 10
328.071
 20
0.627006
 30
0.0
 11
327.94
 21
0.540191
 31
0.0
  0
LINE
  8
0
 62
     0
 10
327.94
 20
0.540191
 30
0.0
 11
327.804
 21
0.463021
 31
0.0
  0
LINE
  8
0
 62
     0
 10
327.804
 20
0.463021
 30
0.0
 11
327.662
 21
0.398254
 31
0.0
  0
LINE
  8
0
 62
     0
 10
327.662
 20
0.398254
 30
0.0
 11
327.514
 21
0.343131
 31
0.0
  0
LINE
  8
0
 62
     0
 10
327.514
 20
0.343131
 30
0.0
 11
327.363
 21
0.30179
 31
0.0
  0
LINE
  8
0
 62
     0
 10
327.363
 20
0.30179
 30
0.0
 11
327.208
 21
0.270095
 31
0.0
  0
LINE
  8
0
 62
     0
 10
327.208
 20
0.270095
 30
0.0
 11
327.053
 21
0.252181
 31
0.0
  0
LINE
  8
0
 62
     0
 10
327.053
 20
0.252181
 30
0.0
 11
326.897
 21
0.246669
 31
0.0
  0
LINE
  8
0
 62
     0
 10
326.897
 20
0.246669
 30
0.0
 11
2.096
 21
0.246669
 31
0.0
  0
LINE
  8
0
 62
     0
 10
2.096
 20
0.246669
 30
0.0
 11
1.9389
 21
0.252181
 31
0.0
  0
LINE
  8
0
 62
     0
 10
1.9389
 20
0.252181
 30
0.0
 11
1.7818
 21
0.270095
 31
0.0
  0
LINE
  8
0
 62
     0
 10
1.7818
 20
0.270095
 30
0.0
 11
1.62884
 21
0.30179
 31
0.0
  0
LINE
  8
0
 62
     0
 10
1.62884
 20
0.30179
 30
0.0
 11
1.47588
 21
0.343131
 31
0.0
  0
LINE
  8
0
 62
     0
 10
1.47588
 20
0.343131
 30
0.0
 11
1.32981
 21
0.398254
 31
0.0
  0
LINE
  8
0
 62
     0
 10
1.32981
 20
0.398254
 30
0.0
 11
1.18787
 21
0.463021
 31
0.0
  0
LINE
  8
0
 62
     0
 10
1.18787
 20
0.463021
 30
0.0
 11
1.05006
 21
0.540191
 31
0.0
  0
LINE
  8
0
 62
     0
 10
1.05006
 20
0.540191
 30
0.0
 11
0.919152
 21
0.627006
 31
0.0
  0
LINE
  8
0
 62
     0
 10
0.919152
 20
0.627006
 30
0.0
 11
0.796505
 21
0.724849
 31
0.0
  0
LINE
  8
0
 62
     0
 10
0.796505
 20
0.724849
 30
0.0
 11
0.680752
 21
0.830957
 31
0.0
  0
LINE
  8
0
 62
     0
 10
0.680752
 20
0.830957
 30
0.0
 11
0.574643
 21
0.946711
 31
0.0
  0
LINE
  8
0
 62
     0
 10
0.574643
 20
0.946711
 30
0.0
 11
0.4768
 21
1.07074
 31
0.0
  0
LINE
  8
0
 62
     0
 10
0.4768
 20
1.07074
 30
0.0
 11
0.389985
 21
1.20165
 31
0.0
  0
LINE
  8
0
 62
     0
 10
0.389985
 20
1.20165
 30
0.0
 11
0.312815
 21
1.33808
 31
0.0
  0
LINE
  8
0
 62
     0
 10
0.312815
 20
1.33808
 30
0.0
 11
0.248047
 21
1.48001
 31
0.0
  0
LINE
  8
0
 62
     0
 10
0.248047
 20
1.48001
 30
0.0
 11
0.192925
 21
1.62746
 31
0.0
  0
LINE
  8
0
 62
     0
 10
0.192925
 20
1.62746
 30
0.0
 11
0.150206
 21
1.77905
 31
0.0
  0
LINE
  8
0
 62
     0
 10
0.150206
 20
1.77905
 30
0.0
 11
0.119889
 21
1.93339
 31
0.0
  0
LINE
  8
0
 62
     0
 10
0.119889
 20
1.93339
 30
0.0
 11
0.101975
 21
2.08911
 31
0.0
  0
LINE
  8
0
 62
     0
 10
0.101975
 20
2.08911
 30
0.0
 11
0.0950846
 21
2.24482
 31
0.0
  0
LINE
  8
0
 62
     0
 10
0.0950846
 20
2.24482
 30
0.0
 11
0.0950846
 21
117.497
 31
0.0
  0
LINE
  8
0
 62
     0
 10
0.0950846
 20
117.497
 30
0.0
 11
0.101975
 21
117.653
 31
0.0
  0
LINE
  8
0
 62
     0
 10
0.101975
 20
117.653
 30
0.0
 11
0.119889
 21
117.81
 31
0.0
  0
LINE
  8
0
 62
     0
 10
0.119889
 20
117.81
 30
0.0
 11
0.150206
 21
117.963
 31
0.0
  0
LINE
  8
0
 62
     0
 10
0.150206
 20
117.963
 30
0.0
 11
0.192925
 21
118.116
 31
0.0
  0
LINE
  8
0
 62
     0
 10
0.192925
 20
118.116
 30
0.0
 11
0.248047
 21
118.262
 31
0.0
  0
LINE
  8
0
 62
     0
 10
0.248047
 20
118.262
 30
0.0
 11
0.312815
 21
118.404
 31
0.0
  0
LINE
  8
0
 62
     0
 10
0.312815
 20
118.404
 30
0.0
 11
0.389985
 21
118.541
 31
0.0
  0
LINE
  8
0
 62
     0
 10
0.389985
 20
118.541
 30
0.0
 11
0.4768
 21
118.673
 31
0.0
  0
LINE
  8
0
 62
     0
 10
0.4768
 20
118.673
 30
0.0
 11
0.574643
 21
118.795
 31
0.0
  0
LINE
  8
0
 62
     0
 10
0.574643
 20
118.795
 30
0.0
 11
0.680752
 21
118.911
 31
0.0
  0
LINE
  8
0
 62
     0
 10
0.680752
 20
118.911
 30
0.0
 11
0.796505
 21
119.017
 31
0.0
  0
LINE
  8
0
 62
     0
 10
0.796505
 20
119.017
 30
0.0
 11
0.919152
 21
119.115
 31
0.0
  0
LINE
  8
0
 62
     0
 10
0.919152
 20
119.115
 30
0.0
 11
1.05006
 21
119.202
 31
0.0
  0
LINE
  8
0
 62
     0
 10
1.05006
 20
119.202
 30
0.0
 11
1.18787
 21
119.279
 31
0.0
  0
LINE
  8
0
 62
     0
 10
1.18787
 20
119.279
 30
0.0
 11
1.32981
 21
119.344
 31
0.0
  0
LINE
  8
0
 62
     0
 10
1.32981
 20
119.344
 30
0.0
 11
1.47588
 21
119.399
 31
0.0
  0
LINE
  8
0
 62
     0
 10
1.47588
 20
119.399
 30
0.0
 11
1.62884
 21
119.441
 31
0.0
  0
LINE
  8
0
 62
     0
 10
1.62884
 20
119.441
 30
0.0
 11
1.7818
 21
119.472
 31
0.0
  0
LINE
  8
0
 62
     0
 10
1.7818
 20
119.472
 30
0.0
 11
1.9389
 21
119.49
 31
0.0
  0
LINE
  8
0
 62
     0
 10
1.9389
 20
119.49
 30
0.0
 11
2.096
 21
119.496
 31
0.0
  0
LINE
  8
0
 62
     0
 10
2.096
 20
119.496
 30
0.0
 11
326.897
 21
119.496
 31
0.0
  0
LINE
  8
0
 62
     0
 10
326.897
 20
119.496
 30
0.0
 11
327.053
 21
119.49
 31
0.0
  0
LINE
  8
0
 62
     0
 10
4.5999
 20
6.76755
 30
0.0
 11
4.15477
 21
6.54018
 31
0.0
  0
LINE
  8
0
 62
     0
 10
4.15477
 20
6.54018
 30
0.0
 11
3.80062
 21
6.18603
 31
0.0
  0
LINE
  8
0
 62
     0
 10
3.80062
 20
6.18603
 30
0.0
 11
3.57325
 21
5.73952
 31
0.0
  0
LINE
  8
0
 62
     0
 10
3.57325
 20
5.73952
 30
0.0
 11
3.4947
 21
5.24619
 31
0.0
  0
LINE
  8
0
 62
     0
 10
3.4947
 20
5.24619
 30
0.0
 11
3.57325
 21
4.75149
 31
0.0
  0
LINE
  8
0
 62
     0
 10
3.57325
 20
4.75149
 30
0.0
 11
3.80062
 21
4.30498
 31
0.0
  0
LINE
  8
0
 62
     0
 10
3.80062
 20
4.30498
 30
0.0
 11
4.15477
 21
3.95083
 31
0.0
  0
LINE
  8
0
 62
     0
 10
4.15477
 20
3.95083
 30
0.0
 11
4.5999
 21
3.72484
 31
0.0
  0
LINE
  8
0
 62
     0
 10
4.5999
 20
3.72484
 30
0.0
 11
5.0946
 21
3.64628
 31
0.0
  0
LINE
  8
0
 62
     0
 10
5.0946
 20
3.64628
 30
0.0
 11
5.58934
 21
3.72484
 31
0.0
  0
LINE
  8
0
 62
     0
 10
5.58934
 20
3.72484
 30
0.0
 11
6.03582
 21
3.95083
 31
0.0
  0
LINE
  8
0
 62
     0
 10
6.03582
 20
3.95083
 30
0.0
 11
6.38997
 21
4.30498
 31
0.0
  0
LINE
  8
0
 62
     0
 10
6.38997
 20
4.30498
 30
0.0
 11
6.61596
 21
4.75149
 31
0.0
  0
LINE
  8
0
 62
     0
 10
6.61596
 20
4.75149
 30
0.0
 11
6.69452
 21
5.24619
 31
0.0
  0
LINE
  8
0
 62
     0
 10
6.69452
 20
5.24619
 30
0.0
 11
6.61596
 21
5.73952
 31
0.0
  0
LINE
  8
0
 62
     0
 10
6.61596
 20
5.73952
 30
0.0
 11
6.38997
 21
6.18603
 31
0.0
  0
LINE
  8
0
 62
     0
 10
6.38997
 20
6.18603
 30
0.0
 11
6.03582
 21
6.54018
 31
0.0
  0
LINE
  8
0
 62
     0
 10
6.03582
 20
6.54018
 30
0.0
 11
5.58934
 21
6.76755
 31
0.0
  0
LINE
  8
0
 62
     0
 10
5.58934
 20
6.76755
 30
0.0
 11
5.0946
 21
6.8447
 31
0.0
  0
LINE
  8
0
 62
     0
 10
5.0946
 20
6.8447
 30
0.0
 11
4.5999
 21
6.76755
 31
0.0
  0
LINE
  8
0
 62
     0
 10
110.867
 20
6.76755
 30
0.0
 11
110.421
 21
6.54018
 31
0.0
  0
LINE
  8
0
 62
     0
 10
110.421
 20
6.54018
 30
0.0
 11
110.068
 21
6.18603
 31
0.0
  0
LINE
  8
0
 62
     0
 10
110.068
 20
6.18603
 30
0.0
 11
109.841
 21
5.73952
 31
0.0
  0
LINE
  8
0
 62
     0
 10
109.841
 20
5.73952
 30
0.0
 11
109.762
 21
5.24619
 31
0.0
  0
LINE
  8
0
 62
     0
 10
109.762
 20
5.24619
 30
0.0
 11
109.841
 21
4.75149
 31
0.0
  0
LINE
  8
0
 62
     0
 10
109.841
 20
4.75149
 30
0.0
 11
110.068
 21
4.30498
 31
0.0
  0
LINE
  8
0
 62
     0
 10
110.068
 20
4.30498
 30
0.0
 11
110.421
 21
3.95083
 31
0.0
  0
LINE
  8
0
 62
     0
 10
110.421
 20
3.95083
 30
0.0
 11
110.867
 21
3.72484
 31
0.0
  0
LINE
  8
0
 62
     0
 10
110.867
 20
3.72484
 30
0.0
 11
111.362
 21
3.64628
 31
0.0
  0
LINE
  8
0
 62
     0
 10
111.362
 20
3.64628
 30
0.0
 11
111.857
 21
3.72484
 31
0.0
  0
LINE
  8
0
 62
     0
 10
111.857
 20
3.72484
 30
0.0
 11
112.302
 21
3.95083
 31
0.0
  0
LINE
  8
0
 62
     0
 10
112.302
 20
3.95083
 30
0.0
 11
112.656
 21
4.30498
 31
0.0
  0
LINE
  8
0
 62
     0
 10
112.656
 20
4.30498
 30
0.0
 11
112.883
 21
4.75149
 31
0.0
  0
LINE
  8
0
 62
     0
 10
112.883
 20
4.75149
 30
0.0
 11
112.962
 21
5.24619
 31
0.0
  0
LINE
  8
0
 62
     0
 10
112.962
 20
5.24619
 30
0.0
 11
112.883
 21
5.73952
 31
0.0
  0
LINE
  8
0
 62
     0
 10
112.883
 20
5.73952
 30
0.0
 11
112.656
 21
6.18603
 31
0.0
  0
LINE
  8
0
 62
     0
 10
112.656
 20
6.18603
 30
0.0
 11
112.302
 21
6.54018
 31
0.0
  0
LINE
  8
0
 62
     0
 10
112.302
 20
6.54018
 30
0.0
 11
111.857
 21
6.76755
 31
0.0
  0
LINE
  8
0
 62
     0
 10
111.857
 20
6.76755
 30
0.0
 11
111.362
 21
6.8447
 31
0.0
  0
LINE
  8
0
 62
     0
 10
111.362
 20
6.8447
 30
0.0
 11
110.867
 21
6.76755
 31
0.0
  0
LINE
  8
0
 62
     0
 10
217.135
 20
6.76755
 30
0.0
 11
216.688
 21
6.54018
 31
0.0
  0
LINE
  8
0
 62
     0
 10
216.688
 20
6.54018
 30
0.0
 11
216.334
 21
6.18603
 31
0.0
  0
LINE
  8
0
 62
     0
 10
216.334
 20
6.18603
 30
0.0
 11
216.108
 21
5.73952
 31
0.0
  0
LINE
  8
0
 62
     0
 10
216.108
 20
5.73952
 30
0.0
 11
216.029
 21
5.24619
 31
0.0
  0
LINE
  8
0
 62
     0
 10
216.029
 20
5.24619
 30
0.0
 11
216.108
 21
4.75149
 31
0.0
  0
LINE
  8
0
 62
     0
 10
216.108
 20
4.75149
 30
0.0
 11
216.334
 21
4.30498
 31
0.0
  0
LINE
  8
0
 62
     0
 10
216.334
 20
4.30498
 30
0.0
 11
216.688
 21
3.95083
 31
0.0
  0
LINE
  8
0
 62
     0
 10
216.688
 20
3.95083
 30
0.0
 11
217.135
 21
3.72484
 31
0.0
  0
LINE
  8
0
 62
     0
 10
217.135
 20
3.72484
 30
0.0
 11
217.629
 21
3.64628
 31
0.0
  0
LINE
  8
0
 62
     0
 10
217.629
 20
3.64628
 30
0.0
 11
218.124
 21
3.72484
 31
0.0
  0
LINE
  8
0
 62
     0
 10
218.124
 20
3.72484
 30
0.0
 11
218.569
 21
3.95083
 31
0.0
  0
LINE
  8
0
 62
     0
 10
218.569
 20
3.95083
 30
0.0
 11
218.923
 21
4.30498
 31
0.0
  0
LINE
  8
0
 62
     0
 10
218.923
 20
4.30498
 30
0.0
 11
219.151
 21
4.75149
 31
0.0
  0
LINE
  8
0
 62
     0
 10
219.151
 20
4.75149
 30
0.0
 11
219.23
 21
5.24619
 31
0.0
  0
LINE
  8
0
 62
     0
 10
219.23
 20
5.24619
 30
0.0
 11
219.151
 21
5.73952
 31
0.0
  0
LINE
  8
0
 62
     0
 10
219.151
 20
5.73952
 30
0.0
 11
218.923
 21
6.18603
 31
0.0
  0
LINE
  8
0
 62
     0
 10
218.923
 20
6.18603
 30
0.0
 11
218.569
 21
6.54018
 31
0.0
  0
LINE
  8
0
 62
     0
 10
218.569
 20
6.54018
 30
0.0
 11
218.124
 21
6.76755
 31
0.0
  0
LINE
  8
0
 62
     0
 10
218.124
 20
6.76755
 30
0.0
 11
217.629
 21
6.8447
 31
0.0
  0
LINE
  8
0
 62
     0
 10
217.629
 20
6.8447
 30
0.0
 11
217.135
 21
6.76755
 31
0.0
  0
LINE
  8
0
 62
     0
 10
323.402
 20
6.76755
 30
0.0
 11
322.956
 21
6.54018
 31
0.0
  0
LINE
  8
0
 62
     0
 10
322.956
 20
6.54018
 30
0.0
 11
322.602
 21
6.18603
 31
0.0
  0
LINE
  8
0
 62
     0
 10
322.602
 20
6.18603
 30
0.0
 11
322.374
 21
5.73952
 31
0.0
  0
LINE
  8
0
 62
     0
 10
322.374
 20
5.73952
 30
0.0
 11
322.297
 21
5.24619
 31
0.0
  0
LINE
  8
0
 62
     0
 10
322.297
 20
5.24619
 30
0.0
 11
322.374
 21
4.75149
 31
0.0
  0
LINE
  8
0
 62
     0
 10
322.374
 20
4.75149
 30
0.0
 11
322.602
 21
4.30498
 31
0.0
  0
LINE
  8
0
 62
     0
 10
322.602
 20
4.30498
 30
0.0
 11
322.956
 21
3.95083
 31
0.0
  0
LINE
  8
0
 62
     0
 10
322.956
 20
3.95083
 30
0.0
 11
323.402
 21
3.72484
 31
0.0
  0
LINE
  8
0
 62
     0
 10
323.402
 20
3.72484
 30
0.0
 11
323.897
 21
3.64628
 31
0.0
  0
LINE
  8
0
 62
     0
 10
323.897
 20
3.64628
 30
0.0
 11
324.39
 21
3.72484
 31
0.0
  0
LINE
  8
0
 62
     0
 10
324.39
 20
3.72484
 30
0.0
 11
324.837
 21
3.95083
 31
0.0
  0
LINE
  8
0
 62
     0
 10
324.837
 20
3.95083
 30
0.0
 11
325.191
 21
4.30498
 31
0.0
  0
LINE
  8
0
 62
     0
 10
325.191
 20
4.30498
 30
0.0
 11
325.417
 21
4.75149
 31
0.0
  0
LINE
  8
0
 62
     0
 10
325.417
 20
4.75149
 30
0.0
 11
325.497
 21
5.24619
 31
0.0
  0
LINE
  8
0
 62
     0
 10
325.497
 20
5.24619
 30
0.0
 11
325.417
 21
5.73952
 31
0.0
  0
LINE
  8
0
 62
     0
 10
325.417
 20
5.73952
 30
0.0
 11
325.191
 21
6.18603
 31
0.0
  0
LINE
  8
0
 62
     0
 10
325.191
 20
6.18603
 30
0.0
 11
324.837
 21
6.54018
 31
0.0
  0
LINE
  8
0
 62
     0
 10
324.837
 20
6.54018
 30
0.0
 11
324.39
 21
6.76755
 31
0.0
  0
LINE
  8
0
 62
     0
 10
324.39
 20
6.76755
 30
0.0
 11
323.897
 21
6.8447
 31
0.0
  0
LINE
  8
0
 62
     0
 10
323.897
 20
6.8447
 30
0.0
 11
323.402
 21
6.76755
 31
0.0
  0
LINE
  8
0
 62
     0
 10
136.063
 20
28.7707
 30
0.0
 11
136.063
 21
27.7716
 31
0.0
  0
LINE
  8
0
 62
     0
 10
136.063
 20
27.7716
 30
0.0
 11
135.264
 21
27.7716
 31
0.0
  0
LINE
  8
0
 62
     0
 10
135.264
 20
27.7716
 30
0.0
 11
135.264
 21
24.6724
 31
0.0
  0
LINE
  8
0
 62
     0
 10
135.264
 20
24.6724
 30
0.0
 11
136.063
 21
24.6724
 31
0.0
  0
LINE
  8
0
 62
     0
 10
136.063
 20
24.6724
 30
0.0
 11
136.063
 21
24.0716
 31
0.0
  0
LINE
  8
0
 62
     0
 10
136.063
 20
24.0716
 30
0.0
 11
96.4378
 21
24.0716
 31
0.0
  0
LINE
  8
0
 62
     0
 10
96.4378
 20
24.0716
 30
0.0
 11
96.4378
 21
27.3017
 31
0.0
  0
LINE
  8
0
 62
     0
 10
96.4378
 20
27.3017
 30
0.0
 11
89.6881
 21
27.3017
 31
0.0
  0
LINE
  8
0
 62
     0
 10
89.6881
 20
27.3017
 30
0.0
 11
89.6881
 21
24.0716
 31
0.0
  0
LINE
  8
0
 62
     0
 10
89.6881
 20
24.0716
 30
0.0
 11
88.864
 21
24.0716
 31
0.0
  0
LINE
  8
0
 62
     0
 10
88.864
 20
24.0716
 30
0.0
 11
88.864
 21
21.2714
 31
0.0
  0
LINE
  8
0
 62
     0
 10
88.864
 20
21.2714
 30
0.0
 11
89.6881
 21
21.2714
 31
0.0
  0
LINE
  8
0
 62
     0
 10
89.6881
 20
21.2714
 30
0.0
 11
89.6881
 21
15.0027
 31
0.0
  0
LINE
  8
0
 62
     0
 10
89.6881
 20
15.0027
 30
0.0
 11
91.4135
 21
15.0027
 31
0.0
  0
LINE
  8
0
 62
     0
 10
91.4135
 20
15.0027
 30
0.0
 11
91.4135
 21
13.8011
 31
0.0
  0
LINE
  8
0
 62
     0
 10
91.4135
 20
13.8011
 30
0.0
 11
94.7138
 21
13.8011
 31
0.0
  0
LINE
  8
0
 62
     0
 10
94.7138
 20
13.8011
 30
0.0
 11
94.7138
 21
15.0027
 31
0.0
  0
LINE
  8
0
 62
     0
 10
94.7138
 20
15.0027
 30
0.0
 11
96.4378
 21
15.0027
 31
0.0
  0
LINE
  8
0
 62
     0
 10
96.4378
 20
15.0027
 30
0.0
 11
96.4378
 21
19.4717
 31
0.0
  0
LINE
  8
0
 62
     0
 10
96.4378
 20
19.4717
 30
0.0
 11
136.063
 21
19.4717
 31
0.0
  0
LINE
  8
0
 62
     0
 10
136.063
 20
19.4717
 30
0.0
 11
136.063
 21
18.8709
 31
0.0
  0
LINE
  8
0
 62
     0
 10
136.063
 20
18.8709
 30
0.0
 11
135.264
 21
18.8709
 31
0.0
  0
LINE
  8
0
 62
     0
 10
135.264
 20
18.8709
 30
0.0
 11
135.264
 21
15.7716
 31
0.0
  0
LINE
  8
0
 62
     0
 10
135.264
 20
15.7716
 30
0.0
 11
136.063
 21
15.7716
 31
0.0
  0
LINE
  8
0
 62
     0
 10
136.063
 20
15.7716
 30
0.0
 11
136.063
 21
14.7712
 31
0.0
  0
LINE
  8
0
 62
     0
 10
136.063
 20
14.7712
 30
0.0
 11
150.063
 21
14.7712
 31
0.0
  0
LINE
  8
0
 62
     0
 10
150.063
 20
14.7712
 30
0.0
 11
150.063
 21
15.7716
 31
0.0
  0
LINE
  8
0
 62
     0
 10
150.063
 20
15.7716
 30
0.0
 11
150.864
 21
15.7716
 31
0.0
  0
LINE
  8
0
 62
     0
 10
150.864
 20
15.7716
 30
0.0
 11
150.864
 21
18.8709
 31
0.0
  0
LINE
  8
0
 62
     0
 10
150.864
 20
18.8709
 30
0.0
 11
150.063
 21
18.8709
 31
0.0
  0
LINE
  8
0
 62
     0
 10
150.063
 20
18.8709
 30
0.0
 11
150.063
 21
19.4717
 31
0.0
  0
LINE
  8
0
 62
     0
 10
150.063
 20
19.4717
 30
0.0
 11
189.688
 21
19.4717
 31
0.0
  0
LINE
  8
0
 62
     0
 10
189.688
 20
19.4717
 30
0.0
 11
189.688
 21
15.0027
 31
0.0
  0
LINE
  8
0
 62
     0
 10
189.688
 20
15.0027
 30
0.0
 11
191.414
 21
15.0027
 31
0.0
  0
LINE
  8
0
 62
     0
 10
191.414
 20
15.0027
 30
0.0
 11
191.414
 21
13.8011
 31
0.0
  0
LINE
  8
0
 62
     0
 10
191.414
 20
13.8011
 30
0.0
 11
194.714
 21
13.8011
 31
0.0
  0
LINE
  8
0
 62
     0
 10
194.714
 20
13.8011
 30
0.0
 11
194.714
 21
15.0027
 31
0.0
  0
LINE
  8
0
 62
     0
 10
194.714
 20
15.0027
 30
0.0
 11
196.438
 21
15.0027
 31
0.0
  0
LINE
  8
0
 62
     0
 10
196.438
 20
15.0027
 30
0.0
 11
196.438
 21
21.2714
 31
0.0
  0
LINE
  8
0
 62
     0
 10
196.438
 20
21.2714
 30
0.0
 11
197.263
 21
21.2714
 31
0.0
  0
LINE
  8
0
 62
     0
 10
197.263
 20
21.2714
 30
0.0
 11
197.263
 21
24.0716
 31
0.0
  0
LINE
  8
0
 62
     0
 10
197.263
 20
24.0716
 30
0.0
 11
196.438
 21
24.0716
 31
0.0
  0
LINE
  8
0
 62
     0
 10
196.438
 20
24.0716
 30
0.0
 11
196.438
 21
27.3017
 31
0.0
  0
LINE
  8
0
 62
     0
 10
196.438
 20
27.3017
 30
0.0
 11
189.688
 21
27.3017
 31
0.0
  0
LINE
  8
0
 62
     0
 10
189.688
 20
27.3017
 30
0.0
 11
189.688
 21
24.0716
 31
0.0
  0
LINE
  8
0
 62
     0
 10
189.688
 20
24.0716
 30
0.0
 11
150.063
 21
24.0716
 31
0.0
  0
LINE
  8
0
 62
     0
 10
150.063
 20
24.0716
 30
0.0
 11
150.063
 21
24.6724
 31
0.0
  0
LINE
  8
0
 62
     0
 10
150.063
 20
24.6724
 30
0.0
 11
150.864
 21
24.6724
 31
0.0
  0
LINE
  8
0
 62
     0
 10
150.864
 20
24.6724
 30
0.0
 11
150.864
 21
27.7716
 31
0.0
  0
LINE
  8
0
 62
     0
 10
150.864
 20
27.7716
 30
0.0
 11
150.063
 21
27.7716
 31
0.0
  0
LINE
  8
0
 62
     0
 10
150.063
 20
27.7716
 30
0.0
 11
150.063
 21
28.7707
 31
0.0
  0
LINE
  8
0
 62
     0
 10
150.063
 20
28.7707
 30
0.0
 11
136.063
 21
28.7707
 31
0.0
  0
LINE
  8
0
 62
     0
 10
300.371
 20
28.7707
 30
0.0
 11
300.371
 21
27.7716
 31
0.0
  0
LINE
  8
0
 62
     0
 10
300.371
 20
27.7716
 30
0.0
 11
299.57
 21
27.7716
 31
0.0
  0
LINE
  8
0
 62
     0
 10
299.57
 20
27.7716
 30
0.0
 11
299.57
 21
24.6724
 31
0.0
  0
LINE
  8
0
 62
     0
 10
299.57
 20
24.6724
 30
0.0
 11
300.371
 21
24.6724
 31
0.0
  0
LINE
  8
0
 62
     0
 10
300.371
 20
24.6724
 30
0.0
 11
300.371
 21
18.8709
 31
0.0
  0
LINE
  8
0
 62
     0
 10
300.371
 20
18.8709
 30
0.0
 11
299.57
 21
18.8709
 31
0.0
  0
LINE
  8
0
 62
     0
 10
299.57
 20
18.8709
 30
0.0
 11
299.57
 21
15.7716
 31
0.0
  0
LINE
  8
0
 62
     0
 10
299.57
 20
15.7716
 30
0.0
 11
300.371
 21
15.7716
 31
0.0
  0
LINE
  8
0
 62
     0
 10
300.371
 20
15.7716
 30
0.0
 11
300.371
 21
14.7712
 31
0.0
  0
LINE
  8
0
 62
     0
 10
300.371
 20
14.7712
 30
0.0
 11
314.371
 21
14.7712
 31
0.0
  0
LINE
  8
0
 62
     0
 10
314.371
 20
14.7712
 30
0.0
 11
314.371
 21
15.7716
 31
0.0
  0
LINE
  8
0
 62
     0
 10
314.371
 20
15.7716
 30
0.0
 11
315.171
 21
15.7716
 31
0.0
  0
LINE
  8
0
 62
     0
 10
315.171
 20
15.7716
 30
0.0
 11
315.171
 21
18.8709
 31
0.0
  0
LINE
  8
0
 62
     0
 10
315.171
 20
18.8709
 30
0.0
 11
314.371
 21
18.8709
 31
0.0
  0
LINE
  8
0
 62
     0
 10
314.371
 20
18.8709
 30
0.0
 11
314.371
 21
24.6724
 31
0.0
  0
LINE
  8
0
 62
     0
 10
314.371
 20
24.6724
 30
0.0
 11
315.171
 21
24.6724
 31
0.0
  0
LINE
  8
0
 62
     0
 10
315.171
 20
24.6724
 30
0.0
 11
315.171
 21
27.7716
 31
0.0
  0
LINE
  8
0
 62
     0
 10
315.171
 20
27.7716
 30
0.0
 11
314.371
 21
27.7716
 31
0.0
  0
LINE
  8
0
 62
     0
 10
314.371
 20
27.7716
 30
0.0
 11
314.371
 21
28.7707
 31
0.0
  0
LINE
  8
0
 62
     0
 10
314.371
 20
28.7707
 30
0.0
 11
300.371
 21
28.7707
 31
0.0
  0
LINE
  8
0
 62
     0
 10
281.321
 20
28.7707
 30
0.0
 11
281.321
 21
27.7716
 31
0.0
  0
LINE
  8
0
 62
     0
 10
281.321
 20
27.7716
 30
0.0
 11
280.52
 21
27.7716
 31
0.0
  0
LINE
  8
0
 62
     0
 10
280.52
 20
27.7716
 30
0.0
 11
280.52
 21
24.6724
 31
0.0
  0
LINE
  8
0
 62
     0
 10
280.52
 20
24.6724
 30
0.0
 11
281.321
 21
24.6724
 31
0.0
  0
LINE
  8
0
 62
     0
 10
281.321
 20
24.6724
 30
0.0
 11
281.321
 21
18.8709
 31
0.0
  0
LINE
  8
0
 62
     0
 10
281.321
 20
18.8709
 30
0.0
 11
280.52
 21
18.8709
 31
0.0
  0
LINE
  8
0
 62
     0
 10
280.52
 20
18.8709
 30
0.0
 11
280.52
 21
15.7716
 31
0.0
  0
LINE
  8
0
 62
     0
 10
280.52
 20
15.7716
 30
0.0
 11
281.321
 21
15.7716
 31
0.0
  0
LINE
  8
0
 62
     0
 10
281.321
 20
15.7716
 30
0.0
 11
281.321
 21
14.7712
 31
0.0
  0
LINE
  8
0
 62
     0
 10
281.321
 20
14.7712
 30
0.0
 11
295.321
 21
14.7712
 31
0.0
  0
LINE
  8
0
 62
     0
 10
295.321
 20
14.7712
 30
0.0
 11
295.321
 21
15.7716
 31
0.0
  0
LINE
  8
0
 62
     0
 10
295.321
 20
15.7716
 30
0.0
 11
296.121
 21
15.7716
 31
0.0
  0
LINE
  8
0
 62
     0
 10
296.121
 20
15.7716
 30
0.0
 11
296.121
 21
18.8709
 31
0.0
  0
LINE
  8
0
 62
     0
 10
296.121
 20
18.8709
 30
0.0
 11
295.321
 21
18.8709
 31
0.0
  0
LINE
  8
0
 62
     0
 10
295.321
 20
18.8709
 30
0.0
 11
295.321
 21
24.6724
 31
0.0
  0
LINE
  8
0
 62
     0
 10
295.321
 20
24.6724
 30
0.0
 11
296.121
 21
24.6724
 31
0.0
  0
LINE
  8
0
 62
     0
 10
296.121
 20
24.6724
 30
0.0
 11
296.121
 21
27.7716
 31
0.0
  0
LINE
  8
0
 62
     0
 10
296.121
 20
27.7716
 30
0.0
 11
295.321
 21
27.7716
 31
0.0
  0
LINE
  8
0
 62
     0
 10
295.321
 20
27.7716
 30
0.0
 11
295.321
 21
28.7707
 31
0.0
  0
LINE
  8
0
 62
     0
 10
295.321
 20
28.7707
 30
0.0
 11
281.321
 21
28.7707
 31
0.0
  0
LINE
  8
0
 62
     0
 10
262.271
 20
28.7707
 30
0.0
 11
262.271
 21
27.7716
 31
0.0
  0
LINE
  8
0
 62
     0
 10
262.271
 20
27.7716
 30
0.0
 11
261.47
 21
27.7716
 31
0.0
  0
LINE
  8
0
 62
     0
 10
261.47
 20
27.7716
 30
0.0
 11
261.47
 21
24.6724
 31
0.0
  0
LINE
  8
0
 62
     0
 10
261.47
 20
24.6724
 30
0.0
 11
262.271
 21
24.6724
 31
0.0
  0
LINE
  8
0
 62
     0
 10
262.271
 20
24.6724
 30
0.0
 11
262.271
 21
18.8709
 31
0.0
  0
LINE
  8
0
 62
     0
 10
262.271
 20
18.8709
 30
0.0
 11
261.47
 21
18.8709
 31
0.0
  0
LINE
  8
0
 62
     0
 10
261.47
 20
18.8709
 30
0.0
 11
261.47
 21
15.7716
 31
0.0
  0
LINE
  8
0
 62
     0
 10
261.47
 20
15.7716
 30
0.0
 11
262.271
 21
15.7716
 31
0.0
  0
LINE
  8
0
 62
     0
 10
262.271
 20
15.7716
 30
0.0
 11
262.271
 21
14.7712
 31
0.0
  0
LINE
  8
0
 62
     0
 10
262.271
 20
14.7712
 30
0.0
 11
276.271
 21
14.7712
 31
0.0
  0
LINE
  8
0
 62
     0
 10
276.271
 20
14.7712
 30
0.0
 11
276.271
 21
15.7716
 31
0.0
  0
LINE
  8
0
 62
     0
 10
276.271
 20
15.7716
 30
0.0
 11
277.071
 21
15.7716
 31
0.0
  0
LINE
  8
0
 62
     0
 10
277.071
 20
15.7716
 30
0.0
 11
277.071
 21
18.8709
 31
0.0
  0
LINE
  8
0
 62
     0
 10
277.071
 20
18.8709
 30
0.0
 11
276.271
 21
18.8709
 31
0.0
  0
LINE
  8
0
 62
     0
 10
276.271
 20
18.8709
 30
0.0
 11
276.271
 21
24.6724
 31
0.0
  0
LINE
  8
0
 62
     0
 10
276.271
 20
24.6724
 30
0.0
 11
277.071
 21
24.6724
 31
0.0
  0
LINE
  8
0
 62
     0
 10
277.071
 20
24.6724
 30
0.0
 11
277.071
 21
27.7716
 31
0.0
  0
LINE
  8
0
 62
     0
 10
277.071
 20
27.7716
 30
0.0
 11
276.271
 21
27.7716
 31
0.0
  0
LINE
  8
0
 62
     0
 10
276.271
 20
27.7716
 30
0.0
 11
276.271
 21
28.7707
 31
0.0
  0
LINE
  8
0
 62
     0
 10
276.271
 20
28.7707
 30
0.0
 11
262.271
 21
28.7707
 31
0.0
  0
LINE
  8
0
 62
     0
 10
238.457
 20
28.7707
 30
0.0
 11
238.457
 21
27.7716
 31
0.0
  0
LINE
  8
0
 62
     0
 10
238.457
 20
27.7716
 30
0.0
 11
237.658
 21
27.7716
 31
0.0
  0
LINE
  8
0
 62
     0
 10
237.658
 20
27.7716
 30
0.0
 11
237.658
 21
24.6724
 31
0.0
  0
LINE
  8
0
 62
     0
 10
237.658
 20
24.6724
 30
0.0
 11
238.457
 21
24.6724
 31
0.0
  0
LINE
  8
0
 62
     0
 10
238.457
 20
24.6724
 30
0.0
 11
238.457
 21
18.8709
 31
0.0
  0
LINE
  8
0
 62
     0
 10
238.457
 20
18.8709
 30
0.0
 11
237.658
 21
18.8709
 31
0.0
  0
LINE
  8
0
 62
     0
 10
237.658
 20
18.8709
 30
0.0
 11
237.658
 21
15.7716
 31
0.0
  0
LINE
  8
0
 62
     0
 10
237.658
 20
15.7716
 30
0.0
 11
238.457
 21
15.7716
 31
0.0
  0
LINE
  8
0
 62
     0
 10
238.457
 20
15.7716
 30
0.0
 11
238.457
 21
14.7712
 31
0.0
  0
LINE
  8
0
 62
     0
 10
238.457
 20
14.7712
 30
0.0
 11
252.458
 21
14.7712
 31
0.0
  0
LINE
  8
0
 62
     0
 10
252.458
 20
14.7712
 30
0.0
 11
252.458
 21
15.7716
 31
0.0
  0
LINE
  8
0
 62
     0
 10
252.458
 20
15.7716
 30
0.0
 11
253.256
 21
15.7716
 31
0.0
  0
LINE
  8
0
 62
     0
 10
253.256
 20
15.7716
 30
0.0
 11
253.256
 21
18.8709
 31
0.0
  0
LINE
  8
0
 62
     0
 10
253.256
 20
18.8709
 30
0.0
 11
252.458
 21
18.8709
 31
0.0
  0
LINE
  8
0
 62
     0
 10
252.458
 20
18.8709
 30
0.0
 11
252.458
 21
24.6724
 31
0.0
  0
LINE
  8
0
 62
     0
 10
252.458
 20
24.6724
 30
0.0
 11
253.256
 21
24.6724
 31
0.0
  0
LINE
  8
0
 62
     0
 10
253.256
 20
24.6724
 30
0.0
 11
253.256
 21
27.7716
 31
0.0
  0
LINE
  8
0
 62
     0
 10
253.256
 20
27.7716
 30
0.0
 11
252.458
 21
27.7716
 31
0.0
  0
LINE
  8
0
 62
     0
 10
252.458
 20
27.7716
 30
0.0
 11
252.458
 21
28.7707
 31
0.0
  0
LINE
  8
0
 62
     0
 10
252.458
 20
28.7707
 30
0.0
 11
238.457
 21
28.7707
 31
0.0
  0
LINE
  8
0
 62
     0
 10
209.882
 20
28.7707
 30
0.0
 11
209.882
 21
27.7716
 31
0.0
  0
LINE
  8
0
 62
     0
 10
209.882
 20
27.7716
 30
0.0
 11
209.083
 21
27.7716
 31
0.0
  0
LINE
  8
0
 62
     0
 10
209.083
 20
27.7716
 30
0.0
 11
209.083
 21
24.6724
 31
0.0
  0
LINE
  8
0
 62
     0
 10
209.083
 20
24.6724
 30
0.0
 11
209.882
 21
24.6724
 31
0.0
  0
LINE
  8
0
 62
     0
 10
209.882
 20
24.6724
 30
0.0
 11
209.882
 21
18.8709
 31
0.0
  0
LINE
  8
0
 62
     0
 10
209.882
 20
18.8709
 30
0.0
 11
209.083
 21
18.8709
 31
0.0
  0
LINE
  8
0
 62
     0
 10
209.083
 20
18.8709
 30
0.0
 11
209.083
 21
15.7716
 31
0.0
  0
LINE
  8
0
 62
     0
 10
209.083
 20
15.7716
 30
0.0
 11
209.882
 21
15.7716
 31
0.0
  0
LINE
  8
0
 62
     0
 10
209.882
 20
15.7716
 30
0.0
 11
209.882
 21
14.7712
 31
0.0
  0
LINE
  8
0
 62
     0
 10
209.882
 20
14.7712
 30
0.0
 11
223.883
 21
14.7712
 31
0.0
  0
LINE
  8
0
 62
     0
 10
223.883
 20
14.7712
 30
0.0
 11
223.883
 21
15.7716
 31
0.0
  0
LINE
  8
0
 62
     0
 10
223.883
 20
15.7716
 30
0.0
 11
224.682
 21
15.7716
 31
0.0
  0
LINE
  8
0
 62
     0
 10
224.682
 20
15.7716
 30
0.0
 11
224.682
 21
18.8709
 31
0.0
  0
LINE
  8
0
 62
     0
 10
224.682
 20
18.8709
 30
0.0
 11
223.883
 21
18.8709
 31
0.0
  0
LINE
  8
0
 62
     0
 10
223.883
 20
18.8709
 30
0.0
 11
223.883
 21
24.6724
 31
0.0
  0
LINE
  8
0
 62
     0
 10
223.883
 20
24.6724
 30
0.0
 11
224.682
 21
24.6724
 31
0.0
  0
LINE
  8
0
 62
     0
 10
224.682
 20
24.6724
 30
0.0
 11
224.682
 21
27.7716
 31
0.0
  0
LINE
  8
0
 62
     0
 10
224.682
 20
27.7716
 30
0.0
 11
223.883
 21
27.7716
 31
0.0
  0
LINE
  8
0
 62
     0
 10
223.883
 20
27.7716
 30
0.0
 11
223.883
 21
28.7707
 31
0.0
  0
LINE
  8
0
 62
     0
 10
223.883
 20
28.7707
 30
0.0
 11
209.882
 21
28.7707
 31
0.0
  0
LINE
  8
0
 62
     0
 10
64.6257
 20
28.7707
 30
0.0
 11
64.6257
 21
27.7716
 31
0.0
  0
LINE
  8
0
 62
     0
 10
64.6257
 20
27.7716
 30
0.0
 11
63.8267
 21
27.7716
 31
0.0
  0
LINE
  8
0
 62
     0
 10
63.8267
 20
27.7716
 30
0.0
 11
63.8267
 21
24.6724
 31
0.0
  0
LINE
  8
0
 62
     0
 10
63.8267
 20
24.6724
 30
0.0
 11
64.6257
 21
24.6724
 31
0.0
  0
LINE
  8
0
 62
     0
 10
64.6257
 20
24.6724
 30
0.0
 11
64.6257
 21
18.8709
 31
0.0
  0
LINE
  8
0
 62
     0
 10
64.6257
 20
18.8709
 30
0.0
 11
63.8267
 21
18.8709
 31
0.0
  0
LINE
  8
0
 62
     0
 10
63.8267
 20
18.8709
 30
0.0
 11
63.8267
 21
15.7716
 31
0.0
  0
LINE
  8
0
 62
     0
 10
63.8267
 20
15.7716
 30
0.0
 11
64.6257
 21
15.7716
 31
0.0
  0
LINE
  8
0
 62
     0
 10
64.6257
 20
15.7716
 30
0.0
 11
64.6257
 21
14.7712
 31
0.0
  0
LINE
  8
0
 62
     0
 10
64.6257
 20
14.7712
 30
0.0
 11
78.6268
 21
14.7712
 31
0.0
  0
LINE
  8
0
 62
     0
 10
78.6268
 20
14.7712
 30
0.0
 11
78.6268
 21
15.7716
 31
0.0
  0
LINE
  8
0
 62
     0
 10
78.6268
 20
15.7716
 30
0.0
 11
79.4262
 21
15.7716
 31
0.0
  0
LINE
  8
0
 62
     0
 10
79.4262
 20
15.7716
 30
0.0
 11
79.4262
 21
18.8709
 31
0.0
  0
LINE
  8
0
 62
     0
 10
79.4262
 20
18.8709
 30
0.0
 11
78.6268
 21
18.8709
 31
0.0
  0
LINE
  8
0
 62
     0
 10
78.6268
 20
18.8709
 30
0.0
 11
78.6268
 21
24.6724
 31
0.0
  0
LINE
  8
0
 62
     0
 10
78.6268
 20
24.6724
 30
0.0
 11
79.4262
 21
24.6724
 31
0.0
  0
LINE
  8
0
 62
     0
 10
79.4262
 20
24.6724
 30
0.0
 11
79.4262
 21
27.7716
 31
0.0
  0
LINE
  8
0
 62
     0
 10
79.4262
 20
27.7716
 30
0.0
 11
78.6268
 21
27.7716
 31
0.0
  0
LINE
  8
0
 62
     0
 10
78.6268
 20
27.7716
 30
0.0
 11
78.6268
 21
28.7707
 31
0.0
  0
LINE
  8
0
 62
     0
 10
78.6268
 20
28.7707
 30
0.0
 11
64.6257
 21
28.7707
 31
0.0
  0
LINE
  8
0
 62
     0
 10
40.8132
 20
28.7707
 30
0.0
 11
40.8132
 21
27.7716
 31
0.0
  0
LINE
  8
0
 62
     0
 10
40.8132
 20
27.7716
 30
0.0
 11
40.0142
 21
27.7716
 31
0.0
  0
LINE
  8
0
 62
     0
 10
40.0142
 20
27.7716
 30
0.0
 11
40.0142
 21
24.6724
 31
0.0
  0
LINE
  8
0
 62
     0
 10
40.0142
 20
24.6724
 30
0.0
 11
40.8132
 21
24.6724
 31
0.0
  0
LINE
  8
0
 62
     0
 10
40.8132
 20
24.6724
 30
0.0
 11
40.8132
 21
18.8709
 31
0.0
  0
LINE
  8
0
 62
     0
 10
40.8132
 20
18.8709
 30
0.0
 11
40.0142
 21
18.8709
 31
0.0
  0
LINE
  8
0
 62
     0
 10
40.0142
 20
18.8709
 30
0.0
 11
40.0142
 21
15.7716
 31
0.0
  0
LINE
  8
0
 62
     0
 10
40.0142
 20
15.7716
 30
0.0
 11
40.8132
 21
15.7716
 31
0.0
  0
LINE
  8
0
 62
     0
 10
40.8132
 20
15.7716
 30
0.0
 11
40.8132
 21
14.7712
 31
0.0
  0
LINE
  8
0
 62
     0
 10
40.8132
 20
14.7712
 30
0.0
 11
54.8128
 21
14.7712
 31
0.0
  0
LINE
  8
0
 62
     0
 10
54.8128
 20
14.7712
 30
0.0
 11
54.8128
 21
15.7716
 31
0.0
  0
LINE
  8
0
 62
     0
 10
54.8128
 20
15.7716
 30
0.0
 11
55.6137
 21
15.7716
 31
0.0
  0
LINE
  8
0
 62
     0
 10
55.6137
 20
15.7716
 30
0.0
 11
55.6137
 21
18.8709
 31
0.0
  0
LINE
  8
0
 62
     0
 10
55.6137
 20
18.8709
 30
0.0
 11
54.8128
 21
18.8709
 31
0.0
  0
LINE
  8
0
 62
     0
 10
54.8128
 20
18.8709
 30
0.0
 11
54.8128
 21
24.6724
 31
0.0
  0
LINE
  8
0
 62
     0
 10
54.8128
 20
24.6724
 30
0.0
 11
55.6137
 21
24.6724
 31
0.0
  0
LINE
  8
0
 62
     0
 10
55.6137
 20
24.6724
 30
0.0
 11
55.6137
 21
27.7716
 31
0.0
  0
LINE
  8
0
 62
     0
 10
55.6137
 20
27.7716
 30
0.0
 11
54.8128
 21
27.7716
 31
0.0
  0
LINE
  8
0
 62
     0
 10
54.8128
 20
27.7716
 30
0.0
 11
54.8128
 21
28.7707
 31
0.0
  0
LINE
  8
0
 62
     0
 10
54.8128
 20
28.7707
 30
0.0
 11
40.8132
 21
28.7707
 31
0.0
  0
LINE
  8
0
 62
     0
 10
17.0009
 20
28.7707
 30
0.0
 11
17.0009
 21
27.7716
 31
0.0
  0
LINE
  8
0
 62
     0
 10
17.0009
 20
27.7716
 30
0.0
 11
16.2016
 21
27.7716
 31
0.0
  0
LINE
  8
0
 62
     0
 10
16.2016
 20
27.7716
 30
0.0
 11
16.2016
 21
24.6724
 31
0.0
  0
LINE
  8
0
 62
     0
 10
16.2016
 20
24.6724
 30
0.0
 11
17.0009
 21
24.6724
 31
0.0
  0
LINE
  8
0
 62
     0
 10
17.0009
 20
24.6724
 30
0.0
 11
17.0009
 21
18.8709
 31
0.0
  0
LINE
  8
0
 62
     0
 10
17.0009
 20
18.8709
 30
0.0
 11
16.2016
 21
18.8709
 31
0.0
  0
LINE
  8
0
 62
     0
 10
16.2016
 20
18.8709
 30
0.0
 11
16.2016
 21
15.7716
 31
0.0
  0
LINE
  8
0
 62
     0
 10
16.2016
 20
15.7716
 30
0.0
 11
17.0009
 21
15.7716
 31
0.0
  0
LINE
  8
0
 62
     0
 10
17.0009
 20
15.7716
 30
0.0
 11
17.0009
 21
14.7712
 31
0.0
  0
LINE
  8
0
 62
     0
 10
17.0009
 20
14.7712
 30
0.0
 11
31.0017
 21
14.7712
 31
0.0
  0
LINE
  8
0
 62
     0
 10
31.0017
 20
14.7712
 30
0.0
 11
31.0017
 21
15.7716
 31
0.0
  0
LINE
  8
0
 62
     0
 10
31.0017
 20
15.7716
 30
0.0
 11
31.801
 21
15.7716
 31
0.0
  0
LINE
  8
0
 62
     0
 10
31.801
 20
15.7716
 30
0.0
 11
31.801
 21
18.8709
 31
0.0
  0
LINE
  8
0
 62
     0
 10
31.801
 20
18.8709
 30
0.0
 11
31.0017
 21
18.8709
 31
0.0
  0
LINE
  8
0
 62
     0
 10
31.0017
 20
18.8709
 30
0.0
 11
31.0017
 21
24.6724
 31
0.0
  0
LINE
  8
0
 62
     0
 10
31.0017
 20
24.6724
 30
0.0
 11
31.801
 21
24.6724
 31
0.0
  0
LINE
  8
0
 62
     0
 10
31.801
 20
24.6724
 30
0.0
 11
31.801
 21
27.7716
 31
0.0
  0
LINE
  8
0
 62
     0
 10
31.801
 20
27.7716
 30
0.0
 11
31.0017
 21
27.7716
 31
0.0
  0
LINE
  8
0
 62
     0
 10
31.0017
 20
27.7716
 30
0.0
 11
31.0017
 21
28.7707
 31
0.0
  0
LINE
  8
0
 62
     0
 10
31.0017
 20
28.7707
 30
0.0
 11
17.0009
 21
28.7707
 31
0.0
  0
LINE
  8
0
 62
     0
 10
26.5259
 20
47.8208
 30
0.0
 11
26.5259
 21
46.8217
 31
0.0
  0
LINE
  8
0
 62
     0
 10
26.5259
 20
46.8217
 30
0.0
 11
25.7266
 21
46.8217
 31
0.0
  0
LINE
  8
0
 62
     0
 10
25.7266
 20
46.8217
 30
0.0
 11
25.7266
 21
43.7226
 31
0.0
  0
LINE
  8
0
 62
     0
 10
25.7266
 20
43.7226
 30
0.0
 11
26.5259
 21
43.7226
 31
0.0
  0
LINE
  8
0
 62
     0
 10
26.5259
 20
43.7226
 30
0.0
 11
26.5259
 21
43.1214
 31
0.0
  0
LINE
  8
0
 62
     0
 10
26.5259
 20
43.1214
 30
0.0
 11
25.0017
 21
43.1214
 31
0.0
  0
LINE
  8
0
 62
     0
 10
25.0017
 20
43.1214
 30
0.0
 11
25.0017
 21
46.3518
 31
0.0
  0
LINE
  8
0
 62
     0
 10
25.0017
 20
46.3518
 30
0.0
 11
18.2521
 21
46.3518
 31
0.0
  0
LINE
  8
0
 62
     0
 10
18.2521
 20
46.3518
 30
0.0
 11
18.2521
 21
43.1214
 31
0.0
  0
LINE
  8
0
 62
     0
 10
18.2521
 20
43.1214
 30
0.0
 11
17.4267
 21
43.1214
 31
0.0
  0
LINE
  8
0
 62
     0
 10
17.4267
 20
43.1214
 30
0.0
 11
17.4267
 21
40.3214
 31
0.0
  0
LINE
  8
0
 62
     0
 10
17.4267
 20
40.3214
 30
0.0
 11
18.2521
 21
40.3214
 31
0.0
  0
LINE
  8
0
 62
     0
 10
18.2521
 20
40.3214
 30
0.0
 11
18.2521
 21
34.0513
 31
0.0
  0
LINE
  8
0
 62
     0
 10
18.2521
 20
34.0513
 30
0.0
 11
19.976
 21
34.0513
 31
0.0
  0
LINE
  8
0
 62
     0
 10
19.976
 20
34.0513
 30
0.0
 11
19.976
 21
32.8511
 31
0.0
  0
LINE
  8
0
 62
     0
 10
19.976
 20
32.8511
 30
0.0
 11
23.2765
 21
32.8511
 31
0.0
  0
LINE
  8
0
 62
     0
 10
23.2765
 20
32.8511
 30
0.0
 11
23.2765
 21
34.0513
 31
0.0
  0
LINE
  8
0
 62
     0
 10
23.2765
 20
34.0513
 30
0.0
 11
25.0017
 21
34.0513
 31
0.0
  0
LINE
  8
0
 62
     0
 10
25.0017
 20
34.0513
 30
0.0
 11
25.0017
 21
38.5216
 31
0.0
  0
LINE
  8
0
 62
     0
 10
25.0017
 20
38.5216
 30
0.0
 11
26.5259
 21
38.5216
 31
0.0
  0
LINE
  8
0
 62
     0
 10
26.5259
 20
38.5216
 30
0.0
 11
26.5259
 21
37.9208
 31
0.0
  0
LINE
  8
0
 62
     0
 10
26.5259
 20
37.9208
 30
0.0
 11
25.7266
 21
37.9208
 31
0.0
  0
LINE
  8
0
 62
     0
 10
25.7266
 20
37.9208
 30
0.0
 11
25.7266
 21
34.8216
 31
0.0
  0
LINE
  8
0
 62
     0
 10
25.7266
 20
34.8216
 30
0.0
 11
26.5259
 21
34.8216
 31
0.0
  0
LINE
  8
0
 62
     0
 10
26.5259
 20
34.8216
 30
0.0
 11
26.5259
 21
33.8212
 31
0.0
  0
LINE
  8
0
 62
     0
 10
26.5259
 20
33.8212
 30
0.0
 11
40.5268
 21
33.8212
 31
0.0
  0
LINE
  8
0
 62
     0
 10
40.5268
 20
33.8212
 30
0.0
 11
40.5268
 21
34.8216
 31
0.0
  0
LINE
  8
0
 62
     0
 10
40.5268
 20
34.8216
 30
0.0
 11
41.3262
 21
34.8216
 31
0.0
  0
LINE
  8
0
 62
     0
 10
41.3262
 20
34.8216
 30
0.0
 11
41.3262
 21
37.9208
 31
0.0
  0
LINE
  8
0
 62
     0
 10
41.3262
 20
37.9208
 30
0.0
 11
40.5268
 21
37.9208
 31
0.0
  0
LINE
  8
0
 62
     0
 10
40.5268
 20
37.9208
 30
0.0
 11
40.5268
 21
38.5216
 31
0.0
  0
LINE
  8
0
 62
     0
 10
40.5268
 20
38.5216
 30
0.0
 11
42.0508
 21
38.5216
 31
0.0
  0
LINE
  8
0
 62
     0
 10
42.0508
 20
38.5216
 30
0.0
 11
42.0508
 21
34.0513
 31
0.0
  0
LINE
  8
0
 62
     0
 10
42.0508
 20
34.0513
 30
0.0
 11
43.7762
 21
34.0513
 31
0.0
  0
LINE
  8
0
 62
     0
 10
43.7762
 20
34.0513
 30
0.0
 11
43.7762
 21
32.8511
 31
0.0
  0
LINE
  8
0
 62
     0
 10
43.7762
 20
32.8511
 30
0.0
 11
47.0764
 21
32.8511
 31
0.0
  0
LINE
  8
0
 62
     0
 10
47.0764
 20
32.8511
 30
0.0
 11
47.0764
 21
34.0513
 31
0.0
  0
LINE
  8
0
 62
     0
 10
47.0764
 20
34.0513
 30
0.0
 11
48.8019
 21
34.0513
 31
0.0
  0
LINE
  8
0
 62
     0
 10
48.8019
 20
34.0513
 30
0.0
 11
48.8019
 21
40.3214
 31
0.0
  0
LINE
  8
0
 62
     0
 10
48.8019
 20
40.3214
 30
0.0
 11
49.626
 21
40.3214
 31
0.0
  0
LINE
  8
0
 62
     0
 10
49.626
 20
40.3214
 30
0.0
 11
49.626
 21
43.1214
 31
0.0
  0
LINE
  8
0
 62
     0
 10
49.626
 20
43.1214
 30
0.0
 11
48.8019
 21
43.1214
 31
0.0
  0
LINE
  8
0
 62
     0
 10
48.8019
 20
43.1214
 30
0.0
 11
48.8019
 21
46.3518
 31
0.0
  0
LINE
  8
0
 62
     0
 10
48.8019
 20
46.3518
 30
0.0
 11
42.0508
 21
46.3518
 31
0.0
  0
LINE
  8
0
 62
     0
 10
42.0508
 20
46.3518
 30
0.0
 11
42.0508
 21
43.1214
 31
0.0
  0
LINE
  8
0
 62
     0
 10
42.0508
 20
43.1214
 30
0.0
 11
40.5268
 21
43.1214
 31
0.0
  0
LINE
  8
0
 62
     0
 10
40.5268
 20
43.1214
 30
0.0
 11
40.5268
 21
43.7226
 31
0.0
  0
LINE
  8
0
 62
     0
 10
40.5268
 20
43.7226
 30
0.0
 11
41.3262
 21
43.7226
 31
0.0
  0
LINE
  8
0
 62
     0
 10
41.3262
 20
43.7226
 30
0.0
 11
41.3262
 21
46.8217
 31
0.0
  0
LINE
  8
0
 62
     0
 10
41.3262
 20
46.8217
 30
0.0
 11
40.5268
 21
46.8217
 31
0.0
  0
LINE
  8
0
 62
     0
 10
40.5268
 20
46.8217
 30
0.0
 11
40.5268
 21
47.8208
 31
0.0
  0
LINE
  8
0
 62
     0
 10
40.5268
 20
47.8208
 30
0.0
 11
26.5259
 21
47.8208
 31
0.0
  0
LINE
  8
0
 62
     0
 10
300.371
 20
47.8208
 30
0.0
 11
300.371
 21
46.8217
 31
0.0
  0
LINE
  8
0
 62
     0
 10
300.371
 20
46.8217
 30
0.0
 11
299.57
 21
46.8217
 31
0.0
  0
LINE
  8
0
 62
     0
 10
299.57
 20
46.8217
 30
0.0
 11
299.57
 21
43.7226
 31
0.0
  0
LINE
  8
0
 62
     0
 10
299.57
 20
43.7226
 30
0.0
 11
300.371
 21
43.7226
 31
0.0
  0
LINE
  8
0
 62
     0
 10
300.371
 20
43.7226
 30
0.0
 11
300.371
 21
37.9208
 31
0.0
  0
LINE
  8
0
 62
     0
 10
300.371
 20
37.9208
 30
0.0
 11
299.57
 21
37.9208
 31
0.0
  0
LINE
  8
0
 62
     0
 10
299.57
 20
37.9208
 30
0.0
 11
299.57
 21
34.8216
 31
0.0
  0
LINE
  8
0
 62
     0
 10
299.57
 20
34.8216
 30
0.0
 11
300.371
 21
34.8216
 31
0.0
  0
LINE
  8
0
 62
     0
 10
300.371
 20
34.8216
 30
0.0
 11
300.371
 21
33.8212
 31
0.0
  0
LINE
  8
0
 62
     0
 10
300.371
 20
33.8212
 30
0.0
 11
314.371
 21
33.8212
 31
0.0
  0
LINE
  8
0
 62
     0
 10
314.371
 20
33.8212
 30
0.0
 11
314.371
 21
34.8216
 31
0.0
  0
LINE
  8
0
 62
     0
 10
314.371
 20
34.8216
 30
0.0
 11
315.171
 21
34.8216
 31
0.0
  0
LINE
  8
0
 62
     0
 10
315.171
 20
34.8216
 30
0.0
 11
315.171
 21
37.9208
 31
0.0
  0
LINE
  8
0
 62
     0
 10
315.171
 20
37.9208
 30
0.0
 11
314.371
 21
37.9208
 31
0.0
  0
LINE
  8
0
 62
     0
 10
314.371
 20
37.9208
 30
0.0
 11
314.371
 21
43.7226
 31
0.0
  0
LINE
  8
0
 62
     0
 10
314.371
 20
43.7226
 30
0.0
 11
315.171
 21
43.7226
 31
0.0
  0
LINE
  8
0
 62
     0
 10
315.171
 20
43.7226
 30
0.0
 11
315.171
 21
46.8217
 31
0.0
  0
LINE
  8
0
 62
     0
 10
315.171
 20
46.8217
 30
0.0
 11
314.371
 21
46.8217
 31
0.0
  0
LINE
  8
0
 62
     0
 10
314.371
 20
46.8217
 30
0.0
 11
314.371
 21
47.8208
 31
0.0
  0
LINE
  8
0
 62
     0
 10
314.371
 20
47.8208
 30
0.0
 11
300.371
 21
47.8208
 31
0.0
  0
LINE
  8
0
 62
     0
 10
281.321
 20
47.8208
 30
0.0
 11
281.321
 21
46.8217
 31
0.0
  0
LINE
  8
0
 62
     0
 10
281.321
 20
46.8217
 30
0.0
 11
280.52
 21
46.8217
 31
0.0
  0
LINE
  8
0
 62
     0
 10
280.52
 20
46.8217
 30
0.0
 11
280.52
 21
43.7226
 31
0.0
  0
LINE
  8
0
 62
     0
 10
280.52
 20
43.7226
 30
0.0
 11
281.321
 21
43.7226
 31
0.0
  0
LINE
  8
0
 62
     0
 10
281.321
 20
43.7226
 30
0.0
 11
281.321
 21
37.9208
 31
0.0
  0
LINE
  8
0
 62
     0
 10
281.321
 20
37.9208
 30
0.0
 11
280.52
 21
37.9208
 31
0.0
  0
LINE
  8
0
 62
     0
 10
280.52
 20
37.9208
 30
0.0
 11
280.52
 21
34.8216
 31
0.0
  0
LINE
  8
0
 62
     0
 10
280.52
 20
34.8216
 30
0.0
 11
281.321
 21
34.8216
 31
0.0
  0
LINE
  8
0
 62
     0
 10
281.321
 20
34.8216
 30
0.0
 11
281.321
 21
33.8212
 31
0.0
  0
LINE
  8
0
 62
     0
 10
281.321
 20
33.8212
 30
0.0
 11
295.321
 21
33.8212
 31
0.0
  0
LINE
  8
0
 62
     0
 10
295.321
 20
33.8212
 30
0.0
 11
295.321
 21
34.8216
 31
0.0
  0
LINE
  8
0
 62
     0
 10
295.321
 20
34.8216
 30
0.0
 11
296.121
 21
34.8216
 31
0.0
  0
LINE
  8
0
 62
     0
 10
296.121
 20
34.8216
 30
0.0
 11
296.121
 21
37.9208
 31
0.0
  0
LINE
  8
0
 62
     0
 10
296.121
 20
37.9208
 30
0.0
 11
295.321
 21
37.9208
 31
0.0
  0
LINE
  8
0
 62
     0
 10
295.321
 20
37.9208
 30
0.0
 11
295.321
 21
43.7226
 31
0.0
  0
LINE
  8
0
 62
     0
 10
295.321
 20
43.7226
 30
0.0
 11
296.121
 21
43.7226
 31
0.0
  0
LINE
  8
0
 62
     0
 10
296.121
 20
43.7226
 30
0.0
 11
296.121
 21
46.8217
 31
0.0
  0
LINE
  8
0
 62
     0
 10
296.121
 20
46.8217
 30
0.0
 11
295.321
 21
46.8217
 31
0.0
  0
LINE
  8
0
 62
     0
 10
295.321
 20
46.8217
 30
0.0
 11
295.321
 21
47.8208
 31
0.0
  0
LINE
  8
0
 62
     0
 10
295.321
 20
47.8208
 30
0.0
 11
281.321
 21
47.8208
 31
0.0
  0
LINE
  8
0
 62
     0
 10
255.126
 20
47.8208
 30
0.0
 11
255.126
 21
46.8217
 31
0.0
  0
LINE
  8
0
 62
     0
 10
255.126
 20
46.8217
 30
0.0
 11
254.327
 21
46.8217
 31
0.0
  0
LINE
  8
0
 62
     0
 10
254.327
 20
46.8217
 30
0.0
 11
254.327
 21
43.7226
 31
0.0
  0
LINE
  8
0
 62
     0
 10
254.327
 20
43.7226
 30
0.0
 11
255.126
 21
43.7226
 31
0.0
  0
LINE
  8
0
 62
     0
 10
255.126
 20
43.7226
 30
0.0
 11
255.126
 21
37.9208
 31
0.0
  0
LINE
  8
0
 62
     0
 10
255.126
 20
37.9208
 30
0.0
 11
254.327
 21
37.9208
 31
0.0
  0
LINE
  8
0
 62
     0
 10
254.327
 20
37.9208
 30
0.0
 11
254.327
 21
34.8216
 31
0.0
  0
LINE
  8
0
 62
     0
 10
254.327
 20
34.8216
 30
0.0
 11
255.126
 21
34.8216
 31
0.0
  0
LINE
  8
0
 62
     0
 10
255.126
 20
34.8216
 30
0.0
 11
255.126
 21
33.8212
 31
0.0
  0
LINE
  8
0
 62
     0
 10
255.126
 20
33.8212
 30
0.0
 11
269.127
 21
33.8212
 31
0.0
  0
LINE
  8
0
 62
     0
 10
269.127
 20
33.8212
 30
0.0
 11
269.127
 21
34.8216
 31
0.0
  0
LINE
  8
0
 62
     0
 10
269.127
 20
34.8216
 30
0.0
 11
269.926
 21
34.8216
 31
0.0
  0
LINE
  8
0
 62
     0
 10
269.926
 20
34.8216
 30
0.0
 11
269.926
 21
37.9208
 31
0.0
  0
LINE
  8
0
 62
     0
 10
269.926
 20
37.9208
 30
0.0
 11
269.127
 21
37.9208
 31
0.0
  0
LINE
  8
0
 62
     0
 10
269.127
 20
37.9208
 30
0.0
 11
269.127
 21
43.7226
 31
0.0
  0
LINE
  8
0
 62
     0
 10
269.127
 20
43.7226
 30
0.0
 11
269.926
 21
43.7226
 31
0.0
  0
LINE
  8
0
 62
     0
 10
269.926
 20
43.7226
 30
0.0
 11
269.926
 21
46.8217
 31
0.0
  0
LINE
  8
0
 62
     0
 10
269.926
 20
46.8217
 30
0.0
 11
269.127
 21
46.8217
 31
0.0
  0
LINE
  8
0
 62
     0
 10
269.127
 20
46.8217
 30
0.0
 11
269.127
 21
47.8208
 31
0.0
  0
LINE
  8
0
 62
     0
 10
269.127
 20
47.8208
 30
0.0
 11
255.126
 21
47.8208
 31
0.0
  0
LINE
  8
0
 62
     0
 10
228.932
 20
47.8208
 30
0.0
 11
228.932
 21
46.8217
 31
0.0
  0
LINE
  8
0
 62
     0
 10
228.932
 20
46.8217
 30
0.0
 11
228.133
 21
46.8217
 31
0.0
  0
LINE
  8
0
 62
     0
 10
228.133
 20
46.8217
 30
0.0
 11
228.133
 21
43.7226
 31
0.0
  0
LINE
  8
0
 62
     0
 10
228.133
 20
43.7226
 30
0.0
 11
228.932
 21
43.7226
 31
0.0
  0
LINE
  8
0
 62
     0
 10
228.932
 20
43.7226
 30
0.0
 11
228.932
 21
37.9208
 31
0.0
  0
LINE
  8
0
 62
     0
 10
228.932
 20
37.9208
 30
0.0
 11
228.133
 21
37.9208
 31
0.0
  0
LINE
  8
0
 62
     0
 10
228.133
 20
37.9208
 30
0.0
 11
228.133
 21
34.8216
 31
0.0
  0
LINE
  8
0
 62
     0
 10
228.133
 20
34.8216
 30
0.0
 11
228.932
 21
34.8216
 31
0.0
  0
LINE
  8
0
 62
     0
 10
228.932
 20
34.8216
 30
0.0
 11
228.932
 21
33.8212
 31
0.0
  0
LINE
  8
0
 62
     0
 10
228.932
 20
33.8212
 30
0.0
 11
242.933
 21
33.8212
 31
0.0
  0
LINE
  8
0
 62
     0
 10
242.933
 20
33.8212
 30
0.0
 11
242.933
 21
34.8216
 31
0.0
  0
LINE
  8
0
 62
     0
 10
242.933
 20
34.8216
 30
0.0
 11
243.732
 21
34.8216
 31
0.0
  0
LINE
  8
0
 62
     0
 10
243.732
 20
34.8216
 30
0.0
 11
243.732
 21
37.9208
 31
0.0
  0
LINE
  8
0
 62
     0
 10
243.732
 20
37.9208
 30
0.0
 11
242.933
 21
37.9208
 31
0.0
  0
LINE
  8
0
 62
     0
 10
242.933
 20
37.9208
 30
0.0
 11
242.933
 21
43.7226
 31
0.0
  0
LINE
  8
0
 62
     0
 10
242.933
 20
43.7226
 30
0.0
 11
243.732
 21
43.7226
 31
0.0
  0
LINE
  8
0
 62
     0
 10
243.732
 20
43.7226
 30
0.0
 11
243.732
 21
46.8217
 31
0.0
  0
LINE
  8
0
 62
     0
 10
243.732
 20
46.8217
 30
0.0
 11
242.933
 21
46.8217
 31
0.0
  0
LINE
  8
0
 62
     0
 10
242.933
 20
46.8217
 30
0.0
 11
242.933
 21
47.8208
 31
0.0
  0
LINE
  8
0
 62
     0
 10
242.933
 20
47.8208
 30
0.0
 11
228.932
 21
47.8208
 31
0.0
  0
LINE
  8
0
 62
     0
 10
209.882
 20
47.8208
 30
0.0
 11
209.882
 21
46.8217
 31
0.0
  0
LINE
  8
0
 62
     0
 10
209.882
 20
46.8217
 30
0.0
 11
209.083
 21
46.8217
 31
0.0
  0
LINE
  8
0
 62
     0
 10
209.083
 20
46.8217
 30
0.0
 11
209.083
 21
43.7226
 31
0.0
  0
LINE
  8
0
 62
     0
 10
209.083
 20
43.7226
 30
0.0
 11
209.882
 21
43.7226
 31
0.0
  0
LINE
  8
0
 62
     0
 10
209.882
 20
43.7226
 30
0.0
 11
209.882
 21
37.9208
 31
0.0
  0
LINE
  8
0
 62
     0
 10
209.882
 20
37.9208
 30
0.0
 11
209.083
 21
37.9208
 31
0.0
  0
LINE
  8
0
 62
     0
 10
209.083
 20
37.9208
 30
0.0
 11
209.083
 21
34.8216
 31
0.0
  0
LINE
  8
0
 62
     0
 10
209.083
 20
34.8216
 30
0.0
 11
209.882
 21
34.8216
 31
0.0
  0
LINE
  8
0
 62
     0
 10
209.882
 20
34.8216
 30
0.0
 11
209.882
 21
33.8212
 31
0.0
  0
LINE
  8
0
 62
     0
 10
209.882
 20
33.8212
 30
0.0
 11
223.883
 21
33.8212
 31
0.0
  0
LINE
  8
0
 62
     0
 10
223.883
 20
33.8212
 30
0.0
 11
223.883
 21
34.8216
 31
0.0
  0
LINE
  8
0
 62
     0
 10
223.883
 20
34.8216
 30
0.0
 11
224.682
 21
34.8216
 31
0.0
  0
LINE
  8
0
 62
     0
 10
224.682
 20
34.8216
 30
0.0
 11
224.682
 21
37.9208
 31
0.0
  0
LINE
  8
0
 62
     0
 10
224.682
 20
37.9208
 30
0.0
 11
223.883
 21
37.9208
 31
0.0
  0
LINE
  8
0
 62
     0
 10
223.883
 20
37.9208
 30
0.0
 11
223.883
 21
43.7226
 31
0.0
  0
LINE
  8
0
 62
     0
 10
223.883
 20
43.7226
 30
0.0
 11
224.682
 21
43.7226
 31
0.0
  0
LINE
  8
0
 62
     0
 10
224.682
 20
43.7226
 30
0.0
 11
224.682
 21
46.8217
 31
0.0
  0
LINE
  8
0
 62
     0
 10
224.682
 20
46.8217
 30
0.0
 11
223.883
 21
46.8217
 31
0.0
  0
LINE
  8
0
 62
     0
 10
223.883
 20
46.8217
 30
0.0
 11
223.883
 21
47.8208
 31
0.0
  0
LINE
  8
0
 62
     0
 10
223.883
 20
47.8208
 30
0.0
 11
209.882
 21
47.8208
 31
0.0
  0
LINE
  8
0
 62
     0
 10
190.832
 20
47.8208
 30
0.0
 11
190.832
 21
46.8217
 31
0.0
  0
LINE
  8
0
 62
     0
 10
190.832
 20
46.8217
 30
0.0
 11
190.033
 21
46.8217
 31
0.0
  0
LINE
  8
0
 62
     0
 10
190.033
 20
46.8217
 30
0.0
 11
190.033
 21
43.7226
 31
0.0
  0
LINE
  8
0
 62
     0
 10
190.033
 20
43.7226
 30
0.0
 11
190.832
 21
43.7226
 31
0.0
  0
LINE
  8
0
 62
     0
 10
190.832
 20
43.7226
 30
0.0
 11
190.832
 21
37.9208
 31
0.0
  0
LINE
  8
0
 62
     0
 10
190.832
 20
37.9208
 30
0.0
 11
190.033
 21
37.9208
 31
0.0
  0
LINE
  8
0
 62
     0
 10
190.033
 20
37.9208
 30
0.0
 11
190.033
 21
34.8216
 31
0.0
  0
LINE
  8
0
 62
     0
 10
190.033
 20
34.8216
 30
0.0
 11
190.832
 21
34.8216
 31
0.0
  0
LINE
  8
0
 62
     0
 10
190.832
 20
34.8216
 30
0.0
 11
190.832
 21
33.8212
 31
0.0
  0
LINE
  8
0
 62
     0
 10
190.832
 20
33.8212
 30
0.0
 11
204.833
 21
33.8212
 31
0.0
  0
LINE
  8
0
 62
     0
 10
204.833
 20
33.8212
 30
0.0
 11
204.833
 21
34.8216
 31
0.0
  0
LINE
  8
0
 62
     0
 10
204.833
 20
34.8216
 30
0.0
 11
205.632
 21
34.8216
 31
0.0
  0
LINE
  8
0
 62
     0
 10
205.632
 20
34.8216
 30
0.0
 11
205.632
 21
37.9208
 31
0.0
  0
LINE
  8
0
 62
     0
 10
205.632
 20
37.9208
 30
0.0
 11
204.833
 21
37.9208
 31
0.0
  0
LINE
  8
0
 62
     0
 10
204.833
 20
37.9208
 30
0.0
 11
204.833
 21
43.7226
 31
0.0
  0
LINE
  8
0
 62
     0
 10
204.833
 20
43.7226
 30
0.0
 11
205.632
 21
43.7226
 31
0.0
  0
LINE
  8
0
 62
     0
 10
205.632
 20
43.7226
 30
0.0
 11
205.632
 21
46.8217
 31
0.0
  0
LINE
  8
0
 62
     0
 10
205.632
 20
46.8217
 30
0.0
 11
204.833
 21
46.8217
 31
0.0
  0
LINE
  8
0
 62
     0
 10
204.833
 20
46.8217
 30
0.0
 11
204.833
 21
47.8208
 31
0.0
  0
LINE
  8
0
 62
     0
 10
204.833
 20
47.8208
 30
0.0
 11
190.832
 21
47.8208
 31
0.0
  0
LINE
  8
0
 62
     0
 10
171.782
 20
47.8208
 30
0.0
 11
171.782
 21
46.8217
 31
0.0
  0
LINE
  8
0
 62
     0
 10
171.782
 20
46.8217
 30
0.0
 11
170.983
 21
46.8217
 31
0.0
  0
LINE
  8
0
 62
     0
 10
170.983
 20
46.8217
 30
0.0
 11
170.983
 21
43.7226
 31
0.0
  0
LINE
  8
0
 62
     0
 10
170.983
 20
43.7226
 30
0.0
 11
171.782
 21
43.7226
 31
0.0
  0
LINE
  8
0
 62
     0
 10
171.782
 20
43.7226
 30
0.0
 11
171.782
 21
37.9208
 31
0.0
  0
LINE
  8
0
 62
     0
 10
171.782
 20
37.9208
 30
0.0
 11
170.983
 21
37.9208
 31
0.0
  0
LINE
  8
0
 62
     0
 10
170.983
 20
37.9208
 30
0.0
 11
170.983
 21
34.8216
 31
0.0
  0
LINE
  8
0
 62
     0
 10
170.983
 20
34.8216
 30
0.0
 11
171.782
 21
34.8216
 31
0.0
  0
LINE
  8
0
 62
     0
 10
171.782
 20
34.8216
 30
0.0
 11
171.782
 21
33.8212
 31
0.0
  0
LINE
  8
0
 62
     0
 10
171.782
 20
33.8212
 30
0.0
 11
185.783
 21
33.8212
 31
0.0
  0
LINE
  8
0
 62
     0
 10
185.783
 20
33.8212
 30
0.0
 11
185.783
 21
34.8216
 31
0.0
  0
LINE
  8
0
 62
     0
 10
185.783
 20
34.8216
 30
0.0
 11
186.582
 21
34.8216
 31
0.0
  0
LINE
  8
0
 62
     0
 10
186.582
 20
34.8216
 30
0.0
 11
186.582
 21
37.9208
 31
0.0
  0
LINE
  8
0
 62
     0
 10
186.582
 20
37.9208
 30
0.0
 11
185.783
 21
37.9208
 31
0.0
  0
LINE
  8
0
 62
     0
 10
185.783
 20
37.9208
 30
0.0
 11
185.783
 21
43.7226
 31
0.0
  0
LINE
  8
0
 62
     0
 10
185.783
 20
43.7226
 30
0.0
 11
186.582
 21
43.7226
 31
0.0
  0
LINE
  8
0
 62
     0
 10
186.582
 20
43.7226
 30
0.0
 11
186.582
 21
46.8217
 31
0.0
  0
LINE
  8
0
 62
     0
 10
186.582
 20
46.8217
 30
0.0
 11
185.783
 21
46.8217
 31
0.0
  0
LINE
  8
0
 62
     0
 10
185.783
 20
46.8217
 30
0.0
 11
185.783
 21
47.8208
 31
0.0
  0
LINE
  8
0
 62
     0
 10
185.783
 20
47.8208
 30
0.0
 11
171.782
 21
47.8208
 31
0.0
  0
LINE
  8
0
 62
     0
 10
152.732
 20
47.8208
 30
0.0
 11
152.732
 21
46.8217
 31
0.0
  0
LINE
  8
0
 62
     0
 10
152.732
 20
46.8217
 30
0.0
 11
151.933
 21
46.8217
 31
0.0
  0
LINE
  8
0
 62
     0
 10
151.933
 20
46.8217
 30
0.0
 11
151.933
 21
43.7226
 31
0.0
  0
LINE
  8
0
 62
     0
 10
151.933
 20
43.7226
 30
0.0
 11
152.732
 21
43.7226
 31
0.0
  0
LINE
  8
0
 62
     0
 10
152.732
 20
43.7226
 30
0.0
 11
152.732
 21
37.9208
 31
0.0
  0
LINE
  8
0
 62
     0
 10
152.732
 20
37.9208
 30
0.0
 11
151.933
 21
37.9208
 31
0.0
  0
LINE
  8
0
 62
     0
 10
151.933
 20
37.9208
 30
0.0
 11
151.933
 21
34.8216
 31
0.0
  0
LINE
  8
0
 62
     0
 10
151.933
 20
34.8216
 30
0.0
 11
152.732
 21
34.8216
 31
0.0
  0
LINE
  8
0
 62
     0
 10
152.732
 20
34.8216
 30
0.0
 11
152.732
 21
33.8212
 31
0.0
  0
LINE
  8
0
 62
     0
 10
152.732
 20
33.8212
 30
0.0
 11
166.733
 21
33.8212
 31
0.0
  0
LINE
  8
0
 62
     0
 10
166.733
 20
33.8212
 30
0.0
 11
166.733
 21
34.8216
 31
0.0
  0
LINE
  8
0
 62
     0
 10
166.733
 20
34.8216
 30
0.0
 11
167.532
 21
34.8216
 31
0.0
  0
LINE
  8
0
 62
     0
 10
167.532
 20
34.8216
 30
0.0
 11
167.532
 21
37.9208
 31
0.0
  0
LINE
  8
0
 62
     0
 10
167.532
 20
37.9208
 30
0.0
 11
166.733
 21
37.9208
 31
0.0
  0
LINE
  8
0
 62
     0
 10
166.733
 20
37.9208
 30
0.0
 11
166.733
 21
43.7226
 31
0.0
  0
LINE
  8
0
 62
     0
 10
166.733
 20
43.7226
 30
0.0
 11
167.532
 21
43.7226
 31
0.0
  0
LINE
  8
0
 62
     0
 10
167.532
 20
43.7226
 30
0.0
 11
167.532
 21
46.8217
 31
0.0
  0
LINE
  8
0
 62
     0
 10
167.532
 20
46.8217
 30
0.0
 11
166.733
 21
46.8217
 31
0.0
  0
LINE
  8
0
 62
     0
 10
166.733
 20
46.8217
 30
0.0
 11
166.733
 21
47.8208
 31
0.0
  0
LINE
  8
0
 62
     0
 10
166.733
 20
47.8208
 30
0.0
 11
152.732
 21
47.8208
 31
0.0
  0
LINE
  8
0
 62
     0
 10
133.682
 20
47.8208
 30
0.0
 11
133.682
 21
46.8217
 31
0.0
  0
LINE
  8
0
 62
     0
 10
133.682
 20
46.8217
 30
0.0
 11
132.883
 21
46.8217
 31
0.0
  0
LINE
  8
0
 62
     0
 10
132.883
 20
46.8217
 30
0.0
 11
132.883
 21
43.7226
 31
0.0
  0
LINE
  8
0
 62
     0
 10
132.883
 20
43.7226
 30
0.0
 11
133.682
 21
43.7226
 31
0.0
  0
LINE
  8
0
 62
     0
 10
133.682
 20
43.7226
 30
0.0
 11
133.682
 21
37.9208
 31
0.0
  0
LINE
  8
0
 62
     0
 10
133.682
 20
37.9208
 30
0.0
 11
132.883
 21
37.9208
 31
0.0
  0
LINE
  8
0
 62
     0
 10
132.883
 20
37.9208
 30
0.0
 11
132.883
 21
34.8216
 31
0.0
  0
LINE
  8
0
 62
     0
 10
132.883
 20
34.8216
 30
0.0
 11
133.682
 21
34.8216
 31
0.0
  0
LINE
  8
0
 62
     0
 10
133.682
 20
34.8216
 30
0.0
 11
133.682
 21
33.8212
 31
0.0
  0
LINE
  8
0
 62
     0
 10
133.682
 20
33.8212
 30
0.0
 11
147.683
 21
33.8212
 31
0.0
  0
LINE
  8
0
 62
     0
 10
147.683
 20
33.8212
 30
0.0
 11
147.683
 21
34.8216
 31
0.0
  0
LINE
  8
0
 62
     0
 10
147.683
 20
34.8216
 30
0.0
 11
148.482
 21
34.8216
 31
0.0
  0
LINE
  8
0
 62
     0
 10
148.482
 20
34.8216
 30
0.0
 11
148.482
 21
37.9208
 31
0.0
  0
LINE
  8
0
 62
     0
 10
148.482
 20
37.9208
 30
0.0
 11
147.683
 21
37.9208
 31
0.0
  0
LINE
  8
0
 62
     0
 10
147.683
 20
37.9208
 30
0.0
 11
147.683
 21
43.7226
 31
0.0
  0
LINE
  8
0
 62
     0
 10
147.683
 20
43.7226
 30
0.0
 11
148.482
 21
43.7226
 31
0.0
  0
LINE
  8
0
 62
     0
 10
148.482
 20
43.7226
 30
0.0
 11
148.482
 21
46.8217
 31
0.0
  0
LINE
  8
0
 62
     0
 10
148.482
 20
46.8217
 30
0.0
 11
147.683
 21
46.8217
 31
0.0
  0
LINE
  8
0
 62
     0
 10
147.683
 20
46.8217
 30
0.0
 11
147.683
 21
47.8208
 31
0.0
  0
LINE
  8
0
 62
     0
 10
147.683
 20
47.8208
 30
0.0
 11
133.682
 21
47.8208
 31
0.0
  0
LINE
  8
0
 62
     0
 10
114.632
 20
47.8208
 30
0.0
 11
114.632
 21
46.8217
 31
0.0
  0
LINE
  8
0
 62
     0
 10
114.632
 20
46.8217
 30
0.0
 11
113.833
 21
46.8217
 31
0.0
  0
LINE
  8
0
 62
     0
 10
113.833
 20
46.8217
 30
0.0
 11
113.833
 21
43.7226
 31
0.0
  0
LINE
  8
0
 62
     0
 10
113.833
 20
43.7226
 30
0.0
 11
114.632
 21
43.7226
 31
0.0
  0
LINE
  8
0
 62
     0
 10
114.632
 20
43.7226
 30
0.0
 11
114.632
 21
37.9208
 31
0.0
  0
LINE
  8
0
 62
     0
 10
114.632
 20
37.9208
 30
0.0
 11
113.833
 21
37.9208
 31
0.0
  0
LINE
  8
0
 62
     0
 10
113.833
 20
37.9208
 30
0.0
 11
113.833
 21
34.8216
 31
0.0
  0
LINE
  8
0
 62
     0
 10
113.833
 20
34.8216
 30
0.0
 11
114.632
 21
34.8216
 31
0.0
  0
LINE
  8
0
 62
     0
 10
114.632
 20
34.8216
 30
0.0
 11
114.632
 21
33.8212
 31
0.0
  0
LINE
  8
0
 62
     0
 10
114.632
 20
33.8212
 30
0.0
 11
128.633
 21
33.8212
 31
0.0
  0
LINE
  8
0
 62
     0
 10
128.633
 20
33.8212
 30
0.0
 11
128.633
 21
34.8216
 31
0.0
  0
LINE
  8
0
 62
     0
 10
128.633
 20
34.8216
 30
0.0
 11
129.432
 21
34.8216
 31
0.0
  0
LINE
  8
0
 62
     0
 10
129.432
 20
34.8216
 30
0.0
 11
129.432
 21
37.9208
 31
0.0
  0
LINE
  8
0
 62
     0
 10
129.432
 20
37.9208
 30
0.0
 11
128.633
 21
37.9208
 31
0.0
  0
LINE
  8
0
 62
     0
 10
128.633
 20
37.9208
 30
0.0
 11
128.633
 21
43.7226
 31
0.0
  0
LINE
  8
0
 62
     0
 10
128.633
 20
43.7226
 30
0.0
 11
129.432
 21
43.7226
 31
0.0
  0
LINE
  8
0
 62
     0
 10
129.432
 20
43.7226
 30
0.0
 11
129.432
 21
46.8217
 31
0.0
  0
LINE
  8
0
 62
     0
 10
129.432
 20
46.8217
 30
0.0
 11
128.633
 21
46.8217
 31
0.0
  0
LINE
  8
0
 62
     0
 10
128.633
 20
46.8217
 30
0.0
 11
128.633
 21
47.8208
 31
0.0
  0
LINE
  8
0
 62
     0
 10
128.633
 20
47.8208
 30
0.0
 11
114.632
 21
47.8208
 31
0.0
  0
LINE
  8
0
 62
     0
 10
95.582
 20
47.8208
 30
0.0
 11
95.582
 21
46.8217
 31
0.0
  0
LINE
  8
0
 62
     0
 10
95.582
 20
46.8217
 30
0.0
 11
94.7829
 21
46.8217
 31
0.0
  0
LINE
  8
0
 62
     0
 10
94.7829
 20
46.8217
 30
0.0
 11
94.7829
 21
43.7226
 31
0.0
  0
LINE
  8
0
 62
     0
 10
94.7829
 20
43.7226
 30
0.0
 11
95.582
 21
43.7226
 31
0.0
  0
LINE
  8
0
 62
     0
 10
95.582
 20
43.7226
 30
0.0
 11
95.582
 21
37.9208
 31
0.0
  0
LINE
  8
0
 62
     0
 10
95.582
 20
37.9208
 30
0.0
 11
94.7829
 21
37.9208
 31
0.0
  0
LINE
  8
0
 62
     0
 10
94.7829
 20
37.9208
 30
0.0
 11
94.7829
 21
34.8216
 31
0.0
  0
LINE
  8
0
 62
     0
 10
94.7829
 20
34.8216
 30
0.0
 11
95.582
 21
34.8216
 31
0.0
  0
LINE
  8
0
 62
     0
 10
95.582
 20
34.8216
 30
0.0
 11
95.582
 21
33.8212
 31
0.0
  0
LINE
  8
0
 62
     0
 10
95.582
 20
33.8212
 30
0.0
 11
109.583
 21
33.8212
 31
0.0
  0
LINE
  8
0
 62
     0
 10
109.583
 20
33.8212
 30
0.0
 11
109.583
 21
34.8216
 31
0.0
  0
LINE
  8
0
 62
     0
 10
109.583
 20
34.8216
 30
0.0
 11
110.382
 21
34.8216
 31
0.0
  0
LINE
  8
0
 62
     0
 10
110.382
 20
34.8216
 30
0.0
 11
110.382
 21
37.9208
 31
0.0
  0
LINE
  8
0
 62
     0
 10
110.382
 20
37.9208
 30
0.0
 11
109.583
 21
37.9208
 31
0.0
  0
LINE
  8
0
 62
     0
 10
109.583
 20
37.9208
 30
0.0
 11
109.583
 21
43.7226
 31
0.0
  0
LINE
  8
0
 62
     0
 10
109.583
 20
43.7226
 30
0.0
 11
110.382
 21
43.7226
 31
0.0
  0
LINE
  8
0
 62
     0
 10
110.382
 20
43.7226
 30
0.0
 11
110.382
 21
46.8217
 31
0.0
  0
LINE
  8
0
 62
     0
 10
110.382
 20
46.8217
 30
0.0
 11
109.583
 21
46.8217
 31
0.0
  0
LINE
  8
0
 62
     0
 10
109.583
 20
46.8217
 30
0.0
 11
109.583
 21
47.8208
 31
0.0
  0
LINE
  8
0
 62
     0
 10
109.583
 20
47.8208
 30
0.0
 11
95.582
 21
47.8208
 31
0.0
  0
LINE
  8
0
 62
     0
 10
76.532
 20
47.8208
 30
0.0
 11
76.532
 21
46.8217
 31
0.0
  0
LINE
  8
0
 62
     0
 10
76.532
 20
46.8217
 30
0.0
 11
75.7329
 21
46.8217
 31
0.0
  0
LINE
  8
0
 62
     0
 10
75.7329
 20
46.8217
 30
0.0
 11
75.7329
 21
43.7226
 31
0.0
  0
LINE
  8
0
 62
     0
 10
75.7329
 20
43.7226
 30
0.0
 11
76.532
 21
43.7226
 31
0.0
  0
LINE
  8
0
 62
     0
 10
76.532
 20
43.7226
 30
0.0
 11
76.532
 21
37.9208
 31
0.0
  0
LINE
  8
0
 62
     0
 10
76.532
 20
37.9208
 30
0.0
 11
75.7329
 21
37.9208
 31
0.0
  0
LINE
  8
0
 62
     0
 10
75.7329
 20
37.9208
 30
0.0
 11
75.7329
 21
34.8216
 31
0.0
  0
LINE
  8
0
 62
     0
 10
75.7329
 20
34.8216
 30
0.0
 11
76.532
 21
34.8216
 31
0.0
  0
LINE
  8
0
 62
     0
 10
76.532
 20
34.8216
 30
0.0
 11
76.532
 21
33.8212
 31
0.0
  0
LINE
  8
0
 62
     0
 10
76.532
 20
33.8212
 30
0.0
 11
90.533
 21
33.8212
 31
0.0
  0
LINE
  8
0
 62
     0
 10
90.533
 20
33.8212
 30
0.0
 11
90.533
 21
34.8216
 31
0.0
  0
LINE
  8
0
 62
     0
 10
90.533
 20
34.8216
 30
0.0
 11
91.3324
 21
34.8216
 31
0.0
  0
LINE
  8
0
 62
     0
 10
91.3324
 20
34.8216
 30
0.0
 11
91.3324
 21
37.9208
 31
0.0
  0
LINE
  8
0
 62
     0
 10
91.3324
 20
37.9208
 30
0.0
 11
90.533
 21
37.9208
 31
0.0
  0
LINE
  8
0
 62
     0
 10
90.533
 20
37.9208
 30
0.0
 11
90.533
 21
43.7226
 31
0.0
  0
LINE
  8
0
 62
     0
 10
90.533
 20
43.7226
 30
0.0
 11
91.3324
 21
43.7226
 31
0.0
  0
LINE
  8
0
 62
     0
 10
91.3324
 20
43.7226
 30
0.0
 11
91.3324
 21
46.8217
 31
0.0
  0
LINE
  8
0
 62
     0
 10
91.3324
 20
46.8217
 30
0.0
 11
90.533
 21
46.8217
 31
0.0
  0
LINE
  8
0
 62
     0
 10
90.533
 20
46.8217
 30
0.0
 11
90.533
 21
47.8208
 31
0.0
  0
LINE
  8
0
 62
     0
 10
90.533
 20
47.8208
 30
0.0
 11
76.532
 21
47.8208
 31
0.0
  0
LINE
  8
0
 62
     0
 10
57.482
 20
47.8208
 30
0.0
 11
57.482
 21
46.8217
 31
0.0
  0
LINE
  8
0
 62
     0
 10
57.482
 20
46.8217
 30
0.0
 11
56.6829
 21
46.8217
 31
0.0
  0
LINE
  8
0
 62
     0
 10
56.6829
 20
46.8217
 30
0.0
 11
56.6829
 21
43.7226
 31
0.0
  0
LINE
  8
0
 62
     0
 10
56.6829
 20
43.7226
 30
0.0
 11
57.482
 21
43.7226
 31
0.0
  0
LINE
  8
0
 62
     0
 10
57.482
 20
43.7226
 30
0.0
 11
57.482
 21
37.9208
 31
0.0
  0
LINE
  8
0
 62
     0
 10
57.482
 20
37.9208
 30
0.0
 11
56.6829
 21
37.9208
 31
0.0
  0
LINE
  8
0
 62
     0
 10
56.6829
 20
37.9208
 30
0.0
 11
56.6829
 21
34.8216
 31
0.0
  0
LINE
  8
0
 62
     0
 10
56.6829
 20
34.8216
 30
0.0
 11
57.482
 21
34.8216
 31
0.0
  0
LINE
  8
0
 62
     0
 10
57.482
 20
34.8216
 30
0.0
 11
57.482
 21
33.8212
 31
0.0
  0
LINE
  8
0
 62
     0
 10
57.482
 20
33.8212
 30
0.0
 11
71.483
 21
33.8212
 31
0.0
  0
LINE
  8
0
 62
     0
 10
71.483
 20
33.8212
 30
0.0
 11
71.483
 21
34.8216
 31
0.0
  0
LINE
  8
0
 62
     0
 10
71.483
 20
34.8216
 30
0.0
 11
72.2824
 21
34.8216
 31
0.0
  0
LINE
  8
0
 62
     0
 10
72.2824
 20
34.8216
 30
0.0
 11
72.2824
 21
37.9208
 31
0.0
  0
LINE
  8
0
 62
     0
 10
72.2824
 20
37.9208
 30
0.0
 11
71.483
 21
37.9208
 31
0.0
  0
LINE
  8
0
 62
     0
 10
71.483
 20
37.9208
 30
0.0
 11
71.483
 21
43.7226
 31
0.0
  0
LINE
  8
0
 62
     0
 10
71.483
 20
43.7226
 30
0.0
 11
72.2824
 21
43.7226
 31
0.0
  0
LINE
  8
0
 62
     0
 10
72.2824
 20
43.7226
 30
0.0
 11
72.2824
 21
46.8217
 31
0.0
  0
LINE
  8
0
 62
     0
 10
72.2824
 20
46.8217
 30
0.0
 11
71.483
 21
46.8217
 31
0.0
  0
LINE
  8
0
 62
     0
 10
71.483
 20
46.8217
 30
0.0
 11
71.483
 21
47.8208
 31
0.0
  0
LINE
  8
0
 62
     0
 10
71.483
 20
47.8208
 30
0.0
 11
57.482
 21
47.8208
 31
0.0
  0
LINE
  8
0
 62
     0
 10
269.413
 20
66.8708
 30
0.0
 11
269.413
 21
65.8717
 31
0.0
  0
LINE
  8
0
 62
     0
 10
269.413
 20
65.8717
 30
0.0
 11
268.614
 21
65.8717
 31
0.0
  0
LINE
  8
0
 62
     0
 10
268.614
 20
65.8717
 30
0.0
 11
268.614
 21
62.7712
 31
0.0
  0
LINE
  8
0
 62
     0
 10
268.614
 20
62.7712
 30
0.0
 11
269.413
 21
62.7712
 31
0.0
  0
LINE
  8
0
 62
     0
 10
269.413
 20
62.7712
 30
0.0
 11
269.413
 21
62.1714
 31
0.0
  0
LINE
  8
0
 62
     0
 10
269.413
 20
62.1714
 30
0.0
 11
267.888
 21
62.1714
 31
0.0
  0
LINE
  8
0
 62
     0
 10
267.888
 20
62.1714
 30
0.0
 11
267.888
 21
65.4018
 31
0.0
  0
LINE
  8
0
 62
     0
 10
267.888
 20
65.4018
 30
0.0
 11
261.138
 21
65.4018
 31
0.0
  0
LINE
  8
0
 62
     0
 10
261.138
 20
65.4018
 30
0.0
 11
261.138
 21
62.1714
 31
0.0
  0
LINE
  8
0
 62
     0
 10
261.138
 20
62.1714
 30
0.0
 11
260.314
 21
62.1714
 31
0.0
  0
LINE
  8
0
 62
     0
 10
260.314
 20
62.1714
 30
0.0
 11
260.314
 21
59.3714
 31
0.0
  0
LINE
  8
0
 62
     0
 10
260.314
 20
59.3714
 30
0.0
 11
261.138
 21
59.3714
 31
0.0
  0
LINE
  8
0
 62
     0
 10
261.138
 20
59.3714
 30
0.0
 11
261.138
 21
53.1012
 31
0.0
  0
LINE
  8
0
 62
     0
 10
261.138
 20
53.1012
 30
0.0
 11
262.864
 21
53.1012
 31
0.0
  0
LINE
  8
0
 62
     0
 10
262.864
 20
53.1012
 30
0.0
 11
262.864
 21
51.901
 31
0.0
  0
LINE
  8
0
 62
     0
 10
262.864
 20
51.901
 30
0.0
 11
266.164
 21
51.901
 31
0.0
  0
LINE
  8
0
 62
     0
 10
266.164
 20
51.901
 30
0.0
 11
266.164
 21
53.1012
 31
0.0
  0
LINE
  8
0
 62
     0
 10
266.164
 20
53.1012
 30
0.0
 11
267.888
 21
53.1012
 31
0.0
  0
LINE
  8
0
 62
     0
 10
267.888
 20
53.1012
 30
0.0
 11
267.888
 21
57.5716
 31
0.0
  0
LINE
  8
0
 62
     0
 10
267.888
 20
57.5716
 30
0.0
 11
269.413
 21
57.5716
 31
0.0
  0
LINE
  8
0
 62
     0
 10
269.413
 20
57.5716
 30
0.0
 11
269.413
 21
56.9708
 31
0.0
  0
LINE
  8
0
 62
     0
 10
269.413
 20
56.9708
 30
0.0
 11
268.614
 21
56.9708
 31
0.0
  0
LINE
  8
0
 62
     0
 10
268.614
 20
56.9708
 30
0.0
 11
268.614
 21
53.8716
 31
0.0
  0
LINE
  8
0
 62
     0
 10
268.614
 20
53.8716
 30
0.0
 11
269.413
 21
53.8716
 31
0.0
  0
LINE
  8
0
 62
     0
 10
269.413
 20
53.8716
 30
0.0
 11
269.413
 21
52.8712
 31
0.0
  0
LINE
  8
0
 62
     0
 10
269.413
 20
52.8712
 30
0.0
 11
283.413
 21
52.8712
 31
0.0
  0
LINE
  8
0
 62
     0
 10
283.413
 20
52.8712
 30
0.0
 11
283.413
 21
53.8716
 31
0.0
  0
LINE
  8
0
 62
     0
 10
283.413
 20
53.8716
 30
0.0
 11
284.214
 21
53.8716
 31
0.0
  0
LINE
  8
0
 62
     0
 10
284.214
 20
53.8716
 30
0.0
 11
284.214
 21
56.9708
 31
0.0
  0
LINE
  8
0
 62
     0
 10
284.214
 20
56.9708
 30
0.0
 11
283.413
 21
56.9708
 31
0.0
  0
LINE
  8
0
 62
     0
 10
283.413
 20
56.9708
 30
0.0
 11
283.413
 21
57.5716
 31
0.0
  0
LINE
  8
0
 62
     0
 10
283.413
 20
57.5716
 30
0.0
 11
284.938
 21
57.5716
 31
0.0
  0
LINE
  8
0
 62
     0
 10
284.938
 20
57.5716
 30
0.0
 11
284.938
 21
53.1012
 31
0.0
  0
LINE
  8
0
 62
     0
 10
284.938
 20
53.1012
 30
0.0
 11
286.664
 21
53.1012
 31
0.0
  0
LINE
  8
0
 62
     0
 10
286.664
 20
53.1012
 30
0.0
 11
286.664
 21
51.901
 31
0.0
  0
LINE
  8
0
 62
     0
 10
286.664
 20
51.901
 30
0.0
 11
289.964
 21
51.901
 31
0.0
  0
LINE
  8
0
 62
     0
 10
289.964
 20
51.901
 30
0.0
 11
289.964
 21
53.1012
 31
0.0
  0
LINE
  8
0
 62
     0
 10
289.964
 20
53.1012
 30
0.0
 11
291.688
 21
53.1012
 31
0.0
  0
LINE
  8
0
 62
     0
 10
291.688
 20
53.1012
 30
0.0
 11
291.688
 21
59.3714
 31
0.0
  0
LINE
  8
0
 62
     0
 10
291.688
 20
59.3714
 30
0.0
 11
292.513
 21
59.3714
 31
0.0
  0
LINE
  8
0
 62
     0
 10
292.513
 20
59.3714
 30
0.0
 11
292.513
 21
62.1714
 31
0.0
  0
LINE
  8
0
 62
     0
 10
292.513
 20
62.1714
 30
0.0
 11
291.688
 21
62.1714
 31
0.0
  0
LINE
  8
0
 62
     0
 10
291.688
 20
62.1714
 30
0.0
 11
291.688
 21
65.4018
 31
0.0
  0
LINE
  8
0
 62
     0
 10
291.688
 20
65.4018
 30
0.0
 11
284.938
 21
65.4018
 31
0.0
  0
LINE
  8
0
 62
     0
 10
284.938
 20
65.4018
 30
0.0
 11
284.938
 21
62.1714
 31
0.0
  0
LINE
  8
0
 62
     0
 10
284.938
 20
62.1714
 30
0.0
 11
283.413
 21
62.1714
 31
0.0
  0
LINE
  8
0
 62
     0
 10
283.413
 20
62.1714
 30
0.0
 11
283.413
 21
62.7712
 31
0.0
  0
LINE
  8
0
 62
     0
 10
283.413
 20
62.7712
 30
0.0
 11
284.214
 21
62.7712
 31
0.0
  0
LINE
  8
0
 62
     0
 10
284.214
 20
62.7712
 30
0.0
 11
284.214
 21
65.8717
 31
0.0
  0
LINE
  8
0
 62
     0
 10
284.214
 20
65.8717
 30
0.0
 11
283.413
 21
65.8717
 31
0.0
  0
LINE
  8
0
 62
     0
 10
283.413
 20
65.8717
 30
0.0
 11
283.413
 21
66.8708
 31
0.0
  0
LINE
  8
0
 62
     0
 10
283.413
 20
66.8708
 30
0.0
 11
269.413
 21
66.8708
 31
0.0
  0
LINE
  8
0
 62
     0
 10
300.371
 20
66.8708
 30
0.0
 11
300.371
 21
65.8717
 31
0.0
  0
LINE
  8
0
 62
     0
 10
300.371
 20
65.8717
 30
0.0
 11
299.57
 21
65.8717
 31
0.0
  0
LINE
  8
0
 62
     0
 10
299.57
 20
65.8717
 30
0.0
 11
299.57
 21
62.7712
 31
0.0
  0
LINE
  8
0
 62
     0
 10
299.57
 20
62.7712
 30
0.0
 11
300.371
 21
62.7712
 31
0.0
  0
LINE
  8
0
 62
     0
 10
300.371
 20
62.7712
 30
0.0
 11
300.371
 21
56.9708
 31
0.0
  0
LINE
  8
0
 62
     0
 10
300.371
 20
56.9708
 30
0.0
 11
299.57
 21
56.9708
 31
0.0
  0
LINE
  8
0
 62
     0
 10
299.57
 20
56.9708
 30
0.0
 11
299.57
 21
53.8716
 31
0.0
  0
LINE
  8
0
 62
     0
 10
299.57
 20
53.8716
 30
0.0
 11
300.371
 21
53.8716
 31
0.0
  0
LINE
  8
0
 62
     0
 10
300.371
 20
53.8716
 30
0.0
 11
300.371
 21
52.8712
 31
0.0
  0
LINE
  8
0
 62
     0
 10
300.371
 20
52.8712
 30
0.0
 11
314.371
 21
52.8712
 31
0.0
  0
LINE
  8
0
 62
     0
 10
314.371
 20
52.8712
 30
0.0
 11
314.371
 21
53.8716
 31
0.0
  0
LINE
  8
0
 62
     0
 10
314.371
 20
53.8716
 30
0.0
 11
315.171
 21
53.8716
 31
0.0
  0
LINE
  8
0
 62
     0
 10
315.171
 20
53.8716
 30
0.0
 11
315.171
 21
56.9708
 31
0.0
  0
LINE
  8
0
 62
     0
 10
315.171
 20
56.9708
 30
0.0
 11
314.371
 21
56.9708
 31
0.0
  0
LINE
  8
0
 62
     0
 10
314.371
 20
56.9708
 30
0.0
 11
314.371
 21
62.7712
 31
0.0
  0
LINE
  8
0
 62
     0
 10
314.371
 20
62.7712
 30
0.0
 11
315.171
 21
62.7712
 31
0.0
  0
LINE
  8
0
 62
     0
 10
315.171
 20
62.7712
 30
0.0
 11
315.171
 21
65.8717
 31
0.0
  0
LINE
  8
0
 62
     0
 10
315.171
 20
65.8717
 30
0.0
 11
314.371
 21
65.8717
 31
0.0
  0
LINE
  8
0
 62
     0
 10
314.371
 20
65.8717
 30
0.0
 11
314.371
 21
66.8708
 31
0.0
  0
LINE
  8
0
 62
     0
 10
314.371
 20
66.8708
 30
0.0
 11
300.371
 21
66.8708
 31
0.0
  0
LINE
  8
0
 62
     0
 10
238.457
 20
66.8708
 30
0.0
 11
238.457
 21
65.8717
 31
0.0
  0
LINE
  8
0
 62
     0
 10
238.457
 20
65.8717
 30
0.0
 11
237.658
 21
65.8717
 31
0.0
  0
LINE
  8
0
 62
     0
 10
237.658
 20
65.8717
 30
0.0
 11
237.658
 21
62.7712
 31
0.0
  0
LINE
  8
0
 62
     0
 10
237.658
 20
62.7712
 30
0.0
 11
238.457
 21
62.7712
 31
0.0
  0
LINE
  8
0
 62
     0
 10
238.457
 20
62.7712
 30
0.0
 11
238.457
 21
56.9708
 31
0.0
  0
LINE
  8
0
 62
     0
 10
238.457
 20
56.9708
 30
0.0
 11
237.658
 21
56.9708
 31
0.0
  0
LINE
  8
0
 62
     0
 10
237.658
 20
56.9708
 30
0.0
 11
237.658
 21
53.8716
 31
0.0
  0
LINE
  8
0
 62
     0
 10
237.658
 20
53.8716
 30
0.0
 11
238.457
 21
53.8716
 31
0.0
  0
LINE
  8
0
 62
     0
 10
238.457
 20
53.8716
 30
0.0
 11
238.457
 21
52.8712
 31
0.0
  0
LINE
  8
0
 62
     0
 10
238.457
 20
52.8712
 30
0.0
 11
252.458
 21
52.8712
 31
0.0
  0
LINE
  8
0
 62
     0
 10
252.458
 20
52.8712
 30
0.0
 11
252.458
 21
53.8716
 31
0.0
  0
LINE
  8
0
 62
     0
 10
252.458
 20
53.8716
 30
0.0
 11
253.256
 21
53.8716
 31
0.0
  0
LINE
  8
0
 62
     0
 10
253.256
 20
53.8716
 30
0.0
 11
253.256
 21
56.9708
 31
0.0
  0
LINE
  8
0
 62
     0
 10
253.256
 20
56.9708
 30
0.0
 11
252.458
 21
56.9708
 31
0.0
  0
LINE
  8
0
 62
     0
 10
252.458
 20
56.9708
 30
0.0
 11
252.458
 21
62.7712
 31
0.0
  0
LINE
  8
0
 62
     0
 10
252.458
 20
62.7712
 30
0.0
 11
253.256
 21
62.7712
 31
0.0
  0
LINE
  8
0
 62
     0
 10
253.256
 20
62.7712
 30
0.0
 11
253.256
 21
65.8717
 31
0.0
  0
LINE
  8
0
 62
     0
 10
253.256
 20
65.8717
 30
0.0
 11
252.458
 21
65.8717
 31
0.0
  0
LINE
  8
0
 62
     0
 10
252.458
 20
65.8717
 30
0.0
 11
252.458
 21
66.8708
 31
0.0
  0
LINE
  8
0
 62
     0
 10
252.458
 20
66.8708
 30
0.0
 11
238.457
 21
66.8708
 31
0.0
  0
LINE
  8
0
 62
     0
 10
219.407
 20
66.8708
 30
0.0
 11
219.407
 21
65.8717
 31
0.0
  0
LINE
  8
0
 62
     0
 10
219.407
 20
65.8717
 30
0.0
 11
218.608
 21
65.8717
 31
0.0
  0
LINE
  8
0
 62
     0
 10
218.608
 20
65.8717
 30
0.0
 11
218.608
 21
62.7712
 31
0.0
  0
LINE
  8
0
 62
     0
 10
218.608
 20
62.7712
 30
0.0
 11
219.407
 21
62.7712
 31
0.0
  0
LINE
  8
0
 62
     0
 10
219.407
 20
62.7712
 30
0.0
 11
219.407
 21
56.9708
 31
0.0
  0
LINE
  8
0
 62
     0
 10
219.407
 20
56.9708
 30
0.0
 11
218.608
 21
56.9708
 31
0.0
  0
LINE
  8
0
 62
     0
 10
218.608
 20
56.9708
 30
0.0
 11
218.608
 21
53.8716
 31
0.0
  0
LINE
  8
0
 62
     0
 10
218.608
 20
53.8716
 30
0.0
 11
219.407
 21
53.8716
 31
0.0
  0
LINE
  8
0
 62
     0
 10
219.407
 20
53.8716
 30
0.0
 11
219.407
 21
52.8712
 31
0.0
  0
LINE
  8
0
 62
     0
 10
219.407
 20
52.8712
 30
0.0
 11
233.408
 21
52.8712
 31
0.0
  0
LINE
  8
0
 62
     0
 10
233.408
 20
52.8712
 30
0.0
 11
233.408
 21
53.8716
 31
0.0
  0
LINE
  8
0
 62
     0
 10
233.408
 20
53.8716
 30
0.0
 11
234.207
 21
53.8716
 31
0.0
  0
LINE
  8
0
 62
     0
 10
234.207
 20
53.8716
 30
0.0
 11
234.207
 21
56.9708
 31
0.0
  0
LINE
  8
0
 62
     0
 10
234.207
 20
56.9708
 30
0.0
 11
233.408
 21
56.9708
 31
0.0
  0
LINE
  8
0
 62
     0
 10
233.408
 20
56.9708
 30
0.0
 11
233.408
 21
62.7712
 31
0.0
  0
LINE
  8
0
 62
     0
 10
233.408
 20
62.7712
 30
0.0
 11
234.207
 21
62.7712
 31
0.0
  0
LINE
  8
0
 62
     0
 10
234.207
 20
62.7712
 30
0.0
 11
234.207
 21
65.8717
 31
0.0
  0
LINE
  8
0
 62
     0
 10
234.207
 20
65.8717
 30
0.0
 11
233.408
 21
65.8717
 31
0.0
  0
LINE
  8
0
 62
     0
 10
233.408
 20
65.8717
 30
0.0
 11
233.408
 21
66.8708
 31
0.0
  0
LINE
  8
0
 62
     0
 10
233.408
 20
66.8708
 30
0.0
 11
219.407
 21
66.8708
 31
0.0
  0
LINE
  8
0
 62
     0
 10
200.357
 20
66.8708
 30
0.0
 11
200.357
 21
65.8717
 31
0.0
  0
LINE
  8
0
 62
     0
 10
200.357
 20
65.8717
 30
0.0
 11
199.558
 21
65.8717
 31
0.0
  0
LINE
  8
0
 62
     0
 10
199.558
 20
65.8717
 30
0.0
 11
199.558
 21
62.7712
 31
0.0
  0
LINE
  8
0
 62
     0
 10
199.558
 20
62.7712
 30
0.0
 11
200.357
 21
62.7712
 31
0.0
  0
LINE
  8
0
 62
     0
 10
200.357
 20
62.7712
 30
0.0
 11
200.357
 21
56.9708
 31
0.0
  0
LINE
  8
0
 62
     0
 10
200.357
 20
56.9708
 30
0.0
 11
199.558
 21
56.9708
 31
0.0
  0
LINE
  8
0
 62
     0
 10
199.558
 20
56.9708
 30
0.0
 11
199.558
 21
53.8716
 31
0.0
  0
LINE
  8
0
 62
     0
 10
199.558
 20
53.8716
 30
0.0
 11
200.357
 21
53.8716
 31
0.0
  0
LINE
  8
0
 62
     0
 10
200.357
 20
53.8716
 30
0.0
 11
200.357
 21
52.8712
 31
0.0
  0
LINE
  8
0
 62
     0
 10
200.357
 20
52.8712
 30
0.0
 11
214.358
 21
52.8712
 31
0.0
  0
LINE
  8
0
 62
     0
 10
214.358
 20
52.8712
 30
0.0
 11
214.358
 21
53.8716
 31
0.0
  0
LINE
  8
0
 62
     0
 10
214.358
 20
53.8716
 30
0.0
 11
215.157
 21
53.8716
 31
0.0
  0
LINE
  8
0
 62
     0
 10
215.157
 20
53.8716
 30
0.0
 11
215.157
 21
56.9708
 31
0.0
  0
LINE
  8
0
 62
     0
 10
215.157
 20
56.9708
 30
0.0
 11
214.358
 21
56.9708
 31
0.0
  0
LINE
  8
0
 62
     0
 10
214.358
 20
56.9708
 30
0.0
 11
214.358
 21
62.7712
 31
0.0
  0
LINE
  8
0
 62
     0
 10
214.358
 20
62.7712
 30
0.0
 11
215.157
 21
62.7712
 31
0.0
  0
LINE
  8
0
 62
     0
 10
215.157
 20
62.7712
 30
0.0
 11
215.157
 21
65.8717
 31
0.0
  0
LINE
  8
0
 62
     0
 10
215.157
 20
65.8717
 30
0.0
 11
214.358
 21
65.8717
 31
0.0
  0
LINE
  8
0
 62
     0
 10
214.358
 20
65.8717
 30
0.0
 11
214.358
 21
66.8708
 31
0.0
  0
LINE
  8
0
 62
     0
 10
214.358
 20
66.8708
 30
0.0
 11
200.357
 21
66.8708
 31
0.0
  0
LINE
  8
0
 62
     0
 10
181.307
 20
66.8708
 30
0.0
 11
181.307
 21
65.8717
 31
0.0
  0
LINE
  8
0
 62
     0
 10
181.307
 20
65.8717
 30
0.0
 11
180.508
 21
65.8717
 31
0.0
  0
LINE
  8
0
 62
     0
 10
180.508
 20
65.8717
 30
0.0
 11
180.508
 21
62.7712
 31
0.0
  0
LINE
  8
0
 62
     0
 10
180.508
 20
62.7712
 30
0.0
 11
181.307
 21
62.7712
 31
0.0
  0
LINE
  8
0
 62
     0
 10
181.307
 20
62.7712
 30
0.0
 11
181.307
 21
56.9708
 31
0.0
  0
LINE
  8
0
 62
     0
 10
181.307
 20
56.9708
 30
0.0
 11
180.508
 21
56.9708
 31
0.0
  0
LINE
  8
0
 62
     0
 10
180.508
 20
56.9708
 30
0.0
 11
180.508
 21
53.8716
 31
0.0
  0
LINE
  8
0
 62
     0
 10
180.508
 20
53.8716
 30
0.0
 11
181.307
 21
53.8716
 31
0.0
  0
LINE
  8
0
 62
     0
 10
181.307
 20
53.8716
 30
0.0
 11
181.307
 21
52.8712
 31
0.0
  0
LINE
  8
0
 62
     0
 10
181.307
 20
52.8712
 30
0.0
 11
195.308
 21
52.8712
 31
0.0
  0
LINE
  8
0
 62
     0
 10
195.308
 20
52.8712
 30
0.0
 11
195.308
 21
53.8716
 31
0.0
  0
LINE
  8
0
 62
     0
 10
195.308
 20
53.8716
 30
0.0
 11
196.107
 21
53.8716
 31
0.0
  0
LINE
  8
0
 62
     0
 10
196.107
 20
53.8716
 30
0.0
 11
196.107
 21
56.9708
 31
0.0
  0
LINE
  8
0
 62
     0
 10
196.107
 20
56.9708
 30
0.0
 11
195.308
 21
56.9708
 31
0.0
  0
LINE
  8
0
 62
     0
 10
195.308
 20
56.9708
 30
0.0
 11
195.308
 21
62.7712
 31
0.0
  0
LINE
  8
0
 62
     0
 10
195.308
 20
62.7712
 30
0.0
 11
196.107
 21
62.7712
 31
0.0
  0
LINE
  8
0
 62
     0
 10
196.107
 20
62.7712
 30
0.0
 11
196.107
 21
65.8717
 31
0.0
  0
LINE
  8
0
 62
     0
 10
196.107
 20
65.8717
 30
0.0
 11
195.308
 21
65.8717
 31
0.0
  0
LINE
  8
0
 62
     0
 10
195.308
 20
65.8717
 30
0.0
 11
195.308
 21
66.8708
 31
0.0
  0
LINE
  8
0
 62
     0
 10
195.308
 20
66.8708
 30
0.0
 11
181.307
 21
66.8708
 31
0.0
  0
LINE
  8
0
 62
     0
 10
162.257
 20
66.8708
 30
0.0
 11
162.257
 21
65.8717
 31
0.0
  0
LINE
  8
0
 62
     0
 10
162.257
 20
65.8717
 30
0.0
 11
161.458
 21
65.8717
 31
0.0
  0
LINE
  8
0
 62
     0
 10
161.458
 20
65.8717
 30
0.0
 11
161.458
 21
62.7712
 31
0.0
  0
LINE
  8
0
 62
     0
 10
161.458
 20
62.7712
 30
0.0
 11
162.257
 21
62.7712
 31
0.0
  0
LINE
  8
0
 62
     0
 10
162.257
 20
62.7712
 30
0.0
 11
162.257
 21
56.9708
 31
0.0
  0
LINE
  8
0
 62
     0
 10
162.257
 20
56.9708
 30
0.0
 11
161.458
 21
56.9708
 31
0.0
  0
LINE
  8
0
 62
     0
 10
161.458
 20
56.9708
 30
0.0
 11
161.458
 21
53.8716
 31
0.0
  0
LINE
  8
0
 62
     0
 10
161.458
 20
53.8716
 30
0.0
 11
162.257
 21
53.8716
 31
0.0
  0
LINE
  8
0
 62
     0
 10
162.257
 20
53.8716
 30
0.0
 11
162.257
 21
52.8712
 31
0.0
  0
LINE
  8
0
 62
     0
 10
162.257
 20
52.8712
 30
0.0
 11
176.258
 21
52.8712
 31
0.0
  0
LINE
  8
0
 62
     0
 10
176.258
 20
52.8712
 30
0.0
 11
176.258
 21
53.8716
 31
0.0
  0
LINE
  8
0
 62
     0
 10
176.258
 20
53.8716
 30
0.0
 11
177.057
 21
53.8716
 31
0.0
  0
LINE
  8
0
 62
     0
 10
177.057
 20
53.8716
 30
0.0
 11
177.057
 21
56.9708
 31
0.0
  0
LINE
  8
0
 62
     0
 10
177.057
 20
56.9708
 30
0.0
 11
176.258
 21
56.9708
 31
0.0
  0
LINE
  8
0
 62
     0
 10
176.258
 20
56.9708
 30
0.0
 11
176.258
 21
62.7712
 31
0.0
  0
LINE
  8
0
 62
     0
 10
176.258
 20
62.7712
 30
0.0
 11
177.057
 21
62.7712
 31
0.0
  0
LINE
  8
0
 62
     0
 10
177.057
 20
62.7712
 30
0.0
 11
177.057
 21
65.8717
 31
0.0
  0
LINE
  8
0
 62
     0
 10
177.057
 20
65.8717
 30
0.0
 11
176.258
 21
65.8717
 31
0.0
  0
LINE
  8
0
 62
     0
 10
176.258
 20
65.8717
 30
0.0
 11
176.258
 21
66.8708
 31
0.0
  0
LINE
  8
0
 62
     0
 10
176.258
 20
66.8708
 30
0.0
 11
162.257
 21
66.8708
 31
0.0
  0
LINE
  8
0
 62
     0
 10
143.207
 20
66.8708
 30
0.0
 11
143.207
 21
65.8717
 31
0.0
  0
LINE
  8
0
 62
     0
 10
143.207
 20
65.8717
 30
0.0
 11
142.408
 21
65.8717
 31
0.0
  0
LINE
  8
0
 62
     0
 10
142.408
 20
65.8717
 30
0.0
 11
142.408
 21
62.7712
 31
0.0
  0
LINE
  8
0
 62
     0
 10
142.408
 20
62.7712
 30
0.0
 11
143.207
 21
62.7712
 31
0.0
  0
LINE
  8
0
 62
     0
 10
143.207
 20
62.7712
 30
0.0
 11
143.207
 21
56.9708
 31
0.0
  0
LINE
  8
0
 62
     0
 10
143.207
 20
56.9708
 30
0.0
 11
142.408
 21
56.9708
 31
0.0
  0
LINE
  8
0
 62
     0
 10
142.408
 20
56.9708
 30
0.0
 11
142.408
 21
53.8716
 31
0.0
  0
LINE
  8
0
 62
     0
 10
142.408
 20
53.8716
 30
0.0
 11
143.207
 21
53.8716
 31
0.0
  0
LINE
  8
0
 62
     0
 10
143.207
 20
53.8716
 30
0.0
 11
143.207
 21
52.8712
 31
0.0
  0
LINE
  8
0
 62
     0
 10
143.207
 20
52.8712
 30
0.0
 11
157.208
 21
52.8712
 31
0.0
  0
LINE
  8
0
 62
     0
 10
157.208
 20
52.8712
 30
0.0
 11
157.208
 21
53.8716
 31
0.0
  0
LINE
  8
0
 62
     0
 10
157.208
 20
53.8716
 30
0.0
 11
158.007
 21
53.8716
 31
0.0
  0
LINE
  8
0
 62
     0
 10
158.007
 20
53.8716
 30
0.0
 11
158.007
 21
56.9708
 31
0.0
  0
LINE
  8
0
 62
     0
 10
158.007
 20
56.9708
 30
0.0
 11
157.208
 21
56.9708
 31
0.0
  0
LINE
  8
0
 62
     0
 10
157.208
 20
56.9708
 30
0.0
 11
157.208
 21
62.7712
 31
0.0
  0
LINE
  8
0
 62
     0
 10
157.208
 20
62.7712
 30
0.0
 11
158.007
 21
62.7712
 31
0.0
  0
LINE
  8
0
 62
     0
 10
158.007
 20
62.7712
 30
0.0
 11
158.007
 21
65.8717
 31
0.0
  0
LINE
  8
0
 62
     0
 10
158.007
 20
65.8717
 30
0.0
 11
157.208
 21
65.8717
 31
0.0
  0
LINE
  8
0
 62
     0
 10
157.208
 20
65.8717
 30
0.0
 11
157.208
 21
66.8708
 31
0.0
  0
LINE
  8
0
 62
     0
 10
157.208
 20
66.8708
 30
0.0
 11
143.207
 21
66.8708
 31
0.0
  0
LINE
  8
0
 62
     0
 10
124.157
 20
66.8708
 30
0.0
 11
124.157
 21
65.8717
 31
0.0
  0
LINE
  8
0
 62
     0
 10
124.157
 20
65.8717
 30
0.0
 11
123.358
 21
65.8717
 31
0.0
  0
LINE
  8
0
 62
     0
 10
123.358
 20
65.8717
 30
0.0
 11
123.358
 21
62.7712
 31
0.0
  0
LINE
  8
0
 62
     0
 10
123.358
 20
62.7712
 30
0.0
 11
124.157
 21
62.7712
 31
0.0
  0
LINE
  8
0
 62
     0
 10
124.157
 20
62.7712
 30
0.0
 11
124.157
 21
56.9708
 31
0.0
  0
LINE
  8
0
 62
     0
 10
124.157
 20
56.9708
 30
0.0
 11
123.358
 21
56.9708
 31
0.0
  0
LINE
  8
0
 62
     0
 10
123.358
 20
56.9708
 30
0.0
 11
123.358
 21
53.8716
 31
0.0
  0
LINE
  8
0
 62
     0
 10
123.358
 20
53.8716
 30
0.0
 11
124.157
 21
53.8716
 31
0.0
  0
LINE
  8
0
 62
     0
 10
124.157
 20
53.8716
 30
0.0
 11
124.157
 21
52.8712
 31
0.0
  0
LINE
  8
0
 62
     0
 10
124.157
 20
52.8712
 30
0.0
 11
138.158
 21
52.8712
 31
0.0
  0
LINE
  8
0
 62
     0
 10
138.158
 20
52.8712
 30
0.0
 11
138.158
 21
53.8716
 31
0.0
  0
LINE
  8
0
 62
     0
 10
138.158
 20
53.8716
 30
0.0
 11
138.957
 21
53.8716
 31
0.0
  0
LINE
  8
0
 62
     0
 10
138.957
 20
53.8716
 30
0.0
 11
138.957
 21
56.9708
 31
0.0
  0
LINE
  8
0
 62
     0
 10
138.957
 20
56.9708
 30
0.0
 11
138.158
 21
56.9708
 31
0.0
  0
LINE
  8
0
 62
     0
 10
138.158
 20
56.9708
 30
0.0
 11
138.158
 21
62.7712
 31
0.0
  0
LINE
  8
0
 62
     0
 10
138.158
 20
62.7712
 30
0.0
 11
138.957
 21
62.7712
 31
0.0
  0
LINE
  8
0
 62
     0
 10
138.957
 20
62.7712
 30
0.0
 11
138.957
 21
65.8717
 31
0.0
  0
LINE
  8
0
 62
     0
 10
138.957
 20
65.8717
 30
0.0
 11
138.158
 21
65.8717
 31
0.0
  0
LINE
  8
0
 62
     0
 10
138.158
 20
65.8717
 30
0.0
 11
138.158
 21
66.8708
 31
0.0
  0
LINE
  8
0
 62
     0
 10
138.158
 20
66.8708
 30
0.0
 11
124.157
 21
66.8708
 31
0.0
  0
LINE
  8
0
 62
     0
 10
105.107
 20
66.8708
 30
0.0
 11
105.107
 21
65.8717
 31
0.0
  0
LINE
  8
0
 62
     0
 10
105.107
 20
65.8717
 30
0.0
 11
104.308
 21
65.8717
 31
0.0
  0
LINE
  8
0
 62
     0
 10
104.308
 20
65.8717
 30
0.0
 11
104.308
 21
62.7712
 31
0.0
  0
LINE
  8
0
 62
     0
 10
104.308
 20
62.7712
 30
0.0
 11
105.107
 21
62.7712
 31
0.0
  0
LINE
  8
0
 62
     0
 10
105.107
 20
62.7712
 30
0.0
 11
105.107
 21
56.9708
 31
0.0
  0
LINE
  8
0
 62
     0
 10
105.107
 20
56.9708
 30
0.0
 11
104.308
 21
56.9708
 31
0.0
  0
LINE
  8
0
 62
     0
 10
104.308
 20
56.9708
 30
0.0
 11
104.308
 21
53.8716
 31
0.0
  0
LINE
  8
0
 62
     0
 10
104.308
 20
53.8716
 30
0.0
 11
105.107
 21
53.8716
 31
0.0
  0
LINE
  8
0
 62
     0
 10
105.107
 20
53.8716
 30
0.0
 11
105.107
 21
52.8712
 31
0.0
  0
LINE
  8
0
 62
     0
 10
105.107
 20
52.8712
 30
0.0
 11
119.108
 21
52.8712
 31
0.0
  0
LINE
  8
0
 62
     0
 10
119.108
 20
52.8712
 30
0.0
 11
119.108
 21
53.8716
 31
0.0
  0
LINE
  8
0
 62
     0
 10
119.108
 20
53.8716
 30
0.0
 11
119.907
 21
53.8716
 31
0.0
  0
LINE
  8
0
 62
     0
 10
119.907
 20
53.8716
 30
0.0
 11
119.907
 21
56.9708
 31
0.0
  0
LINE
  8
0
 62
     0
 10
119.907
 20
56.9708
 30
0.0
 11
119.108
 21
56.9708
 31
0.0
  0
LINE
  8
0
 62
     0
 10
119.108
 20
56.9708
 30
0.0
 11
119.108
 21
62.7712
 31
0.0
  0
LINE
  8
0
 62
     0
 10
119.108
 20
62.7712
 30
0.0
 11
119.907
 21
62.7712
 31
0.0
  0
LINE
  8
0
 62
     0
 10
119.907
 20
62.7712
 30
0.0
 11
119.907
 21
65.8717
 31
0.0
  0
LINE
  8
0
 62
     0
 10
119.907
 20
65.8717
 30
0.0
 11
119.108
 21
65.8717
 31
0.0
  0
LINE
  8
0
 62
     0
 10
119.108
 20
65.8717
 30
0.0
 11
119.108
 21
66.8708
 31
0.0
  0
LINE
  8
0
 62
     0
 10
119.108
 20
66.8708
 30
0.0
 11
105.107
 21
66.8708
 31
0.0
  0
LINE
  8
0
 62
     0
 10
86.057
 20
66.8708
 30
0.0
 11
86.057
 21
65.8717
 31
0.0
  0
LINE
  8
0
 62
     0
 10
86.057
 20
65.8717
 30
0.0
 11
85.2579
 21
65.8717
 31
0.0
  0
LINE
  8
0
 62
     0
 10
85.2579
 20
65.8717
 30
0.0
 11
85.2579
 21
62.7712
 31
0.0
  0
LINE
  8
0
 62
     0
 10
85.2579
 20
62.7712
 30
0.0
 11
86.057
 21
62.7712
 31
0.0
  0
LINE
  8
0
 62
     0
 10
86.057
 20
62.7712
 30
0.0
 11
86.057
 21
56.9708
 31
0.0
  0
LINE
  8
0
 62
     0
 10
86.057
 20
56.9708
 30
0.0
 11
85.2579
 21
56.9708
 31
0.0
  0
LINE
  8
0
 62
     0
 10
85.2579
 20
56.9708
 30
0.0
 11
85.2579
 21
53.8716
 31
0.0
  0
LINE
  8
0
 62
     0
 10
85.2579
 20
53.8716
 30
0.0
 11
86.057
 21
53.8716
 31
0.0
  0
LINE
  8
0
 62
     0
 10
86.057
 20
53.8716
 30
0.0
 11
86.057
 21
52.8712
 31
0.0
  0
LINE
  8
0
 62
     0
 10
86.057
 20
52.8712
 30
0.0
 11
100.058
 21
52.8712
 31
0.0
  0
LINE
  8
0
 62
     0
 10
100.058
 20
52.8712
 30
0.0
 11
100.058
 21
53.8716
 31
0.0
  0
LINE
  8
0
 62
     0
 10
100.058
 20
53.8716
 30
0.0
 11
100.857
 21
53.8716
 31
0.0
  0
LINE
  8
0
 62
     0
 10
100.857
 20
53.8716
 30
0.0
 11
100.857
 21
56.9708
 31
0.0
  0
LINE
  8
0
 62
     0
 10
100.857
 20
56.9708
 30
0.0
 11
100.058
 21
56.9708
 31
0.0
  0
LINE
  8
0
 62
     0
 10
100.058
 20
56.9708
 30
0.0
 11
100.058
 21
62.7712
 31
0.0
  0
LINE
  8
0
 62
     0
 10
100.058
 20
62.7712
 30
0.0
 11
100.857
 21
62.7712
 31
0.0
  0
LINE
  8
0
 62
     0
 10
100.857
 20
62.7712
 30
0.0
 11
100.857
 21
65.8717
 31
0.0
  0
LINE
  8
0
 62
     0
 10
100.857
 20
65.8717
 30
0.0
 11
100.058
 21
65.8717
 31
0.0
  0
LINE
  8
0
 62
     0
 10
100.058
 20
65.8717
 30
0.0
 11
100.058
 21
66.8708
 31
0.0
  0
LINE
  8
0
 62
     0
 10
100.058
 20
66.8708
 30
0.0
 11
86.057
 21
66.8708
 31
0.0
  0
LINE
  8
0
 62
     0
 10
67.007
 20
66.8708
 30
0.0
 11
67.007
 21
65.8717
 31
0.0
  0
LINE
  8
0
 62
     0
 10
67.007
 20
65.8717
 30
0.0
 11
66.2079
 21
65.8717
 31
0.0
  0
LINE
  8
0
 62
     0
 10
66.2079
 20
65.8717
 30
0.0
 11
66.2079
 21
62.7712
 31
0.0
  0
LINE
  8
0
 62
     0
 10
66.2079
 20
62.7712
 30
0.0
 11
67.007
 21
62.7712
 31
0.0
  0
LINE
  8
0
 62
     0
 10
67.007
 20
62.7712
 30
0.0
 11
67.007
 21
56.9708
 31
0.0
  0
LINE
  8
0
 62
     0
 10
67.007
 20
56.9708
 30
0.0
 11
66.2079
 21
56.9708
 31
0.0
  0
LINE
  8
0
 62
     0
 10
66.2079
 20
56.9708
 30
0.0
 11
66.2079
 21
53.8716
 31
0.0
  0
LINE
  8
0
 62
     0
 10
66.2079
 20
53.8716
 30
0.0
 11
67.007
 21
53.8716
 31
0.0
  0
LINE
  8
0
 62
     0
 10
67.007
 20
53.8716
 30
0.0
 11
67.007
 21
52.8712
 31
0.0
  0
LINE
  8
0
 62
     0
 10
67.007
 20
52.8712
 30
0.0
 11
81.008
 21
52.8712
 31
0.0
  0
LINE
  8
0
 62
     0
 10
81.008
 20
52.8712
 30
0.0
 11
81.008
 21
53.8716
 31
0.0
  0
LINE
  8
0
 62
     0
 10
81.008
 20
53.8716
 30
0.0
 11
81.8074
 21
53.8716
 31
0.0
  0
LINE
  8
0
 62
     0
 10
81.8074
 20
53.8716
 30
0.0
 11
81.8074
 21
56.9708
 31
0.0
  0
LINE
  8
0
 62
     0
 10
81.8074
 20
56.9708
 30
0.0
 11
81.008
 21
56.9708
 31
0.0
  0
LINE
  8
0
 62
     0
 10
81.008
 20
56.9708
 30
0.0
 11
81.008
 21
62.7712
 31
0.0
  0
LINE
  8
0
 62
     0
 10
81.008
 20
62.7712
 30
0.0
 11
81.8074
 21
62.7712
 31
0.0
  0
LINE
  8
0
 62
     0
 10
81.8074
 20
62.7712
 30
0.0
 11
81.8074
 21
65.8717
 31
0.0
  0
LINE
  8
0
 62
     0
 10
81.8074
 20
65.8717
 30
0.0
 11
81.008
 21
65.8717
 31
0.0
  0
LINE
  8
0
 62
     0
 10
81.008
 20
65.8717
 30
0.0
 11
81.008
 21
66.8708
 31
0.0
  0
LINE
  8
0
 62
     0
 10
81.008
 20
66.8708
 30
0.0
 11
67.007
 21
66.8708
 31
0.0
  0
LINE
  8
0
 62
     0
 10
47.957
 20
66.8708
 30
0.0
 11
47.957
 21
65.8717
 31
0.0
  0
LINE
  8
0
 62
     0
 10
47.957
 20
65.8717
 30
0.0
 11
47.1579
 21
65.8717
 31
0.0
  0
LINE
  8
0
 62
     0
 10
47.1579
 20
65.8717
 30
0.0
 11
47.1579
 21
62.7712
 31
0.0
  0
LINE
  8
0
 62
     0
 10
47.1579
 20
62.7712
 30
0.0
 11
47.957
 21
62.7712
 31
0.0
  0
LINE
  8
0
 62
     0
 10
47.957
 20
62.7712
 30
0.0
 11
47.957
 21
56.9708
 31
0.0
  0
LINE
  8
0
 62
     0
 10
47.957
 20
56.9708
 30
0.0
 11
47.1579
 21
56.9708
 31
0.0
  0
LINE
  8
0
 62
     0
 10
47.1579
 20
56.9708
 30
0.0
 11
47.1579
 21
53.8716
 31
0.0
  0
LINE
  8
0
 62
     0
 10
47.1579
 20
53.8716
 30
0.0
 11
47.957
 21
53.8716
 31
0.0
  0
LINE
  8
0
 62
     0
 10
47.957
 20
53.8716
 30
0.0
 11
47.957
 21
52.8712
 31
0.0
  0
LINE
  8
0
 62
     0
 10
47.957
 20
52.8712
 30
0.0
 11
61.958
 21
52.8712
 31
0.0
  0
LINE
  8
0
 62
     0
 10
61.958
 20
52.8712
 30
0.0
 11
61.958
 21
53.8716
 31
0.0
  0
LINE
  8
0
 62
     0
 10
61.958
 20
53.8716
 30
0.0
 11
62.7574
 21
53.8716
 31
0.0
  0
LINE
  8
0
 62
     0
 10
62.7574
 20
53.8716
 30
0.0
 11
62.7574
 21
56.9708
 31
0.0
  0
LINE
  8
0
 62
     0
 10
62.7574
 20
56.9708
 30
0.0
 11
61.958
 21
56.9708
 31
0.0
  0
LINE
  8
0
 62
     0
 10
61.958
 20
56.9708
 30
0.0
 11
61.958
 21
62.7712
 31
0.0
  0
LINE
  8
0
 62
     0
 10
61.958
 20
62.7712
 30
0.0
 11
62.7574
 21
62.7712
 31
0.0
  0
LINE
  8
0
 62
     0
 10
62.7574
 20
62.7712
 30
0.0
 11
62.7574
 21
65.8717
 31
0.0
  0
LINE
  8
0
 62
     0
 10
62.7574
 20
65.8717
 30
0.0
 11
61.958
 21
65.8717
 31
0.0
  0
LINE
  8
0
 62
     0
 10
61.958
 20
65.8717
 30
0.0
 11
61.958
 21
66.8708
 31
0.0
  0
LINE
  8
0
 62
     0
 10
61.958
 20
66.8708
 30
0.0
 11
47.957
 21
66.8708
 31
0.0
  0
LINE
  8
0
 62
     0
 10
21.7634
 20
66.8708
 30
0.0
 11
21.7634
 21
65.8717
 31
0.0
  0
LINE
  8
0
 62
     0
 10
21.7634
 20
65.8717
 30
0.0
 11
20.9641
 21
65.8717
 31
0.0
  0
LINE
  8
0
 62
     0
 10
20.9641
 20
65.8717
 30
0.0
 11
20.9641
 21
62.7712
 31
0.0
  0
LINE
  8
0
 62
     0
 10
20.9641
 20
62.7712
 30
0.0
 11
21.7634
 21
62.7712
 31
0.0
  0
LINE
  8
0
 62
     0
 10
21.7634
 20
62.7712
 30
0.0
 11
21.7634
 21
56.9708
 31
0.0
  0
LINE
  8
0
 62
     0
 10
21.7634
 20
56.9708
 30
0.0
 11
20.9641
 21
56.9708
 31
0.0
  0
LINE
  8
0
 62
     0
 10
20.9641
 20
56.9708
 30
0.0
 11
20.9641
 21
53.8716
 31
0.0
  0
LINE
  8
0
 62
     0
 10
20.9641
 20
53.8716
 30
0.0
 11
21.7634
 21
53.8716
 31
0.0
  0
LINE
  8
0
 62
     0
 10
21.7634
 20
53.8716
 30
0.0
 11
21.7634
 21
52.8712
 31
0.0
  0
LINE
  8
0
 62
     0
 10
21.7634
 20
52.8712
 30
0.0
 11
35.7628
 21
52.8712
 31
0.0
  0
LINE
  8
0
 62
     0
 10
35.7628
 20
52.8712
 30
0.0
 11
35.7628
 21
53.8716
 31
0.0
  0
LINE
  8
0
 62
     0
 10
35.7628
 20
53.8716
 30
0.0
 11
36.5637
 21
53.8716
 31
0.0
  0
LINE
  8
0
 62
     0
 10
36.5637
 20
53.8716
 30
0.0
 11
36.5637
 21
56.9708
 31
0.0
  0
LINE
  8
0
 62
     0
 10
36.5637
 20
56.9708
 30
0.0
 11
35.7628
 21
56.9708
 31
0.0
  0
LINE
  8
0
 62
     0
 10
35.7628
 20
56.9708
 30
0.0
 11
35.7628
 21
62.7712
 31
0.0
  0
LINE
  8
0
 62
     0
 10
35.7628
 20
62.7712
 30
0.0
 11
36.5637
 21
62.7712
 31
0.0
  0
LINE
  8
0
 62
     0
 10
36.5637
 20
62.7712
 30
0.0
 11
36.5637
 21
65.8717
 31
0.0
  0
LINE
  8
0
 62
     0
 10
36.5637
 20
65.8717
 30
0.0
 11
35.7628
 21
65.8717
 31
0.0
  0
LINE
  8
0
 62
     0
 10
35.7628
 20
65.8717
 30
0.0
 11
35.7628
 21
66.8708
 31
0.0
  0
LINE
  8
0
 62
     0
 10
35.7628
 20
66.8708
 30
0.0
 11
21.7634
 21
66.8708
 31
0.0
  0
LINE
  8
0
 62
     0
 10
300.371
 20
85.9208
 30
0.0
 11
300.371
 21
84.9217
 31
0.0
  0
LINE
  8
0
 62
     0
 10
300.371
 20
84.9217
 30
0.0
 11
299.57
 21
84.9217
 31
0.0
  0
LINE
  8
0
 62
     0
 10
299.57
 20
84.9217
 30
0.0
 11
299.57
 21
81.8212
 31
0.0
  0
LINE
  8
0
 62
     0
 10
299.57
 20
81.8212
 30
0.0
 11
300.371
 21
81.8212
 31
0.0
  0
LINE
  8
0
 62
     0
 10
300.371
 20
81.8212
 30
0.0
 11
300.371
 21
76.0208
 31
0.0
  0
LINE
  8
0
 62
     0
 10
300.371
 20
76.0208
 30
0.0
 11
299.57
 21
76.0208
 31
0.0
  0
LINE
  8
0
 62
     0
 10
299.57
 20
76.0208
 30
0.0
 11
299.57
 21
72.9216
 31
0.0
  0
LINE
  8
0
 62
     0
 10
299.57
 20
72.9216
 30
0.0
 11
300.371
 21
72.9216
 31
0.0
  0
LINE
  8
0
 62
     0
 10
300.371
 20
72.9216
 30
0.0
 11
300.371
 21
71.9212
 31
0.0
  0
LINE
  8
0
 62
     0
 10
300.371
 20
71.9212
 30
0.0
 11
314.371
 21
71.9212
 31
0.0
  0
LINE
  8
0
 62
     0
 10
314.371
 20
71.9212
 30
0.0
 11
314.371
 21
72.9216
 31
0.0
  0
LINE
  8
0
 62
     0
 10
314.371
 20
72.9216
 30
0.0
 11
315.171
 21
72.9216
 31
0.0
  0
LINE
  8
0
 62
     0
 10
315.171
 20
72.9216
 30
0.0
 11
315.171
 21
76.0208
 31
0.0
  0
LINE
  8
0
 62
     0
 10
315.171
 20
76.0208
 30
0.0
 11
314.371
 21
76.0208
 31
0.0
  0
LINE
  8
0
 62
     0
 10
314.371
 20
76.0208
 30
0.0
 11
314.371
 21
81.8212
 31
0.0
  0
LINE
  8
0
 62
     0
 10
314.371
 20
81.8212
 30
0.0
 11
315.171
 21
81.8212
 31
0.0
  0
LINE
  8
0
 62
     0
 10
315.171
 20
81.8212
 30
0.0
 11
315.171
 21
84.9217
 31
0.0
  0
LINE
  8
0
 62
     0
 10
315.171
 20
84.9217
 30
0.0
 11
314.371
 21
84.9217
 31
0.0
  0
LINE
  8
0
 62
     0
 10
314.371
 20
84.9217
 30
0.0
 11
314.371
 21
85.9208
 31
0.0
  0
LINE
  8
0
 62
     0
 10
314.371
 20
85.9208
 30
0.0
 11
300.371
 21
85.9208
 31
0.0
  0
LINE
  8
0
 62
     0
 10
276.557
 20
85.9208
 30
0.0
 11
276.557
 21
84.9217
 31
0.0
  0
LINE
  8
0
 62
     0
 10
276.557
 20
84.9217
 30
0.0
 11
275.758
 21
84.9217
 31
0.0
  0
LINE
  8
0
 62
     0
 10
275.758
 20
84.9217
 30
0.0
 11
275.758
 21
81.8212
 31
0.0
  0
LINE
  8
0
 62
     0
 10
275.758
 20
81.8212
 30
0.0
 11
276.557
 21
81.8212
 31
0.0
  0
LINE
  8
0
 62
     0
 10
276.557
 20
81.8212
 30
0.0
 11
276.557
 21
76.0208
 31
0.0
  0
LINE
  8
0
 62
     0
 10
276.557
 20
76.0208
 30
0.0
 11
275.758
 21
76.0208
 31
0.0
  0
LINE
  8
0
 62
     0
 10
275.758
 20
76.0208
 30
0.0
 11
275.758
 21
72.9216
 31
0.0
  0
LINE
  8
0
 62
     0
 10
275.758
 20
72.9216
 30
0.0
 11
276.557
 21
72.9216
 31
0.0
  0
LINE
  8
0
 62
     0
 10
276.557
 20
72.9216
 30
0.0
 11
276.557
 21
71.9212
 31
0.0
  0
LINE
  8
0
 62
     0
 10
276.557
 20
71.9212
 30
0.0
 11
290.558
 21
71.9212
 31
0.0
  0
LINE
  8
0
 62
     0
 10
290.558
 20
71.9212
 30
0.0
 11
290.558
 21
72.9216
 31
0.0
  0
LINE
  8
0
 62
     0
 10
290.558
 20
72.9216
 30
0.0
 11
291.357
 21
72.9216
 31
0.0
  0
LINE
  8
0
 62
     0
 10
291.357
 20
72.9216
 30
0.0
 11
291.357
 21
76.0208
 31
0.0
  0
LINE
  8
0
 62
     0
 10
291.357
 20
76.0208
 30
0.0
 11
290.558
 21
76.0208
 31
0.0
  0
LINE
  8
0
 62
     0
 10
290.558
 20
76.0208
 30
0.0
 11
290.558
 21
81.8212
 31
0.0
  0
LINE
  8
0
 62
     0
 10
290.558
 20
81.8212
 30
0.0
 11
291.357
 21
81.8212
 31
0.0
  0
LINE
  8
0
 62
     0
 10
291.357
 20
81.8212
 30
0.0
 11
291.357
 21
84.9217
 31
0.0
  0
LINE
  8
0
 62
     0
 10
291.357
 20
84.9217
 30
0.0
 11
290.558
 21
84.9217
 31
0.0
  0
LINE
  8
0
 62
     0
 10
290.558
 20
84.9217
 30
0.0
 11
290.558
 21
85.9208
 31
0.0
  0
LINE
  8
0
 62
     0
 10
290.558
 20
85.9208
 30
0.0
 11
276.557
 21
85.9208
 31
0.0
  0
LINE
  8
0
 62
     0
 10
252.744
 20
85.9208
 30
0.0
 11
252.744
 21
84.9217
 31
0.0
  0
LINE
  8
0
 62
     0
 10
252.744
 20
84.9217
 30
0.0
 11
251.945
 21
84.9217
 31
0.0
  0
LINE
  8
0
 62
     0
 10
251.945
 20
84.9217
 30
0.0
 11
251.945
 21
81.8212
 31
0.0
  0
LINE
  8
0
 62
     0
 10
251.945
 20
81.8212
 30
0.0
 11
252.744
 21
81.8212
 31
0.0
  0
LINE
  8
0
 62
     0
 10
252.744
 20
81.8212
 30
0.0
 11
252.744
 21
76.0208
 31
0.0
  0
LINE
  8
0
 62
     0
 10
252.744
 20
76.0208
 30
0.0
 11
251.945
 21
76.0208
 31
0.0
  0
LINE
  8
0
 62
     0
 10
251.945
 20
76.0208
 30
0.0
 11
251.945
 21
72.9216
 31
0.0
  0
LINE
  8
0
 62
     0
 10
251.945
 20
72.9216
 30
0.0
 11
252.744
 21
72.9216
 31
0.0
  0
LINE
  8
0
 62
     0
 10
252.744
 20
72.9216
 30
0.0
 11
252.744
 21
71.9212
 31
0.0
  0
LINE
  8
0
 62
     0
 10
252.744
 20
71.9212
 30
0.0
 11
266.746
 21
71.9212
 31
0.0
  0
LINE
  8
0
 62
     0
 10
266.746
 20
71.9212
 30
0.0
 11
266.746
 21
72.9216
 31
0.0
  0
LINE
  8
0
 62
     0
 10
266.746
 20
72.9216
 30
0.0
 11
267.546
 21
72.9216
 31
0.0
  0
LINE
  8
0
 62
     0
 10
267.546
 20
72.9216
 30
0.0
 11
267.546
 21
76.0208
 31
0.0
  0
LINE
  8
0
 62
     0
 10
267.546
 20
76.0208
 30
0.0
 11
266.746
 21
76.0208
 31
0.0
  0
LINE
  8
0
 62
     0
 10
266.746
 20
76.0208
 30
0.0
 11
266.746
 21
81.8212
 31
0.0
  0
LINE
  8
0
 62
     0
 10
266.746
 20
81.8212
 30
0.0
 11
267.546
 21
81.8212
 31
0.0
  0
LINE
  8
0
 62
     0
 10
267.546
 20
81.8212
 30
0.0
 11
267.546
 21
84.9217
 31
0.0
  0
LINE
  8
0
 62
     0
 10
267.546
 20
84.9217
 30
0.0
 11
266.746
 21
84.9217
 31
0.0
  0
LINE
  8
0
 62
     0
 10
266.746
 20
84.9217
 30
0.0
 11
266.746
 21
85.9208
 31
0.0
  0
LINE
  8
0
 62
     0
 10
266.746
 20
85.9208
 30
0.0
 11
252.744
 21
85.9208
 31
0.0
  0
LINE
  8
0
 62
     0
 10
233.696
 20
85.9208
 30
0.0
 11
233.696
 21
84.9217
 31
0.0
  0
LINE
  8
0
 62
     0
 10
233.696
 20
84.9217
 30
0.0
 11
232.895
 21
84.9217
 31
0.0
  0
LINE
  8
0
 62
     0
 10
232.895
 20
84.9217
 30
0.0
 11
232.895
 21
81.8212
 31
0.0
  0
LINE
  8
0
 62
     0
 10
232.895
 20
81.8212
 30
0.0
 11
233.696
 21
81.8212
 31
0.0
  0
LINE
  8
0
 62
     0
 10
233.696
 20
81.8212
 30
0.0
 11
233.696
 21
76.0208
 31
0.0
  0
LINE
  8
0
 62
     0
 10
233.696
 20
76.0208
 30
0.0
 11
232.895
 21
76.0208
 31
0.0
  0
LINE
  8
0
 62
     0
 10
232.895
 20
76.0208
 30
0.0
 11
232.895
 21
72.9216
 31
0.0
  0
LINE
  8
0
 62
     0
 10
232.895
 20
72.9216
 30
0.0
 11
233.696
 21
72.9216
 31
0.0
  0
LINE
  8
0
 62
     0
 10
233.696
 20
72.9216
 30
0.0
 11
233.696
 21
71.9212
 31
0.0
  0
LINE
  8
0
 62
     0
 10
233.696
 20
71.9212
 30
0.0
 11
247.696
 21
71.9212
 31
0.0
  0
LINE
  8
0
 62
     0
 10
247.696
 20
71.9212
 30
0.0
 11
247.696
 21
72.9216
 31
0.0
  0
LINE
  8
0
 62
     0
 10
247.696
 20
72.9216
 30
0.0
 11
248.496
 21
72.9216
 31
0.0
  0
LINE
  8
0
 62
     0
 10
248.496
 20
72.9216
 30
0.0
 11
248.496
 21
76.0208
 31
0.0
  0
LINE
  8
0
 62
     0
 10
248.496
 20
76.0208
 30
0.0
 11
247.696
 21
76.0208
 31
0.0
  0
LINE
  8
0
 62
     0
 10
247.696
 20
76.0208
 30
0.0
 11
247.696
 21
81.8212
 31
0.0
  0
LINE
  8
0
 62
     0
 10
247.696
 20
81.8212
 30
0.0
 11
248.496
 21
81.8212
 31
0.0
  0
LINE
  8
0
 62
     0
 10
248.496
 20
81.8212
 30
0.0
 11
248.496
 21
84.9217
 31
0.0
  0
LINE
  8
0
 62
     0
 10
248.496
 20
84.9217
 30
0.0
 11
247.696
 21
84.9217
 31
0.0
  0
LINE
  8
0
 62
     0
 10
247.696
 20
84.9217
 30
0.0
 11
247.696
 21
85.9208
 31
0.0
  0
LINE
  8
0
 62
     0
 10
247.696
 20
85.9208
 30
0.0
 11
233.696
 21
85.9208
 31
0.0
  0
LINE
  8
0
 62
     0
 10
214.646
 20
85.9208
 30
0.0
 11
214.646
 21
84.9217
 31
0.0
  0
LINE
  8
0
 62
     0
 10
214.646
 20
84.9217
 30
0.0
 11
213.845
 21
84.9217
 31
0.0
  0
LINE
  8
0
 62
     0
 10
213.845
 20
84.9217
 30
0.0
 11
213.845
 21
81.8212
 31
0.0
  0
LINE
  8
0
 62
     0
 10
213.845
 20
81.8212
 30
0.0
 11
214.646
 21
81.8212
 31
0.0
  0
LINE
  8
0
 62
     0
 10
214.646
 20
81.8212
 30
0.0
 11
214.646
 21
76.0208
 31
0.0
  0
LINE
  8
0
 62
     0
 10
214.646
 20
76.0208
 30
0.0
 11
213.845
 21
76.0208
 31
0.0
  0
LINE
  8
0
 62
     0
 10
213.845
 20
76.0208
 30
0.0
 11
213.845
 21
72.9216
 31
0.0
  0
LINE
  8
0
 62
     0
 10
213.845
 20
72.9216
 30
0.0
 11
214.646
 21
72.9216
 31
0.0
  0
LINE
  8
0
 62
     0
 10
214.646
 20
72.9216
 30
0.0
 11
214.646
 21
71.9212
 31
0.0
  0
LINE
  8
0
 62
     0
 10
214.646
 20
71.9212
 30
0.0
 11
228.646
 21
71.9212
 31
0.0
  0
LINE
  8
0
 62
     0
 10
228.646
 20
71.9212
 30
0.0
 11
228.646
 21
72.9216
 31
0.0
  0
LINE
  8
0
 62
     0
 10
228.646
 20
72.9216
 30
0.0
 11
229.446
 21
72.9216
 31
0.0
  0
LINE
  8
0
 62
     0
 10
229.446
 20
72.9216
 30
0.0
 11
229.446
 21
76.0208
 31
0.0
  0
LINE
  8
0
 62
     0
 10
229.446
 20
76.0208
 30
0.0
 11
228.646
 21
76.0208
 31
0.0
  0
LINE
  8
0
 62
     0
 10
228.646
 20
76.0208
 30
0.0
 11
228.646
 21
81.8212
 31
0.0
  0
LINE
  8
0
 62
     0
 10
228.646
 20
81.8212
 30
0.0
 11
229.446
 21
81.8212
 31
0.0
  0
LINE
  8
0
 62
     0
 10
229.446
 20
81.8212
 30
0.0
 11
229.446
 21
84.9217
 31
0.0
  0
LINE
  8
0
 62
     0
 10
229.446
 20
84.9217
 30
0.0
 11
228.646
 21
84.9217
 31
0.0
  0
LINE
  8
0
 62
     0
 10
228.646
 20
84.9217
 30
0.0
 11
228.646
 21
85.9208
 31
0.0
  0
LINE
  8
0
 62
     0
 10
228.646
 20
85.9208
 30
0.0
 11
214.646
 21
85.9208
 31
0.0
  0
LINE
  8
0
 62
     0
 10
195.596
 20
85.9208
 30
0.0
 11
195.596
 21
84.9217
 31
0.0
  0
LINE
  8
0
 62
     0
 10
195.596
 20
84.9217
 30
0.0
 11
194.795
 21
84.9217
 31
0.0
  0
LINE
  8
0
 62
     0
 10
194.795
 20
84.9217
 30
0.0
 11
194.795
 21
81.8212
 31
0.0
  0
LINE
  8
0
 62
     0
 10
194.795
 20
81.8212
 30
0.0
 11
195.596
 21
81.8212
 31
0.0
  0
LINE
  8
0
 62
     0
 10
195.596
 20
81.8212
 30
0.0
 11
195.596
 21
76.0208
 31
0.0
  0
LINE
  8
0
 62
     0
 10
195.596
 20
76.0208
 30
0.0
 11
194.795
 21
76.0208
 31
0.0
  0
LINE
  8
0
 62
     0
 10
194.795
 20
76.0208
 30
0.0
 11
194.795
 21
72.9216
 31
0.0
  0
LINE
  8
0
 62
     0
 10
194.795
 20
72.9216
 30
0.0
 11
195.596
 21
72.9216
 31
0.0
  0
LINE
  8
0
 62
     0
 10
195.596
 20
72.9216
 30
0.0
 11
195.596
 21
71.9212
 31
0.0
  0
LINE
  8
0
 62
     0
 10
195.596
 20
71.9212
 30
0.0
 11
209.596
 21
71.9212
 31
0.0
  0
LINE
  8
0
 62
     0
 10
209.596
 20
71.9212
 30
0.0
 11
209.596
 21
72.9216
 31
0.0
  0
LINE
  8
0
 62
     0
 10
209.596
 20
72.9216
 30
0.0
 11
210.396
 21
72.9216
 31
0.0
  0
LINE
  8
0
 62
     0
 10
210.396
 20
72.9216
 30
0.0
 11
210.396
 21
76.0208
 31
0.0
  0
LINE
  8
0
 62
     0
 10
210.396
 20
76.0208
 30
0.0
 11
209.596
 21
76.0208
 31
0.0
  0
LINE
  8
0
 62
     0
 10
209.596
 20
76.0208
 30
0.0
 11
209.596
 21
81.8212
 31
0.0
  0
LINE
  8
0
 62
     0
 10
209.596
 20
81.8212
 30
0.0
 11
210.396
 21
81.8212
 31
0.0
  0
LINE
  8
0
 62
     0
 10
210.396
 20
81.8212
 30
0.0
 11
210.396
 21
84.9217
 31
0.0
  0
LINE
  8
0
 62
     0
 10
210.396
 20
84.9217
 30
0.0
 11
209.596
 21
84.9217
 31
0.0
  0
LINE
  8
0
 62
     0
 10
209.596
 20
84.9217
 30
0.0
 11
209.596
 21
85.9208
 31
0.0
  0
LINE
  8
0
 62
     0
 10
209.596
 20
85.9208
 30
0.0
 11
195.596
 21
85.9208
 31
0.0
  0
LINE
  8
0
 62
     0
 10
176.546
 20
85.9208
 30
0.0
 11
176.546
 21
84.9217
 31
0.0
  0
LINE
  8
0
 62
     0
 10
176.546
 20
84.9217
 30
0.0
 11
175.745
 21
84.9217
 31
0.0
  0
LINE
  8
0
 62
     0
 10
175.745
 20
84.9217
 30
0.0
 11
175.745
 21
81.8212
 31
0.0
  0
LINE
  8
0
 62
     0
 10
175.745
 20
81.8212
 30
0.0
 11
176.546
 21
81.8212
 31
0.0
  0
LINE
  8
0
 62
     0
 10
176.546
 20
81.8212
 30
0.0
 11
176.546
 21
76.0208
 31
0.0
  0
LINE
  8
0
 62
     0
 10
176.546
 20
76.0208
 30
0.0
 11
175.745
 21
76.0208
 31
0.0
  0
LINE
  8
0
 62
     0
 10
175.745
 20
76.0208
 30
0.0
 11
175.745
 21
72.9216
 31
0.0
  0
LINE
  8
0
 62
     0
 10
175.745
 20
72.9216
 30
0.0
 11
176.546
 21
72.9216
 31
0.0
  0
LINE
  8
0
 62
     0
 10
176.546
 20
72.9216
 30
0.0
 11
176.546
 21
71.9212
 31
0.0
  0
LINE
  8
0
 62
     0
 10
176.546
 20
71.9212
 30
0.0
 11
190.546
 21
71.9212
 31
0.0
  0
LINE
  8
0
 62
     0
 10
190.546
 20
71.9212
 30
0.0
 11
190.546
 21
72.9216
 31
0.0
  0
LINE
  8
0
 62
     0
 10
190.546
 20
72.9216
 30
0.0
 11
191.346
 21
72.9216
 31
0.0
  0
LINE
  8
0
 62
     0
 10
191.346
 20
72.9216
 30
0.0
 11
191.346
 21
76.0208
 31
0.0
  0
LINE
  8
0
 62
     0
 10
191.346
 20
76.0208
 30
0.0
 11
190.546
 21
76.0208
 31
0.0
  0
LINE
  8
0
 62
     0
 10
190.546
 20
76.0208
 30
0.0
 11
190.546
 21
81.8212
 31
0.0
  0
LINE
  8
0
 62
     0
 10
190.546
 20
81.8212
 30
0.0
 11
191.346
 21
81.8212
 31
0.0
  0
LINE
  8
0
 62
     0
 10
191.346
 20
81.8212
 30
0.0
 11
191.346
 21
84.9217
 31
0.0
  0
LINE
  8
0
 62
     0
 10
191.346
 20
84.9217
 30
0.0
 11
190.546
 21
84.9217
 31
0.0
  0
LINE
  8
0
 62
     0
 10
190.546
 20
84.9217
 30
0.0
 11
190.546
 21
85.9208
 31
0.0
  0
LINE
  8
0
 62
     0
 10
190.546
 20
85.9208
 30
0.0
 11
176.546
 21
85.9208
 31
0.0
  0
LINE
  8
0
 62
     0
 10
157.496
 20
85.9208
 30
0.0
 11
157.496
 21
84.9217
 31
0.0
  0
LINE
  8
0
 62
     0
 10
157.496
 20
84.9217
 30
0.0
 11
156.695
 21
84.9217
 31
0.0
  0
LINE
  8
0
 62
     0
 10
156.695
 20
84.9217
 30
0.0
 11
156.695
 21
81.8212
 31
0.0
  0
LINE
  8
0
 62
     0
 10
156.695
 20
81.8212
 30
0.0
 11
157.496
 21
81.8212
 31
0.0
  0
LINE
  8
0
 62
     0
 10
157.496
 20
81.8212
 30
0.0
 11
157.496
 21
76.0208
 31
0.0
  0
LINE
  8
0
 62
     0
 10
157.496
 20
76.0208
 30
0.0
 11
156.695
 21
76.0208
 31
0.0
  0
LINE
  8
0
 62
     0
 10
156.695
 20
76.0208
 30
0.0
 11
156.695
 21
72.9216
 31
0.0
  0
LINE
  8
0
 62
     0
 10
156.695
 20
72.9216
 30
0.0
 11
157.496
 21
72.9216
 31
0.0
  0
LINE
  8
0
 62
     0
 10
157.496
 20
72.9216
 30
0.0
 11
157.496
 21
71.9212
 31
0.0
  0
LINE
  8
0
 62
     0
 10
157.496
 20
71.9212
 30
0.0
 11
171.496
 21
71.9212
 31
0.0
  0
LINE
  8
0
 62
     0
 10
171.496
 20
71.9212
 30
0.0
 11
171.496
 21
72.9216
 31
0.0
  0
LINE
  8
0
 62
     0
 10
171.496
 20
72.9216
 30
0.0
 11
172.296
 21
72.9216
 31
0.0
  0
LINE
  8
0
 62
     0
 10
172.296
 20
72.9216
 30
0.0
 11
172.296
 21
76.0208
 31
0.0
  0
LINE
  8
0
 62
     0
 10
172.296
 20
76.0208
 30
0.0
 11
171.496
 21
76.0208
 31
0.0
  0
LINE
  8
0
 62
     0
 10
171.496
 20
76.0208
 30
0.0
 11
171.496
 21
81.8212
 31
0.0
  0
LINE
  8
0
 62
     0
 10
171.496
 20
81.8212
 30
0.0
 11
172.296
 21
81.8212
 31
0.0
  0
LINE
  8
0
 62
     0
 10
172.296
 20
81.8212
 30
0.0
 11
172.296
 21
84.9217
 31
0.0
  0
LINE
  8
0
 62
     0
 10
172.296
 20
84.9217
 30
0.0
 11
171.496
 21
84.9217
 31
0.0
  0
LINE
  8
0
 62
     0
 10
171.496
 20
84.9217
 30
0.0
 11
171.496
 21
85.9208
 31
0.0
  0
LINE
  8
0
 62
     0
 10
171.496
 20
85.9208
 30
0.0
 11
157.496
 21
85.9208
 31
0.0
  0
LINE
  8
0
 62
     0
 10
138.446
 20
85.9208
 30
0.0
 11
138.446
 21
84.9217
 31
0.0
  0
LINE
  8
0
 62
     0
 10
138.446
 20
84.9217
 30
0.0
 11
137.645
 21
84.9217
 31
0.0
  0
LINE
  8
0
 62
     0
 10
137.645
 20
84.9217
 30
0.0
 11
137.645
 21
81.8212
 31
0.0
  0
LINE
  8
0
 62
     0
 10
137.645
 20
81.8212
 30
0.0
 11
138.446
 21
81.8212
 31
0.0
  0
LINE
  8
0
 62
     0
 10
138.446
 20
81.8212
 30
0.0
 11
138.446
 21
76.0208
 31
0.0
  0
LINE
  8
0
 62
     0
 10
138.446
 20
76.0208
 30
0.0
 11
137.645
 21
76.0208
 31
0.0
  0
LINE
  8
0
 62
     0
 10
137.645
 20
76.0208
 30
0.0
 11
137.645
 21
72.9216
 31
0.0
  0
LINE
  8
0
 62
     0
 10
137.645
 20
72.9216
 30
0.0
 11
138.446
 21
72.9216
 31
0.0
  0
LINE
  8
0
 62
     0
 10
138.446
 20
72.9216
 30
0.0
 11
138.446
 21
71.9212
 31
0.0
  0
LINE
  8
0
 62
     0
 10
138.446
 20
71.9212
 30
0.0
 11
152.446
 21
71.9212
 31
0.0
  0
LINE
  8
0
 62
     0
 10
152.446
 20
71.9212
 30
0.0
 11
152.446
 21
72.9216
 31
0.0
  0
LINE
  8
0
 62
     0
 10
152.446
 20
72.9216
 30
0.0
 11
153.246
 21
72.9216
 31
0.0
  0
LINE
  8
0
 62
     0
 10
153.246
 20
72.9216
 30
0.0
 11
153.246
 21
76.0208
 31
0.0
  0
LINE
  8
0
 62
     0
 10
153.246
 20
76.0208
 30
0.0
 11
152.446
 21
76.0208
 31
0.0
  0
LINE
  8
0
 62
     0
 10
152.446
 20
76.0208
 30
0.0
 11
152.446
 21
81.8212
 31
0.0
  0
LINE
  8
0
 62
     0
 10
152.446
 20
81.8212
 30
0.0
 11
153.246
 21
81.8212
 31
0.0
  0
LINE
  8
0
 62
     0
 10
153.246
 20
81.8212
 30
0.0
 11
153.246
 21
84.9217
 31
0.0
  0
LINE
  8
0
 62
     0
 10
153.246
 20
84.9217
 30
0.0
 11
152.446
 21
84.9217
 31
0.0
  0
LINE
  8
0
 62
     0
 10
152.446
 20
84.9217
 30
0.0
 11
152.446
 21
85.9208
 31
0.0
  0
LINE
  8
0
 62
     0
 10
152.446
 20
85.9208
 30
0.0
 11
138.446
 21
85.9208
 31
0.0
  0
LINE
  8
0
 62
     0
 10
119.396
 20
85.9208
 30
0.0
 11
119.396
 21
84.9217
 31
0.0
  0
LINE
  8
0
 62
     0
 10
119.396
 20
84.9217
 30
0.0
 11
118.595
 21
84.9217
 31
0.0
  0
LINE
  8
0
 62
     0
 10
118.595
 20
84.9217
 30
0.0
 11
118.595
 21
81.8212
 31
0.0
  0
LINE
  8
0
 62
     0
 10
118.595
 20
81.8212
 30
0.0
 11
119.396
 21
81.8212
 31
0.0
  0
LINE
  8
0
 62
     0
 10
119.396
 20
81.8212
 30
0.0
 11
119.396
 21
76.0208
 31
0.0
  0
LINE
  8
0
 62
     0
 10
119.396
 20
76.0208
 30
0.0
 11
118.595
 21
76.0208
 31
0.0
  0
LINE
  8
0
 62
     0
 10
118.595
 20
76.0208
 30
0.0
 11
118.595
 21
72.9216
 31
0.0
  0
LINE
  8
0
 62
     0
 10
118.595
 20
72.9216
 30
0.0
 11
119.396
 21
72.9216
 31
0.0
  0
LINE
  8
0
 62
     0
 10
119.396
 20
72.9216
 30
0.0
 11
119.396
 21
71.9212
 31
0.0
  0
LINE
  8
0
 62
     0
 10
119.396
 20
71.9212
 30
0.0
 11
133.396
 21
71.9212
 31
0.0
  0
LINE
  8
0
 62
     0
 10
133.396
 20
71.9212
 30
0.0
 11
133.396
 21
72.9216
 31
0.0
  0
LINE
  8
0
 62
     0
 10
133.396
 20
72.9216
 30
0.0
 11
134.196
 21
72.9216
 31
0.0
  0
LINE
  8
0
 62
     0
 10
134.196
 20
72.9216
 30
0.0
 11
134.196
 21
76.0208
 31
0.0
  0
LINE
  8
0
 62
     0
 10
134.196
 20
76.0208
 30
0.0
 11
133.396
 21
76.0208
 31
0.0
  0
LINE
  8
0
 62
     0
 10
133.396
 20
76.0208
 30
0.0
 11
133.396
 21
81.8212
 31
0.0
  0
LINE
  8
0
 62
     0
 10
133.396
 20
81.8212
 30
0.0
 11
134.196
 21
81.8212
 31
0.0
  0
LINE
  8
0
 62
     0
 10
134.196
 20
81.8212
 30
0.0
 11
134.196
 21
84.9217
 31
0.0
  0
LINE
  8
0
 62
     0
 10
134.196
 20
84.9217
 30
0.0
 11
133.396
 21
84.9217
 31
0.0
  0
LINE
  8
0
 62
     0
 10
133.396
 20
84.9217
 30
0.0
 11
133.396
 21
85.9208
 31
0.0
  0
LINE
  8
0
 62
     0
 10
133.396
 20
85.9208
 30
0.0
 11
119.396
 21
85.9208
 31
0.0
  0
LINE
  8
0
 62
     0
 10
100.346
 20
85.9208
 30
0.0
 11
100.346
 21
84.9217
 31
0.0
  0
LINE
  8
0
 62
     0
 10
100.346
 20
84.9217
 30
0.0
 11
99.5454
 21
84.9217
 31
0.0
  0
LINE
  8
0
 62
     0
 10
99.5454
 20
84.9217
 30
0.0
 11
99.5454
 21
81.8212
 31
0.0
  0
LINE
  8
0
 62
     0
 10
99.5454
 20
81.8212
 30
0.0
 11
100.346
 21
81.8212
 31
0.0
  0
LINE
  8
0
 62
     0
 10
100.346
 20
81.8212
 30
0.0
 11
100.346
 21
76.0208
 31
0.0
  0
LINE
  8
0
 62
     0
 10
100.346
 20
76.0208
 30
0.0
 11
99.5454
 21
76.0208
 31
0.0
  0
LINE
  8
0
 62
     0
 10
99.5454
 20
76.0208
 30
0.0
 11
99.5454
 21
72.9216
 31
0.0
  0
LINE
  8
0
 62
     0
 10
99.5454
 20
72.9216
 30
0.0
 11
100.346
 21
72.9216
 31
0.0
  0
LINE
  8
0
 62
     0
 10
100.346
 20
72.9216
 30
0.0
 11
100.346
 21
71.9212
 31
0.0
  0
LINE
  8
0
 62
     0
 10
100.346
 20
71.9212
 30
0.0
 11
114.346
 21
71.9212
 31
0.0
  0
LINE
  8
0
 62
     0
 10
114.346
 20
71.9212
 30
0.0
 11
114.346
 21
72.9216
 31
0.0
  0
LINE
  8
0
 62
     0
 10
114.346
 20
72.9216
 30
0.0
 11
115.146
 21
72.9216
 31
0.0
  0
LINE
  8
0
 62
     0
 10
115.146
 20
72.9216
 30
0.0
 11
115.146
 21
76.0208
 31
0.0
  0
LINE
  8
0
 62
     0
 10
115.146
 20
76.0208
 30
0.0
 11
114.346
 21
76.0208
 31
0.0
  0
LINE
  8
0
 62
     0
 10
114.346
 20
76.0208
 30
0.0
 11
114.346
 21
81.8212
 31
0.0
  0
LINE
  8
0
 62
     0
 10
114.346
 20
81.8212
 30
0.0
 11
115.146
 21
81.8212
 31
0.0
  0
LINE
  8
0
 62
     0
 10
115.146
 20
81.8212
 30
0.0
 11
115.146
 21
84.9217
 31
0.0
  0
LINE
  8
0
 62
     0
 10
115.146
 20
84.9217
 30
0.0
 11
114.346
 21
84.9217
 31
0.0
  0
LINE
  8
0
 62
     0
 10
114.346
 20
84.9217
 30
0.0
 11
114.346
 21
85.9208
 31
0.0
  0
LINE
  8
0
 62
     0
 10
114.346
 20
85.9208
 30
0.0
 11
100.346
 21
85.9208
 31
0.0
  0
LINE
  8
0
 62
     0
 10
81.2959
 20
85.9208
 30
0.0
 11
81.2959
 21
84.9217
 31
0.0
  0
LINE
  8
0
 62
     0
 10
81.2959
 20
84.9217
 30
0.0
 11
80.4954
 21
84.9217
 31
0.0
  0
LINE
  8
0
 62
     0
 10
80.4954
 20
84.9217
 30
0.0
 11
80.4954
 21
81.8212
 31
0.0
  0
LINE
  8
0
 62
     0
 10
80.4954
 20
81.8212
 30
0.0
 11
81.2959
 21
81.8212
 31
0.0
  0
LINE
  8
0
 62
     0
 10
81.2959
 20
81.8212
 30
0.0
 11
81.2959
 21
76.0208
 31
0.0
  0
LINE
  8
0
 62
     0
 10
81.2959
 20
76.0208
 30
0.0
 11
80.4954
 21
76.0208
 31
0.0
  0
LINE
  8
0
 62
     0
 10
80.4954
 20
76.0208
 30
0.0
 11
80.4954
 21
72.9216
 31
0.0
  0
LINE
  8
0
 62
     0
 10
80.4954
 20
72.9216
 30
0.0
 11
81.2959
 21
72.9216
 31
0.0
  0
LINE
  8
0
 62
     0
 10
81.2959
 20
72.9216
 30
0.0
 11
81.2959
 21
71.9212
 31
0.0
  0
LINE
  8
0
 62
     0
 10
81.2959
 20
71.9212
 30
0.0
 11
95.2955
 21
71.9212
 31
0.0
  0
LINE
  8
0
 62
     0
 10
95.2955
 20
71.9212
 30
0.0
 11
95.2955
 21
72.9216
 31
0.0
  0
LINE
  8
0
 62
     0
 10
95.2955
 20
72.9216
 30
0.0
 11
96.096
 21
72.9216
 31
0.0
  0
LINE
  8
0
 62
     0
 10
96.096
 20
72.9216
 30
0.0
 11
96.096
 21
76.0208
 31
0.0
  0
LINE
  8
0
 62
     0
 10
96.096
 20
76.0208
 30
0.0
 11
95.2955
 21
76.0208
 31
0.0
  0
LINE
  8
0
 62
     0
 10
95.2955
 20
76.0208
 30
0.0
 11
95.2955
 21
81.8212
 31
0.0
  0
LINE
  8
0
 62
     0
 10
95.2955
 20
81.8212
 30
0.0
 11
96.096
 21
81.8212
 31
0.0
  0
LINE
  8
0
 62
     0
 10
96.096
 20
81.8212
 30
0.0
 11
96.096
 21
84.9217
 31
0.0
  0
LINE
  8
0
 62
     0
 10
96.096
 20
84.9217
 30
0.0
 11
95.2955
 21
84.9217
 31
0.0
  0
LINE
  8
0
 62
     0
 10
95.2955
 20
84.9217
 30
0.0
 11
95.2955
 21
85.9208
 31
0.0
  0
LINE
  8
0
 62
     0
 10
95.2955
 20
85.9208
 30
0.0
 11
81.2959
 21
85.9208
 31
0.0
  0
LINE
  8
0
 62
     0
 10
62.2459
 20
85.9208
 30
0.0
 11
62.2459
 21
84.9217
 31
0.0
  0
LINE
  8
0
 62
     0
 10
62.2459
 20
84.9217
 30
0.0
 11
61.4454
 21
84.9217
 31
0.0
  0
LINE
  8
0
 62
     0
 10
61.4454
 20
84.9217
 30
0.0
 11
61.4454
 21
81.8212
 31
0.0
  0
LINE
  8
0
 62
     0
 10
61.4454
 20
81.8212
 30
0.0
 11
62.2459
 21
81.8212
 31
0.0
  0
LINE
  8
0
 62
     0
 10
62.2459
 20
81.8212
 30
0.0
 11
62.2459
 21
76.0208
 31
0.0
  0
LINE
  8
0
 62
     0
 10
62.2459
 20
76.0208
 30
0.0
 11
61.4454
 21
76.0208
 31
0.0
  0
LINE
  8
0
 62
     0
 10
61.4454
 20
76.0208
 30
0.0
 11
61.4454
 21
72.9216
 31
0.0
  0
LINE
  8
0
 62
     0
 10
61.4454
 20
72.9216
 30
0.0
 11
62.2459
 21
72.9216
 31
0.0
  0
LINE
  8
0
 62
     0
 10
62.2459
 20
72.9216
 30
0.0
 11
62.2459
 21
71.9212
 31
0.0
  0
LINE
  8
0
 62
     0
 10
62.2459
 20
71.9212
 30
0.0
 11
76.2455
 21
71.9212
 31
0.0
  0
LINE
  8
0
 62
     0
 10
76.2455
 20
71.9212
 30
0.0
 11
76.2455
 21
72.9216
 31
0.0
  0
LINE
  8
0
 62
     0
 10
76.2455
 20
72.9216
 30
0.0
 11
77.046
 21
72.9216
 31
0.0
  0
LINE
  8
0
 62
     0
 10
77.046
 20
72.9216
 30
0.0
 11
77.046
 21
76.0208
 31
0.0
  0
LINE
  8
0
 62
     0
 10
77.046
 20
76.0208
 30
0.0
 11
76.2455
 21
76.0208
 31
0.0
  0
LINE
  8
0
 62
     0
 10
76.2455
 20
76.0208
 30
0.0
 11
76.2455
 21
81.8212
 31
0.0
  0
LINE
  8
0
 62
     0
 10
76.2455
 20
81.8212
 30
0.0
 11
77.046
 21
81.8212
 31
0.0
  0
LINE
  8
0
 62
     0
 10
77.046
 20
81.8212
 30
0.0
 11
77.046
 21
84.9217
 31
0.0
  0
LINE
  8
0
 62
     0
 10
77.046
 20
84.9217
 30
0.0
 11
76.2455
 21
84.9217
 31
0.0
  0
LINE
  8
0
 62
     0
 10
76.2455
 20
84.9217
 30
0.0
 11
76.2455
 21
85.9208
 31
0.0
  0
LINE
  8
0
 62
     0
 10
76.2455
 20
85.9208
 30
0.0
 11
62.2459
 21
85.9208
 31
0.0
  0
LINE
  8
0
 62
     0
 10
43.1959
 20
85.9208
 30
0.0
 11
43.1959
 21
84.9217
 31
0.0
  0
LINE
  8
0
 62
     0
 10
43.1959
 20
84.9217
 30
0.0
 11
42.3954
 21
84.9217
 31
0.0
  0
LINE
  8
0
 62
     0
 10
42.3954
 20
84.9217
 30
0.0
 11
42.3954
 21
81.8212
 31
0.0
  0
LINE
  8
0
 62
     0
 10
42.3954
 20
81.8212
 30
0.0
 11
43.1959
 21
81.8212
 31
0.0
  0
LINE
  8
0
 62
     0
 10
43.1959
 20
81.8212
 30
0.0
 11
43.1959
 21
76.0208
 31
0.0
  0
LINE
  8
0
 62
     0
 10
43.1959
 20
76.0208
 30
0.0
 11
42.3954
 21
76.0208
 31
0.0
  0
LINE
  8
0
 62
     0
 10
42.3954
 20
76.0208
 30
0.0
 11
42.3954
 21
72.9216
 31
0.0
  0
LINE
  8
0
 62
     0
 10
42.3954
 20
72.9216
 30
0.0
 11
43.1959
 21
72.9216
 31
0.0
  0
LINE
  8
0
 62
     0
 10
43.1959
 20
72.9216
 30
0.0
 11
43.1959
 21
71.9212
 31
0.0
  0
LINE
  8
0
 62
     0
 10
43.1959
 20
71.9212
 30
0.0
 11
57.1955
 21
71.9212
 31
0.0
  0
LINE
  8
0
 62
     0
 10
57.1955
 20
71.9212
 30
0.0
 11
57.1955
 21
72.9216
 31
0.0
  0
LINE
  8
0
 62
     0
 10
57.1955
 20
72.9216
 30
0.0
 11
57.996
 21
72.9216
 31
0.0
  0
LINE
  8
0
 62
     0
 10
57.996
 20
72.9216
 30
0.0
 11
57.996
 21
76.0208
 31
0.0
  0
LINE
  8
0
 62
     0
 10
57.996
 20
76.0208
 30
0.0
 11
57.1955
 21
76.0208
 31
0.0
  0
LINE
  8
0
 62
     0
 10
57.1955
 20
76.0208
 30
0.0
 11
57.1955
 21
81.8212
 31
0.0
  0
LINE
  8
0
 62
     0
 10
57.1955
 20
81.8212
 30
0.0
 11
57.996
 21
81.8212
 31
0.0
  0
LINE
  8
0
 62
     0
 10
57.996
 20
81.8212
 30
0.0
 11
57.996
 21
84.9217
 31
0.0
  0
LINE
  8
0
 62
     0
 10
57.996
 20
84.9217
 30
0.0
 11
57.1955
 21
84.9217
 31
0.0
  0
LINE
  8
0
 62
     0
 10
57.1955
 20
84.9217
 30
0.0
 11
57.1955
 21
85.9208
 31
0.0
  0
LINE
  8
0
 62
     0
 10
57.1955
 20
85.9208
 30
0.0
 11
43.1959
 21
85.9208
 31
0.0
  0
LINE
  8
0
 62
     0
 10
19.3821
 20
85.9208
 30
0.0
 11
19.3821
 21
84.9217
 31
0.0
  0
LINE
  8
0
 62
     0
 10
19.3821
 20
84.9217
 30
0.0
 11
18.5829
 21
84.9217
 31
0.0
  0
LINE
  8
0
 62
     0
 10
18.5829
 20
84.9217
 30
0.0
 11
18.5829
 21
81.8212
 31
0.0
  0
LINE
  8
0
 62
     0
 10
18.5829
 20
81.8212
 30
0.0
 11
19.3821
 21
81.8212
 31
0.0
  0
LINE
  8
0
 62
     0
 10
19.3821
 20
81.8212
 30
0.0
 11
19.3821
 21
76.0208
 31
0.0
  0
LINE
  8
0
 62
     0
 10
19.3821
 20
76.0208
 30
0.0
 11
18.5829
 21
76.0208
 31
0.0
  0
LINE
  8
0
 62
     0
 10
18.5829
 20
76.0208
 30
0.0
 11
18.5829
 21
72.9216
 31
0.0
  0
LINE
  8
0
 62
     0
 10
18.5829
 20
72.9216
 30
0.0
 11
19.3821
 21
72.9216
 31
0.0
  0
LINE
  8
0
 62
     0
 10
19.3821
 20
72.9216
 30
0.0
 11
19.3821
 21
71.9212
 31
0.0
  0
LINE
  8
0
 62
     0
 10
19.3821
 20
71.9212
 30
0.0
 11
33.383
 21
71.9212
 31
0.0
  0
LINE
  8
0
 62
     0
 10
33.383
 20
71.9212
 30
0.0
 11
33.383
 21
72.9216
 31
0.0
  0
LINE
  8
0
 62
     0
 10
33.383
 20
72.9216
 30
0.0
 11
34.1822
 21
72.9216
 31
0.0
  0
LINE
  8
0
 62
     0
 10
34.1822
 20
72.9216
 30
0.0
 11
34.1822
 21
76.0208
 31
0.0
  0
LINE
  8
0
 62
     0
 10
34.1822
 20
76.0208
 30
0.0
 11
33.383
 21
76.0208
 31
0.0
  0
LINE
  8
0
 62
     0
 10
33.383
 20
76.0208
 30
0.0
 11
33.383
 21
81.8212
 31
0.0
  0
LINE
  8
0
 62
     0
 10
33.383
 20
81.8212
 30
0.0
 11
34.1822
 21
81.8212
 31
0.0
  0
LINE
  8
0
 62
     0
 10
34.1822
 20
81.8212
 30
0.0
 11
34.1822
 21
84.9217
 31
0.0
  0
LINE
  8
0
 62
     0
 10
34.1822
 20
84.9217
 30
0.0
 11
33.383
 21
84.9217
 31
0.0
  0
LINE
  8
0
 62
     0
 10
33.383
 20
84.9217
 30
0.0
 11
33.383
 21
85.9208
 31
0.0
  0
LINE
  8
0
 62
     0
 10
33.383
 20
85.9208
 30
0.0
 11
19.3821
 21
85.9208
 31
0.0
  0
LINE
  8
0
 62
     0
 10
271.796
 20
104.971
 30
0.0
 11
271.796
 21
103.972
 31
0.0
  0
LINE
  8
0
 62
     0
 10
271.796
 20
103.972
 30
0.0
 11
270.995
 21
103.972
 31
0.0
  0
LINE
  8
0
 62
     0
 10
270.995
 20
103.972
 30
0.0
 11
270.995
 21
100.871
 31
0.0
  0
LINE
  8
0
 62
     0
 10
270.995
 20
100.871
 30
0.0
 11
271.796
 21
100.871
 31
0.0
  0
LINE
  8
0
 62
     0
 10
271.796
 20
100.871
 30
0.0
 11
271.796
 21
100.271
 31
0.0
  0
LINE
  8
0
 62
     0
 10
271.796
 20
100.271
 30
0.0
 11
270.27
 21
100.271
 31
0.0
  0
LINE
  8
0
 62
     0
 10
270.27
 20
100.271
 30
0.0
 11
270.27
 21
103.502
 31
0.0
  0
LINE
  8
0
 62
     0
 10
270.27
 20
103.502
 30
0.0
 11
263.521
 21
103.502
 31
0.0
  0
LINE
  8
0
 62
     0
 10
263.521
 20
103.502
 30
0.0
 11
263.521
 21
100.271
 31
0.0
  0
LINE
  8
0
 62
     0
 10
263.521
 20
100.271
 30
0.0
 11
262.695
 21
100.271
 31
0.0
  0
LINE
  8
0
 62
     0
 10
262.695
 20
100.271
 30
0.0
 11
262.695
 21
97.4714
 31
0.0
  0
LINE
  8
0
 62
     0
 10
262.695
 20
97.4714
 30
0.0
 11
263.521
 21
97.4714
 31
0.0
  0
LINE
  8
0
 62
     0
 10
263.521
 20
97.4714
 30
0.0
 11
263.521
 21
91.2012
 31
0.0
  0
LINE
  8
0
 62
     0
 10
263.521
 20
91.2012
 30
0.0
 11
265.246
 21
91.2012
 31
0.0
  0
LINE
  8
0
 62
     0
 10
265.246
 20
91.2012
 30
0.0
 11
265.246
 21
90.001
 31
0.0
  0
LINE
  8
0
 62
     0
 10
265.246
 20
90.001
 30
0.0
 11
268.545
 21
90.001
 31
0.0
  0
LINE
  8
0
 62
     0
 10
268.545
 20
90.001
 30
0.0
 11
268.545
 21
91.2012
 31
0.0
  0
LINE
  8
0
 62
     0
 10
268.545
 20
91.2012
 30
0.0
 11
270.27
 21
91.2012
 31
0.0
  0
LINE
  8
0
 62
     0
 10
270.27
 20
91.2012
 30
0.0
 11
270.27
 21
95.6716
 31
0.0
  0
LINE
  8
0
 62
     0
 10
270.27
 20
95.6716
 30
0.0
 11
271.796
 21
95.6716
 31
0.0
  0
LINE
  8
0
 62
     0
 10
271.796
 20
95.6716
 30
0.0
 11
271.796
 21
95.0722
 31
0.0
  0
LINE
  8
0
 62
     0
 10
271.796
 20
95.0722
 30
0.0
 11
270.995
 21
95.0722
 31
0.0
  0
LINE
  8
0
 62
     0
 10
270.995
 20
95.0722
 30
0.0
 11
270.995
 21
91.9716
 31
0.0
  0
LINE
  8
0
 62
     0
 10
270.995
 20
91.9716
 30
0.0
 11
271.796
 21
91.9716
 31
0.0
  0
LINE
  8
0
 62
     0
 10
271.796
 20
91.9716
 30
0.0
 11
271.796
 21
90.9712
 31
0.0
  0
LINE
  8
0
 62
     0
 10
271.796
 20
90.9712
 30
0.0
 11
285.796
 21
90.9712
 31
0.0
  0
LINE
  8
0
 62
     0
 10
285.796
 20
90.9712
 30
0.0
 11
285.796
 21
91.9716
 31
0.0
  0
LINE
  8
0
 62
     0
 10
285.796
 20
91.9716
 30
0.0
 11
286.596
 21
91.9716
 31
0.0
  0
LINE
  8
0
 62
     0
 10
286.596
 20
91.9716
 30
0.0
 11
286.596
 21
95.0722
 31
0.0
  0
LINE
  8
0
 62
     0
 10
286.596
 20
95.0722
 30
0.0
 11
285.796
 21
95.0722
 31
0.0
  0
LINE
  8
0
 62
     0
 10
285.796
 20
95.0722
 30
0.0
 11
285.796
 21
95.6716
 31
0.0
  0
LINE
  8
0
 62
     0
 10
285.796
 20
95.6716
 30
0.0
 11
287.321
 21
95.6716
 31
0.0
  0
LINE
  8
0
 62
     0
 10
287.321
 20
95.6716
 30
0.0
 11
287.321
 21
91.2012
 31
0.0
  0
LINE
  8
0
 62
     0
 10
287.321
 20
91.2012
 30
0.0
 11
289.045
 21
91.2012
 31
0.0
  0
LINE
  8
0
 62
     0
 10
289.045
 20
91.2012
 30
0.0
 11
289.045
 21
90.001
 31
0.0
  0
LINE
  8
0
 62
     0
 10
289.045
 20
90.001
 30
0.0
 11
292.345
 21
90.001
 31
0.0
  0
LINE
  8
0
 62
     0
 10
292.345
 20
90.001
 30
0.0
 11
292.345
 21
91.2012
 31
0.0
  0
LINE
  8
0
 62
     0
 10
292.345
 20
91.2012
 30
0.0
 11
294.071
 21
91.2012
 31
0.0
  0
LINE
  8
0
 62
     0
 10
294.071
 20
91.2012
 30
0.0
 11
294.071
 21
97.4714
 31
0.0
  0
LINE
  8
0
 62
     0
 10
294.071
 20
97.4714
 30
0.0
 11
294.896
 21
97.4714
 31
0.0
  0
LINE
  8
0
 62
     0
 10
294.896
 20
97.4714
 30
0.0
 11
294.896
 21
100.271
 31
0.0
  0
LINE
  8
0
 62
     0
 10
294.896
 20
100.271
 30
0.0
 11
294.071
 21
100.271
 31
0.0
  0
LINE
  8
0
 62
     0
 10
294.071
 20
100.271
 30
0.0
 11
294.071
 21
103.502
 31
0.0
  0
LINE
  8
0
 62
     0
 10
294.071
 20
103.502
 30
0.0
 11
287.321
 21
103.502
 31
0.0
  0
LINE
  8
0
 62
     0
 10
287.321
 20
103.502
 30
0.0
 11
287.321
 21
100.271
 31
0.0
  0
LINE
  8
0
 62
     0
 10
287.321
 20
100.271
 30
0.0
 11
285.796
 21
100.271
 31
0.0
  0
LINE
  8
0
 62
     0
 10
285.796
 20
100.271
 30
0.0
 11
285.796
 21
100.871
 31
0.0
  0
LINE
  8
0
 62
     0
 10
285.796
 20
100.871
 30
0.0
 11
286.596
 21
100.871
 31
0.0
  0
LINE
  8
0
 62
     0
 10
286.596
 20
100.871
 30
0.0
 11
286.596
 21
103.972
 31
0.0
  0
LINE
  8
0
 62
     0
 10
286.596
 20
103.972
 30
0.0
 11
285.796
 21
103.972
 31
0.0
  0
LINE
  8
0
 62
     0
 10
285.796
 20
103.972
 30
0.0
 11
285.796
 21
104.971
 31
0.0
  0
LINE
  8
0
 62
     0
 10
285.796
 20
104.971
 30
0.0
 11
271.796
 21
104.971
 31
0.0
  0
LINE
  8
0
 62
     0
 10
300.371
 20
104.971
 30
0.0
 11
300.371
 21
103.972
 31
0.0
  0
LINE
  8
0
 62
     0
 10
300.371
 20
103.972
 30
0.0
 11
299.57
 21
103.972
 31
0.0
  0
LINE
  8
0
 62
     0
 10
299.57
 20
103.972
 30
0.0
 11
299.57
 21
100.871
 31
0.0
  0
LINE
  8
0
 62
     0
 10
299.57
 20
100.871
 30
0.0
 11
300.371
 21
100.871
 31
0.0
  0
LINE
  8
0
 62
     0
 10
300.371
 20
100.871
 30
0.0
 11
300.371
 21
95.0722
 31
0.0
  0
LINE
  8
0
 62
     0
 10
300.371
 20
95.0722
 30
0.0
 11
299.57
 21
95.0722
 31
0.0
  0
LINE
  8
0
 62
     0
 10
299.57
 20
95.0722
 30
0.0
 11
299.57
 21
91.9716
 31
0.0
  0
LINE
  8
0
 62
     0
 10
299.57
 20
91.9716
 30
0.0
 11
300.371
 21
91.9716
 31
0.0
  0
LINE
  8
0
 62
     0
 10
300.371
 20
91.9716
 30
0.0
 11
300.371
 21
90.9712
 31
0.0
  0
LINE
  8
0
 62
     0
 10
300.371
 20
90.9712
 30
0.0
 11
314.371
 21
90.9712
 31
0.0
  0
LINE
  8
0
 62
     0
 10
314.371
 20
90.9712
 30
0.0
 11
314.371
 21
91.9716
 31
0.0
  0
LINE
  8
0
 62
     0
 10
314.371
 20
91.9716
 30
0.0
 11
315.171
 21
91.9716
 31
0.0
  0
LINE
  8
0
 62
     0
 10
315.171
 20
91.9716
 30
0.0
 11
315.171
 21
95.0722
 31
0.0
  0
LINE
  8
0
 62
     0
 10
315.171
 20
95.0722
 30
0.0
 11
314.371
 21
95.0722
 31
0.0
  0
LINE
  8
0
 62
     0
 10
314.371
 20
95.0722
 30
0.0
 11
314.371
 21
100.871
 31
0.0
  0
LINE
  8
0
 62
     0
 10
314.371
 20
100.871
 30
0.0
 11
315.171
 21
100.871
 31
0.0
  0
LINE
  8
0
 62
     0
 10
315.171
 20
100.871
 30
0.0
 11
315.171
 21
103.972
 31
0.0
  0
LINE
  8
0
 62
     0
 10
315.171
 20
103.972
 30
0.0
 11
314.371
 21
103.972
 31
0.0
  0
LINE
  8
0
 62
     0
 10
314.371
 20
103.972
 30
0.0
 11
314.371
 21
104.971
 31
0.0
  0
LINE
  8
0
 62
     0
 10
314.371
 20
104.971
 30
0.0
 11
300.371
 21
104.971
 31
0.0
  0
LINE
  8
0
 62
     0
 10
243.221
 20
104.971
 30
0.0
 11
243.221
 21
103.972
 31
0.0
  0
LINE
  8
0
 62
     0
 10
243.221
 20
103.972
 30
0.0
 11
242.42
 21
103.972
 31
0.0
  0
LINE
  8
0
 62
     0
 10
242.42
 20
103.972
 30
0.0
 11
242.42
 21
100.871
 31
0.0
  0
LINE
  8
0
 62
     0
 10
242.42
 20
100.871
 30
0.0
 11
243.221
 21
100.871
 31
0.0
  0
LINE
  8
0
 62
     0
 10
243.221
 20
100.871
 30
0.0
 11
243.221
 21
95.0722
 31
0.0
  0
LINE
  8
0
 62
     0
 10
243.221
 20
95.0722
 30
0.0
 11
242.42
 21
95.0722
 31
0.0
  0
LINE
  8
0
 62
     0
 10
242.42
 20
95.0722
 30
0.0
 11
242.42
 21
91.9716
 31
0.0
  0
LINE
  8
0
 62
     0
 10
242.42
 20
91.9716
 30
0.0
 11
243.221
 21
91.9716
 31
0.0
  0
LINE
  8
0
 62
     0
 10
243.221
 20
91.9716
 30
0.0
 11
243.221
 21
90.9712
 31
0.0
  0
LINE
  8
0
 62
     0
 10
243.221
 20
90.9712
 30
0.0
 11
257.221
 21
90.9712
 31
0.0
  0
LINE
  8
0
 62
     0
 10
257.221
 20
90.9712
 30
0.0
 11
257.221
 21
91.9716
 31
0.0
  0
LINE
  8
0
 62
     0
 10
257.221
 20
91.9716
 30
0.0
 11
258.021
 21
91.9716
 31
0.0
  0
LINE
  8
0
 62
     0
 10
258.021
 20
91.9716
 30
0.0
 11
258.021
 21
95.0722
 31
0.0
  0
LINE
  8
0
 62
     0
 10
258.021
 20
95.0722
 30
0.0
 11
257.221
 21
95.0722
 31
0.0
  0
LINE
  8
0
 62
     0
 10
257.221
 20
95.0722
 30
0.0
 11
257.221
 21
100.871
 31
0.0
  0
LINE
  8
0
 62
     0
 10
257.221
 20
100.871
 30
0.0
 11
258.021
 21
100.871
 31
0.0
  0
LINE
  8
0
 62
     0
 10
258.021
 20
100.871
 30
0.0
 11
258.021
 21
103.972
 31
0.0
  0
LINE
  8
0
 62
     0
 10
258.021
 20
103.972
 30
0.0
 11
257.221
 21
103.972
 31
0.0
  0
LINE
  8
0
 62
     0
 10
257.221
 20
103.972
 30
0.0
 11
257.221
 21
104.971
 31
0.0
  0
LINE
  8
0
 62
     0
 10
257.221
 20
104.971
 30
0.0
 11
243.221
 21
104.971
 31
0.0
  0
LINE
  8
0
 62
     0
 10
224.171
 20
104.971
 30
0.0
 11
224.171
 21
103.972
 31
0.0
  0
LINE
  8
0
 62
     0
 10
224.171
 20
103.972
 30
0.0
 11
223.37
 21
103.972
 31
0.0
  0
LINE
  8
0
 62
     0
 10
223.37
 20
103.972
 30
0.0
 11
223.37
 21
100.871
 31
0.0
  0
LINE
  8
0
 62
     0
 10
223.37
 20
100.871
 30
0.0
 11
224.171
 21
100.871
 31
0.0
  0
LINE
  8
0
 62
     0
 10
224.171
 20
100.871
 30
0.0
 11
224.171
 21
95.0722
 31
0.0
  0
LINE
  8
0
 62
     0
 10
224.171
 20
95.0722
 30
0.0
 11
223.37
 21
95.0722
 31
0.0
  0
LINE
  8
0
 62
     0
 10
223.37
 20
95.0722
 30
0.0
 11
223.37
 21
91.9716
 31
0.0
  0
LINE
  8
0
 62
     0
 10
223.37
 20
91.9716
 30
0.0
 11
224.171
 21
91.9716
 31
0.0
  0
LINE
  8
0
 62
     0
 10
224.171
 20
91.9716
 30
0.0
 11
224.171
 21
90.9712
 31
0.0
  0
LINE
  8
0
 62
     0
 10
224.171
 20
90.9712
 30
0.0
 11
238.171
 21
90.9712
 31
0.0
  0
LINE
  8
0
 62
     0
 10
238.171
 20
90.9712
 30
0.0
 11
238.171
 21
91.9716
 31
0.0
  0
LINE
  8
0
 62
     0
 10
238.171
 20
91.9716
 30
0.0
 11
238.971
 21
91.9716
 31
0.0
  0
LINE
  8
0
 62
     0
 10
238.971
 20
91.9716
 30
0.0
 11
238.971
 21
95.0722
 31
0.0
  0
LINE
  8
0
 62
     0
 10
238.971
 20
95.0722
 30
0.0
 11
238.171
 21
95.0722
 31
0.0
  0
LINE
  8
0
 62
     0
 10
238.171
 20
95.0722
 30
0.0
 11
238.171
 21
100.871
 31
0.0
  0
LINE
  8
0
 62
     0
 10
238.171
 20
100.871
 30
0.0
 11
238.971
 21
100.871
 31
0.0
  0
LINE
  8
0
 62
     0
 10
238.971
 20
100.871
 30
0.0
 11
238.971
 21
103.972
 31
0.0
  0
LINE
  8
0
 62
     0
 10
238.971
 20
103.972
 30
0.0
 11
238.171
 21
103.972
 31
0.0
  0
LINE
  8
0
 62
     0
 10
238.171
 20
103.972
 30
0.0
 11
238.171
 21
104.971
 31
0.0
  0
LINE
  8
0
 62
     0
 10
238.171
 20
104.971
 30
0.0
 11
224.171
 21
104.971
 31
0.0
  0
LINE
  8
0
 62
     0
 10
205.121
 20
104.971
 30
0.0
 11
205.121
 21
103.972
 31
0.0
  0
LINE
  8
0
 62
     0
 10
205.121
 20
103.972
 30
0.0
 11
204.32
 21
103.972
 31
0.0
  0
LINE
  8
0
 62
     0
 10
204.32
 20
103.972
 30
0.0
 11
204.32
 21
100.871
 31
0.0
  0
LINE
  8
0
 62
     0
 10
204.32
 20
100.871
 30
0.0
 11
205.121
 21
100.871
 31
0.0
  0
LINE
  8
0
 62
     0
 10
205.121
 20
100.871
 30
0.0
 11
205.121
 21
95.0722
 31
0.0
  0
LINE
  8
0
 62
     0
 10
205.121
 20
95.0722
 30
0.0
 11
204.32
 21
95.0722
 31
0.0
  0
LINE
  8
0
 62
     0
 10
204.32
 20
95.0722
 30
0.0
 11
204.32
 21
91.9716
 31
0.0
  0
LINE
  8
0
 62
     0
 10
204.32
 20
91.9716
 30
0.0
 11
205.121
 21
91.9716
 31
0.0
  0
LINE
  8
0
 62
     0
 10
205.121
 20
91.9716
 30
0.0
 11
205.121
 21
90.9712
 31
0.0
  0
LINE
  8
0
 62
     0
 10
205.121
 20
90.9712
 30
0.0
 11
219.121
 21
90.9712
 31
0.0
  0
LINE
  8
0
 62
     0
 10
219.121
 20
90.9712
 30
0.0
 11
219.121
 21
91.9716
 31
0.0
  0
LINE
  8
0
 62
     0
 10
219.121
 20
91.9716
 30
0.0
 11
219.921
 21
91.9716
 31
0.0
  0
LINE
  8
0
 62
     0
 10
219.921
 20
91.9716
 30
0.0
 11
219.921
 21
95.0722
 31
0.0
  0
LINE
  8
0
 62
     0
 10
219.921
 20
95.0722
 30
0.0
 11
219.121
 21
95.0722
 31
0.0
  0
LINE
  8
0
 62
     0
 10
219.121
 20
95.0722
 30
0.0
 11
219.121
 21
100.871
 31
0.0
  0
LINE
  8
0
 62
     0
 10
219.121
 20
100.871
 30
0.0
 11
219.921
 21
100.871
 31
0.0
  0
LINE
  8
0
 62
     0
 10
219.921
 20
100.871
 30
0.0
 11
219.921
 21
103.972
 31
0.0
  0
LINE
  8
0
 62
     0
 10
219.921
 20
103.972
 30
0.0
 11
219.121
 21
103.972
 31
0.0
  0
LINE
  8
0
 62
     0
 10
219.121
 20
103.972
 30
0.0
 11
219.121
 21
104.971
 31
0.0
  0
LINE
  8
0
 62
     0
 10
219.121
 20
104.971
 30
0.0
 11
205.121
 21
104.971
 31
0.0
  0
LINE
  8
0
 62
     0
 10
186.071
 20
104.971
 30
0.0
 11
186.071
 21
103.972
 31
0.0
  0
LINE
  8
0
 62
     0
 10
186.071
 20
103.972
 30
0.0
 11
185.27
 21
103.972
 31
0.0
  0
LINE
  8
0
 62
     0
 10
185.27
 20
103.972
 30
0.0
 11
185.27
 21
100.871
 31
0.0
  0
LINE
  8
0
 62
     0
 10
185.27
 20
100.871
 30
0.0
 11
186.071
 21
100.871
 31
0.0
  0
LINE
  8
0
 62
     0
 10
186.071
 20
100.871
 30
0.0
 11
186.071
 21
95.0722
 31
0.0
  0
LINE
  8
0
 62
     0
 10
186.071
 20
95.0722
 30
0.0
 11
185.27
 21
95.0722
 31
0.0
  0
LINE
  8
0
 62
     0
 10
185.27
 20
95.0722
 30
0.0
 11
185.27
 21
91.9716
 31
0.0
  0
LINE
  8
0
 62
     0
 10
185.27
 20
91.9716
 30
0.0
 11
186.071
 21
91.9716
 31
0.0
  0
LINE
  8
0
 62
     0
 10
186.071
 20
91.9716
 30
0.0
 11
186.071
 21
90.9712
 31
0.0
  0
LINE
  8
0
 62
     0
 10
186.071
 20
90.9712
 30
0.0
 11
200.071
 21
90.9712
 31
0.0
  0
LINE
  8
0
 62
     0
 10
200.071
 20
90.9712
 30
0.0
 11
200.071
 21
91.9716
 31
0.0
  0
LINE
  8
0
 62
     0
 10
200.071
 20
91.9716
 30
0.0
 11
200.871
 21
91.9716
 31
0.0
  0
LINE
  8
0
 62
     0
 10
200.871
 20
91.9716
 30
0.0
 11
200.871
 21
95.0722
 31
0.0
  0
LINE
  8
0
 62
     0
 10
200.871
 20
95.0722
 30
0.0
 11
200.071
 21
95.0722
 31
0.0
  0
LINE
  8
0
 62
     0
 10
200.071
 20
95.0722
 30
0.0
 11
200.071
 21
100.871
 31
0.0
  0
LINE
  8
0
 62
     0
 10
200.071
 20
100.871
 30
0.0
 11
200.871
 21
100.871
 31
0.0
  0
LINE
  8
0
 62
     0
 10
200.871
 20
100.871
 30
0.0
 11
200.871
 21
103.972
 31
0.0
  0
LINE
  8
0
 62
     0
 10
200.871
 20
103.972
 30
0.0
 11
200.071
 21
103.972
 31
0.0
  0
LINE
  8
0
 62
     0
 10
200.071
 20
103.972
 30
0.0
 11
200.071
 21
104.971
 31
0.0
  0
LINE
  8
0
 62
     0
 10
200.071
 20
104.971
 30
0.0
 11
186.071
 21
104.971
 31
0.0
  0
LINE
  8
0
 62
     0
 10
167.021
 20
104.971
 30
0.0
 11
167.021
 21
103.972
 31
0.0
  0
LINE
  8
0
 62
     0
 10
167.021
 20
103.972
 30
0.0
 11
166.22
 21
103.972
 31
0.0
  0
LINE
  8
0
 62
     0
 10
166.22
 20
103.972
 30
0.0
 11
166.22
 21
100.871
 31
0.0
  0
LINE
  8
0
 62
     0
 10
166.22
 20
100.871
 30
0.0
 11
167.021
 21
100.871
 31
0.0
  0
LINE
  8
0
 62
     0
 10
167.021
 20
100.871
 30
0.0
 11
167.021
 21
95.0722
 31
0.0
  0
LINE
  8
0
 62
     0
 10
167.021
 20
95.0722
 30
0.0
 11
166.22
 21
95.0722
 31
0.0
  0
LINE
  8
0
 62
     0
 10
166.22
 20
95.0722
 30
0.0
 11
166.22
 21
91.9716
 31
0.0
  0
LINE
  8
0
 62
     0
 10
166.22
 20
91.9716
 30
0.0
 11
167.021
 21
91.9716
 31
0.0
  0
LINE
  8
0
 62
     0
 10
167.021
 20
91.9716
 30
0.0
 11
167.021
 21
90.9712
 31
0.0
  0
LINE
  8
0
 62
     0
 10
167.021
 20
90.9712
 30
0.0
 11
181.021
 21
90.9712
 31
0.0
  0
LINE
  8
0
 62
     0
 10
181.021
 20
90.9712
 30
0.0
 11
181.021
 21
91.9716
 31
0.0
  0
LINE
  8
0
 62
     0
 10
181.021
 20
91.9716
 30
0.0
 11
181.821
 21
91.9716
 31
0.0
  0
LINE
  8
0
 62
     0
 10
181.821
 20
91.9716
 30
0.0
 11
181.821
 21
95.0722
 31
0.0
  0
LINE
  8
0
 62
     0
 10
181.821
 20
95.0722
 30
0.0
 11
181.021
 21
95.0722
 31
0.0
  0
LINE
  8
0
 62
     0
 10
181.021
 20
95.0722
 30
0.0
 11
181.021
 21
100.871
 31
0.0
  0
LINE
  8
0
 62
     0
 10
181.021
 20
100.871
 30
0.0
 11
181.821
 21
100.871
 31
0.0
  0
LINE
  8
0
 62
     0
 10
181.821
 20
100.871
 30
0.0
 11
181.821
 21
103.972
 31
0.0
  0
LINE
  8
0
 62
     0
 10
181.821
 20
103.972
 30
0.0
 11
181.021
 21
103.972
 31
0.0
  0
LINE
  8
0
 62
     0
 10
181.021
 20
103.972
 30
0.0
 11
181.021
 21
104.971
 31
0.0
  0
LINE
  8
0
 62
     0
 10
181.021
 20
104.971
 30
0.0
 11
167.021
 21
104.971
 31
0.0
  0
LINE
  8
0
 62
     0
 10
147.971
 20
104.971
 30
0.0
 11
147.971
 21
103.972
 31
0.0
  0
LINE
  8
0
 62
     0
 10
147.971
 20
103.972
 30
0.0
 11
147.17
 21
103.972
 31
0.0
  0
LINE
  8
0
 62
     0
 10
147.17
 20
103.972
 30
0.0
 11
147.17
 21
100.871
 31
0.0
  0
LINE
  8
0
 62
     0
 10
147.17
 20
100.871
 30
0.0
 11
147.971
 21
100.871
 31
0.0
  0
LINE
  8
0
 62
     0
 10
147.971
 20
100.871
 30
0.0
 11
147.971
 21
95.0722
 31
0.0
  0
LINE
  8
0
 62
     0
 10
147.971
 20
95.0722
 30
0.0
 11
147.17
 21
95.0722
 31
0.0
  0
LINE
  8
0
 62
     0
 10
147.17
 20
95.0722
 30
0.0
 11
147.17
 21
91.9716
 31
0.0
  0
LINE
  8
0
 62
     0
 10
147.17
 20
91.9716
 30
0.0
 11
147.971
 21
91.9716
 31
0.0
  0
LINE
  8
0
 62
     0
 10
147.971
 20
91.9716
 30
0.0
 11
147.971
 21
90.9712
 31
0.0
  0
LINE
  8
0
 62
     0
 10
147.971
 20
90.9712
 30
0.0
 11
161.971
 21
90.9712
 31
0.0
  0
LINE
  8
0
 62
     0
 10
161.971
 20
90.9712
 30
0.0
 11
161.971
 21
91.9716
 31
0.0
  0
LINE
  8
0
 62
     0
 10
161.971
 20
91.9716
 30
0.0
 11
162.771
 21
91.9716
 31
0.0
  0
LINE
  8
0
 62
     0
 10
162.771
 20
91.9716
 30
0.0
 11
162.771
 21
95.0722
 31
0.0
  0
LINE
  8
0
 62
     0
 10
162.771
 20
95.0722
 30
0.0
 11
161.971
 21
95.0722
 31
0.0
  0
LINE
  8
0
 62
     0
 10
161.971
 20
95.0722
 30
0.0
 11
161.971
 21
100.871
 31
0.0
  0
LINE
  8
0
 62
     0
 10
161.971
 20
100.871
 30
0.0
 11
162.771
 21
100.871
 31
0.0
  0
LINE
  8
0
 62
     0
 10
162.771
 20
100.871
 30
0.0
 11
162.771
 21
103.972
 31
0.0
  0
LINE
  8
0
 62
     0
 10
162.771
 20
103.972
 30
0.0
 11
161.971
 21
103.972
 31
0.0
  0
LINE
  8
0
 62
     0
 10
161.971
 20
103.972
 30
0.0
 11
161.971
 21
104.971
 31
0.0
  0
LINE
  8
0
 62
     0
 10
161.971
 20
104.971
 30
0.0
 11
147.971
 21
104.971
 31
0.0
  0
LINE
  8
0
 62
     0
 10
128.921
 20
104.971
 30
0.0
 11
128.921
 21
103.972
 31
0.0
  0
LINE
  8
0
 62
     0
 10
128.921
 20
103.972
 30
0.0
 11
128.119
 21
103.972
 31
0.0
  0
LINE
  8
0
 62
     0
 10
128.119
 20
103.972
 30
0.0
 11
128.119
 21
100.871
 31
0.0
  0
LINE
  8
0
 62
     0
 10
128.119
 20
100.871
 30
0.0
 11
128.921
 21
100.871
 31
0.0
  0
LINE
  8
0
 62
     0
 10
128.921
 20
100.871
 30
0.0
 11
128.921
 21
95.0722
 31
0.0
  0
LINE
  8
0
 62
     0
 10
128.921
 20
95.0722
 30
0.0
 11
128.119
 21
95.0722
 31
0.0
  0
LINE
  8
0
 62
     0
 10
128.119
 20
95.0722
 30
0.0
 11
128.119
 21
91.9716
 31
0.0
  0
LINE
  8
0
 62
     0
 10
128.119
 20
91.9716
 30
0.0
 11
128.921
 21
91.9716
 31
0.0
  0
LINE
  8
0
 62
     0
 10
128.921
 20
91.9716
 30
0.0
 11
128.921
 21
90.9712
 31
0.0
  0
LINE
  8
0
 62
     0
 10
128.921
 20
90.9712
 30
0.0
 11
142.921
 21
90.9712
 31
0.0
  0
LINE
  8
0
 62
     0
 10
142.921
 20
90.9712
 30
0.0
 11
142.921
 21
91.9716
 31
0.0
  0
LINE
  8
0
 62
     0
 10
142.921
 20
91.9716
 30
0.0
 11
143.721
 21
91.9716
 31
0.0
  0
LINE
  8
0
 62
     0
 10
143.721
 20
91.9716
 30
0.0
 11
143.721
 21
95.0722
 31
0.0
  0
LINE
  8
0
 62
     0
 10
143.721
 20
95.0722
 30
0.0
 11
142.921
 21
95.0722
 31
0.0
  0
LINE
  8
0
 62
     0
 10
142.921
 20
95.0722
 30
0.0
 11
142.921
 21
100.871
 31
0.0
  0
LINE
  8
0
 62
     0
 10
142.921
 20
100.871
 30
0.0
 11
143.721
 21
100.871
 31
0.0
  0
LINE
  8
0
 62
     0
 10
143.721
 20
100.871
 30
0.0
 11
143.721
 21
103.972
 31
0.0
  0
LINE
  8
0
 62
     0
 10
143.721
 20
103.972
 30
0.0
 11
142.921
 21
103.972
 31
0.0
  0
LINE
  8
0
 62
     0
 10
142.921
 20
103.972
 30
0.0
 11
142.921
 21
104.971
 31
0.0
  0
LINE
  8
0
 62
     0
 10
142.921
 20
104.971
 30
0.0
 11
128.921
 21
104.971
 31
0.0
  0
LINE
  8
0
 62
     0
 10
109.869
 20
104.971
 30
0.0
 11
109.869
 21
103.972
 31
0.0
  0
LINE
  8
0
 62
     0
 10
109.869
 20
103.972
 30
0.0
 11
109.07
 21
103.972
 31
0.0
  0
LINE
  8
0
 62
     0
 10
109.07
 20
103.972
 30
0.0
 11
109.07
 21
100.871
 31
0.0
  0
LINE
  8
0
 62
     0
 10
109.07
 20
100.871
 30
0.0
 11
109.869
 21
100.871
 31
0.0
  0
LINE
  8
0
 62
     0
 10
109.869
 20
100.871
 30
0.0
 11
109.869
 21
95.0722
 31
0.0
  0
LINE
  8
0
 62
     0
 10
109.869
 20
95.0722
 30
0.0
 11
109.07
 21
95.0722
 31
0.0
  0
LINE
  8
0
 62
     0
 10
109.07
 20
95.0722
 30
0.0
 11
109.07
 21
91.9716
 31
0.0
  0
LINE
  8
0
 62
     0
 10
109.07
 20
91.9716
 30
0.0
 11
109.869
 21
91.9716
 31
0.0
  0
LINE
  8
0
 62
     0
 10
109.869
 20
91.9716
 30
0.0
 11
109.869
 21
90.9712
 31
0.0
  0
LINE
  8
0
 62
     0
 10
109.869
 20
90.9712
 30
0.0
 11
123.869
 21
90.9712
 31
0.0
  0
LINE
  8
0
 62
     0
 10
123.869
 20
90.9712
 30
0.0
 11
123.869
 21
91.9716
 31
0.0
  0
LINE
  8
0
 62
     0
 10
123.869
 20
91.9716
 30
0.0
 11
124.67
 21
91.9716
 31
0.0
  0
LINE
  8
0
 62
     0
 10
124.67
 20
91.9716
 30
0.0
 11
124.67
 21
95.0722
 31
0.0
  0
LINE
  8
0
 62
     0
 10
124.67
 20
95.0722
 30
0.0
 11
123.869
 21
95.0722
 31
0.0
  0
LINE
  8
0
 62
     0
 10
123.869
 20
95.0722
 30
0.0
 11
123.869
 21
100.871
 31
0.0
  0
LINE
  8
0
 62
     0
 10
123.869
 20
100.871
 30
0.0
 11
124.67
 21
100.871
 31
0.0
  0
LINE
  8
0
 62
     0
 10
124.67
 20
100.871
 30
0.0
 11
124.67
 21
103.972
 31
0.0
  0
LINE
  8
0
 62
     0
 10
124.67
 20
103.972
 30
0.0
 11
123.869
 21
103.972
 31
0.0
  0
LINE
  8
0
 62
     0
 10
123.869
 20
103.972
 30
0.0
 11
123.869
 21
104.971
 31
0.0
  0
LINE
  8
0
 62
     0
 10
123.869
 20
104.971
 30
0.0
 11
109.869
 21
104.971
 31
0.0
  0
LINE
  8
0
 62
     0
 10
90.8209
 20
104.971
 30
0.0
 11
90.8209
 21
103.972
 31
0.0
  0
LINE
  8
0
 62
     0
 10
90.8209
 20
103.972
 30
0.0
 11
90.0204
 21
103.972
 31
0.0
  0
LINE
  8
0
 62
     0
 10
90.0204
 20
103.972
 30
0.0
 11
90.0204
 21
100.871
 31
0.0
  0
LINE
  8
0
 62
     0
 10
90.0204
 20
100.871
 30
0.0
 11
90.8209
 21
100.871
 31
0.0
  0
LINE
  8
0
 62
     0
 10
90.8209
 20
100.871
 30
0.0
 11
90.8209
 21
95.0722
 31
0.0
  0
LINE
  8
0
 62
     0
 10
90.8209
 20
95.0722
 30
0.0
 11
90.0204
 21
95.0722
 31
0.0
  0
LINE
  8
0
 62
     0
 10
90.0204
 20
95.0722
 30
0.0
 11
90.0204
 21
91.9716
 31
0.0
  0
LINE
  8
0
 62
     0
 10
90.0204
 20
91.9716
 30
0.0
 11
90.8209
 21
91.9716
 31
0.0
  0
LINE
  8
0
 62
     0
 10
90.8209
 20
91.9716
 30
0.0
 11
90.8209
 21
90.9712
 31
0.0
  0
LINE
  8
0
 62
     0
 10
90.8209
 20
90.9712
 30
0.0
 11
104.821
 21
90.9712
 31
0.0
  0
LINE
  8
0
 62
     0
 10
104.821
 20
90.9712
 30
0.0
 11
104.821
 21
91.9716
 31
0.0
  0
LINE
  8
0
 62
     0
 10
104.821
 20
91.9716
 30
0.0
 11
105.62
 21
91.9716
 31
0.0
  0
LINE
  8
0
 62
     0
 10
105.62
 20
91.9716
 30
0.0
 11
105.62
 21
95.0722
 31
0.0
  0
LINE
  8
0
 62
     0
 10
105.62
 20
95.0722
 30
0.0
 11
104.821
 21
95.0722
 31
0.0
  0
LINE
  8
0
 62
     0
 10
104.821
 20
95.0722
 30
0.0
 11
104.821
 21
100.871
 31
0.0
  0
LINE
  8
0
 62
     0
 10
104.821
 20
100.871
 30
0.0
 11
105.62
 21
100.871
 31
0.0
  0
LINE
  8
0
 62
     0
 10
105.62
 20
100.871
 30
0.0
 11
105.62
 21
103.972
 31
0.0
  0
LINE
  8
0
 62
     0
 10
105.62
 20
103.972
 30
0.0
 11
104.821
 21
103.972
 31
0.0
  0
LINE
  8
0
 62
     0
 10
104.821
 20
103.972
 30
0.0
 11
104.821
 21
104.971
 31
0.0
  0
LINE
  8
0
 62
     0
 10
104.821
 20
104.971
 30
0.0
 11
90.8209
 21
104.971
 31
0.0
  0
LINE
  8
0
 62
     0
 10
71.7709
 20
104.971
 30
0.0
 11
71.7709
 21
103.972
 31
0.0
  0
LINE
  8
0
 62
     0
 10
71.7709
 20
103.972
 30
0.0
 11
70.9704
 21
103.972
 31
0.0
  0
LINE
  8
0
 62
     0
 10
70.9704
 20
103.972
 30
0.0
 11
70.9704
 21
100.871
 31
0.0
  0
LINE
  8
0
 62
     0
 10
70.9704
 20
100.871
 30
0.0
 11
71.7709
 21
100.871
 31
0.0
  0
LINE
  8
0
 62
     0
 10
71.7709
 20
100.871
 30
0.0
 11
71.7709
 21
95.0722
 31
0.0
  0
LINE
  8
0
 62
     0
 10
71.7709
 20
95.0722
 30
0.0
 11
70.9704
 21
95.0722
 31
0.0
  0
LINE
  8
0
 62
     0
 10
70.9704
 20
95.0722
 30
0.0
 11
70.9704
 21
91.9716
 31
0.0
  0
LINE
  8
0
 62
     0
 10
70.9704
 20
91.9716
 30
0.0
 11
71.7709
 21
91.9716
 31
0.0
  0
LINE
  8
0
 62
     0
 10
71.7709
 20
91.9716
 30
0.0
 11
71.7709
 21
90.9712
 31
0.0
  0
LINE
  8
0
 62
     0
 10
71.7709
 20
90.9712
 30
0.0
 11
85.7705
 21
90.9712
 31
0.0
  0
LINE
  8
0
 62
     0
 10
85.7705
 20
90.9712
 30
0.0
 11
85.7705
 21
91.9716
 31
0.0
  0
LINE
  8
0
 62
     0
 10
85.7705
 20
91.9716
 30
0.0
 11
86.571
 21
91.9716
 31
0.0
  0
LINE
  8
0
 62
     0
 10
86.571
 20
91.9716
 30
0.0
 11
86.571
 21
95.0722
 31
0.0
  0
LINE
  8
0
 62
     0
 10
86.571
 20
95.0722
 30
0.0
 11
85.7705
 21
95.0722
 31
0.0
  0
LINE
  8
0
 62
     0
 10
85.7705
 20
95.0722
 30
0.0
 11
85.7705
 21
100.871
 31
0.0
  0
LINE
  8
0
 62
     0
 10
85.7705
 20
100.871
 30
0.0
 11
86.571
 21
100.871
 31
0.0
  0
LINE
  8
0
 62
     0
 10
86.571
 20
100.871
 30
0.0
 11
86.571
 21
103.972
 31
0.0
  0
LINE
  8
0
 62
     0
 10
86.571
 20
103.972
 30
0.0
 11
85.7705
 21
103.972
 31
0.0
  0
LINE
  8
0
 62
     0
 10
85.7705
 20
103.972
 30
0.0
 11
85.7705
 21
104.971
 31
0.0
  0
LINE
  8
0
 62
     0
 10
85.7705
 20
104.971
 30
0.0
 11
71.7709
 21
104.971
 31
0.0
  0
LINE
  8
0
 62
     0
 10
52.7209
 20
104.971
 30
0.0
 11
52.7209
 21
103.972
 31
0.0
  0
LINE
  8
0
 62
     0
 10
52.7209
 20
103.972
 30
0.0
 11
51.9204
 21
103.972
 31
0.0
  0
LINE
  8
0
 62
     0
 10
51.9204
 20
103.972
 30
0.0
 11
51.9204
 21
100.871
 31
0.0
  0
LINE
  8
0
 62
     0
 10
51.9204
 20
100.871
 30
0.0
 11
52.7209
 21
100.871
 31
0.0
  0
LINE
  8
0
 62
     0
 10
52.7209
 20
100.871
 30
0.0
 11
52.7209
 21
95.0722
 31
0.0
  0
LINE
  8
0
 62
     0
 10
52.7209
 20
95.0722
 30
0.0
 11
51.9204
 21
95.0722
 31
0.0
  0
LINE
  8
0
 62
     0
 10
51.9204
 20
95.0722
 30
0.0
 11
51.9204
 21
91.9716
 31
0.0
  0
LINE
  8
0
 62
     0
 10
51.9204
 20
91.9716
 30
0.0
 11
52.7209
 21
91.9716
 31
0.0
  0
LINE
  8
0
 62
     0
 10
52.7209
 20
91.9716
 30
0.0
 11
52.7209
 21
90.9712
 31
0.0
  0
LINE
  8
0
 62
     0
 10
52.7209
 20
90.9712
 30
0.0
 11
66.7205
 21
90.9712
 31
0.0
  0
LINE
  8
0
 62
     0
 10
66.7205
 20
90.9712
 30
0.0
 11
66.7205
 21
91.9716
 31
0.0
  0
LINE
  8
0
 62
     0
 10
66.7205
 20
91.9716
 30
0.0
 11
67.521
 21
91.9716
 31
0.0
  0
LINE
  8
0
 62
     0
 10
67.521
 20
91.9716
 30
0.0
 11
67.521
 21
95.0722
 31
0.0
  0
LINE
  8
0
 62
     0
 10
67.521
 20
95.0722
 30
0.0
 11
66.7205
 21
95.0722
 31
0.0
  0
LINE
  8
0
 62
     0
 10
66.7205
 20
95.0722
 30
0.0
 11
66.7205
 21
100.871
 31
0.0
  0
LINE
  8
0
 62
     0
 10
66.7205
 20
100.871
 30
0.0
 11
67.521
 21
100.871
 31
0.0
  0
LINE
  8
0
 62
     0
 10
67.521
 20
100.871
 30
0.0
 11
67.521
 21
103.972
 31
0.0
  0
LINE
  8
0
 62
     0
 10
67.521
 20
103.972
 30
0.0
 11
66.7205
 21
103.972
 31
0.0
  0
LINE
  8
0
 62
     0
 10
66.7205
 20
103.972
 30
0.0
 11
66.7205
 21
104.971
 31
0.0
  0
LINE
  8
0
 62
     0
 10
66.7205
 20
104.971
 30
0.0
 11
52.7209
 21
104.971
 31
0.0
  0
LINE
  8
0
 62
     0
 10
33.671
 20
104.971
 30
0.0
 11
33.671
 21
103.972
 31
0.0
  0
LINE
  8
0
 62
     0
 10
33.671
 20
103.972
 30
0.0
 11
32.8704
 21
103.972
 31
0.0
  0
LINE
  8
0
 62
     0
 10
32.8704
 20
103.972
 30
0.0
 11
32.8704
 21
100.871
 31
0.0
  0
LINE
  8
0
 62
     0
 10
32.8704
 20
100.871
 30
0.0
 11
33.671
 21
100.871
 31
0.0
  0
LINE
  8
0
 62
     0
 10
33.671
 20
100.871
 30
0.0
 11
33.671
 21
95.0722
 31
0.0
  0
LINE
  8
0
 62
     0
 10
33.671
 20
95.0722
 30
0.0
 11
32.8704
 21
95.0722
 31
0.0
  0
LINE
  8
0
 62
     0
 10
32.8704
 20
95.0722
 30
0.0
 11
32.8704
 21
91.9716
 31
0.0
  0
LINE
  8
0
 62
     0
 10
32.8704
 20
91.9716
 30
0.0
 11
33.671
 21
91.9716
 31
0.0
  0
LINE
  8
0
 62
     0
 10
33.671
 20
91.9716
 30
0.0
 11
33.671
 21
90.9712
 31
0.0
  0
LINE
  8
0
 62
     0
 10
33.671
 20
90.9712
 30
0.0
 11
47.6705
 21
90.9712
 31
0.0
  0
LINE
  8
0
 62
     0
 10
47.6705
 20
90.9712
 30
0.0
 11
47.6705
 21
91.9716
 31
0.0
  0
LINE
  8
0
 62
     0
 10
47.6705
 20
91.9716
 30
0.0
 11
48.471
 21
91.9716
 31
0.0
  0
LINE
  8
0
 62
     0
 10
48.471
 20
91.9716
 30
0.0
 11
48.471
 21
95.0722
 31
0.0
  0
LINE
  8
0
 62
     0
 10
48.471
 20
95.0722
 30
0.0
 11
47.6705
 21
95.0722
 31
0.0
  0
LINE
  8
0
 62
     0
 10
47.6705
 20
95.0722
 30
0.0
 11
47.6705
 21
100.871
 31
0.0
  0
LINE
  8
0
 62
     0
 10
47.6705
 20
100.871
 30
0.0
 11
48.471
 21
100.871
 31
0.0
  0
LINE
  8
0
 62
     0
 10
48.471
 20
100.871
 30
0.0
 11
48.471
 21
103.972
 31
0.0
  0
LINE
  8
0
 62
     0
 10
48.471
 20
103.972
 30
0.0
 11
47.6705
 21
103.972
 31
0.0
  0
LINE
  8
0
 62
     0
 10
47.6705
 20
103.972
 30
0.0
 11
47.6705
 21
104.971
 31
0.0
  0
LINE
  8
0
 62
     0
 10
47.6705
 20
104.971
 30
0.0
 11
33.671
 21
104.971
 31
0.0
  0
LINE
  8
0
 62
     0
 10
14.621
 20
104.971
 30
0.0
 11
14.621
 21
103.972
 31
0.0
  0
LINE
  8
0
 62
     0
 10
14.621
 20
103.972
 30
0.0
 11
13.819
 21
103.972
 31
0.0
  0
LINE
  8
0
 62
     0
 10
13.819
 20
103.972
 30
0.0
 11
13.819
 21
100.871
 31
0.0
  0
LINE
  8
0
 62
     0
 10
13.819
 20
100.871
 30
0.0
 11
14.621
 21
100.871
 31
0.0
  0
LINE
  8
0
 62
     0
 10
14.621
 20
100.871
 30
0.0
 11
14.621
 21
95.0722
 31
0.0
  0
LINE
  8
0
 62
     0
 10
14.621
 20
95.0722
 30
0.0
 11
13.819
 21
95.0722
 31
0.0
  0
LINE
  8
0
 62
     0
 10
13.819
 20
95.0722
 30
0.0
 11
13.819
 21
91.9716
 31
0.0
  0
LINE
  8
0
 62
     0
 10
13.819
 20
91.9716
 30
0.0
 11
14.621
 21
91.9716
 31
0.0
  0
LINE
  8
0
 62
     0
 10
14.621
 20
91.9716
 30
0.0
 11
14.621
 21
90.9712
 31
0.0
  0
LINE
  8
0
 62
     0
 10
14.621
 20
90.9712
 30
0.0
 11
28.6205
 21
90.9712
 31
0.0
  0
LINE
  8
0
 62
     0
 10
28.6205
 20
90.9712
 30
0.0
 11
28.6205
 21
91.9716
 31
0.0
  0
LINE
  8
0
 62
     0
 10
28.6205
 20
91.9716
 30
0.0
 11
29.4197
 21
91.9716
 31
0.0
  0
LINE
  8
0
 62
     0
 10
29.4197
 20
91.9716
 30
0.0
 11
29.4197
 21
95.0722
 31
0.0
  0
LINE
  8
0
 62
     0
 10
29.4197
 20
95.0722
 30
0.0
 11
28.6205
 21
95.0722
 31
0.0
  0
LINE
  8
0
 62
     0
 10
28.6205
 20
95.0722
 30
0.0
 11
28.6205
 21
100.871
 31
0.0
  0
LINE
  8
0
 62
     0
 10
28.6205
 20
100.871
 30
0.0
 11
29.4197
 21
100.871
 31
0.0
  0
LINE
  8
0
 62
     0
 10
29.4197
 20
100.871
 30
0.0
 11
29.4197
 21
103.972
 31
0.0
  0
LINE
  8
0
 62
     0
 10
29.4197
 20
103.972
 30
0.0
 11
28.6205
 21
103.972
 31
0.0
  0
LINE
  8
0
 62
     0
 10
28.6205
 20
103.972
 30
0.0
 11
28.6205
 21
104.971
 31
0.0
  0
LINE
  8
0
 62
     0
 10
28.6205
 20
104.971
 30
0.0
 11
14.621
 21
104.971
 31
0.0
  0
LINE
  8
0
 62
     0
 10
4.5999
 20
116.018
 30
0.0
 11
4.15477
 21
115.791
 31
0.0
  0
LINE
  8
0
 62
     0
 10
4.15477
 20
115.791
 30
0.0
 11
3.80062
 21
115.437
 31
0.0
  0
LINE
  8
0
 62
     0
 10
3.80062
 20
115.437
 30
0.0
 11
3.57325
 21
114.992
 31
0.0
  0
LINE
  8
0
 62
     0
 10
3.57325
 20
114.992
 30
0.0
 11
3.4947
 21
114.496
 31
0.0
  0
LINE
  8
0
 62
     0
 10
3.4947
 20
114.496
 30
0.0
 11
3.57325
 21
114.002
 31
0.0
  0
LINE
  8
0
 62
     0
 10
3.57325
 20
114.002
 30
0.0
 11
3.80062
 21
113.556
 31
0.0
  0
LINE
  8
0
 62
     0
 10
3.80062
 20
113.556
 30
0.0
 11
4.15477
 21
113.202
 31
0.0
  0
LINE
  8
0
 62
     0
 10
4.15477
 20
113.202
 30
0.0
 11
4.5999
 21
112.976
 31
0.0
  0
LINE
  8
0
 62
     0
 10
4.5999
 20
112.976
 30
0.0
 11
5.0946
 21
112.896
 31
0.0
  0
LINE
  8
0
 62
     0
 10
5.0946
 20
112.896
 30
0.0
 11
5.58934
 21
112.976
 31
0.0
  0
LINE
  8
0
 62
     0
 10
5.58934
 20
112.976
 30
0.0
 11
6.03582
 21
113.202
 31
0.0
  0
LINE
  8
0
 62
     0
 10
6.03582
 20
113.202
 30
0.0
 11
6.38997
 21
113.556
 31
0.0
  0
LINE
  8
0
 62
     0
 10
6.38997
 20
113.556
 30
0.0
 11
6.61596
 21
114.002
 31
0.0
  0
LINE
  8
0
 62
     0
 10
6.61596
 20
114.002
 30
0.0
 11
6.69452
 21
114.496
 31
0.0
  0
LINE
  8
0
 62
     0
 10
6.69452
 20
114.496
 30
0.0
 11
6.61596
 21
114.992
 31
0.0
  0
LINE
  8
0
 62
     0
 10
6.61596
 20
114.992
 30
0.0
 11
6.38997
 21
115.437
 31
0.0
  0
LINE
  8
0
 62
     0
 10
6.38997
 20
115.437
 30
0.0
 11
6.03582
 21
115.791
 31
0.0
  0
LINE
  8
0
 62
     0
 10
6.03582
 20
115.791
 30
0.0
 11
5.58934
 21
116.018
 31
0.0
  0
LINE
  8
0
 62
     0
 10
5.58934
 20
116.018
 30
0.0
 11
5.0946
 21
116.096
 31
0.0
  0
LINE
  8
0
 62
     0
 10
5.0946
 20
116.096
 30
0.0
 11
4.5999
 21
116.018
 31
0.0
  0
LINE
  8
0
 62
     0
 10
323.402
 20
116.018
 30
0.0
 11
322.956
 21
115.791
 31
0.0
  0
LINE
  8
0
 62
     0
 10
322.956
 20
115.791
 30
0.0
 11
322.602
 21
115.437
 31
0.0
  0
LINE
  8
0
 62
     0
 10
322.602
 20
115.437
 30
0.0
 11
322.374
 21
114.992
 31
0.0
  0
LINE
  8
0
 62
     0
 10
322.374
 20
114.992
 30
0.0
 11
322.297
 21
114.496
 31
0.0
  0
LINE
  8
0
 62
     0
 10
322.297
 20
114.496
 30
0.0
 11
322.374
 21
114.002
 31
0.0
  0
LINE
  8
0
 62
     0
 10
322.374
 20
114.002
 30
0.0
 11
322.602
 21
113.556
 31
0.0
  0
LINE
  8
0
 62
     0
 10
322.602
 20
113.556
 30
0.0
 11
322.956
 21
113.202
 31
0.0
  0
LINE
  8
0
 62
     0
 10
322.956
 20
113.202
 30
0.0
 11
323.402
 21
112.976
 31
0.0
  0
LINE
  8
0
 62
     0
 10
323.402
 20
112.976
 30
0.0
 11
323.897
 21
112.896
 31
0.0
  0
LINE
  8
0
 62
     0
 10
323.897
 20
112.896
 30
0.0
 11
324.39
 21
112.976
 31
0.0
  0
LINE
  8
0
 62
     0
 10
324.39
 20
112.976
 30
0.0
 11
324.837
 21
113.202
 31
0.0
  0
LINE
  8
0
 62
     0
 10
324.837
 20
113.202
 30
0.0
 11
325.191
 21
113.556
 31
0.0
  0
LINE
  8
0
 62
     0
 10
325.191
 20
113.556
 30
0.0
 11
325.417
 21
114.002
 31
0.0
  0
LINE
  8
0
 62
     0
 10
325.417
 20
114.002
 30
0.0
 11
325.497
 21
114.496
 31
0.0
  0
LINE
  8
0
 62
     0
 10
325.497
 20
114.496
 30
0.0
 11
325.417
 21
114.992
 31
0.0
  0
LINE
  8
0
 62
     0
 10
325.417
 20
114.992
 30
0.0
 11
325.191
 21
115.437
 31
0.0
  0
LINE
  8
0
 62
     0
 10
325.191
 20
115.437
 30
0.0
 11
324.837
 21
115.791
 31
0.0
  0
LINE
  8
0
 62
     0
 10
324.837
 20
115.791
 30
0.0
 11
324.39
 21
116.018
 31
0.0
  0
LINE
  8
0
 62
     0
 10
324.39
 20
116.018
 30
0.0
 11
323.897
 21
116.096
 31
0.0
  0
LINE
  8
0
 62
     0
 10
323.897
 20
116.096
 30
0.0
 11
323.402
 21
116.018
 31
0.0
  0
LINE
  8
0
 62
     0
 10
217.135
 20
116.018
 30
0.0
 11
216.688
 21
115.791
 31
0.0
  0
LINE
  8
0
 62
     0
 10
216.688
 20
115.791
 30
0.0
 11
216.334
 21
115.437
 31
0.0
  0
LINE
  8
0
 62
     0
 10
216.334
 20
115.437
 30
0.0
 11
216.108
 21
114.992
 31
0.0
  0
LINE
  8
0
 62
     0
 10
216.108
 20
114.992
 30
0.0
 11
216.029
 21
114.496
 31
0.0
  0
LINE
  8
0
 62
     0
 10
216.029
 20
114.496
 30
0.0
 11
216.108
 21
114.002
 31
0.0
  0
LINE
  8
0
 62
     0
 10
216.108
 20
114.002
 30
0.0
 11
216.334
 21
113.556
 31
0.0
  0
LINE
  8
0
 62
     0
 10
216.334
 20
113.556
 30
0.0
 11
216.688
 21
113.202
 31
0.0
  0
LINE
  8
0
 62
     0
 10
216.688
 20
113.202
 30
0.0
 11
217.135
 21
112.976
 31
0.0
  0
LINE
  8
0
 62
     0
 10
217.135
 20
112.976
 30
0.0
 11
217.629
 21
112.896
 31
0.0
  0
LINE
  8
0
 62
     0
 10
217.629
 20
112.896
 30
0.0
 11
218.124
 21
112.976
 31
0.0
  0
LINE
  8
0
 62
     0
 10
218.124
 20
112.976
 30
0.0
 11
218.569
 21
113.202
 31
0.0
  0
LINE
  8
0
 62
     0
 10
218.569
 20
113.202
 30
0.0
 11
218.923
 21
113.556
 31
0.0
  0
LINE
  8
0
 62
     0
 10
218.923
 20
113.556
 30
0.0
 11
219.151
 21
114.002
 31
0.0
  0
LINE
  8
0
 62
     0
 10
219.151
 20
114.002
 30
0.0
 11
219.23
 21
114.496
 31
0.0
  0
LINE
  8
0
 62
     0
 10
219.23
 20
114.496
 30
0.0
 11
219.151
 21
114.992
 31
0.0
  0
LINE
  8
0
 62
     0
 10
219.151
 20
114.992
 30
0.0
 11
218.923
 21
115.437
 31
0.0
  0
LINE
  8
0
 62
     0
 10
218.923
 20
115.437
 30
0.0
 11
218.569
 21
115.791
 31
0.0
  0
LINE
  8
0
 62
     0
 10
218.569
 20
115.791
 30
0.0
 11
218.124
 21
116.018
 31
0.0
  0
LINE
  8
0
 62
     0
 10
218.124
 20
116.018
 30
0.0
 11
217.629
 21
116.096
 31
0.0
  0
LINE
  8
0
 62
     0
 10
217.629
 20
116.096
 30
0.0
 11
217.135
 21
116.018
 31
0.0
  0
LINE
  8
0
 62
     0
 10
110.867
 20
116.018
 30
0.0
 11
110.421
 21
115.791
 31
0.0
  0
LINE
  8
0
 62
     0
 10
110.421
 20
115.791
 30
0.0
 11
110.068
 21
115.437
 31
0.0
  0
LINE
  8
0
 62
     0
 10
110.068
 20
115.437
 30
0.0
 11
109.841
 21
114.992
 31
0.0
  0
LINE
  8
0
 62
     0
 10
109.841
 20
114.992
 30
0.0
 11
109.762
 21
114.496
 31
0.0
  0
LINE
  8
0
 62
     0
 10
109.762
 20
114.496
 30
0.0
 11
109.841
 21
114.002
 31
0.0
  0
LINE
  8
0
 62
     0
 10
109.841
 20
114.002
 30
0.0
 11
110.068
 21
113.556
 31
0.0
  0
LINE
  8
0
 62
     0
 10
110.068
 20
113.556
 30
0.0
 11
110.421
 21
113.202
 31
0.0
  0
LINE
  8
0
 62
     0
 10
110.421
 20
113.202
 30
0.0
 11
110.867
 21
112.976
 31
0.0
  0
LINE
  8
0
 62
     0
 10
110.867
 20
112.976
 30
0.0
 11
111.362
 21
112.896
 31
0.0
  0
LINE
  8
0
 62
     0
 10
111.362
 20
112.896
 30
0.0
 11
111.857
 21
112.976
 31
0.0
  0
LINE
  8
0
 62
     0
 10
111.857
 20
112.976
 30
0.0
 11
112.302
 21
113.202
 31
0.0
  0
LINE
  8
0
 62
     0
 10
112.302
 20
113.202
 30
0.0
 11
112.656
 21
113.556
 31
0.0
  0
LINE
  8
0
 62
     0
 10
112.656
 20
113.556
 30
0.0
 11
112.883
 21
114.002
 31
0.0
  0
LINE
  8
0
 62
     0
 10
112.883
 20
114.002
 30
0.0
 11
112.962
 21
114.496
 31
0.0
  0
LINE
  8
0
 62
     0
 10
112.962
 20
114.496
 30
0.0
 11
112.883
 21
114.992
 31
0.0
  0
LINE
  8
0
 62
     0
 10
112.883
 20
114.992
 30
0.0
 11
112.656
 21
115.437
 31
0.0
  0
LINE
  8
0
 62
     0
 10
112.656
 20
115.437
 30
0.0
 11
112.302
 21
115.791
 31
0.0
  0
LINE
  8
0
 62
     0
 10
112.302
 20
115.791
 30
0.0
 11
111.857
 21
116.018
 31
0.0
  0
LINE
  8
0
 62
     0
 10
111.857
 20
116.018
 30
0.0
 11
111.362
 21
116.096
 31
0.0
  0
LINE
  8
0
 62
     0
 10
111.362
 20
116.096
 30
0.0
 11
110.867
 21
116.018
 31
0.0
  0
ENDSEC
  0
EOF
