  0
SECTION
  2
HEADER
  9
$ACADVER
  1
AC1018
  9
$ACADMAINTVER
 70
     0
  9
$DWGCODEPAGE
  3
ANSI_1252
  9
$INSBASE
 10
0.0
 20
0.0
 30
0.0
  9
$EXTMIN
 10
1.000000000000000E+20
 20
1.000000000000000E+20
 30
1.000000000000000E+20
  9
$EXTMAX
 10
-1.000000000000000E+20
 20
-1.000000000000000E+20
 30
-1.000000000000000E+20
  9
$LIMMIN
 10
0.0
 20
0.0
  9
$LIMMAX
 10
12.0
 20
9.0
  9
$ORTHOMODE
 70
     0
  9
$REGENMODE
 70
     1
  9
$FILLMODE
 70
     1
  9
$QTEXTMODE
 70
     0
  9
$MIRRTEXT
 70
     1
  9
$LTSCALE
 40
1.0
  9
$ATTMODE
 70
     1
  9
$TEXTSIZE
 40
0.2
  9
$TRACEWID
 40
0.05
  9
$TEXTSTYLE
  7
Standard
  9
$CLAYER
  8
0
  9
$CELTYPE
  6
ByLayer
  9
$CECOLOR
 62
   256
  9
$CELTSCALE
 40
1.0
  9
$DISPSILH
 70
     0
  9
$DIMSCALE
 40
1.0
  9
$DIMASZ
 40
0.18
  9
$DIMEXO
 40
0.0625
  9
$DIMDLI
 40
0.38
  9
$DIMRND
 40
0.0
  9
$DIMDLE
 40
0.0
  9
$DIMEXE
 40
0.18
  9
$DIMTP
 40
0.0
  9
$DIMTM
 40
0.0
  9
$DIMTXT
 40
0.18
  9
$DIMCEN
 40
0.09
  9
$DIMTSZ
 40
0.0
  9
$DIMTOL
 70
     0
  9
$DIMLIM
 70
     0
  9
$DIMTIH
 70
     1
  9
$DIMTOH
 70
     1
  9
$DIMSE1
 70
     0
  9
$DIMSE2
 70
     0
  9
$DIMTAD
 70
     0
  9
$DIMZIN
 70
     0
  9
$DIMBLK
  1

  9
$DIMASO
 70
     1
  9
$DIMSHO
 70
     1
  9
$DIMPOST
  1

  9
$DIMAPOST
  1

  9
$DIMALT
 70
     0
  9
$DIMALTD
 70
     2
  9
$DIMALTF
 40
25.4
  9
$DIMLFAC
 40
1.0
  9
$DIMTOFL
 70
     0
  9
$DIMTVP
 40
0.0
  9
$DIMTIX
 70
     0
  9
$DIMSOXD
 70
     0
  9
$DIMSAH
 70
     0
  9
$DIMBLK1
  1

  9
$DIMBLK2
  1

  9
$DIMSTYLE
  2
Standard
  9
$DIMCLRD
 70
     0
  9
$DIMCLRE
 70
     0
  9
$DIMCLRT
 70
     0
  9
$DIMTFAC
 40
1.0
  9
$DIMGAP
 40
0.09
  9
$DIMJUST
 70
     0
  9
$DIMSD1
 70
     0
  9
$DIMSD2
 70
     0
  9
$DIMTOLJ
 70
     1
  9
$DIMTZIN
 70
     0
  9
$DIMALTZ
 70
     0
  9
$DIMALTTZ
 70
     0
  9
$DIMUPT
 70
     0
  9
$DIMDEC
 70
     4
  9
$DIMTDEC
 70
     4
  9
$DIMALTU
 70
     2
  9
$DIMALTTD
 70
     2
  9
$DIMTXSTY
  7
Standard
  9
$DIMAUNIT
 70
     0
  9
$DIMADEC
 70
     0
  9
$DIMALTRND
 40
0.0
  9
$DIMAZIN
 70
     0
  9
$DIMDSEP
 70
    46
  9
$DIMATFIT
 70
     3
  9
$DIMFRAC
 70
     0
  9
$DIMLDRBLK
  1

  9
$DIMLUNIT
 70
     2
  9
$DIMLWD
 70
    -2
  9
$DIMLWE
 70
    -2
  9
$DIMTMOVE
 70
     0
  9
$LUNITS
 70
     2
  9
$LUPREC
 70
     4
  9
$SKETCHINC
 40
0.1
  9
$FILLETRAD
 40
0.5
  9
$AUNITS
 70
     0
  9
$AUPREC
 70
     0
  9
$MENU
  1
.
  9
$ELEVATION
 40
0.0
  9
$PELEVATION
 40
0.0
  9
$THICKNESS
 40
0.0
  9
$LIMCHECK
 70
     0
  9
$CHAMFERA
 40
0.5
  9
$CHAMFERB
 40
0.5
  9
$CHAMFERC
 40
1.0
  9
$CHAMFERD
 40
0.0
  9
$SKPOLY
 70
     0
  9
$TDCREATE
 40
2459066.96301154
  9
$TDUCREATE
 40
2459066.879678206
  9
$TDUPDATE
 40
2459066.963011609
  9
$TDUUPDATE
 40
2459066.879678275
  9
$TDINDWG
 40
0.0000000116
  9
$TDUSRTIMER
 40
0.0000000116
  9
$USRTIMER
 70
     1
  9
$ANGBASE
 50
0.0
  9
$ANGDIR
 70
     0
  9
$PDMODE
 70
     0
  9
$PDSIZE
 40
0.0
  9
$PLINEWID
 40
0.0
  9
$SPLFRAME
 70
     0
  9
$SPLINETYPE
 70
     6
  9
$SPLINESEGS
 70
     8
  9
$HANDSEED
  5
1A6
  9
$SURFTAB1
 70
     6
  9
$SURFTAB2
 70
     6
  9
$SURFTYPE
 70
     6
  9
$SURFU
 70
     6
  9
$SURFV
 70
     6
  9
$UCSBASE
  2

  9
$UCSNAME
  2

  9
$UCSORG
 10
0.0
 20
0.0
 30
0.0
  9
$UCSXDIR
 10
1.0
 20
0.0
 30
0.0
  9
$UCSYDIR
 10
0.0
 20
1.0
 30
0.0
  9
$UCSORTHOREF
  2

  9
$UCSORTHOVIEW
 70
     0
  9
$UCSORGTOP
 10
0.0
 20
0.0
 30
0.0
  9
$UCSORGBOTTOM
 10
0.0
 20
0.0
 30
0.0
  9
$UCSORGLEFT
 10
0.0
 20
0.0
 30
0.0
  9
$UCSORGRIGHT
 10
0.0
 20
0.0
 30
0.0
  9
$UCSORGFRONT
 10
0.0
 20
0.0
 30
0.0
  9
$UCSORGBACK
 10
0.0
 20
0.0
 30
0.0
  9
$PUCSBASE
  2

  9
$PUCSNAME
  2

  9
$PUCSORG
 10
0.0
 20
0.0
 30
0.0
  9
$PUCSXDIR
 10
1.0
 20
0.0
 30
0.0
  9
$PUCSYDIR
 10
0.0
 20
1.0
 30
0.0
  9
$PUCSORTHOREF
  2

  9
$PUCSORTHOVIEW
 70
     0
  9
$PUCSORGTOP
 10
0.0
 20
0.0
 30
0.0
  9
$PUCSORGBOTTOM
 10
0.0
 20
0.0
 30
0.0
  9
$PUCSORGLEFT
 10
0.0
 20
0.0
 30
0.0
  9
$PUCSORGRIGHT
 10
0.0
 20
0.0
 30
0.0
  9
$PUCSORGFRONT
 10
0.0
 20
0.0
 30
0.0
  9
$PUCSORGBACK
 10
0.0
 20
0.0
 30
0.0
  9
$USERI1
 70
     0
  9
$USERI2
 70
     0
  9
$USERI3
 70
     0
  9
$USERI4
 70
     0
  9
$USERI5
 70
     0
  9
$USERR1
 40
0.0
  9
$USERR2
 40
0.0
  9
$USERR3
 40
0.0
  9
$USERR4
 40
0.0
  9
$USERR5
 40
0.0
  9
$WORLDVIEW
 70
     1
  9
$SHADEDGE
 70
     3
  9
$SHADEDIF
 70
    70
  9
$TILEMODE
 70
     1
  9
$MAXACTVP
 70
    64
  9
$PINSBASE
 10
0.0
 20
0.0
 30
0.0
  9
$PLIMCHECK
 70
     0
  9
$PEXTMIN
 10
1.000000000000000E+20
 20
1.000000000000000E+20
 30
1.000000000000000E+20
  9
$PEXTMAX
 10
-1.000000000000000E+20
 20
-1.000000000000000E+20
 30
-1.000000000000000E+20
  9
$PLIMMIN
 10
0.0
 20
0.0
  9
$PLIMMAX
 10
12.0
 20
9.0
  9
$UNITMODE
 70
     0
  9
$VISRETAIN
 70
     1
  9
$PLINEGEN
 70
     0
  9
$PSLTSCALE
 70
     1
  9
$TREEDEPTH
 70
  3020
  9
$CMLSTYLE
  2
Standard
  9
$CMLJUST
 70
     0
  9
$CMLSCALE
 40
1.0
  9
$PROXYGRAPHICS
 70
     1
  9
$MEASUREMENT
 70
     0
  9
$CELWEIGHT
370
    -1
  9
$ENDCAPS
280
     0
  9
$JOINSTYLE
280
     0
  9
$LWDISPLAY
290
     1
  9
$INSUNITS
 70
     4
  9
$HYPERLINKBASE
  1

  9
$STYLESHEET
  1

  9
$XEDIT
290
     1
  9
$CEPSNTYPE
380
     0
  9
$PSTYLEMODE
290
     1
  9
$FINGERPRINTGUID
  2
{76B0D68D-36B9-4E92-8167-6E99D70C66E7}
  9
$VERSIONGUID
  2
{FAEB1C32-E019-11D5-929B-00C0DF256EC4}
  9
$EXTNAMES
290
     1
  9
$PSVPSCALE
 40
0.0
  9
$OLESTARTUP
290
     0
  9
$SORTENTS
280
   127
  9
$INDEXCTL
280
     0
  9
$HIDETEXT
280
     1
  9
$XCLIPFRAME
290
     0
  9
$HALOGAP
280
     0
  9
$OBSCOLOR
 70
   257
  9
$OBSLTYPE
280
     0
  9
$INTERSECTIONDISPLAY
280
     0
  9
$INTERSECTIONCOLOR
 70
   257
  9
$DIMASSOC
280
     2
  9
$PROJECTNAME
  1

  0
ENDSEC
  0
SECTION
  2
CLASSES
  0
CLASS
  1
ACDBDICTIONARYWDFLT
  2
AcDbDictionaryWithDefault
  3
ObjectDBX Classes
 90
        0
 91
        4
280
     0
281
     0
  0
CLASS
  1
VISUALSTYLE
  2
AcDbVisualStyle
  3
ObjectDBX Classes
 90
     4095
 91
        4
280
     0
281
     0
  0
CLASS
  1
MATERIAL
  2
AcDbMaterial
  3
ObjectDBX Classes
 90
     1153
 91
        4
280
     0
281
     0
  0
CLASS
  1
SUN
  2
AcDbSun
  3
SCENEOE
 90
     1024
 91
        4
280
     0
281
     0
  0
ENDSEC
  0
SECTION
  2
TABLES
  0
TABLE
  2
VPORT
  5
8
330
0
100
AcDbSymbolTable
 70
     1
  0
VPORT
  5
29
330
8
100
AcDbSymbolTableRecord
100
AcDbViewportTableRecord
  2
*Active
 70
     0
 10
0.0
 20
0.0
 11
1.0
 21
1.0
 12
0.0
 22
0.0
 13
0.0
 23
0.0
 14
0.5
 24
0.5
 15
0.5
 25
0.5
 16
0.0
 26
0.0
 36
1.0
 17
173.401000594128
 27
68.6259952373601
 37
0.0
 40
137.2519904747202
 41
2.526753892521012
 42
50.0
 43
0.0
 44
0.0
 50
0.0
 51
0.0
 71
     0
 72
   100
 73
     1
 74
     3
 75
     0
 76
     0
 77
     0
 78
     0
281
     0
 65
     1
110
0.0
120
0.0
130
0.0
111
1.0
121
0.0
131
0.0
112
0.0
122
1.0
132
0.0
 79
     0
146
0.0
  0
ENDTAB
  0
TABLE
  2
LTYPE
  5
5
330
0
100
AcDbSymbolTable
 70
     1
  0
LTYPE
  5
14
330
5
100
AcDbSymbolTableRecord
100
AcDbLinetypeTableRecord
  2
ByBlock
 70
     0
  3

 72
    65
 73
     0
 40
0.0
  0
LTYPE
  5
15
330
5
100
AcDbSymbolTableRecord
100
AcDbLinetypeTableRecord
  2
ByLayer
 70
     0
  3

 72
    65
 73
     0
 40
0.0
  0
LTYPE
  5
16
330
5
100
AcDbSymbolTableRecord
100
AcDbLinetypeTableRecord
  2
Continuous
 70
     0
  3
Solid line
 72
    65
 73
     0
 40
0.0
  0
ENDTAB
  0
TABLE
  2
LAYER
  5
2
330
0
100
AcDbSymbolTable
 70
     2
  0
LAYER
  5
10
330
2
100
AcDbSymbolTableRecord
100
AcDbLayerTableRecord
  2
0
 70
     0
 62
     7
  6
Continuous
370
    -3
390
F
  0
LAYER
  5
40
330
2
100
AcDbSymbolTableRecord
100
AcDbLayerTableRecord
  2
Layer 1
 70
     0
 62
     7
  6
Continuous
370
    -3
390
F
  0
ENDTAB
  0
TABLE
  2
STYLE
  5
3
330
0
100
AcDbSymbolTable
 70
     1
  0
STYLE
  5
11
330
3
100
AcDbSymbolTableRecord
100
AcDbTextStyleTableRecord
  2
Standard
 70
     0
 40
0.0
 41
1.0
 50
0.0
 71
     0
 42
0.2
  3
txt
  4

  0
ENDTAB
  0
TABLE
  2
VIEW
  5
6
330
0
100
AcDbSymbolTable
 70
     0
  0
ENDTAB
  0
TABLE
  2
UCS
  5
7
330
0
100
AcDbSymbolTable
 70
     0
  0
ENDTAB
  0
TABLE
  2
APPID
  5
9
330
0
100
AcDbSymbolTable
 70
     1
  0
APPID
  5
12
330
9
100
AcDbSymbolTableRecord
100
AcDbRegAppTableRecord
  2
ACAD
 70
     0
  0
ENDTAB
  0
TABLE
  2
DIMSTYLE
  5
A
330
0
100
AcDbSymbolTable
 70
     1
100
AcDbDimStyleTable
  0
DIMSTYLE
105
27
330
A
100
AcDbSymbolTableRecord
100
AcDbDimStyleTableRecord
  2
Standard
 70
     0
178
     0
340
11
  0
ENDTAB
  0
TABLE
  2
BLOCK_RECORD
  5
1
330
0
100
AcDbSymbolTable
 70
     1
  0
BLOCK_RECORD
  5
1F
330
1
100
AcDbSymbolTableRecord
100
AcDbBlockTableRecord
  2
*Model_Space
340
22
  0
BLOCK_RECORD
  5
1B
330
1
100
AcDbSymbolTableRecord
100
AcDbBlockTableRecord
  2
*Paper_Space
340
1E
  0
BLOCK_RECORD
  5
23
330
1
100
AcDbSymbolTableRecord
100
AcDbBlockTableRecord
  2
*Paper_Space0
340
26
  0
ENDTAB
  0
ENDSEC
  0
SECTION
  2
BLOCKS
  0
BLOCK
  5
20
330
1F
100
AcDbEntity
  8
0
100
AcDbBlockBegin
  2
*Model_Space
 70
     0
 10
0.0
 20
0.0
 30
0.0
  3
*Model_Space
  1

  0
ENDBLK
  5
21
330
1F
100
AcDbEntity
  8
0
100
AcDbBlockEnd
  0
BLOCK
  5
1C
330
1B
100
AcDbEntity
 67
     1
  8
0
100
AcDbBlockBegin
  2
*Paper_Space
 70
     0
 10
0.0
 20
0.0
 30
0.0
  3
*Paper_Space
  1

  0
ENDBLK
  5
1D
330
1B
100
AcDbEntity
 67
     1
  8
0
100
AcDbBlockEnd
  0
BLOCK
  5
24
330
23
100
AcDbEntity
  8
0
100
AcDbBlockBegin
  2
*Paper_Space0
 70
     0
 10
0.0
 20
0.0
 30
0.0
  3
*Paper_Space0
  1

  0
ENDBLK
  5
25
330
23
100
AcDbEntity
  8
0
100
AcDbBlockEnd
  0
ENDSEC
  0
SECTION
  2
ENTITIES
  0
POLYLINE
  5
41
330
1F
100
AcDbEntity
  8
Layer 1
 62
     7
370
    15
100
AcDb2dPolyline
 66
     1
 10
0.0
 20
0.0
 30
0.0
  0
VERTEX
  5
42
330
41
100
AcDbEntity
  8
Layer 1
 62
     7
370
    15
100
AcDbVertex
100
AcDb2dVertex
 10
339.8019935055302
 20
132.2509908299723
 30
0.0
  0
VERTEX
  5
43
330
41
100
AcDbEntity
  8
Layer 1
 62
     7
370
    15
100
AcDbVertex
100
AcDb2dVertex
 10
339.9579993560841
 20
132.24499078835
 30
0.0
  0
VERTEX
  5
44
330
41
100
AcDbEntity
  8
Layer 1
 62
     7
370
    15
100
AcDbVertex
100
AcDb2dVertex
 10
340.114005206638
 20
132.2269906634828
 30
0.0
  0
VERTEX
  5
45
330
41
100
AcDbEntity
  8
Layer 1
 62
     7
370
    15
100
AcDbVertex
100
AcDb2dVertex
 10
340.2679968971495
 20
132.1959905279064
 30
0.0
  0
VERTEX
  5
46
330
41
100
AcDbEntity
  8
Layer 1
 62
     7
370
    15
100
AcDbVertex
100
AcDb2dVertex
 10
340.4200049451952
 20
132.1539907133867
 30
0.0
  0
VERTEX
  5
47
330
41
100
AcDbEntity
  8
Layer 1
 62
     7
370
    15
100
AcDbVertex
100
AcDb2dVertex
 10
340.5669775931348
 20
132.098990888158
 30
0.0
  0
VERTEX
  5
48
330
41
100
AcDbEntity
  8
Layer 1
 62
     7
370
    15
100
AcDbVertex
100
AcDb2dVertex
 10
340.7090063936978
 20
132.0339908346128
 30
0.0
  0
VERTEX
  5
49
330
41
100
AcDbEntity
  8
Layer 1
 62
     7
370
    15
100
AcDbVertex
100
AcDb2dVertex
 10
340.8459997941549
 20
131.9569906978231
 30
0.0
  0
VERTEX
  5
4A
330
41
100
AcDbEntity
  8
Layer 1
 62
     7
370
    15
100
AcDbVertex
100
AcDb2dVertex
 10
340.9769812320612
 20
131.8699908095537
 30
0.0
  0
VERTEX
  5
4B
330
41
100
AcDbEntity
  8
Layer 1
 62
     7
370
    15
100
AcDbVertex
100
AcDb2dVertex
 10
341.0999975825274
 20
131.7719907655037
 30
0.0
  0
VERTEX
  5
4C
330
41
100
AcDbEntity
  8
Layer 1
 62
     7
370
    15
100
AcDbVertex
100
AcDb2dVertex
 10
341.2159948904217
 20
131.6659908249032
 30
0.0
  0
VERTEX
  5
4D
330
41
100
AcDbEntity
  8
Layer 1
 62
     7
370
    15
100
AcDbVertex
100
AcDb2dVertex
 10
341.3219824332569
 20
131.5499906559861
 30
0.0
  0
VERTEX
  5
4E
330
41
100
AcDbEntity
  8
Layer 1
 62
     7
370
    15
100
AcDbVertex
100
AcDb2dVertex
 10
341.4200048886519
 20
131.4269909948196
 30
0.0
  0
VERTEX
  5
4F
330
41
100
AcDbEntity
  8
Layer 1
 62
     7
370
    15
100
AcDbVertex
100
AcDb2dVertex
 10
341.5069799813903
 20
131.2959909602652
 30
0.0
  0
VERTEX
  5
50
330
41
100
AcDbEntity
  8
Layer 1
 62
     7
370
    15
100
AcDbVertex
100
AcDb2dVertex
 10
341.5840063442224
 20
131.1589908840882
 30
0.0
  0
VERTEX
  5
51
330
41
100
AcDbEntity
  8
Layer 1
 62
     7
370
    15
100
AcDbVertex
100
AcDb2dVertex
 10
341.6489782643768
 20
131.0169906937533
 30
0.0
  0
VERTEX
  5
52
330
41
100
AcDbEntity
  8
Layer 1
 62
     7
370
    15
100
AcDbVertex
100
AcDb2dVertex
 10
341.704001454625
 20
130.869990866097
 30
0.0
  0
VERTEX
  5
53
330
41
100
AcDbEntity
  8
Layer 1
 62
     7
370
    15
100
AcDbVertex
100
AcDb2dVertex
 10
341.7459936397506
 20
130.7179909242827
 30
0.0
  0
VERTEX
  5
54
330
41
100
AcDbEntity
  8
Layer 1
 62
     7
370
    15
100
AcDbVertex
100
AcDb2dVertex
 10
341.7769994973725
 20
130.5639906507026
 30
0.0
  0
VERTEX
  5
55
330
41
100
AcDbEntity
  8
Layer 1
 62
     7
370
    15
100
AcDbVertex
100
AcDb2dVertex
 10
341.7950048674481
 20
130.4079909990313
 30
0.0
  0
VERTEX
  5
56
330
41
100
AcDbEntity
  8
Layer 1
 62
     7
370
    15
100
AcDbVertex
100
AcDb2dVertex
 10
341.8019933924436
 20
130.2509909430588
 30
0.0
  0
VERTEX
  5
57
330
41
100
AcDbEntity
  8
Layer 1
 62
     7
370
    15
100
AcDbVertex
100
AcDb2dVertex
 10
341.8019933924436
 20
7.000990759460672
 30
0.0
  0
VERTEX
  5
58
330
41
100
AcDbEntity
  8
Layer 1
 62
     7
370
    15
100
AcDbVertex
100
AcDb2dVertex
 10
341.7950048674481
 20
6.843993087673772
 30
0.0
  0
VERTEX
  5
59
330
41
100
AcDbEntity
  8
Layer 1
 62
     7
370
    15
100
AcDbVertex
100
AcDb2dVertex
 10
341.7769994973725
 20
6.688994317141036
 30
0.0
  0
VERTEX
  5
5A
330
41
100
AcDbEntity
  8
Layer 1
 62
     7
370
    15
100
AcDbVertex
100
AcDb2dVertex
 10
341.7459936397506
 20
6.5339955466083
 30
0.0
  0
VERTEX
  5
5B
330
41
100
AcDbEntity
  8
Layer 1
 62
     7
370
    15
100
AcDbVertex
100
AcDb2dVertex
 10
341.704001454625
 20
6.382002757350908
 30
0.0
  0
VERTEX
  5
5C
330
41
100
AcDbEntity
  8
Layer 1
 62
     7
370
    15
100
AcDbVertex
100
AcDb2dVertex
 10
341.6489782643768
 20
6.236998493088987
 30
0.0
  0
VERTEX
  5
5D
330
41
100
AcDbEntity
  8
Layer 1
 62
     7
370
    15
100
AcDbVertex
100
AcDb2dVertex
 10
341.5840063442224
 20
6.093001308848248
 30
0.0
  0
VERTEX
  5
5E
330
41
100
AcDbEntity
  8
Layer 1
 62
     7
370
    15
100
AcDbVertex
100
AcDb2dVertex
 10
341.5069799813903
 20
5.95599264960298
 30
0.0
  0
VERTEX
  5
5F
330
41
100
AcDbEntity
  8
Layer 1
 62
     7
370
    15
100
AcDbVertex
100
AcDb2dVertex
 10
341.4200048886519
 20
5.8249959529084
 30
0.0
  0
VERTEX
  5
60
330
41
100
AcDbEntity
  8
Layer 1
 62
     7
370
    15
100
AcDbVertex
100
AcDb2dVertex
 10
341.3219824332569
 20
5.701994861230472
 30
0.0
  0
VERTEX
  5
61
330
41
100
AcDbEntity
  8
Layer 1
 62
     7
370
    15
100
AcDbVertex
100
AcDb2dVertex
 10
341.2159948904217
 20
5.585997553336215
 30
0.0
  0
VERTEX
  5
62
330
41
100
AcDbEntity
  8
Layer 1
 62
     7
370
    15
100
AcDbVertex
100
AcDb2dVertex
 10
341.0999975825274
 20
5.479994751712773
 30
0.0
  0
VERTEX
  5
63
330
41
100
AcDbEntity
  8
Layer 1
 62
     7
370
    15
100
AcDbVertex
100
AcDb2dVertex
 10
340.9769812320612
 20
5.382002813894184
 30
0.0
  0
VERTEX
  5
64
330
41
100
AcDbEntity
  8
Layer 1
 62
     7
370
    15
100
AcDbVertex
100
AcDb2dVertex
 10
340.8459997941549
 20
5.294997203579391
 30
0.0
  0
VERTEX
  5
65
330
41
100
AcDbEntity
  8
Layer 1
 62
     7
370
    15
100
AcDbVertex
100
AcDb2dVertex
 10
340.7090063936978
 20
5.218001358323614
 30
0.0
  0
VERTEX
  5
66
330
41
100
AcDbEntity
  8
Layer 1
 62
     7
370
    15
100
AcDbVertex
100
AcDb2dVertex
 10
340.5669775931348
 20
5.152998920592815
 30
0.0
  0
VERTEX
  5
67
330
41
100
AcDbEntity
  8
Layer 1
 62
     7
370
    15
100
AcDbVertex
100
AcDb2dVertex
 10
340.4200049451952
 20
5.097990989132831
 30
0.0
  0
VERTEX
  5
68
330
41
100
AcDbEntity
  8
Layer 1
 62
     7
370
    15
100
AcDbVertex
100
AcDb2dVertex
 10
340.2679968971495
 20
5.055998804007207
 30
0.0
  0
VERTEX
  5
69
330
41
100
AcDbEntity
  8
Layer 1
 62
     7
370
    15
100
AcDbVertex
100
AcDb2dVertex
 10
340.114005206638
 20
5.02499294638538
 30
0.0
  0
VERTEX
  5
6A
330
41
100
AcDbEntity
  8
Layer 1
 62
     7
370
    15
100
AcDbVertex
100
AcDb2dVertex
 10
339.9579993560841
 20
5.007002835097913
 30
0.0
  0
VERTEX
  5
6B
330
41
100
AcDbEntity
  8
Layer 1
 62
     7
370
    15
100
AcDbVertex
100
AcDb2dVertex
 10
339.8019935055302
 20
4.999999051314242
 30
0.0
  0
VERTEX
  5
6C
330
41
100
AcDbEntity
  8
Layer 1
 62
     7
370
    15
100
AcDbVertex
100
AcDb2dVertex
 10
7.001010297584796
 20
5.000990872547224
 30
0.0
  0
VERTEX
  5
6D
330
41
100
AcDbEntity
  8
Layer 1
 62
     7
370
    15
100
AcDbVertex
100
AcDb2dVertex
 10
6.84401024161228
 20
5.007002835097913
 30
0.0
  0
VERTEX
  5
6E
330
41
100
AcDbEntity
  8
Layer 1
 62
     7
370
    15
100
AcDbVertex
100
AcDb2dVertex
 10
6.688010589941029
 20
5.02499294638538
 30
0.0
  0
VERTEX
  5
6F
330
41
100
AcDbEntity
  8
Layer 1
 62
     7
370
    15
100
AcDbVertex
100
AcDb2dVertex
 10
6.53401031636087
 20
5.055998804007207
 30
0.0
  0
VERTEX
  5
70
330
41
100
AcDbEntity
  8
Layer 1
 62
     7
370
    15
100
AcDbVertex
100
AcDb2dVertex
 10
6.38201037454663
 20
5.097990989132831
 30
0.0
  0
VERTEX
  5
71
330
41
100
AcDbEntity
  8
Layer 1
 62
     7
370
    15
100
AcDbVertex
100
AcDb2dVertex
 10
6.235010546890345
 20
5.152998920592815
 30
0.0
  0
VERTEX
  5
72
330
41
100
AcDbEntity
  8
Layer 1
 62
     7
370
    15
100
AcDbVertex
100
AcDb2dVertex
 10
6.093010356555403
 20
5.218001358323614
 30
0.0
  0
VERTEX
  5
73
330
41
100
AcDbEntity
  8
Layer 1
 62
     7
370
    15
100
AcDbVertex
100
AcDb2dVertex
 10
5.956010280378417
 20
5.294997203579391
 30
0.0
  0
VERTEX
  5
74
330
41
100
AcDbEntity
  8
Layer 1
 62
     7
370
    15
100
AcDbVertex
100
AcDb2dVertex
 10
5.825010245824039
 20
5.382002813894184
 30
0.0
  0
VERTEX
  5
75
330
41
100
AcDbEntity
  8
Layer 1
 62
     7
370
    15
100
AcDbVertex
100
AcDb2dVertex
 10
5.702010584657545
 20
5.479994751712773
 30
0.0
  0
VERTEX
  5
76
330
41
100
AcDbEntity
  8
Layer 1
 62
     7
370
    15
100
AcDbVertex
100
AcDb2dVertex
 10
5.586010415740421
 20
5.585997553336215
 30
0.0
  0
VERTEX
  5
77
330
41
100
AcDbEntity
  8
Layer 1
 62
     7
370
    15
100
AcDbVertex
100
AcDb2dVertex
 10
5.480010475139847
 20
5.701994861230472
 30
0.0
  0
VERTEX
  5
78
330
41
100
AcDbEntity
  8
Layer 1
 62
     7
370
    15
100
AcDbVertex
100
AcDb2dVertex
 10
5.382010431089906
 20
5.8249959529084
 30
0.0
  0
VERTEX
  5
79
330
41
100
AcDbEntity
  8
Layer 1
 62
     7
370
    15
100
AcDbVertex
100
AcDb2dVertex
 10
5.295010542820528
 20
5.95599264960298
 30
0.0
  0
VERTEX
  5
7A
330
41
100
AcDbEntity
  8
Layer 1
 62
     7
370
    15
100
AcDbVertex
100
AcDb2dVertex
 10
5.218010406030769
 20
6.093001308848248
 30
0.0
  0
VERTEX
  5
7B
330
41
100
AcDbEntity
  8
Layer 1
 62
     7
370
    15
100
AcDbVertex
100
AcDb2dVertex
 10
5.153010352485587
 20
6.236998493088987
 30
0.0
  0
VERTEX
  5
7C
330
41
100
AcDbEntity
  8
Layer 1
 62
     7
370
    15
100
AcDbVertex
100
AcDb2dVertex
 10
5.098010527256955
 20
6.382002757350908
 30
0.0
  0
VERTEX
  5
7D
330
41
100
AcDbEntity
  8
Layer 1
 62
     7
370
    15
100
AcDbVertex
100
AcDb2dVertex
 10
5.056010712737231
 20
6.5339955466083
 30
0.0
  0
VERTEX
  5
7E
330
41
100
AcDbEntity
  8
Layer 1
 62
     7
370
    15
100
AcDbVertex
100
AcDb2dVertex
 10
5.025010577160818
 20
6.688994317141036
 30
0.0
  0
VERTEX
  5
7F
330
41
100
AcDbEntity
  8
Layer 1
 62
     7
370
    15
100
AcDbVertex
100
AcDb2dVertex
 10
5.007010452293634
 20
6.843993087673772
 30
0.0
  0
VERTEX
  5
80
330
41
100
AcDbEntity
  8
Layer 1
 62
     7
370
    15
100
AcDbVertex
100
AcDb2dVertex
 10
5.000010483207014
 20
7.000990759460672
 30
0.0
  0
VERTEX
  5
81
330
41
100
AcDbEntity
  8
Layer 1
 62
     7
370
    15
100
AcDbVertex
100
AcDb2dVertex
 10
5.001010410671347
 20
130.2509909430588
 30
0.0
  0
VERTEX
  5
82
330
41
100
AcDbEntity
  8
Layer 1
 62
     7
370
    15
100
AcDbVertex
100
AcDb2dVertex
 10
5.007010452293634
 20
130.4079909990313
 30
0.0
  0
VERTEX
  5
83
330
41
100
AcDbEntity
  8
Layer 1
 62
     7
370
    15
100
AcDbVertex
100
AcDb2dVertex
 10
5.025010577160818
 20
130.5639906507026
 30
0.0
  0
VERTEX
  5
84
330
41
100
AcDbEntity
  8
Layer 1
 62
     7
370
    15
100
AcDbVertex
100
AcDb2dVertex
 10
5.056010712737231
 20
130.7179909242827
 30
0.0
  0
VERTEX
  5
85
330
41
100
AcDbEntity
  8
Layer 1
 62
     7
370
    15
100
AcDbVertex
100
AcDb2dVertex
 10
5.098010527256955
 20
130.869990866097
 30
0.0
  0
VERTEX
  5
86
330
41
100
AcDbEntity
  8
Layer 1
 62
     7
370
    15
100
AcDbVertex
100
AcDb2dVertex
 10
5.153010352485587
 20
131.0169906937533
 30
0.0
  0
VERTEX
  5
87
330
41
100
AcDbEntity
  8
Layer 1
 62
     7
370
    15
100
AcDbVertex
100
AcDb2dVertex
 10
5.218010406030769
 20
131.1589908840882
 30
0.0
  0
VERTEX
  5
88
330
41
100
AcDbEntity
  8
Layer 1
 62
     7
370
    15
100
AcDbVertex
100
AcDb2dVertex
 10
5.295010542820528
 20
131.2959909602652
 30
0.0
  0
VERTEX
  5
89
330
41
100
AcDbEntity
  8
Layer 1
 62
     7
370
    15
100
AcDbVertex
100
AcDb2dVertex
 10
5.382010431089906
 20
131.4269909948196
 30
0.0
  0
VERTEX
  5
8A
330
41
100
AcDbEntity
  8
Layer 1
 62
     7
370
    15
100
AcDbVertex
100
AcDb2dVertex
 10
5.480010475139847
 20
131.5499906559861
 30
0.0
  0
VERTEX
  5
8B
330
41
100
AcDbEntity
  8
Layer 1
 62
     7
370
    15
100
AcDbVertex
100
AcDb2dVertex
 10
5.586010415740421
 20
131.6659908249032
 30
0.0
  0
VERTEX
  5
8C
330
41
100
AcDbEntity
  8
Layer 1
 62
     7
370
    15
100
AcDbVertex
100
AcDb2dVertex
 10
5.702010584657545
 20
131.7719907655037
 30
0.0
  0
VERTEX
  5
8D
330
41
100
AcDbEntity
  8
Layer 1
 62
     7
370
    15
100
AcDbVertex
100
AcDb2dVertex
 10
5.825010245824039
 20
131.8699908095537
 30
0.0
  0
VERTEX
  5
8E
330
41
100
AcDbEntity
  8
Layer 1
 62
     7
370
    15
100
AcDbVertex
100
AcDb2dVertex
 10
5.956010280378417
 20
131.9569906978231
 30
0.0
  0
VERTEX
  5
8F
330
41
100
AcDbEntity
  8
Layer 1
 62
     7
370
    15
100
AcDbVertex
100
AcDb2dVertex
 10
6.093010356555403
 20
132.0339908346128
 30
0.0
  0
VERTEX
  5
90
330
41
100
AcDbEntity
  8
Layer 1
 62
     7
370
    15
100
AcDbVertex
100
AcDb2dVertex
 10
6.235010546890345
 20
132.098990888158
 30
0.0
  0
VERTEX
  5
91
330
41
100
AcDbEntity
  8
Layer 1
 62
     7
370
    15
100
AcDbVertex
100
AcDb2dVertex
 10
6.38201037454663
 20
132.1539907133867
 30
0.0
  0
VERTEX
  5
92
330
41
100
AcDbEntity
  8
Layer 1
 62
     7
370
    15
100
AcDbVertex
100
AcDb2dVertex
 10
6.53401031636087
 20
132.1959905279064
 30
0.0
  0
VERTEX
  5
93
330
41
100
AcDbEntity
  8
Layer 1
 62
     7
370
    15
100
AcDbVertex
100
AcDb2dVertex
 10
6.688010589941029
 20
132.2269906634828
 30
0.0
  0
VERTEX
  5
94
330
41
100
AcDbEntity
  8
Layer 1
 62
     7
370
    15
100
AcDbVertex
100
AcDb2dVertex
 10
6.84401024161228
 20
132.24499078835
 30
0.0
  0
VERTEX
  5
95
330
41
100
AcDbEntity
  8
Layer 1
 62
     7
370
    15
100
AcDbVertex
100
AcDb2dVertex
 10
7.001010297584796
 20
132.2519907574366
 30
0.0
  0
VERTEX
  5
96
330
41
100
AcDbEntity
  8
Layer 1
 62
     7
370
    15
100
AcDbVertex
100
AcDb2dVertex
 10
339.8019935055302
 20
132.2509908299723
 30
0.0
  0
SEQEND
  5
97
330
41
100
AcDbEntity
  8
Layer 1
 62
     7
370
    15
  0
POLYLINE
  5
98
330
1F
100
AcDbEntity
  8
Layer 1
 62
     7
370
    15
100
AcDb2dPolyline
 66
     1
 10
0.0
 20
0.0
 30
0.0
  0
VERTEX
  5
99
330
98
100
AcDbEntity
  8
Layer 1
 62
     7
370
    15
100
AcDbVertex
100
AcDb2dVertex
 10
9.50600979354763
 20
11.52199422697284
 30
0.0
  0
VERTEX
  5
9A
330
98
100
AcDbEntity
  8
Layer 1
 62
     7
370
    15
100
AcDbVertex
100
AcDb2dVertex
 10
9.06001067325807
 20
11.29499686431974
 30
0.0
  0
VERTEX
  5
9B
330
98
100
AcDbEntity
  8
Layer 1
 62
     7
370
    15
100
AcDbVertex
100
AcDb2dVertex
 10
8.70601060172166
 20
10.94100060748038
 30
0.0
  0
VERTEX
  5
9C
330
98
100
AcDbEntity
  8
Layer 1
 62
     7
370
    15
100
AcDbVertex
100
AcDb2dVertex
 10
8.479010378045688
 20
10.49499385779672
 30
0.0
  0
VERTEX
  5
9D
330
98
100
AcDbEntity
  8
Layer 1
 62
     7
370
    15
100
AcDbVertex
100
AcDb2dVertex
 10
8.400009909490333
 20
10.00099821922494
 30
0.0
  0
VERTEX
  5
9E
330
98
100
AcDbEntity
  8
Layer 1
 62
     7
370
    15
100
AcDbVertex
100
AcDb2dVertex
 10
8.479010378045688
 20
9.505995500631991
 30
0.0
  0
VERTEX
  5
9F
330
98
100
AcDbEntity
  8
Layer 1
 62
     7
370
    15
100
AcDbVertex
100
AcDb2dVertex
 10
8.70601060172166
 20
9.059996380342431
 30
0.0
  0
VERTEX
  5
A0
330
98
100
AcDbEntity
  8
Layer 1
 62
     7
370
    15
100
AcDbVertex
100
AcDb2dVertex
 10
9.06001067325807
 20
8.706999574130153
 30
0.0
  0
VERTEX
  5
A1
330
98
100
AcDbEntity
  8
Layer 1
 62
     7
370
    15
100
AcDbVertex
100
AcDb2dVertex
 10
9.50600979354763
 20
8.481001662104129
 30
0.0
  0
VERTEX
  5
A2
330
98
100
AcDbEntity
  8
Layer 1
 62
     7
370
    15
100
AcDbVertex
100
AcDb2dVertex
 10
10.00001020049064
 20
8.400999835573007
 30
0.0
  0
VERTEX
  5
A3
330
98
100
AcDbEntity
  8
Layer 1
 62
     7
370
    15
100
AcDbVertex
100
AcDb2dVertex
 10
10.49501005806072
 20
8.481001662104129
 30
0.0
  0
VERTEX
  5
A4
330
98
100
AcDbEntity
  8
Layer 1
 62
     7
370
    15
100
AcDbVertex
100
AcDb2dVertex
 10
10.94101013202479
 20
8.706999574130153
 30
0.0
  0
VERTEX
  5
A5
330
98
100
AcDbEntity
  8
Layer 1
 62
     7
370
    15
100
AcDbVertex
100
AcDb2dVertex
 10
11.29501020356087
 20
9.059996380342431
 30
0.0
  0
VERTEX
  5
A6
330
98
100
AcDbEntity
  8
Layer 1
 62
     7
370
    15
100
AcDbVertex
100
AcDb2dVertex
 10
11.52201042723685
 20
9.505995500631991
 30
0.0
  0
VERTEX
  5
A7
330
98
100
AcDbEntity
  8
Layer 1
 62
     7
370
    15
100
AcDbVertex
100
AcDb2dVertex
 10
11.60001049149094
 20
10.00099821922494
 30
0.0
  0
VERTEX
  5
A8
330
98
100
AcDbEntity
  8
Layer 1
 62
     7
370
    15
100
AcDbVertex
100
AcDb2dVertex
 10
11.52201042723685
 20
10.49499385779672
 30
0.0
  0
VERTEX
  5
A9
330
98
100
AcDbEntity
  8
Layer 1
 62
     7
370
    15
100
AcDbVertex
100
AcDb2dVertex
 10
11.29501020356087
 20
10.94100060748038
 30
0.0
  0
VERTEX
  5
AA
330
98
100
AcDbEntity
  8
Layer 1
 62
     7
370
    15
100
AcDbVertex
100
AcDb2dVertex
 10
10.94101013202479
 20
11.29499686431974
 30
0.0
  0
VERTEX
  5
AB
330
98
100
AcDbEntity
  8
Layer 1
 62
     7
370
    15
100
AcDbVertex
100
AcDb2dVertex
 10
10.49501005806072
 20
11.52199422697284
 30
0.0
  0
VERTEX
  5
AC
330
98
100
AcDbEntity
  8
Layer 1
 62
     7
370
    15
100
AcDbVertex
100
AcDb2dVertex
 10
10.00001020049064
 20
11.60099660287688
 30
0.0
  0
VERTEX
  5
AD
330
98
100
AcDbEntity
  8
Layer 1
 62
     7
370
    15
100
AcDbVertex
100
AcDb2dVertex
 10
9.50600979354763
 20
11.52199422697284
 30
0.0
  0
SEQEND
  5
AE
330
98
100
AcDbEntity
  8
Layer 1
 62
     7
370
    15
  0
POLYLINE
  5
AF
330
1F
100
AcDbEntity
  8
Layer 1
 62
     7
370
    15
100
AcDb2dPolyline
 66
     1
 10
0.0
 20
0.0
 30
0.0
  0
VERTEX
  5
B0
330
AF
100
AcDbEntity
  8
Layer 1
 62
     7
370
    15
100
AcDbVertex
100
AcDb2dVertex
 10
118.4400065103439
 20
11.52199422697284
 30
0.0
  0
VERTEX
  5
B1
330
AF
100
AcDbEntity
  8
Layer 1
 62
     7
370
    15
100
AcDbVertex
100
AcDb2dVertex
 10
117.9940073900544
 20
11.29499686431974
 30
0.0
  0
VERTEX
  5
B2
330
AF
100
AcDbEntity
  8
Layer 1
 62
     7
370
    15
100
AcDbVertex
100
AcDb2dVertex
 10
117.6400035038209
 20
10.94100060748038
 30
0.0
  0
VERTEX
  5
B3
330
AF
100
AcDbEntity
  8
Layer 1
 62
     7
370
    15
100
AcDbVertex
100
AcDb2dVertex
 10
117.4120066905407
 20
10.49499385779672
 30
0.0
  0
VERTEX
  5
B4
330
AF
100
AcDbEntity
  8
Layer 1
 62
     7
370
    15
100
AcDbVertex
100
AcDb2dVertex
 10
117.3340037652638
 20
10.00099821922494
 30
0.0
  0
VERTEX
  5
B5
330
AF
100
AcDbEntity
  8
Layer 1
 62
     7
370
    15
100
AcDbVertex
100
AcDb2dVertex
 10
117.4120066905407
 20
9.505995500631991
 30
0.0
  0
VERTEX
  5
B6
330
AF
100
AcDbEntity
  8
Layer 1
 62
     7
370
    15
100
AcDbVertex
100
AcDb2dVertex
 10
117.6400035038209
 20
9.059996380342431
 30
0.0
  0
VERTEX
  5
B7
330
AF
100
AcDbEntity
  8
Layer 1
 62
     7
370
    15
100
AcDbVertex
100
AcDb2dVertex
 10
117.9940073900544
 20
8.706999574130153
 30
0.0
  0
VERTEX
  5
B8
330
AF
100
AcDbEntity
  8
Layer 1
 62
     7
370
    15
100
AcDbVertex
100
AcDb2dVertex
 10
118.4400065103439
 20
8.481001662104129
 30
0.0
  0
VERTEX
  5
B9
330
AF
100
AcDbEntity
  8
Layer 1
 62
     7
370
    15
100
AcDbVertex
100
AcDb2dVertex
 10
118.9340021489157
 20
8.400999835573007
 30
0.0
  0
VERTEX
  5
BA
330
AF
100
AcDbEntity
  8
Layer 1
 62
     7
370
    15
100
AcDbVertex
100
AcDb2dVertex
 10
119.4290048675087
 20
8.481001662104129
 30
0.0
  0
VERTEX
  5
BB
330
AF
100
AcDbEntity
  8
Layer 1
 62
     7
370
    15
100
AcDbVertex
100
AcDb2dVertex
 10
119.8750039877982
 20
8.706999574130153
 30
0.0
  0
VERTEX
  5
BC
330
AF
100
AcDbEntity
  8
Layer 1
 62
     7
370
    15
100
AcDbVertex
100
AcDb2dVertex
 10
120.2290002446376
 20
9.059996380342431
 30
0.0
  0
VERTEX
  5
BD
330
AF
100
AcDbEntity
  8
Layer 1
 62
     7
370
    15
100
AcDbVertex
100
AcDb2dVertex
 10
120.4560052366848
 20
9.505995500631991
 30
0.0
  0
VERTEX
  5
BE
330
AF
100
AcDbEntity
  8
Layer 1
 62
     7
370
    15
100
AcDbVertex
100
AcDb2dVertex
 10
120.5340005325677
 20
10.00099821922494
 30
0.0
  0
VERTEX
  5
BF
330
AF
100
AcDbEntity
  8
Layer 1
 62
     7
370
    15
100
AcDbVertex
100
AcDb2dVertex
 10
120.4560052366848
 20
10.49499385779672
 30
0.0
  0
VERTEX
  5
C0
330
AF
100
AcDbEntity
  8
Layer 1
 62
     7
370
    15
100
AcDbVertex
100
AcDb2dVertex
 10
120.2290002446376
 20
10.94100060748038
 30
0.0
  0
VERTEX
  5
C1
330
AF
100
AcDbEntity
  8
Layer 1
 62
     7
370
    15
100
AcDbVertex
100
AcDb2dVertex
 10
119.8750039877982
 20
11.29499686431974
 30
0.0
  0
VERTEX
  5
C2
330
AF
100
AcDbEntity
  8
Layer 1
 62
     7
370
    15
100
AcDbVertex
100
AcDb2dVertex
 10
119.4290048675087
 20
11.52199422697284
 30
0.0
  0
VERTEX
  5
C3
330
AF
100
AcDbEntity
  8
Layer 1
 62
     7
370
    15
100
AcDbVertex
100
AcDb2dVertex
 10
118.9340021489157
 20
11.60099660287688
 30
0.0
  0
VERTEX
  5
C4
330
AF
100
AcDbEntity
  8
Layer 1
 62
     7
370
    15
100
AcDbVertex
100
AcDb2dVertex
 10
118.4400065103439
 20
11.52199422697284
 30
0.0
  0
SEQEND
  5
C5
330
AF
100
AcDbEntity
  8
Layer 1
 62
     7
370
    15
  0
POLYLINE
  5
C6
330
1F
100
AcDbEntity
  8
Layer 1
 62
     7
370
    15
100
AcDb2dPolyline
 66
     1
 10
0.0
 20
0.0
 30
0.0
  0
VERTEX
  5
C7
330
C6
100
AcDbEntity
  8
Layer 1
 62
     7
370
    15
100
AcDbVertex
100
AcDb2dVertex
 10
227.372999008142
 20
11.52199422697284
 30
0.0
  0
VERTEX
  5
C8
330
C6
100
AcDbEntity
  8
Layer 1
 62
     7
370
    15
100
AcDbVertex
100
AcDb2dVertex
 10
226.9269998878524
 20
11.29499686431974
 30
0.0
  0
VERTEX
  5
C9
330
C6
100
AcDbEntity
  8
Layer 1
 62
     7
370
    15
100
AcDbVertex
100
AcDb2dVertex
 10
226.5729960016189
 20
10.94100060748038
 30
0.0
  0
VERTEX
  5
CA
330
C6
100
AcDbEntity
  8
Layer 1
 62
     7
370
    15
100
AcDbVertex
100
AcDb2dVertex
 10
226.3459910095717
 20
10.49499385779672
 30
0.0
  0
VERTEX
  5
CB
330
C6
100
AcDbEntity
  8
Layer 1
 62
     7
370
    15
100
AcDbVertex
100
AcDb2dVertex
 10
226.268003343083
 20
10.00099821922494
 30
0.0
  0
VERTEX
  5
CC
330
C6
100
AcDbEntity
  8
Layer 1
 62
     7
370
    15
100
AcDbVertex
100
AcDb2dVertex
 10
226.3459910095717
 20
9.505995500631991
 30
0.0
  0
VERTEX
  5
CD
330
C6
100
AcDbEntity
  8
Layer 1
 62
     7
370
    15
100
AcDbVertex
100
AcDb2dVertex
 10
226.5729960016189
 20
9.059996380342431
 30
0.0
  0
VERTEX
  5
CE
330
C6
100
AcDbEntity
  8
Layer 1
 62
     7
370
    15
100
AcDbVertex
100
AcDb2dVertex
 10
226.9269998878524
 20
8.706999574130153
 30
0.0
  0
VERTEX
  5
CF
330
C6
100
AcDbEntity
  8
Layer 1
 62
     7
370
    15
100
AcDbVertex
100
AcDb2dVertex
 10
227.372999008142
 20
8.481001662104129
 30
0.0
  0
VERTEX
  5
D0
330
C6
100
AcDbEntity
  8
Layer 1
 62
     7
370
    15
100
AcDbVertex
100
AcDb2dVertex
 10
227.8679940973408
 20
8.400999835573007
 30
0.0
  0
VERTEX
  5
D1
330
C6
100
AcDbEntity
  8
Layer 1
 62
     7
370
    15
100
AcDbVertex
100
AcDb2dVertex
 10
228.3619973653067
 20
8.481001662104129
 30
0.0
  0
VERTEX
  5
D2
330
C6
100
AcDbEntity
  8
Layer 1
 62
     7
370
    15
100
AcDbVertex
100
AcDb2dVertex
 10
228.8079964855962
 20
8.706999574130153
 30
0.0
  0
VERTEX
  5
D3
330
C6
100
AcDbEntity
  8
Layer 1
 62
     7
370
    15
100
AcDbVertex
100
AcDb2dVertex
 10
229.1620003718297
 20
9.059996380342431
 30
0.0
  0
VERTEX
  5
D4
330
C6
100
AcDbEntity
  8
Layer 1
 62
     7
370
    15
100
AcDbVertex
100
AcDb2dVertex
 10
229.3899971851099
 20
9.505995500631991
 30
0.0
  0
VERTEX
  5
D5
330
C6
100
AcDbEntity
  8
Layer 1
 62
     7
370
    15
100
AcDbVertex
100
AcDb2dVertex
 10
229.4680001103868
 20
10.00099821922494
 30
0.0
  0
VERTEX
  5
D6
330
C6
100
AcDbEntity
  8
Layer 1
 62
     7
370
    15
100
AcDbVertex
100
AcDb2dVertex
 10
229.3899971851099
 20
10.49499385779672
 30
0.0
  0
VERTEX
  5
D7
330
C6
100
AcDbEntity
  8
Layer 1
 62
     7
370
    15
100
AcDbVertex
100
AcDb2dVertex
 10
229.1620003718297
 20
10.94100060748038
 30
0.0
  0
VERTEX
  5
D8
330
C6
100
AcDbEntity
  8
Layer 1
 62
     7
370
    15
100
AcDbVertex
100
AcDb2dVertex
 10
228.8079964855962
 20
11.29499686431974
 30
0.0
  0
VERTEX
  5
D9
330
C6
100
AcDbEntity
  8
Layer 1
 62
     7
370
    15
100
AcDbVertex
100
AcDb2dVertex
 10
228.3619973653067
 20
11.52199422697284
 30
0.0
  0
VERTEX
  5
DA
330
C6
100
AcDbEntity
  8
Layer 1
 62
     7
370
    15
100
AcDbVertex
100
AcDb2dVertex
 10
227.8679940973408
 20
11.60099660287688
 30
0.0
  0
VERTEX
  5
DB
330
C6
100
AcDbEntity
  8
Layer 1
 62
     7
370
    15
100
AcDbVertex
100
AcDb2dVertex
 10
227.372999008142
 20
11.52199422697284
 30
0.0
  0
SEQEND
  5
DC
330
C6
100
AcDbEntity
  8
Layer 1
 62
     7
370
    15
  0
POLYLINE
  5
DD
330
1F
100
AcDbEntity
  8
Layer 1
 62
     7
370
    15
100
AcDb2dPolyline
 66
     1
 10
0.0
 20
0.0
 30
0.0
  0
VERTEX
  5
DE
330
DD
100
AcDbEntity
  8
Layer 1
 62
     7
370
    15
100
AcDbVertex
100
AcDb2dVertex
 10
336.3069985859611
 20
11.52199422697284
 30
0.0
  0
VERTEX
  5
DF
330
DD
100
AcDbEntity
  8
Layer 1
 62
     7
370
    15
100
AcDbVertex
100
AcDb2dVertex
 10
335.8609842068834
 20
11.29499686431974
 30
0.0
  0
VERTEX
  5
E0
330
DD
100
AcDbEntity
  8
Layer 1
 62
     7
370
    15
100
AcDbVertex
100
AcDb2dVertex
 10
335.5069803206499
 20
10.94100060748038
 30
0.0
  0
VERTEX
  5
E1
330
DD
100
AcDbEntity
  8
Layer 1
 62
     7
370
    15
100
AcDbVertex
100
AcDb2dVertex
 10
335.2799905873909
 20
10.49499385779672
 30
0.0
  0
VERTEX
  5
E2
330
DD
100
AcDbEntity
  8
Layer 1
 62
     7
370
    15
100
AcDbVertex
100
AcDb2dVertex
 10
335.2019876621139
 20
10.00099821922494
 30
0.0
  0
VERTEX
  5
E3
330
DD
100
AcDbEntity
  8
Layer 1
 62
     7
370
    15
100
AcDbVertex
100
AcDb2dVertex
 10
335.2799905873909
 20
9.505995500631991
 30
0.0
  0
VERTEX
  5
E4
330
DD
100
AcDbEntity
  8
Layer 1
 62
     7
370
    15
100
AcDbVertex
100
AcDb2dVertex
 10
335.5069803206499
 20
9.059996380342431
 30
0.0
  0
VERTEX
  5
E5
330
DD
100
AcDbEntity
  8
Layer 1
 62
     7
370
    15
100
AcDbVertex
100
AcDb2dVertex
 10
335.8609842068834
 20
8.706999574130153
 30
0.0
  0
VERTEX
  5
E6
330
DD
100
AcDbEntity
  8
Layer 1
 62
     7
370
    15
100
AcDbVertex
100
AcDb2dVertex
 10
336.3069985859611
 20
8.481001662104129
 30
0.0
  0
VERTEX
  5
E7
330
DD
100
AcDbEntity
  8
Layer 1
 62
     7
370
    15
100
AcDbVertex
100
AcDb2dVertex
 10
336.80199367516
 20
8.400999835573007
 30
0.0
  0
VERTEX
  5
E8
330
DD
100
AcDbEntity
  8
Layer 1
 62
     7
370
    15
100
AcDbVertex
100
AcDb2dVertex
 10
337.2959816843377
 20
8.481001662104129
 30
0.0
  0
VERTEX
  5
E9
330
DD
100
AcDbEntity
  8
Layer 1
 62
     7
370
    15
100
AcDbVertex
100
AcDb2dVertex
 10
337.7419960634154
 20
8.706999574130153
 30
0.0
  0
VERTEX
  5
EA
330
DD
100
AcDbEntity
  8
Layer 1
 62
     7
370
    15
100
AcDbVertex
100
AcDb2dVertex
 10
338.0959999496489
 20
9.059996380342431
 30
0.0
  0
VERTEX
  5
EB
330
DD
100
AcDbEntity
  8
Layer 1
 62
     7
370
    15
100
AcDbVertex
100
AcDb2dVertex
 10
338.3229896829079
 20
9.505995500631991
 30
0.0
  0
VERTEX
  5
EC
330
DD
100
AcDbEntity
  8
Layer 1
 62
     7
370
    15
100
AcDbVertex
100
AcDb2dVertex
 10
338.401999688206
 20
10.00099821922494
 30
0.0
  0
VERTEX
  5
ED
330
DD
100
AcDbEntity
  8
Layer 1
 62
     7
370
    15
100
AcDbVertex
100
AcDb2dVertex
 10
338.3229896829079
 20
10.49499385779672
 30
0.0
  0
VERTEX
  5
EE
330
DD
100
AcDbEntity
  8
Layer 1
 62
     7
370
    15
100
AcDbVertex
100
AcDb2dVertex
 10
338.0959999496489
 20
10.94100060748038
 30
0.0
  0
VERTEX
  5
EF
330
DD
100
AcDbEntity
  8
Layer 1
 62
     7
370
    15
100
AcDbVertex
100
AcDb2dVertex
 10
337.7419960634154
 20
11.29499686431974
 30
0.0
  0
VERTEX
  5
F0
330
DD
100
AcDbEntity
  8
Layer 1
 62
     7
370
    15
100
AcDbVertex
100
AcDb2dVertex
 10
337.2959816843377
 20
11.52199422697284
 30
0.0
  0
VERTEX
  5
F1
330
DD
100
AcDbEntity
  8
Layer 1
 62
     7
370
    15
100
AcDbVertex
100
AcDb2dVertex
 10
336.80199367516
 20
11.60099660287688
 30
0.0
  0
VERTEX
  5
F2
330
DD
100
AcDbEntity
  8
Layer 1
 62
     7
370
    15
100
AcDbVertex
100
AcDb2dVertex
 10
336.3069985859611
 20
11.52199422697284
 30
0.0
  0
SEQEND
  5
F3
330
DD
100
AcDbEntity
  8
Layer 1
 62
     7
370
    15
  0
POLYLINE
  5
F4
330
1F
100
AcDbEntity
  8
Layer 1
 62
     7
370
    15
100
AcDb2dPolyline
 66
     1
 10
0.0
 20
0.0
 30
0.0
  0
VERTEX
  5
F5
330
F4
100
AcDbEntity
  8
Layer 1
 62
     7
370
    15
100
AcDbVertex
100
AcDb2dVertex
 10
9.50600979354763
 20
70.1479979921445
 30
0.0
  0
VERTEX
  5
F6
330
F4
100
AcDbEntity
  8
Layer 1
 62
     7
370
    15
100
AcDbVertex
100
AcDb2dVertex
 10
9.06001067325807
 20
69.9199935494702
 30
0.0
  0
VERTEX
  5
F7
330
F4
100
AcDbEntity
  8
Layer 1
 62
     7
370
    15
100
AcDbVertex
100
AcDb2dVertex
 10
8.70601060172166
 20
69.56599729263085
 30
0.0
  0
VERTEX
  5
F8
330
F4
100
AcDbEntity
  8
Layer 1
 62
     7
370
    15
100
AcDbVertex
100
AcDb2dVertex
 10
8.479010378045688
 20
69.11999054294719
 30
0.0
  0
VERTEX
  5
F9
330
F4
100
AcDbEntity
  8
Layer 1
 62
     7
370
    15
100
AcDbVertex
100
AcDb2dVertex
 10
8.400009909490333
 20
68.62599490437542
 30
0.0
  0
VERTEX
  5
FA
330
F4
100
AcDbEntity
  8
Layer 1
 62
     7
370
    15
100
AcDbVertex
100
AcDb2dVertex
 10
8.479010378045688
 20
68.13199163640954
 30
0.0
  0
VERTEX
  5
FB
330
F4
100
AcDbEntity
  8
Layer 1
 62
     7
370
    15
100
AcDbVertex
100
AcDb2dVertex
 10
8.70601060172166
 20
67.68599251611998
 30
0.0
  0
VERTEX
  5
FC
330
F4
100
AcDbEntity
  8
Layer 1
 62
     7
370
    15
100
AcDbVertex
100
AcDb2dVertex
 10
9.06001067325807
 20
67.33199625928063
 30
0.0
  0
VERTEX
  5
FD
330
F4
100
AcDbEntity
  8
Layer 1
 62
     7
370
    15
100
AcDbVertex
100
AcDb2dVertex
 10
9.50600979354763
 20
67.10399181660634
 30
0.0
  0
VERTEX
  5
FE
330
F4
100
AcDbEntity
  8
Layer 1
 62
     7
370
    15
100
AcDbVertex
100
AcDb2dVertex
 10
10.00001020049064
 20
67.02599652072348
 30
0.0
  0
VERTEX
  5
FF
330
F4
100
AcDbEntity
  8
Layer 1
 62
     7
370
    15
100
AcDbVertex
100
AcDb2dVertex
 10
10.49501005806072
 20
67.10399181660634
 30
0.0
  0
VERTEX
  5
100
330
F4
100
AcDbEntity
  8
Layer 1
 62
     7
370
    15
100
AcDbVertex
100
AcDb2dVertex
 10
10.94101013202479
 20
67.33199625928063
 30
0.0
  0
VERTEX
  5
101
330
F4
100
AcDbEntity
  8
Layer 1
 62
     7
370
    15
100
AcDbVertex
100
AcDb2dVertex
 10
11.29501020356087
 20
67.68599251611998
 30
0.0
  0
VERTEX
  5
102
330
F4
100
AcDbEntity
  8
Layer 1
 62
     7
370
    15
100
AcDbVertex
100
AcDb2dVertex
 10
11.52201042723685
 20
68.13199163640954
 30
0.0
  0
VERTEX
  5
103
330
F4
100
AcDbEntity
  8
Layer 1
 62
     7
370
    15
100
AcDbVertex
100
AcDb2dVertex
 10
11.60001049149094
 20
68.62599490437542
 30
0.0
  0
VERTEX
  5
104
330
F4
100
AcDbEntity
  8
Layer 1
 62
     7
370
    15
100
AcDbVertex
100
AcDb2dVertex
 10
11.52201042723685
 20
69.11999054294719
 30
0.0
  0
VERTEX
  5
105
330
F4
100
AcDbEntity
  8
Layer 1
 62
     7
370
    15
100
AcDbVertex
100
AcDb2dVertex
 10
11.29501020356087
 20
69.56599729263085
 30
0.0
  0
VERTEX
  5
106
330
F4
100
AcDbEntity
  8
Layer 1
 62
     7
370
    15
100
AcDbVertex
100
AcDb2dVertex
 10
10.94101013202479
 20
69.9199935494702
 30
0.0
  0
VERTEX
  5
107
330
F4
100
AcDbEntity
  8
Layer 1
 62
     7
370
    15
100
AcDbVertex
100
AcDb2dVertex
 10
10.49501005806072
 20
70.1479979921445
 30
0.0
  0
VERTEX
  5
108
330
F4
100
AcDbEntity
  8
Layer 1
 62
     7
370
    15
100
AcDbVertex
100
AcDb2dVertex
 10
10.00001020049064
 20
70.22599328802735
 30
0.0
  0
VERTEX
  5
109
330
F4
100
AcDbEntity
  8
Layer 1
 62
     7
370
    15
100
AcDbVertex
100
AcDb2dVertex
 10
9.50600979354763
 20
70.1479979921445
 30
0.0
  0
SEQEND
  5
10A
330
F4
100
AcDbEntity
  8
Layer 1
 62
     7
370
    15
  0
POLYLINE
  5
10B
330
1F
100
AcDbEntity
  8
Layer 1
 62
     7
370
    15
100
AcDb2dPolyline
 66
     1
 10
0.0
 20
0.0
 30
0.0
  0
VERTEX
  5
10C
330
10B
100
AcDbEntity
  8
Layer 1
 62
     7
370
    15
100
AcDbVertex
100
AcDb2dVertex
 10
336.3069985859611
 20
70.1479979921445
 30
0.0
  0
VERTEX
  5
10D
330
10B
100
AcDbEntity
  8
Layer 1
 62
     7
370
    15
100
AcDbVertex
100
AcDb2dVertex
 10
335.8609842068834
 20
69.9199935494702
 30
0.0
  0
VERTEX
  5
10E
330
10B
100
AcDbEntity
  8
Layer 1
 62
     7
370
    15
100
AcDbVertex
100
AcDb2dVertex
 10
335.5069803206499
 20
69.56599729263085
 30
0.0
  0
VERTEX
  5
10F
330
10B
100
AcDbEntity
  8
Layer 1
 62
     7
370
    15
100
AcDbVertex
100
AcDb2dVertex
 10
335.2799905873909
 20
69.11999054294719
 30
0.0
  0
VERTEX
  5
110
330
10B
100
AcDbEntity
  8
Layer 1
 62
     7
370
    15
100
AcDbVertex
100
AcDb2dVertex
 10
335.2019876621139
 20
68.62599490437542
 30
0.0
  0
VERTEX
  5
111
330
10B
100
AcDbEntity
  8
Layer 1
 62
     7
370
    15
100
AcDbVertex
100
AcDb2dVertex
 10
335.2799905873909
 20
68.13199163640954
 30
0.0
  0
VERTEX
  5
112
330
10B
100
AcDbEntity
  8
Layer 1
 62
     7
370
    15
100
AcDbVertex
100
AcDb2dVertex
 10
335.5069803206499
 20
67.68599251611998
 30
0.0
  0
VERTEX
  5
113
330
10B
100
AcDbEntity
  8
Layer 1
 62
     7
370
    15
100
AcDbVertex
100
AcDb2dVertex
 10
335.8609842068834
 20
67.33199625928063
 30
0.0
  0
VERTEX
  5
114
330
10B
100
AcDbEntity
  8
Layer 1
 62
     7
370
    15
100
AcDbVertex
100
AcDb2dVertex
 10
336.3069985859611
 20
67.10399181660634
 30
0.0
  0
VERTEX
  5
115
330
10B
100
AcDbEntity
  8
Layer 1
 62
     7
370
    15
100
AcDbVertex
100
AcDb2dVertex
 10
336.80199367516
 20
67.02599652072348
 30
0.0
  0
VERTEX
  5
116
330
10B
100
AcDbEntity
  8
Layer 1
 62
     7
370
    15
100
AcDbVertex
100
AcDb2dVertex
 10
337.2959816843377
 20
67.10399181660634
 30
0.0
  0
VERTEX
  5
117
330
10B
100
AcDbEntity
  8
Layer 1
 62
     7
370
    15
100
AcDbVertex
100
AcDb2dVertex
 10
337.7419960634154
 20
67.33199625928063
 30
0.0
  0
VERTEX
  5
118
330
10B
100
AcDbEntity
  8
Layer 1
 62
     7
370
    15
100
AcDbVertex
100
AcDb2dVertex
 10
338.0959999496489
 20
67.68599251611998
 30
0.0
  0
VERTEX
  5
119
330
10B
100
AcDbEntity
  8
Layer 1
 62
     7
370
    15
100
AcDbVertex
100
AcDb2dVertex
 10
338.3229896829079
 20
68.13199163640954
 30
0.0
  0
VERTEX
  5
11A
330
10B
100
AcDbEntity
  8
Layer 1
 62
     7
370
    15
100
AcDbVertex
100
AcDb2dVertex
 10
338.401999688206
 20
68.62599490437542
 30
0.0
  0
VERTEX
  5
11B
330
10B
100
AcDbEntity
  8
Layer 1
 62
     7
370
    15
100
AcDbVertex
100
AcDb2dVertex
 10
338.3229896829079
 20
69.11999054294719
 30
0.0
  0
VERTEX
  5
11C
330
10B
100
AcDbEntity
  8
Layer 1
 62
     7
370
    15
100
AcDbVertex
100
AcDb2dVertex
 10
338.0959999496489
 20
69.56599729263085
 30
0.0
  0
VERTEX
  5
11D
330
10B
100
AcDbEntity
  8
Layer 1
 62
     7
370
    15
100
AcDbVertex
100
AcDb2dVertex
 10
337.7419960634154
 20
69.9199935494702
 30
0.0
  0
VERTEX
  5
11E
330
10B
100
AcDbEntity
  8
Layer 1
 62
     7
370
    15
100
AcDbVertex
100
AcDb2dVertex
 10
337.2959816843377
 20
70.1479979921445
 30
0.0
  0
VERTEX
  5
11F
330
10B
100
AcDbEntity
  8
Layer 1
 62
     7
370
    15
100
AcDbVertex
100
AcDb2dVertex
 10
336.80199367516
 20
70.22599328802735
 30
0.0
  0
VERTEX
  5
120
330
10B
100
AcDbEntity
  8
Layer 1
 62
     7
370
    15
100
AcDbVertex
100
AcDb2dVertex
 10
336.3069985859611
 20
70.1479979921445
 30
0.0
  0
SEQEND
  5
121
330
10B
100
AcDbEntity
  8
Layer 1
 62
     7
370
    15
  0
POLYLINE
  5
122
330
1F
100
AcDbEntity
  8
Layer 1
 62
     7
370
    15
100
AcDb2dPolyline
 66
     1
 10
0.0
 20
0.0
 30
0.0
  0
VERTEX
  5
123
330
122
100
AcDbEntity
  8
Layer 1
 62
     7
370
    15
100
AcDbVertex
100
AcDb2dVertex
 10
9.50600979354763
 20
128.7729908625979
 30
0.0
  0
VERTEX
  5
124
330
122
100
AcDbEntity
  8
Layer 1
 62
     7
370
    15
100
AcDbVertex
100
AcDb2dVertex
 10
9.06001067325807
 20
128.5459906389219
 30
0.0
  0
VERTEX
  5
125
330
122
100
AcDbEntity
  8
Layer 1
 62
     7
370
    15
100
AcDbVertex
100
AcDb2dVertex
 10
8.70601060172166
 20
128.1919905673855
 30
0.0
  0
VERTEX
  5
126
330
122
100
AcDbEntity
  8
Layer 1
 62
     7
370
    15
100
AcDbVertex
100
AcDb2dVertex
 10
8.479010378045688
 20
127.745991447096
 30
0.0
  0
VERTEX
  5
127
330
122
100
AcDbEntity
  8
Layer 1
 62
     7
370
    15
100
AcDbVertex
100
AcDb2dVertex
 10
8.400009909490333
 20
127.2509906358517
 30
0.0
  0
VERTEX
  5
128
330
122
100
AcDbEntity
  8
Layer 1
 62
     7
370
    15
100
AcDbVertex
100
AcDb2dVertex
 10
8.479010378045688
 20
126.7569911825829
 30
0.0
  0
VERTEX
  5
129
330
122
100
AcDbEntity
  8
Layer 1
 62
     7
370
    15
100
AcDbVertex
100
AcDb2dVertex
 10
8.70601060172166
 20
126.3109911086188
 30
0.0
  0
VERTEX
  5
12A
330
122
100
AcDbEntity
  8
Layer 1
 62
     7
370
    15
100
AcDbVertex
100
AcDb2dVertex
 10
9.06001067325807
 20
125.9569910370827
 30
0.0
  0
VERTEX
  5
12B
330
122
100
AcDbEntity
  8
Layer 1
 62
     7
370
    15
100
AcDbVertex
100
AcDb2dVertex
 10
9.50600979354763
 20
125.7299908134068
 30
0.0
  0
VERTEX
  5
12C
330
122
100
AcDbEntity
  8
Layer 1
 62
     7
370
    15
100
AcDbVertex
100
AcDb2dVertex
 10
10.00001020049064
 20
125.6509912985256
 30
0.0
  0
VERTEX
  5
12D
330
122
100
AcDbEntity
  8
Layer 1
 62
     7
370
    15
100
AcDbVertex
100
AcDb2dVertex
 10
10.49501005806072
 20
125.7299908134068
 30
0.0
  0
VERTEX
  5
12E
330
122
100
AcDbEntity
  8
Layer 1
 62
     7
370
    15
100
AcDbVertex
100
AcDb2dVertex
 10
10.94101013202479
 20
125.9569910370827
 30
0.0
  0
VERTEX
  5
12F
330
122
100
AcDbEntity
  8
Layer 1
 62
     7
370
    15
100
AcDbVertex
100
AcDb2dVertex
 10
11.29501020356087
 20
126.3109911086188
 30
0.0
  0
VERTEX
  5
130
330
122
100
AcDbEntity
  8
Layer 1
 62
     7
370
    15
100
AcDbVertex
100
AcDb2dVertex
 10
11.52201042723685
 20
126.7569911825829
 30
0.0
  0
VERTEX
  5
131
330
122
100
AcDbEntity
  8
Layer 1
 62
     7
370
    15
100
AcDbVertex
100
AcDb2dVertex
 10
11.60001049149094
 20
127.2509906358517
 30
0.0
  0
VERTEX
  5
132
330
122
100
AcDbEntity
  8
Layer 1
 62
     7
370
    15
100
AcDbVertex
100
AcDb2dVertex
 10
11.52201042723685
 20
127.745991447096
 30
0.0
  0
VERTEX
  5
133
330
122
100
AcDbEntity
  8
Layer 1
 62
     7
370
    15
100
AcDbVertex
100
AcDb2dVertex
 10
11.29501020356087
 20
128.1919905673855
 30
0.0
  0
VERTEX
  5
134
330
122
100
AcDbEntity
  8
Layer 1
 62
     7
370
    15
100
AcDbVertex
100
AcDb2dVertex
 10
10.94101013202479
 20
128.5459906389219
 30
0.0
  0
VERTEX
  5
135
330
122
100
AcDbEntity
  8
Layer 1
 62
     7
370
    15
100
AcDbVertex
100
AcDb2dVertex
 10
10.49501005806072
 20
128.7729908625979
 30
0.0
  0
VERTEX
  5
136
330
122
100
AcDbEntity
  8
Layer 1
 62
     7
370
    15
100
AcDbVertex
100
AcDb2dVertex
 10
10.00001020049064
 20
128.850990926852
 30
0.0
  0
VERTEX
  5
137
330
122
100
AcDbEntity
  8
Layer 1
 62
     7
370
    15
100
AcDbVertex
100
AcDb2dVertex
 10
9.50600979354763
 20
128.7729908625979
 30
0.0
  0
SEQEND
  5
138
330
122
100
AcDbEntity
  8
Layer 1
 62
     7
370
    15
  0
POLYLINE
  5
139
330
1F
100
AcDbEntity
  8
Layer 1
 62
     7
370
    15
100
AcDb2dPolyline
 66
     1
 10
0.0
 20
0.0
 30
0.0
  0
VERTEX
  5
13A
330
139
100
AcDbEntity
  8
Layer 1
 62
     7
370
    15
100
AcDbVertex
100
AcDb2dVertex
 10
336.3069985859611
 20
128.7729908625979
 30
0.0
  0
VERTEX
  5
13B
330
139
100
AcDbEntity
  8
Layer 1
 62
     7
370
    15
100
AcDbVertex
100
AcDb2dVertex
 10
335.8609842068834
 20
128.5459906389219
 30
0.0
  0
VERTEX
  5
13C
330
139
100
AcDbEntity
  8
Layer 1
 62
     7
370
    15
100
AcDbVertex
100
AcDb2dVertex
 10
335.5069803206499
 20
128.1919905673855
 30
0.0
  0
VERTEX
  5
13D
330
139
100
AcDbEntity
  8
Layer 1
 62
     7
370
    15
100
AcDbVertex
100
AcDb2dVertex
 10
335.2799905873909
 20
127.745991447096
 30
0.0
  0
VERTEX
  5
13E
330
139
100
AcDbEntity
  8
Layer 1
 62
     7
370
    15
100
AcDbVertex
100
AcDb2dVertex
 10
335.2019876621139
 20
127.2509906358517
 30
0.0
  0
VERTEX
  5
13F
330
139
100
AcDbEntity
  8
Layer 1
 62
     7
370
    15
100
AcDbVertex
100
AcDb2dVertex
 10
335.2799905873909
 20
126.7569911825829
 30
0.0
  0
VERTEX
  5
140
330
139
100
AcDbEntity
  8
Layer 1
 62
     7
370
    15
100
AcDbVertex
100
AcDb2dVertex
 10
335.5069803206499
 20
126.3109911086188
 30
0.0
  0
VERTEX
  5
141
330
139
100
AcDbEntity
  8
Layer 1
 62
     7
370
    15
100
AcDbVertex
100
AcDb2dVertex
 10
335.8609842068834
 20
125.9569910370827
 30
0.0
  0
VERTEX
  5
142
330
139
100
AcDbEntity
  8
Layer 1
 62
     7
370
    15
100
AcDbVertex
100
AcDb2dVertex
 10
336.3069985859611
 20
125.7299908134068
 30
0.0
  0
VERTEX
  5
143
330
139
100
AcDbEntity
  8
Layer 1
 62
     7
370
    15
100
AcDbVertex
100
AcDb2dVertex
 10
336.80199367516
 20
125.6509912985256
 30
0.0
  0
VERTEX
  5
144
330
139
100
AcDbEntity
  8
Layer 1
 62
     7
370
    15
100
AcDbVertex
100
AcDb2dVertex
 10
337.2959816843377
 20
125.7299908134068
 30
0.0
  0
VERTEX
  5
145
330
139
100
AcDbEntity
  8
Layer 1
 62
     7
370
    15
100
AcDbVertex
100
AcDb2dVertex
 10
337.7419960634154
 20
125.9569910370827
 30
0.0
  0
VERTEX
  5
146
330
139
100
AcDbEntity
  8
Layer 1
 62
     7
370
    15
100
AcDbVertex
100
AcDb2dVertex
 10
338.0959999496489
 20
126.3109911086188
 30
0.0
  0
VERTEX
  5
147
330
139
100
AcDbEntity
  8
Layer 1
 62
     7
370
    15
100
AcDbVertex
100
AcDb2dVertex
 10
338.3229896829079
 20
126.7569911825829
 30
0.0
  0
VERTEX
  5
148
330
139
100
AcDbEntity
  8
Layer 1
 62
     7
370
    15
100
AcDbVertex
100
AcDb2dVertex
 10
338.401999688206
 20
127.2509906358517
 30
0.0
  0
VERTEX
  5
149
330
139
100
AcDbEntity
  8
Layer 1
 62
     7
370
    15
100
AcDbVertex
100
AcDb2dVertex
 10
338.3229896829079
 20
127.745991447096
 30
0.0
  0
VERTEX
  5
14A
330
139
100
AcDbEntity
  8
Layer 1
 62
     7
370
    15
100
AcDbVertex
100
AcDb2dVertex
 10
338.0959999496489
 20
128.1919905673855
 30
0.0
  0
VERTEX
  5
14B
330
139
100
AcDbEntity
  8
Layer 1
 62
     7
370
    15
100
AcDbVertex
100
AcDb2dVertex
 10
337.7419960634154
 20
128.5459906389219
 30
0.0
  0
VERTEX
  5
14C
330
139
100
AcDbEntity
  8
Layer 1
 62
     7
370
    15
100
AcDbVertex
100
AcDb2dVertex
 10
337.2959816843377
 20
128.7729908625979
 30
0.0
  0
VERTEX
  5
14D
330
139
100
AcDbEntity
  8
Layer 1
 62
     7
370
    15
100
AcDbVertex
100
AcDb2dVertex
 10
336.80199367516
 20
128.850990926852
 30
0.0
  0
VERTEX
  5
14E
330
139
100
AcDbEntity
  8
Layer 1
 62
     7
370
    15
100
AcDbVertex
100
AcDb2dVertex
 10
336.3069985859611
 20
128.7729908625979
 30
0.0
  0
SEQEND
  5
14F
330
139
100
AcDbEntity
  8
Layer 1
 62
     7
370
    15
  0
POLYLINE
  5
150
330
1F
100
AcDbEntity
  8
Layer 1
 62
     7
370
    15
100
AcDb2dPolyline
 66
     1
 10
0.0
 20
0.0
 30
0.0
  0
VERTEX
  5
151
330
150
100
AcDbEntity
  8
Layer 1
 62
     7
370
    15
100
AcDbVertex
100
AcDb2dVertex
 10
227.372999008142
 20
128.7729908625979
 30
0.0
  0
VERTEX
  5
152
330
150
100
AcDbEntity
  8
Layer 1
 62
     7
370
    15
100
AcDbVertex
100
AcDb2dVertex
 10
226.9269998878524
 20
128.5459906389219
 30
0.0
  0
VERTEX
  5
153
330
150
100
AcDbEntity
  8
Layer 1
 62
     7
370
    15
100
AcDbVertex
100
AcDb2dVertex
 10
226.5729960016189
 20
128.1919905673855
 30
0.0
  0
VERTEX
  5
154
330
150
100
AcDbEntity
  8
Layer 1
 62
     7
370
    15
100
AcDbVertex
100
AcDb2dVertex
 10
226.3459910095717
 20
127.745991447096
 30
0.0
  0
VERTEX
  5
155
330
150
100
AcDbEntity
  8
Layer 1
 62
     7
370
    15
100
AcDbVertex
100
AcDb2dVertex
 10
226.268003343083
 20
127.2509906358517
 30
0.0
  0
VERTEX
  5
156
330
150
100
AcDbEntity
  8
Layer 1
 62
     7
370
    15
100
AcDbVertex
100
AcDb2dVertex
 10
226.3459910095717
 20
126.7569911825829
 30
0.0
  0
VERTEX
  5
157
330
150
100
AcDbEntity
  8
Layer 1
 62
     7
370
    15
100
AcDbVertex
100
AcDb2dVertex
 10
226.5729960016189
 20
126.3109911086188
 30
0.0
  0
VERTEX
  5
158
330
150
100
AcDbEntity
  8
Layer 1
 62
     7
370
    15
100
AcDbVertex
100
AcDb2dVertex
 10
226.9269998878524
 20
125.9569910370827
 30
0.0
  0
VERTEX
  5
159
330
150
100
AcDbEntity
  8
Layer 1
 62
     7
370
    15
100
AcDbVertex
100
AcDb2dVertex
 10
227.372999008142
 20
125.7299908134068
 30
0.0
  0
VERTEX
  5
15A
330
150
100
AcDbEntity
  8
Layer 1
 62
     7
370
    15
100
AcDbVertex
100
AcDb2dVertex
 10
227.8679940973408
 20
125.6509912985256
 30
0.0
  0
VERTEX
  5
15B
330
150
100
AcDbEntity
  8
Layer 1
 62
     7
370
    15
100
AcDbVertex
100
AcDb2dVertex
 10
228.3619973653067
 20
125.7299908134068
 30
0.0
  0
VERTEX
  5
15C
330
150
100
AcDbEntity
  8
Layer 1
 62
     7
370
    15
100
AcDbVertex
100
AcDb2dVertex
 10
228.8079964855962
 20
125.9569910370827
 30
0.0
  0
VERTEX
  5
15D
330
150
100
AcDbEntity
  8
Layer 1
 62
     7
370
    15
100
AcDbVertex
100
AcDb2dVertex
 10
229.1620003718297
 20
126.3109911086188
 30
0.0
  0
VERTEX
  5
15E
330
150
100
AcDbEntity
  8
Layer 1
 62
     7
370
    15
100
AcDbVertex
100
AcDb2dVertex
 10
229.3899971851099
 20
126.7569911825829
 30
0.0
  0
VERTEX
  5
15F
330
150
100
AcDbEntity
  8
Layer 1
 62
     7
370
    15
100
AcDbVertex
100
AcDb2dVertex
 10
229.4680001103868
 20
127.2509906358517
 30
0.0
  0
VERTEX
  5
160
330
150
100
AcDbEntity
  8
Layer 1
 62
     7
370
    15
100
AcDbVertex
100
AcDb2dVertex
 10
229.3899971851099
 20
127.745991447096
 30
0.0
  0
VERTEX
  5
161
330
150
100
AcDbEntity
  8
Layer 1
 62
     7
370
    15
100
AcDbVertex
100
AcDb2dVertex
 10
229.1620003718297
 20
128.1919905673855
 30
0.0
  0
VERTEX
  5
162
330
150
100
AcDbEntity
  8
Layer 1
 62
     7
370
    15
100
AcDbVertex
100
AcDb2dVertex
 10
228.8079964855962
 20
128.5459906389219
 30
0.0
  0
VERTEX
  5
163
330
150
100
AcDbEntity
  8
Layer 1
 62
     7
370
    15
100
AcDbVertex
100
AcDb2dVertex
 10
228.3619973653067
 20
128.7729908625979
 30
0.0
  0
VERTEX
  5
164
330
150
100
AcDbEntity
  8
Layer 1
 62
     7
370
    15
100
AcDbVertex
100
AcDb2dVertex
 10
227.8679940973408
 20
128.850990926852
 30
0.0
  0
VERTEX
  5
165
330
150
100
AcDbEntity
  8
Layer 1
 62
     7
370
    15
100
AcDbVertex
100
AcDb2dVertex
 10
227.372999008142
 20
128.7729908625979
 30
0.0
  0
SEQEND
  5
166
330
150
100
AcDbEntity
  8
Layer 1
 62
     7
370
    15
  0
POLYLINE
  5
167
330
1F
100
AcDbEntity
  8
Layer 1
 62
     7
370
    15
100
AcDb2dPolyline
 66
     1
 10
0.0
 20
0.0
 30
0.0
  0
VERTEX
  5
168
330
167
100
AcDbEntity
  8
Layer 1
 62
     7
370
    15
100
AcDbVertex
100
AcDb2dVertex
 10
118.4400065103439
 20
128.7729908625979
 30
0.0
  0
VERTEX
  5
169
330
167
100
AcDbEntity
  8
Layer 1
 62
     7
370
    15
100
AcDbVertex
100
AcDb2dVertex
 10
117.9940073900544
 20
128.5459906389219
 30
0.0
  0
VERTEX
  5
16A
330
167
100
AcDbEntity
  8
Layer 1
 62
     7
370
    15
100
AcDbVertex
100
AcDb2dVertex
 10
117.6400035038209
 20
128.1919905673855
 30
0.0
  0
VERTEX
  5
16B
330
167
100
AcDbEntity
  8
Layer 1
 62
     7
370
    15
100
AcDbVertex
100
AcDb2dVertex
 10
117.4120066905407
 20
127.745991447096
 30
0.0
  0
VERTEX
  5
16C
330
167
100
AcDbEntity
  8
Layer 1
 62
     7
370
    15
100
AcDbVertex
100
AcDb2dVertex
 10
117.3340037652638
 20
127.2509906358517
 30
0.0
  0
VERTEX
  5
16D
330
167
100
AcDbEntity
  8
Layer 1
 62
     7
370
    15
100
AcDbVertex
100
AcDb2dVertex
 10
117.4120066905407
 20
126.7569911825829
 30
0.0
  0
VERTEX
  5
16E
330
167
100
AcDbEntity
  8
Layer 1
 62
     7
370
    15
100
AcDbVertex
100
AcDb2dVertex
 10
117.6400035038209
 20
126.3109911086188
 30
0.0
  0
VERTEX
  5
16F
330
167
100
AcDbEntity
  8
Layer 1
 62
     7
370
    15
100
AcDbVertex
100
AcDb2dVertex
 10
117.9940073900544
 20
125.9569910370827
 30
0.0
  0
VERTEX
  5
170
330
167
100
AcDbEntity
  8
Layer 1
 62
     7
370
    15
100
AcDbVertex
100
AcDb2dVertex
 10
118.4400065103439
 20
125.7299908134068
 30
0.0
  0
VERTEX
  5
171
330
167
100
AcDbEntity
  8
Layer 1
 62
     7
370
    15
100
AcDbVertex
100
AcDb2dVertex
 10
118.9340021489157
 20
125.6509912985256
 30
0.0
  0
VERTEX
  5
172
330
167
100
AcDbEntity
  8
Layer 1
 62
     7
370
    15
100
AcDbVertex
100
AcDb2dVertex
 10
119.4290048675087
 20
125.7299908134068
 30
0.0
  0
VERTEX
  5
173
330
167
100
AcDbEntity
  8
Layer 1
 62
     7
370
    15
100
AcDbVertex
100
AcDb2dVertex
 10
119.8750039877982
 20
125.9569910370827
 30
0.0
  0
VERTEX
  5
174
330
167
100
AcDbEntity
  8
Layer 1
 62
     7
370
    15
100
AcDbVertex
100
AcDb2dVertex
 10
120.2290002446376
 20
126.3109911086188
 30
0.0
  0
VERTEX
  5
175
330
167
100
AcDbEntity
  8
Layer 1
 62
     7
370
    15
100
AcDbVertex
100
AcDb2dVertex
 10
120.4560052366848
 20
126.7569911825829
 30
0.0
  0
VERTEX
  5
176
330
167
100
AcDbEntity
  8
Layer 1
 62
     7
370
    15
100
AcDbVertex
100
AcDb2dVertex
 10
120.5340005325677
 20
127.2509906358517
 30
0.0
  0
VERTEX
  5
177
330
167
100
AcDbEntity
  8
Layer 1
 62
     7
370
    15
100
AcDbVertex
100
AcDb2dVertex
 10
120.4560052366848
 20
127.745991447096
 30
0.0
  0
VERTEX
  5
178
330
167
100
AcDbEntity
  8
Layer 1
 62
     7
370
    15
100
AcDbVertex
100
AcDb2dVertex
 10
120.2290002446376
 20
128.1919905673855
 30
0.0
  0
VERTEX
  5
179
330
167
100
AcDbEntity
  8
Layer 1
 62
     7
370
    15
100
AcDbVertex
100
AcDb2dVertex
 10
119.8750039877982
 20
128.5459906389219
 30
0.0
  0
VERTEX
  5
17A
330
167
100
AcDbEntity
  8
Layer 1
 62
     7
370
    15
100
AcDbVertex
100
AcDb2dVertex
 10
119.4290048675087
 20
128.7729908625979
 30
0.0
  0
VERTEX
  5
17B
330
167
100
AcDbEntity
  8
Layer 1
 62
     7
370
    15
100
AcDbVertex
100
AcDb2dVertex
 10
118.9340021489157
 20
128.850990926852
 30
0.0
  0
VERTEX
  5
17C
330
167
100
AcDbEntity
  8
Layer 1
 62
     7
370
    15
100
AcDbVertex
100
AcDb2dVertex
 10
118.4400065103439
 20
128.7729908625979
 30
0.0
  0
SEQEND
  5
17D
330
167
100
AcDbEntity
  8
Layer 1
 62
     7
370
    15
  0
ENDSEC
  0
SECTION
  2
OBJECTS
  0
DICTIONARY
  5
C
330
0
100
AcDbDictionary
281
     1
  3
ACAD_GROUP
350
D
  3
ACAD_LAYOUT
350
1A
  3
ACAD_MATERIAL
350
3B
  3
ACAD_MLEADERSTYLE
350
1A5
  3
ACAD_MLINESTYLE
350
17
  3
ACAD_PLOTSETTINGS
350
19
  3
ACAD_PLOTSTYLENAME
350
E
  3
ACAD_TABLESTYLE
350
1A4
  3
ACAD_VISUALSTYLE
350
2A
  0
DICTIONARY
  5
D
102
{ACAD_REACTORS
330
C
102
}
330
C
100
AcDbDictionary
281
     1
  0
DICTIONARY
  5
1A
102
{ACAD_REACTORS
330
C
102
}
330
C
100
AcDbDictionary
281
     1
  3
Layout1
350
1E
  3
Layout2
350
26
  3
Model
350
22
  0
DICTIONARY
  5
3B
102
{ACAD_REACTORS
330
C
102
}
330
C
100
AcDbDictionary
281
     1
  3
ByBlock
350
3D
  3
ByLayer
350
3C
  3
Global
350
3E
  0
DICTIONARY
  5
1A5
102
{ACAD_REACTORS
330
C
102
}
330
C
100
AcDbDictionary
281
     1
  0
DICTIONARY
  5
17
102
{ACAD_REACTORS
330
C
102
}
330
C
100
AcDbDictionary
281
     1
  3
Standard
350
18
  0
DICTIONARY
  5
19
102
{ACAD_REACTORS
330
C
102
}
330
C
100
AcDbDictionary
281
     1
  0
ACDBDICTIONARYWDFLT
  5
E
102
{ACAD_REACTORS
330
C
102
}
330
C
100
AcDbDictionary
281
     1
  3
Normal
350
F
100
AcDbDictionaryWithDefault
340
F
  0
DICTIONARY
  5
1A4
102
{ACAD_REACTORS
330
C
102
}
330
C
100
AcDbDictionary
281
     1
  0
DICTIONARY
  5
2A
102
{ACAD_REACTORS
330
C
102
}
330
C
100
AcDbDictionary
281
     1
  3
2dWireframe
350
2F
  3
3D Hidden
350
31
  3
3dWireframe
350
30
  3
Basic
350
32
  3
Brighten
350
36
  3
ColorChange
350
3A
  3
Conceptual
350
34
  3
Dim
350
35
  3
Facepattern
350
39
  3
Flat
350
2B
  3
FlatWithEdges
350
2C
  3
Gouraud
350
2D
  3
GouraudWithEdges
350
2E
  3
Linepattern
350
38
  3
Realistic
350
33
  3
Thicken
350
37
  0
LAYOUT
  5
1E
102
{ACAD_REACTORS
330
1A
102
}
330
1A
100
AcDbPlotSettings
  1

  2
none_device
  4

  6

 40
0.0
 41
0.0
 42
0.0
 43
0.0
 44
0.0
 45
0.0
 46
0.0
 47
0.0
 48
0.0
 49
0.0
140
0.0
141
0.0
142
1.0
143
1.0
 70
   688
 72
     0
 73
     0
 74
     5
  7

 75
    16
 76
     0
 77
     2
 78
   300
147
1.0
148
0.0
149
0.0
100
AcDbLayout
  1
Layout1
 70
     1
 71
     1
 10
0.0
 20
0.0
 11
12.0
 21
9.0
 12
0.0
 22
0.0
 32
0.0
 14
1.000000000000000E+20
 24
1.000000000000000E+20
 34
1.000000000000000E+20
 15
-1.000000000000000E+20
 25
-1.000000000000000E+20
 35
-1.000000000000000E+20
146
0.0
 13
0.0
 23
0.0
 33
0.0
 16
1.0
 26
0.0
 36
0.0
 17
0.0
 27
1.0
 37
0.0
 76
     0
330
1B
  0
LAYOUT
  5
26
102
{ACAD_REACTORS
330
1A
102
}
330
1A
100
AcDbPlotSettings
  1

  2
none_device
  4

  6

 40
0.0
 41
0.0
 42
0.0
 43
0.0
 44
0.0
 45
0.0
 46
0.0
 47
0.0
 48
0.0
 49
0.0
140
0.0
141
0.0
142
1.0
143
1.0
 70
   688
 72
     0
 73
     0
 74
     5
  7

 75
    16
 76
     0
 77
     2
 78
   300
147
1.0
148
0.0
149
0.0
100
AcDbLayout
  1
Layout2
 70
     1
 71
     2
 10
0.0
 20
0.0
 11
0.0
 21
0.0
 12
0.0
 22
0.0
 32
0.0
 14
0.0
 24
0.0
 34
0.0
 15
0.0
 25
0.0
 35
0.0
146
0.0
 13
0.0
 23
0.0
 33
0.0
 16
1.0
 26
0.0
 36
0.0
 17
0.0
 27
1.0
 37
0.0
 76
     0
330
23
  0
LAYOUT
  5
22
102
{ACAD_REACTORS
330
1A
102
}
330
1A
100
AcDbPlotSettings
  1

  2
none_device
  4

  6

 40
0.0
 41
0.0
 42
0.0
 43
0.0
 44
0.0
 45
0.0
 46
0.0
 47
0.0
 48
0.0
 49
0.0
140
0.0
141
0.0
142
1.0
143
1.0
 70
  1712
 72
     0
 73
     0
 74
     0
  7

 75
     0
 76
     0
 77
     2
 78
   300
147
1.0
148
0.0
149
0.0
100
AcDbLayout
  1
Model
 70
     1
 71
     0
 10
0.0
 20
0.0
 11
12.0
 21
9.0
 12
0.0
 22
0.0
 32
0.0
 14
1.000000000000000E+20
 24
1.000000000000000E+20
 34
1.000000000000000E+20
 15
-1.000000000000000E+20
 25
-1.000000000000000E+20
 35
-1.000000000000000E+20
146
0.0
 13
0.0
 23
0.0
 33
0.0
 16
1.0
 26
0.0
 36
0.0
 17
0.0
 27
1.0
 37
0.0
 76
     0
330
1F
331
29
  0
MATERIAL
  5
3D
102
{ACAD_REACTORS
330
3B
102
}
102
{ACAD_XDICTIONARY
360
1A0
102
}
330
3B
100
AcDbMaterial
  1
ByBlock
  0
MATERIAL
  5
3C
102
{ACAD_REACTORS
330
3B
102
}
102
{ACAD_XDICTIONARY
360
19E
102
}
330
3B
100
AcDbMaterial
  1
ByLayer
  0
MATERIAL
  5
3E
102
{ACAD_REACTORS
330
3B
102
}
102
{ACAD_XDICTIONARY
360
1A2
102
}
330
3B
100
AcDbMaterial
  1
Global
  0
MLINESTYLE
  5
18
102
{ACAD_REACTORS
330
17
102
}
330
17
100
AcDbMlineStyle
  2
Standard
 70
     0
  3

 62
   256
 51
90.0
 52
90.0
 71
     2
 49
0.5
 62
   256
  6
BYLAYER
 49
-0.5
 62
   256
  6
BYLAYER
  0
ACDBPLACEHOLDER
  5
F
102
{ACAD_REACTORS
330
E
102
}
330
E
  0
VISUALSTYLE
  5
2F
102
{ACAD_REACTORS
330
2A
102
}
102
{ACAD_XDICTIONARY
360
186
102
}
330
2A
100
AcDbVisualStyle
  2
2dWireframe
 70
     4
 71
     0
 72
     2
 73
     0
 90
        0
 40
-0.6
 41
-30.0
 62
     5
 63
     7
421
 16777215
 74
     1
 91
        4
 64
     7
 65
   257
 75
     1
175
     1
 42
1.0
 92
        0
 66
   257
 43
1.0
 76
     1
 77
     6
 78
     2
 67
     7
 79
     5
170
     0
171
     0
290
     0
174
     0
 93
        1
 44
0.0
173
     0
291
     0
 45
0.0
1001
ACAD
1000
AcDbSavedByObjectVersion
1070
     0
  0
VISUALSTYLE
  5
31
102
{ACAD_REACTORS
330
2A
102
}
102
{ACAD_XDICTIONARY
360
18A
102
}
330
2A
100
AcDbVisualStyle
  2
3D Hidden
 70
     6
 71
     1
 72
     2
 73
     2
 90
        0
 40
-0.6
 41
-30.0
 62
     5
 63
     7
421
 16777215
 74
     2
 91
        2
 64
     7
 65
   257
 75
     2
175
     1
 42
40.0
 92
        0
 66
   257
 43
1.0
 76
     1
 77
     6
 78
     2
 67
     7
 79
     3
170
     0
171
     0
290
     0
174
     0
 93
        1
 44
0.0
173
     0
291
     0
 45
0.0
1001
ACAD
1000
AcDbSavedByObjectVersion
1070
     0
  0
VISUALSTYLE
  5
30
102
{ACAD_REACTORS
330
2A
102
}
102
{ACAD_XDICTIONARY
360
188
102
}
330
2A
100
AcDbVisualStyle
  2
3dWireframe
 70
     5
 71
     0
 72
     2
 73
     0
 90
        0
 40
-0.6
 41
-30.0
 62
     5
 63
     7
421
 16777215
 74
     1
 91
        4
 64
     7
 65
   257
 75
     1
175
     1
 42
1.0
 92
        0
 66
   257
 43
1.0
 76
     1
 77
     6
 78
     2
 67
     7
 79
     5
170
     0
171
     0
290
     0
174
     0
 93
        1
 44
0.0
173
     0
291
     0
 45
0.0
1001
ACAD
1000
AcDbSavedByObjectVersion
1070
     0
  0
VISUALSTYLE
  5
32
102
{ACAD_REACTORS
330
2A
102
}
102
{ACAD_XDICTIONARY
360
18C
102
}
330
2A
100
AcDbVisualStyle
  2
Basic
 70
     7
 71
     1
 72
     0
 73
     1
 90
        0
 40
-0.6
 41
-30.0
 62
     5
 63
     7
421
 16777215
 74
     0
 91
        4
 64
     7
 65
   257
 75
     1
175
     1
 42
1.0
 92
        8
 66
     7
 43
1.0
 76
     1
 77
     6
 78
     2
 67
     7
 79
     5
170
     0
171
     0
290
     0
174
     0
 93
        1
 44
0.0
173
     0
291
     1
 45
0.0
1001
ACAD
1000
AcDbSavedByObjectVersion
1070
     0
  0
VISUALSTYLE
  5
36
102
{ACAD_REACTORS
330
2A
102
}
102
{ACAD_XDICTIONARY
360
194
102
}
330
2A
100
AcDbVisualStyle
  2
Brighten
 70
    12
 71
     2
 72
     2
 73
     0
 90
        0
 40
-0.6
 41
-30.0
 62
     5
 63
     7
421
 16777215
 74
     1
 91
        4
 64
     7
 65
   257
 75
     1
175
     1
 42
1.0
 92
        8
 66
     7
 43
1.0
 76
     1
 77
     6
 78
     2
 67
     7
 79
     5
170
     0
171
     0
290
     0
174
     0
 93
        1
 44
50.0
173
     0
291
     1
 45
0.0
1001
ACAD
1000
AcDbSavedByObjectVersion
1070
     0
  0
VISUALSTYLE
  5
3A
102
{ACAD_REACTORS
330
2A
102
}
102
{ACAD_XDICTIONARY
360
19C
102
}
330
2A
100
AcDbVisualStyle
  2
ColorChange
 70
    16
 71
     2
 72
     2
 73
     3
 90
        0
 40
-0.6
 41
-30.0
 62
     5
 63
     8
421
  8421504
 74
     1
 91
        4
 64
     7
 65
   257
 75
     1
175
     1
 42
1.0
 92
        8
 66
     8
424
  8421504
 43
1.0
 76
     1
 77
     6
 78
     2
 67
     7
 79
     5
170
     0
171
     0
290
     0
174
     0
 93
        1
 44
0.0
173
     0
291
     1
 45
0.0
1001
ACAD
1000
AcDbSavedByObjectVersion
1070
     0
  0
VISUALSTYLE
  5
34
102
{ACAD_REACTORS
330
2A
102
}
102
{ACAD_XDICTIONARY
360
190
102
}
330
2A
100
AcDbVisualStyle
  2
Conceptual
 70
     9
 71
     3
 72
     2
 73
     0
 90
        0
 40
-0.6
 41
-30.0
 62
     5
 63
     7
421
 16777215
 74
     2
 91
        2
 64
     7
 65
   257
 75
     1
175
     1
 42
40.0
 92
        8
 66
     7
 43
1.0
 76
     1
 77
     6
 78
     2
 67
     7
 79
     3
170
     0
171
     0
290
     0
174
     0
 93
        1
 44
0.0
173
     0
291
     0
 45
0.0
1001
ACAD
1000
AcDbSavedByObjectVersion
1070
     0
  0
VISUALSTYLE
  5
35
102
{ACAD_REACTORS
330
2A
102
}
102
{ACAD_XDICTIONARY
360
192
102
}
330
2A
100
AcDbVisualStyle
  2
Dim
 70
    11
 71
     2
 72
     2
 73
     0
 90
        0
 40
-0.6
 41
-30.0
 62
     5
 63
     7
421
 16777215
 74
     1
 91
        4
 64
     7
 65
   257
 75
     1
175
     1
 42
1.0
 92
        8
 66
     7
 43
1.0
 76
     1
 77
     6
 78
     2
 67
     7
 79
     5
170
     0
171
     0
290
     0
174
     0
 93
        1
 44
-50.0
173
     0
291
     1
 45
0.0
1001
ACAD
1000
AcDbSavedByObjectVersion
1070
     0
  0
VISUALSTYLE
  5
39
102
{ACAD_REACTORS
330
2A
102
}
102
{ACAD_XDICTIONARY
360
19A
102
}
330
2A
100
AcDbVisualStyle
  2
Facepattern
 70
    15
 71
     2
 72
     2
 73
     0
 90
        0
 40
-0.6
 41
-30.0
 62
     5
 63
     7
421
 16777215
 74
     1
 91
        4
 64
     7
 65
   257
 75
     1
175
     1
 42
1.0
 92
        8
 66
     7
 43
1.0
 76
     1
 77
     6
 78
     2
 67
     7
 79
     5
170
     0
171
     0
290
     0
174
     0
 93
        1
 44
0.0
173
     0
291
     1
 45
0.0
1001
ACAD
1000
AcDbSavedByObjectVersion
1070
     0
  0
VISUALSTYLE
  5
2B
102
{ACAD_REACTORS
330
2A
102
}
102
{ACAD_XDICTIONARY
360
17E
102
}
330
2A
100
AcDbVisualStyle
  2
Flat
 70
     0
 71
     2
 72
     1
 73
     1
 90
        2
 40
-0.6
 41
30.0
 62
     5
 63
     7
421
 16777215
 74
     0
 91
        4
 64
     7
 65
   257
 75
     1
175
     1
 42
1.0
 92
        8
 66
     7
 43
1.0
 76
     1
 77
     6
 78
     2
 67
     7
 79
     5
170
     0
171
     0
290
     0
174
     0
 93
       13
 44
0.0
173
     0
291
     1
 45
0.0
1001
ACAD
1000
AcDbSavedByObjectVersion
1070
     0
  0
VISUALSTYLE
  5
2C
102
{ACAD_REACTORS
330
2A
102
}
102
{ACAD_XDICTIONARY
360
180
102
}
330
2A
100
AcDbVisualStyle
  2
FlatWithEdges
 70
     1
 71
     2
 72
     1
 73
     1
 90
        2
 40
-0.6
 41
30.0
 62
     5
 63
     7
421
 16777215
 74
     1
 91
        4
 64
     7
 65
   257
 75
     1
175
     1
 42
1.0
 92
        0
 66
   257
 43
1.0
 76
     1
 77
     6
 78
     2
 67
     7
 79
     5
170
     0
171
     0
290
     0
174
     0
 93
       13
 44
0.0
173
     0
291
     1
 45
0.0
1001
ACAD
1000
AcDbSavedByObjectVersion
1070
     0
  0
VISUALSTYLE
  5
2D
102
{ACAD_REACTORS
330
2A
102
}
102
{ACAD_XDICTIONARY
360
182
102
}
330
2A
100
AcDbVisualStyle
  2
Gouraud
 70
     2
 71
     2
 72
     2
 73
     1
 90
        2
 40
-0.6
 41
30.0
 62
     5
 63
     7
421
 16777215
 74
     0
 91
        4
 64
     7
 65
   257
 75
     1
175
     1
 42
1.0
 92
        0
 66
     7
 43
1.0
 76
     1
 77
     6
 78
     2
 67
     7
 79
     5
170
     0
171
     0
290
     0
174
     0
 93
       13
 44
0.0
173
     0
291
     1
 45
0.0
1001
ACAD
1000
AcDbSavedByObjectVersion
1070
     0
  0
VISUALSTYLE
  5
2E
102
{ACAD_REACTORS
330
2A
102
}
102
{ACAD_XDICTIONARY
360
184
102
}
330
2A
100
AcDbVisualStyle
  2
GouraudWithEdges
 70
     3
 71
     2
 72
     2
 73
     1
 90
        2
 40
-0.6
 41
30.0
 62
     5
 63
     7
421
 16777215
 74
     1
 91
        4
 64
     7
 65
   257
 75
     1
175
     1
 42
1.0
 92
        0
 66
   257
 43
1.0
 76
     1
 77
     6
 78
     2
 67
     7
 79
     5
170
     0
171
     0
290
     0
174
     0
 93
       13
 44
0.0
173
     0
291
     1
 45
0.0
1001
ACAD
1000
AcDbSavedByObjectVersion
1070
     0
  0
VISUALSTYLE
  5
38
102
{ACAD_REACTORS
330
2A
102
}
102
{ACAD_XDICTIONARY
360
198
102
}
330
2A
100
AcDbVisualStyle
  2
Linepattern
 70
    14
 71
     2
 72
     2
 73
     0
 90
        0
 40
-0.6
 41
-30.0
 62
     5
 63
     7
421
 16777215
 74
     1
 91
        4
 64
     7
 65
   257
 75
     7
175
     7
 42
1.0
 92
        8
 66
     7
 43
1.0
 76
     1
 77
     6
 78
     2
 67
     7
 79
     5
170
     0
171
     0
290
     0
174
     0
 93
        1
 44
0.0
173
     0
291
     1
 45
0.0
1001
ACAD
1000
AcDbSavedByObjectVersion
1070
     0
  0
VISUALSTYLE
  5
33
102
{ACAD_REACTORS
330
2A
102
}
102
{ACAD_XDICTIONARY
360
18E
102
}
330
2A
100
AcDbVisualStyle
  2
Realistic
 70
     8
 71
     2
 72
     2
 73
     0
 90
        0
 40
-0.6
 41
-30.0
 62
     5
 63
     7
421
 16777215
 74
     1
 91
        0
 64
     7
 65
   257
 75
     1
175
     1
 42
1.0
 92
        8
 66
     8
424
  7895160
 43
1.0
 76
     1
 77
     6
 78
     2
 67
     7
 79
     5
170
     0
171
     0
290
     0
174
     0
 93
       13
 44
0.0
173
     0
291
     0
 45
0.0
1001
ACAD
1000
AcDbSavedByObjectVersion
1070
     0
  0
VISUALSTYLE
  5
37
102
{ACAD_REACTORS
330
2A
102
}
102
{ACAD_XDICTIONARY
360
196
102
}
330
2A
100
AcDbVisualStyle
  2
Thicken
 70
    13
 71
     2
 72
     2
 73
     0
 90
        0
 40
-0.6
 41
-30.0
 62
     5
 63
     7
421
 16777215
 74
     1
 91
        4
 64
     7
 65
   257
 75
     1
175
     1
 42
1.0
 92
       12
 66
     7
 43
1.0
 76
     1
 77
     6
 78
     2
 67
     7
 79
     5
170
     0
171
     0
290
     0
174
     0
 93
        1
 44
0.0
173
     0
291
     1
 45
0.0
1001
ACAD
1000
AcDbSavedByObjectVersion
1070
     0
  0
DICTIONARY
  5
1A0
330
3D
100
AcDbDictionary
280
     1
281
     1
  3
ACAD_XREC_ROUNDTRIP
360
1A1
  0
DICTIONARY
  5
19E
330
3C
100
AcDbDictionary
280
     1
281
     1
  3
ACAD_XREC_ROUNDTRIP
360
19F
  0
DICTIONARY
  5
1A2
330
3E
100
AcDbDictionary
280
     1
281
     1
  3
ACAD_XREC_ROUNDTRIP
360
1A3
  0
DICTIONARY
  5
186
330
2F
100
AcDbDictionary
280
     1
281
     1
  3
ACAD_XREC_ROUNDTRIP
360
187
  0
DICTIONARY
  5
18A
330
31
100
AcDbDictionary
280
     1
281
     1
  3
ACAD_XREC_ROUNDTRIP
360
18B
  0
DICTIONARY
  5
188
330
30
100
AcDbDictionary
280
     1
281
     1
  3
ACAD_XREC_ROUNDTRIP
360
189
  0
DICTIONARY
  5
18C
330
32
100
AcDbDictionary
280
     1
281
     1
  3
ACAD_XREC_ROUNDTRIP
360
18D
  0
DICTIONARY
  5
194
330
36
100
AcDbDictionary
280
     1
281
     1
  3
ACAD_XREC_ROUNDTRIP
360
195
  0
DICTIONARY
  5
19C
330
3A
100
AcDbDictionary
280
     1
281
     1
  3
ACAD_XREC_ROUNDTRIP
360
19D
  0
DICTIONARY
  5
190
330
34
100
AcDbDictionary
280
     1
281
     1
  3
ACAD_XREC_ROUNDTRIP
360
191
  0
DICTIONARY
  5
192
330
35
100
AcDbDictionary
280
     1
281
     1
  3
ACAD_XREC_ROUNDTRIP
360
193
  0
DICTIONARY
  5
19A
330
39
100
AcDbDictionary
280
     1
281
     1
  3
ACAD_XREC_ROUNDTRIP
360
19B
  0
DICTIONARY
  5
17E
330
2B
100
AcDbDictionary
280
     1
281
     1
  3
ACAD_XREC_ROUNDTRIP
360
17F
  0
DICTIONARY
  5
180
330
2C
100
AcDbDictionary
280
     1
281
     1
  3
ACAD_XREC_ROUNDTRIP
360
181
  0
DICTIONARY
  5
182
330
2D
100
AcDbDictionary
280
     1
281
     1
  3
ACAD_XREC_ROUNDTRIP
360
183
  0
DICTIONARY
  5
184
330
2E
100
AcDbDictionary
280
     1
281
     1
  3
ACAD_XREC_ROUNDTRIP
360
185
  0
DICTIONARY
  5
198
330
38
100
AcDbDictionary
280
     1
281
     1
  3
ACAD_XREC_ROUNDTRIP
360
199
  0
DICTIONARY
  5
18E
330
33
100
AcDbDictionary
280
     1
281
     1
  3
ACAD_XREC_ROUNDTRIP
360
18F
  0
DICTIONARY
  5
196
330
37
100
AcDbDictionary
280
     1
281
     1
  3
ACAD_XREC_ROUNDTRIP
360
197
  0
XRECORD
  5
1A1
102
{ACAD_REACTORS
330
1A0
102
}
330
1A0
100
AcDbXrecord
280
     1
102
MATERIAL
148
0.0
149
0.0
149
0.0
 93
        0
 94
      127
282
     0
 72
     1
 77
     1
171
     1
175
     1
179
     1
273
     0
  0
XRECORD
  5
19F
102
{ACAD_REACTORS
330
19E
102
}
330
19E
100
AcDbXrecord
280
     1
102
MATERIAL
148
0.0
149
0.0
149
0.0
 93
        0
 94
      127
282
     0
 72
     1
 77
     1
171
     1
175
     1
179
     1
273
     0
  0
XRECORD
  5
1A3
102
{ACAD_REACTORS
330
1A2
102
}
330
1A2
100
AcDbXrecord
280
     1
102
MATERIAL
148
0.0
149
0.0
149
0.0
 93
        0
 94
      127
282
     0
 72
     1
 77
     1
171
     1
175
     1
179
     1
273
     0
  0
XRECORD
  5
187
102
{ACAD_REACTORS
330
186
102
}
330
186
100
AcDbXrecord
280
     1
102
RTVSPropertyOp0
 70
     1
102
RTVSPropertyOp1
 70
     1
102
RTVSPropertyOp2
 70
     1
102
RTVSPropertyOp3
 70
     1
102
RTVSPropertyOp4
 70
     1
102
RTVSPropertyOp5
 70
     1
102
RTVSPropertyOp6
 70
     1
102
RTVSPropertyOp7
 70
     1
102
RTVSPropertyOp8
 70
     1
102
RTVSPropertyOp9
 70
     1
102
RTVSPropertyOp10
 70
     1
102
RTVSPropertyOp11
 70
     1
102
RTVSPropertyOp12
 70
     1
102
RTVSPropertyOp13
 70
     1
102
RTVSPropertyOp14
 70
     1
102
RTVSPropertyOp15
 70
     1
102
RTVSPropertyOp16
 70
     1
102
RTVSPropertyOp17
 70
     1
102
RTVSPropertyOp18
 70
     1
102
RTVSPropertyOp19
 70
     1
102
RTVSPropertyOp20
 70
     1
102
RTVSPropertyOp21
 70
     1
102
RTVSPropertyOp22
 70
     1
102
RTVSPropertyOp23
 70
     1
102
RTVSPropertyOp24
 70
     1
102
RTVSPropertyOp25
 70
     1
102
RTVSPropertyOp26
 70
     1
102
RTVSPropertyOp27
 70
     1
102
RTVSPropertyOp28
 70
     1
102
RTVSPropertyOp29
 70
     1
102
RTVSPropertyOp30
 70
     1
102
RTVSPropertyOp31
 70
     1
102
RTVSPropertyOp32
 70
     1
  0
XRECORD
  5
18B
102
{ACAD_REACTORS
330
18A
102
}
330
18A
100
AcDbXrecord
280
     1
102
RTVSPropertyOp0
 70
     1
102
RTVSPropertyOp1
 70
     1
102
RTVSPropertyOp2
 70
     1
102
RTVSPropertyOp3
 70
     1
102
RTVSPropertyOp4
 70
     1
102
RTVSPropertyOp5
 70
     1
102
RTVSPropertyOp6
 70
     1
102
RTVSPropertyOp7
 70
     1
102
RTVSPropertyOp8
 70
     1
102
RTVSPropertyOp9
 70
     1
102
RTVSPropertyOp10
 70
     1
102
RTVSPropertyOp11
 70
     1
102
RTVSPropertyOp12
 70
     1
102
RTVSPropertyOp13
 70
     1
102
RTVSPropertyOp14
 70
     1
102
RTVSPropertyOp15
 70
     1
102
RTVSPropertyOp16
 70
     1
102
RTVSPropertyOp17
 70
     1
102
RTVSPropertyOp18
 70
     1
102
RTVSPropertyOp19
 70
     1
102
RTVSPropertyOp20
 70
     1
102
RTVSPropertyOp21
 70
     1
102
RTVSPropertyOp22
 70
     1
102
RTVSPropertyOp23
 70
     1
102
RTVSPropertyOp24
 70
     1
102
RTVSPropertyOp25
 70
     1
102
RTVSPropertyOp26
 70
     1
102
RTVSPropertyOp27
 70
     1
102
RTVSPropertyOp28
 70
     1
102
RTVSPropertyOp29
 70
     1
102
RTVSPropertyOp30
 70
     1
102
RTVSPropertyOp31
 70
     1
102
RTVSPropertyOp32
 70
     1
  0
XRECORD
  5
189
102
{ACAD_REACTORS
330
188
102
}
330
188
100
AcDbXrecord
280
     1
102
RTVSPropertyOp0
 70
     1
102
RTVSPropertyOp1
 70
     1
102
RTVSPropertyOp2
 70
     1
102
RTVSPropertyOp3
 70
     1
102
RTVSPropertyOp4
 70
     1
102
RTVSPropertyOp5
 70
     1
102
RTVSPropertyOp6
 70
     1
102
RTVSPropertyOp7
 70
     1
102
RTVSPropertyOp8
 70
     1
102
RTVSPropertyOp9
 70
     1
102
RTVSPropertyOp10
 70
     1
102
RTVSPropertyOp11
 70
     1
102
RTVSPropertyOp12
 70
     1
102
RTVSPropertyOp13
 70
     1
102
RTVSPropertyOp14
 70
     1
102
RTVSPropertyOp15
 70
     1
102
RTVSPropertyOp16
 70
     1
102
RTVSPropertyOp17
 70
     1
102
RTVSPropertyOp18
 70
     1
102
RTVSPropertyOp19
 70
     1
102
RTVSPropertyOp20
 70
     1
102
RTVSPropertyOp21
 70
     1
102
RTVSPropertyOp22
 70
     1
102
RTVSPropertyOp23
 70
     1
102
RTVSPropertyOp24
 70
     1
102
RTVSPropertyOp25
 70
     1
102
RTVSPropertyOp26
 70
     1
102
RTVSPropertyOp27
 70
     1
102
RTVSPropertyOp28
 70
     1
102
RTVSPropertyOp29
 70
     1
102
RTVSPropertyOp30
 70
     1
102
RTVSPropertyOp31
 70
     1
102
RTVSPropertyOp32
 70
     1
  0
XRECORD
  5
18D
102
{ACAD_REACTORS
330
18C
102
}
330
18C
100
AcDbXrecord
280
     1
102
RTVSPropertyOp0
 70
     1
102
RTVSPropertyOp1
 70
     1
102
RTVSPropertyOp2
 70
     1
102
RTVSPropertyOp3
 70
     1
102
RTVSPropertyOp4
 70
     1
102
RTVSPropertyOp5
 70
     1
102
RTVSPropertyOp6
 70
     1
102
RTVSPropertyOp7
 70
     1
102
RTVSPropertyOp8
 70
     1
102
RTVSPropertyOp9
 70
     1
102
RTVSPropertyOp10
 70
     1
102
RTVSPropertyOp11
 70
     1
102
RTVSPropertyOp12
 70
     1
102
RTVSPropertyOp13
 70
     1
102
RTVSPropertyOp14
 70
     1
102
RTVSPropertyOp15
 70
     1
102
RTVSPropertyOp16
 70
     1
102
RTVSPropertyOp17
 70
     1
102
RTVSPropertyOp18
 70
     1
102
RTVSPropertyOp19
 70
     1
102
RTVSPropertyOp20
 70
     1
102
RTVSPropertyOp21
 70
     1
102
RTVSPropertyOp22
 70
     1
102
RTVSPropertyOp23
 70
     1
102
RTVSPropertyOp24
 70
     1
102
RTVSPropertyOp25
 70
     1
102
RTVSPropertyOp26
 70
     1
102
RTVSPropertyOp27
 70
     1
102
RTVSPropertyOp28
 70
     1
102
RTVSPropertyOp29
 70
     1
102
RTVSPropertyOp30
 70
     1
102
RTVSPropertyOp31
 70
     1
102
RTVSPropertyOp32
 70
     1
  0
XRECORD
  5
195
102
{ACAD_REACTORS
330
194
102
}
330
194
100
AcDbXrecord
280
     1
102
RTVSPropertyOp0
 70
     1
102
RTVSPropertyOp1
 70
     1
102
RTVSPropertyOp2
 70
     1
102
RTVSPropertyOp3
 70
     1
102
RTVSPropertyOp4
 70
     1
102
RTVSPropertyOp5
 70
     1
102
RTVSPropertyOp6
 70
     1
102
RTVSPropertyOp7
 70
     1
102
RTVSPropertyOp8
 70
     1
102
RTVSPropertyOp9
 70
     1
102
RTVSPropertyOp10
 70
     1
102
RTVSPropertyOp11
 70
     1
102
RTVSPropertyOp12
 70
     1
102
RTVSPropertyOp13
 70
     1
102
RTVSPropertyOp14
 70
     1
102
RTVSPropertyOp15
 70
     1
102
RTVSPropertyOp16
 70
     1
102
RTVSPropertyOp17
 70
     1
102
RTVSPropertyOp18
 70
     1
102
RTVSPropertyOp19
 70
     1
102
RTVSPropertyOp20
 70
     1
102
RTVSPropertyOp21
 70
     1
102
RTVSPropertyOp22
 70
     1
102
RTVSPropertyOp23
 70
     1
102
RTVSPropertyOp24
 70
     1
102
RTVSPropertyOp25
 70
     1
102
RTVSPropertyOp26
 70
     1
102
RTVSPropertyOp27
 70
     1
102
RTVSPropertyOp28
 70
     1
102
RTVSPropertyOp29
 70
     1
102
RTVSPropertyOp30
 70
     1
102
RTVSPropertyOp31
 70
     1
102
RTVSPropertyOp32
 70
     1
  0
XRECORD
  5
19D
102
{ACAD_REACTORS
330
19C
102
}
330
19C
100
AcDbXrecord
280
     1
102
RTVSPropertyOp0
 70
     1
102
RTVSPropertyOp1
 70
     1
102
RTVSPropertyOp2
 70
     1
102
RTVSPropertyOp3
 70
     1
102
RTVSPropertyOp4
 70
     1
102
RTVSPropertyOp5
 70
     1
102
RTVSPropertyOp6
 70
     1
102
RTVSPropertyOp7
 70
     1
102
RTVSPropertyOp8
 70
     1
102
RTVSPropertyOp9
 70
     1
102
RTVSPropertyOp10
 70
     1
102
RTVSPropertyOp11
 70
     1
102
RTVSPropertyOp12
 70
     1
102
RTVSPropertyOp13
 70
     1
102
RTVSPropertyOp14
 70
     1
102
RTVSPropertyOp15
 70
     1
102
RTVSPropertyOp16
 70
     1
102
RTVSPropertyOp17
 70
     1
102
RTVSPropertyOp18
 70
     1
102
RTVSPropertyOp19
 70
     1
102
RTVSPropertyOp20
 70
     1
102
RTVSPropertyOp21
 70
     1
102
RTVSPropertyOp22
 70
     1
102
RTVSPropertyOp23
 70
     1
102
RTVSPropertyOp24
 70
     1
102
RTVSPropertyOp25
 70
     1
102
RTVSPropertyOp26
 70
     1
102
RTVSPropertyOp27
 70
     1
102
RTVSPropertyOp28
 70
     1
102
RTVSPropertyOp29
 70
     1
102
RTVSPropertyOp30
 70
     1
102
RTVSPropertyOp31
 70
     1
102
RTVSPropertyOp32
 70
     1
  0
XRECORD
  5
191
102
{ACAD_REACTORS
330
190
102
}
330
190
100
AcDbXrecord
280
     1
102
RTVSPropertyOp0
 70
     1
102
RTVSPropertyOp1
 70
     1
102
RTVSPropertyOp2
 70
     1
102
RTVSPropertyOp3
 70
     1
102
RTVSPropertyOp4
 70
     1
102
RTVSPropertyOp5
 70
     1
102
RTVSPropertyOp6
 70
     1
102
RTVSPropertyOp7
 70
     1
102
RTVSPropertyOp8
 70
     1
102
RTVSPropertyOp9
 70
     1
102
RTVSPropertyOp10
 70
     1
102
RTVSPropertyOp11
 70
     1
102
RTVSPropertyOp12
 70
     1
102
RTVSPropertyOp13
 70
     1
102
RTVSPropertyOp14
 70
     1
102
RTVSPropertyOp15
 70
     1
102
RTVSPropertyOp16
 70
     1
102
RTVSPropertyOp17
 70
     1
102
RTVSPropertyOp18
 70
     1
102
RTVSPropertyOp19
 70
     1
102
RTVSPropertyOp20
 70
     1
102
RTVSPropertyOp21
 70
     1
102
RTVSPropertyOp22
 70
     1
102
RTVSPropertyOp23
 70
     1
102
RTVSPropertyOp24
 70
     1
102
RTVSPropertyOp25
 70
     1
102
RTVSPropertyOp26
 70
     1
102
RTVSPropertyOp27
 70
     1
102
RTVSPropertyOp28
 70
     1
102
RTVSPropertyOp29
 70
     1
102
RTVSPropertyOp30
 70
     1
102
RTVSPropertyOp31
 70
     1
102
RTVSPropertyOp32
 70
     1
  0
XRECORD
  5
193
102
{ACAD_REACTORS
330
192
102
}
330
192
100
AcDbXrecord
280
     1
102
RTVSPropertyOp0
 70
     1
102
RTVSPropertyOp1
 70
     1
102
RTVSPropertyOp2
 70
     1
102
RTVSPropertyOp3
 70
     1
102
RTVSPropertyOp4
 70
     1
102
RTVSPropertyOp5
 70
     1
102
RTVSPropertyOp6
 70
     1
102
RTVSPropertyOp7
 70
     1
102
RTVSPropertyOp8
 70
     1
102
RTVSPropertyOp9
 70
     1
102
RTVSPropertyOp10
 70
     1
102
RTVSPropertyOp11
 70
     1
102
RTVSPropertyOp12
 70
     1
102
RTVSPropertyOp13
 70
     1
102
RTVSPropertyOp14
 70
     1
102
RTVSPropertyOp15
 70
     1
102
RTVSPropertyOp16
 70
     1
102
RTVSPropertyOp17
 70
     1
102
RTVSPropertyOp18
 70
     1
102
RTVSPropertyOp19
 70
     1
102
RTVSPropertyOp20
 70
     1
102
RTVSPropertyOp21
 70
     1
102
RTVSPropertyOp22
 70
     1
102
RTVSPropertyOp23
 70
     1
102
RTVSPropertyOp24
 70
     1
102
RTVSPropertyOp25
 70
     1
102
RTVSPropertyOp26
 70
     1
102
RTVSPropertyOp27
 70
     1
102
RTVSPropertyOp28
 70
     1
102
RTVSPropertyOp29
 70
     1
102
RTVSPropertyOp30
 70
     1
102
RTVSPropertyOp31
 70
     1
102
RTVSPropertyOp32
 70
     1
  0
XRECORD
  5
19B
102
{ACAD_REACTORS
330
19A
102
}
330
19A
100
AcDbXrecord
280
     1
102
RTVSPropertyOp0
 70
     1
102
RTVSPropertyOp1
 70
     1
102
RTVSPropertyOp2
 70
     1
102
RTVSPropertyOp3
 70
     1
102
RTVSPropertyOp4
 70
     1
102
RTVSPropertyOp5
 70
     1
102
RTVSPropertyOp6
 70
     1
102
RTVSPropertyOp7
 70
     1
102
RTVSPropertyOp8
 70
     1
102
RTVSPropertyOp9
 70
     1
102
RTVSPropertyOp10
 70
     1
102
RTVSPropertyOp11
 70
     1
102
RTVSPropertyOp12
 70
     1
102
RTVSPropertyOp13
 70
     1
102
RTVSPropertyOp14
 70
     1
102
RTVSPropertyOp15
 70
     1
102
RTVSPropertyOp16
 70
     1
102
RTVSPropertyOp17
 70
     1
102
RTVSPropertyOp18
 70
     1
102
RTVSPropertyOp19
 70
     1
102
RTVSPropertyOp20
 70
     1
102
RTVSPropertyOp21
 70
     1
102
RTVSPropertyOp22
 70
     1
102
RTVSPropertyOp23
 70
     1
102
RTVSPropertyOp24
 70
     1
102
RTVSPropertyOp25
 70
     1
102
RTVSPropertyOp26
 70
     1
102
RTVSPropertyOp27
 70
     1
102
RTVSPropertyOp28
 70
     1
102
RTVSPropertyOp29
 70
     1
102
RTVSPropertyOp30
 70
     1
102
RTVSPropertyOp31
 70
     1
102
RTVSPropertyOp32
 70
     1
  0
XRECORD
  5
17F
102
{ACAD_REACTORS
330
17E
102
}
330
17E
100
AcDbXrecord
280
     1
102
RTVSPropertyOp0
 70
     1
102
RTVSPropertyOp1
 70
     1
102
RTVSPropertyOp2
 70
     1
102
RTVSPropertyOp3
 70
     1
102
RTVSPropertyOp4
 70
     1
102
RTVSPropertyOp5
 70
     1
102
RTVSPropertyOp6
 70
     1
102
RTVSPropertyOp7
 70
     1
102
RTVSPropertyOp8
 70
     1
102
RTVSPropertyOp9
 70
     1
102
RTVSPropertyOp10
 70
     1
102
RTVSPropertyOp11
 70
     1
102
RTVSPropertyOp12
 70
     1
102
RTVSPropertyOp13
 70
     1
102
RTVSPropertyOp14
 70
     1
102
RTVSPropertyOp15
 70
     1
102
RTVSPropertyOp16
 70
     1
102
RTVSPropertyOp17
 70
     1
102
RTVSPropertyOp18
 70
     1
102
RTVSPropertyOp19
 70
     1
102
RTVSPropertyOp20
 70
     1
102
RTVSPropertyOp21
 70
     1
102
RTVSPropertyOp22
 70
     1
102
RTVSPropertyOp23
 70
     1
102
RTVSPropertyOp24
 70
     1
102
RTVSPropertyOp25
 70
     1
102
RTVSPropertyOp26
 70
     1
102
RTVSPropertyOp27
 70
     1
102
RTVSPropertyOp28
 70
     1
102
RTVSPropertyOp29
 70
     1
102
RTVSPropertyOp30
 70
     1
102
RTVSPropertyOp31
 70
     1
102
RTVSPropertyOp32
 70
     1
  0
XRECORD
  5
181
102
{ACAD_REACTORS
330
180
102
}
330
180
100
AcDbXrecord
280
     1
102
RTVSPropertyOp0
 70
     1
102
RTVSPropertyOp1
 70
     1
102
RTVSPropertyOp2
 70
     1
102
RTVSPropertyOp3
 70
     1
102
RTVSPropertyOp4
 70
     1
102
RTVSPropertyOp5
 70
     1
102
RTVSPropertyOp6
 70
     1
102
RTVSPropertyOp7
 70
     1
102
RTVSPropertyOp8
 70
     1
102
RTVSPropertyOp9
 70
     1
102
RTVSPropertyOp10
 70
     1
102
RTVSPropertyOp11
 70
     1
102
RTVSPropertyOp12
 70
     1
102
RTVSPropertyOp13
 70
     1
102
RTVSPropertyOp14
 70
     1
102
RTVSPropertyOp15
 70
     1
102
RTVSPropertyOp16
 70
     1
102
RTVSPropertyOp17
 70
     1
102
RTVSPropertyOp18
 70
     1
102
RTVSPropertyOp19
 70
     1
102
RTVSPropertyOp20
 70
     1
102
RTVSPropertyOp21
 70
     1
102
RTVSPropertyOp22
 70
     1
102
RTVSPropertyOp23
 70
     1
102
RTVSPropertyOp24
 70
     1
102
RTVSPropertyOp25
 70
     1
102
RTVSPropertyOp26
 70
     1
102
RTVSPropertyOp27
 70
     1
102
RTVSPropertyOp28
 70
     1
102
RTVSPropertyOp29
 70
     1
102
RTVSPropertyOp30
 70
     1
102
RTVSPropertyOp31
 70
     1
102
RTVSPropertyOp32
 70
     1
  0
XRECORD
  5
183
102
{ACAD_REACTORS
330
182
102
}
330
182
100
AcDbXrecord
280
     1
102
RTVSPropertyOp0
 70
     1
102
RTVSPropertyOp1
 70
     1
102
RTVSPropertyOp2
 70
     1
102
RTVSPropertyOp3
 70
     1
102
RTVSPropertyOp4
 70
     1
102
RTVSPropertyOp5
 70
     1
102
RTVSPropertyOp6
 70
     1
102
RTVSPropertyOp7
 70
     1
102
RTVSPropertyOp8
 70
     1
102
RTVSPropertyOp9
 70
     1
102
RTVSPropertyOp10
 70
     1
102
RTVSPropertyOp11
 70
     1
102
RTVSPropertyOp12
 70
     1
102
RTVSPropertyOp13
 70
     1
102
RTVSPropertyOp14
 70
     1
102
RTVSPropertyOp15
 70
     1
102
RTVSPropertyOp16
 70
     1
102
RTVSPropertyOp17
 70
     1
102
RTVSPropertyOp18
 70
     1
102
RTVSPropertyOp19
 70
     1
102
RTVSPropertyOp20
 70
     1
102
RTVSPropertyOp21
 70
     1
102
RTVSPropertyOp22
 70
     1
102
RTVSPropertyOp23
 70
     1
102
RTVSPropertyOp24
 70
     1
102
RTVSPropertyOp25
 70
     1
102
RTVSPropertyOp26
 70
     1
102
RTVSPropertyOp27
 70
     1
102
RTVSPropertyOp28
 70
     1
102
RTVSPropertyOp29
 70
     1
102
RTVSPropertyOp30
 70
     1
102
RTVSPropertyOp31
 70
     1
102
RTVSPropertyOp32
 70
     1
  0
XRECORD
  5
185
102
{ACAD_REACTORS
330
184
102
}
330
184
100
AcDbXrecord
280
     1
102
RTVSPropertyOp0
 70
     1
102
RTVSPropertyOp1
 70
     1
102
RTVSPropertyOp2
 70
     1
102
RTVSPropertyOp3
 70
     1
102
RTVSPropertyOp4
 70
     1
102
RTVSPropertyOp5
 70
     1
102
RTVSPropertyOp6
 70
     1
102
RTVSPropertyOp7
 70
     1
102
RTVSPropertyOp8
 70
     1
102
RTVSPropertyOp9
 70
     1
102
RTVSPropertyOp10
 70
     1
102
RTVSPropertyOp11
 70
     1
102
RTVSPropertyOp12
 70
     1
102
RTVSPropertyOp13
 70
     1
102
RTVSPropertyOp14
 70
     1
102
RTVSPropertyOp15
 70
     1
102
RTVSPropertyOp16
 70
     1
102
RTVSPropertyOp17
 70
     1
102
RTVSPropertyOp18
 70
     1
102
RTVSPropertyOp19
 70
     1
102
RTVSPropertyOp20
 70
     1
102
RTVSPropertyOp21
 70
     1
102
RTVSPropertyOp22
 70
     1
102
RTVSPropertyOp23
 70
     1
102
RTVSPropertyOp24
 70
     1
102
RTVSPropertyOp25
 70
     1
102
RTVSPropertyOp26
 70
     1
102
RTVSPropertyOp27
 70
     1
102
RTVSPropertyOp28
 70
     1
102
RTVSPropertyOp29
 70
     1
102
RTVSPropertyOp30
 70
     1
102
RTVSPropertyOp31
 70
     1
102
RTVSPropertyOp32
 70
     1
  0
XRECORD
  5
199
102
{ACAD_REACTORS
330
198
102
}
330
198
100
AcDbXrecord
280
     1
102
RTVSPropertyOp0
 70
     1
102
RTVSPropertyOp1
 70
     1
102
RTVSPropertyOp2
 70
     1
102
RTVSPropertyOp3
 70
     1
102
RTVSPropertyOp4
 70
     1
102
RTVSPropertyOp5
 70
     1
102
RTVSPropertyOp6
 70
     1
102
RTVSPropertyOp7
 70
     1
102
RTVSPropertyOp8
 70
     1
102
RTVSPropertyOp9
 70
     1
102
RTVSPropertyOp10
 70
     1
102
RTVSPropertyOp11
 70
     1
102
RTVSPropertyOp12
 70
     1
102
RTVSPropertyOp13
 70
     1
102
RTVSPropertyOp14
 70
     1
102
RTVSPropertyOp15
 70
     1
102
RTVSPropertyOp16
 70
     1
102
RTVSPropertyOp17
 70
     1
102
RTVSPropertyOp18
 70
     1
102
RTVSPropertyOp19
 70
     1
102
RTVSPropertyOp20
 70
     1
102
RTVSPropertyOp21
 70
     1
102
RTVSPropertyOp22
 70
     1
102
RTVSPropertyOp23
 70
     1
102
RTVSPropertyOp24
 70
     1
102
RTVSPropertyOp25
 70
     1
102
RTVSPropertyOp26
 70
     1
102
RTVSPropertyOp27
 70
     1
102
RTVSPropertyOp28
 70
     1
102
RTVSPropertyOp29
 70
     1
102
RTVSPropertyOp30
 70
     1
102
RTVSPropertyOp31
 70
     1
102
RTVSPropertyOp32
 70
     1
  0
XRECORD
  5
18F
102
{ACAD_REACTORS
330
18E
102
}
330
18E
100
AcDbXrecord
280
     1
102
RTVSPropertyOp0
 70
     1
102
RTVSPropertyOp1
 70
     1
102
RTVSPropertyOp2
 70
     1
102
RTVSPropertyOp3
 70
     1
102
RTVSPropertyOp4
 70
     1
102
RTVSPropertyOp5
 70
     1
102
RTVSPropertyOp6
 70
     1
102
RTVSPropertyOp7
 70
     1
102
RTVSPropertyOp8
 70
     1
102
RTVSPropertyOp9
 70
     1
102
RTVSPropertyOp10
 70
     1
102
RTVSPropertyOp11
 70
     1
102
RTVSPropertyOp12
 70
     1
102
RTVSPropertyOp13
 70
     1
102
RTVSPropertyOp14
 70
     1
102
RTVSPropertyOp15
 70
     1
102
RTVSPropertyOp16
 70
     1
102
RTVSPropertyOp17
 70
     1
102
RTVSPropertyOp18
 70
     1
102
RTVSPropertyOp19
 70
     1
102
RTVSPropertyOp20
 70
     1
102
RTVSPropertyOp21
 70
     1
102
RTVSPropertyOp22
 70
     1
102
RTVSPropertyOp23
 70
     1
102
RTVSPropertyOp24
 70
     1
102
RTVSPropertyOp25
 70
     1
102
RTVSPropertyOp26
 70
     1
102
RTVSPropertyOp27
 70
     1
102
RTVSPropertyOp28
 70
     1
102
RTVSPropertyOp29
 70
     1
102
RTVSPropertyOp30
 70
     1
102
RTVSPropertyOp31
 70
     1
102
RTVSPropertyOp32
 70
     1
  0
XRECORD
  5
197
102
{ACAD_REACTORS
330
196
102
}
330
196
100
AcDbXrecord
280
     1
102
RTVSPropertyOp0
 70
     1
102
RTVSPropertyOp1
 70
     1
102
RTVSPropertyOp2
 70
     1
102
RTVSPropertyOp3
 70
     1
102
RTVSPropertyOp4
 70
     1
102
RTVSPropertyOp5
 70
     1
102
RTVSPropertyOp6
 70
     1
102
RTVSPropertyOp7
 70
     1
102
RTVSPropertyOp8
 70
     1
102
RTVSPropertyOp9
 70
     1
102
RTVSPropertyOp10
 70
     1
102
RTVSPropertyOp11
 70
     1
102
RTVSPropertyOp12
 70
     1
102
RTVSPropertyOp13
 70
     1
102
RTVSPropertyOp14
 70
     1
102
RTVSPropertyOp15
 70
     1
102
RTVSPropertyOp16
 70
     1
102
RTVSPropertyOp17
 70
     1
102
RTVSPropertyOp18
 70
     1
102
RTVSPropertyOp19
 70
     1
102
RTVSPropertyOp20
 70
     1
102
RTVSPropertyOp21
 70
     1
102
RTVSPropertyOp22
 70
     1
102
RTVSPropertyOp23
 70
     1
102
RTVSPropertyOp24
 70
     1
102
RTVSPropertyOp25
 70
     1
102
RTVSPropertyOp26
 70
     1
102
RTVSPropertyOp27
 70
     1
102
RTVSPropertyOp28
 70
     1
102
RTVSPropertyOp29
 70
     1
102
RTVSPropertyOp30
 70
     1
102
RTVSPropertyOp31
 70
     1
102
RTVSPropertyOp32
 70
     1
  0
ENDSEC
  0
EOF
