  0
SECTION
  2
HEADER
  9
$ACADVER
  1
AC1009
  9
$EXTMIN
 10
0.0
 20
0.0
 30
0.0
  9
$EXTMAX
 10
1000.0
 20
1000.0
 30
0.0
  9
$FILLMODE
 70
 0
  9
$SPLFRAME
 70
 1
  0
ENDSEC
  0
SECTION
  2
TABLES
  0
TABLE
  2
LAYER
 70
1
  0
LAYER
  2
0
 70
     0
 62
     7
  6
CONTINUOUS
  0
ENDTAB
  0
ENDSEC
  0
SECTION
  2
ENTITIES
  0
LINE
  8
0
 62
     0
 10
334.897
 20
127.61
 30
0.0
 11
335.052
 21
127.604
 31
0.0
  0
LINE
  8
0
 62
     0
 10
335.052
 20
127.604
 30
0.0
 11
335.209
 21
127.586
 31
0.0
  0
LINE
  8
0
 62
     0
 10
335.209
 20
127.586
 30
0.0
 11
335.362
 21
127.555
 31
0.0
  0
LINE
  8
0
 62
     0
 10
335.362
 20
127.555
 30
0.0
 11
335.515
 21
127.513
 31
0.0
  0
LINE
  8
0
 62
     0
 10
335.515
 20
127.513
 30
0.0
 11
335.661
 21
127.458
 31
0.0
  0
LINE
  8
0
 62
     0
 10
335.661
 20
127.458
 30
0.0
 11
335.803
 21
127.393
 31
0.0
  0
LINE
  8
0
 62
     0
 10
335.803
 20
127.393
 30
0.0
 11
335.941
 21
127.316
 31
0.0
  0
LINE
  8
0
 62
     0
 10
335.941
 20
127.316
 30
0.0
 11
336.072
 21
127.229
 31
0.0
  0
LINE
  8
0
 62
     0
 10
336.072
 20
127.229
 30
0.0
 11
336.194
 21
127.131
 31
0.0
  0
LINE
  8
0
 62
     0
 10
336.194
 20
127.131
 30
0.0
 11
336.31
 21
127.025
 31
0.0
  0
LINE
  8
0
 62
     0
 10
336.31
 20
127.025
 30
0.0
 11
336.416
 21
126.909
 31
0.0
  0
LINE
  8
0
 62
     0
 10
336.416
 20
126.909
 30
0.0
 11
336.514
 21
126.787
 31
0.0
  0
LINE
  8
0
 62
     0
 10
336.514
 20
126.787
 30
0.0
 11
336.601
 21
126.655
 31
0.0
  0
LINE
  8
0
 62
     0
 10
336.601
 20
126.655
 30
0.0
 11
336.678
 21
126.518
 31
0.0
  0
LINE
  8
0
 62
     0
 10
336.678
 20
126.518
 30
0.0
 11
336.743
 21
126.376
 31
0.0
  0
LINE
  8
0
 62
     0
 10
336.743
 20
126.376
 30
0.0
 11
336.798
 21
126.23
 31
0.0
  0
LINE
  8
0
 62
     0
 10
336.798
 20
126.23
 30
0.0
 11
336.841
 21
126.077
 31
0.0
  0
LINE
  8
0
 62
     0
 10
336.841
 20
126.077
 30
0.0
 11
336.871
 21
125.924
 31
0.0
  0
LINE
  8
0
 62
     0
 10
336.871
 20
125.924
 30
0.0
 11
336.889
 21
125.767
 31
0.0
  0
LINE
  8
0
 62
     0
 10
336.889
 20
125.767
 30
0.0
 11
336.896
 21
125.61
 31
0.0
  0
LINE
  8
0
 62
     0
 10
336.896
 20
125.61
 30
0.0
 11
336.896
 21
2.36058
 31
0.0
  0
LINE
  8
0
 62
     0
 10
336.896
 20
2.36058
 30
0.0
 11
336.889
 21
2.20348
 31
0.0
  0
LINE
  8
0
 62
     0
 10
336.889
 20
2.20348
 30
0.0
 11
336.871
 21
2.04777
 31
0.0
  0
LINE
  8
0
 62
     0
 10
336.871
 20
2.04777
 30
0.0
 11
336.841
 21
1.89343
 31
0.0
  0
LINE
  8
0
 62
     0
 10
336.841
 20
1.89343
 30
0.0
 11
336.798
 21
1.74046
 31
0.0
  0
LINE
  8
0
 62
     0
 10
336.798
 20
1.74046
 30
0.0
 11
336.743
 21
1.59577
 31
0.0
  0
LINE
  8
0
 62
     0
 10
336.743
 20
1.59577
 30
0.0
 11
336.678
 21
1.45245
 31
0.0
  0
LINE
  8
0
 62
     0
 10
336.678
 20
1.45245
 30
0.0
 11
336.601
 21
1.31465
 31
0.0
  0
LINE
  8
0
 62
     0
 10
336.601
 20
1.31465
 30
0.0
 11
336.514
 21
1.18374
 31
0.0
  0
LINE
  8
0
 62
     0
 10
336.514
 20
1.18374
 30
0.0
 11
336.416
 21
1.06109
 31
0.0
  0
LINE
  8
0
 62
     0
 10
336.416
 20
1.06109
 30
0.0
 11
336.31
 21
0.945335
 31
0.0
  0
LINE
  8
0
 62
     0
 10
336.31
 20
0.945335
 30
0.0
 11
336.194
 21
0.839227
 31
0.0
  0
LINE
  8
0
 62
     0
 10
336.194
 20
0.839227
 30
0.0
 11
336.072
 21
0.741384
 31
0.0
  0
LINE
  8
0
 62
     0
 10
336.072
 20
0.741384
 30
0.0
 11
335.941
 21
0.654569
 31
0.0
  0
LINE
  8
0
 62
     0
 10
335.941
 20
0.654569
 30
0.0
 11
335.803
 21
0.577398
 31
0.0
  0
LINE
  8
0
 62
     0
 10
335.803
 20
0.577398
 30
0.0
 11
335.661
 21
0.512632
 31
0.0
  0
LINE
  8
0
 62
     0
 10
335.661
 20
0.512632
 30
0.0
 11
335.515
 21
0.45751
 31
0.0
  0
LINE
  8
0
 62
     0
 10
335.515
 20
0.45751
 30
0.0
 11
335.362
 21
0.414789
 31
0.0
  0
LINE
  8
0
 62
     0
 10
335.362
 20
0.414789
 30
0.0
 11
335.209
 21
0.384471
 31
0.0
  0
LINE
  8
0
 62
     0
 10
335.209
 20
0.384471
 30
0.0
 11
335.052
 21
0.366557
 31
0.0
  0
LINE
  8
0
 62
     0
 10
335.052
 20
0.366557
 30
0.0
 11
334.897
 21
0.359668
 31
0.0
  0
LINE
  8
0
 62
     0
 10
334.897
 20
0.359668
 30
0.0
 11
2.096
 21
0.359668
 31
0.0
  0
LINE
  8
0
 62
     0
 10
2.096
 20
0.359668
 30
0.0
 11
1.9389
 21
0.366557
 31
0.0
  0
LINE
  8
0
 62
     0
 10
1.9389
 20
0.366557
 30
0.0
 11
1.7818
 21
0.384471
 31
0.0
  0
LINE
  8
0
 62
     0
 10
1.7818
 20
0.384471
 30
0.0
 11
1.62884
 21
0.414789
 31
0.0
  0
LINE
  8
0
 62
     0
 10
1.62884
 20
0.414789
 30
0.0
 11
1.47588
 21
0.45751
 31
0.0
  0
LINE
  8
0
 62
     0
 10
1.47588
 20
0.45751
 30
0.0
 11
1.32981
 21
0.512632
 31
0.0
  0
LINE
  8
0
 62
     0
 10
1.32981
 20
0.512632
 30
0.0
 11
1.18787
 21
0.577398
 31
0.0
  0
LINE
  8
0
 62
     0
 10
1.18787
 20
0.577398
 30
0.0
 11
1.05006
 21
0.654569
 31
0.0
  0
LINE
  8
0
 62
     0
 10
1.05006
 20
0.654569
 30
0.0
 11
0.919152
 21
0.741384
 31
0.0
  0
LINE
  8
0
 62
     0
 10
0.919152
 20
0.741384
 30
0.0
 11
0.796505
 21
0.839227
 31
0.0
  0
LINE
  8
0
 62
     0
 10
0.796505
 20
0.839227
 30
0.0
 11
0.680752
 21
0.945335
 31
0.0
  0
LINE
  8
0
 62
     0
 10
0.680752
 20
0.945335
 30
0.0
 11
0.574643
 21
1.06109
 31
0.0
  0
LINE
  8
0
 62
     0
 10
0.574643
 20
1.06109
 30
0.0
 11
0.4768
 21
1.18374
 31
0.0
  0
LINE
  8
0
 62
     0
 10
0.4768
 20
1.18374
 30
0.0
 11
0.389985
 21
1.31465
 31
0.0
  0
LINE
  8
0
 62
     0
 10
0.389985
 20
1.31465
 30
0.0
 11
0.312815
 21
1.45245
 31
0.0
  0
LINE
  8
0
 62
     0
 10
0.312815
 20
1.45245
 30
0.0
 11
0.248047
 21
1.59577
 31
0.0
  0
LINE
  8
0
 62
     0
 10
0.248047
 20
1.59577
 30
0.0
 11
0.192925
 21
1.74046
 31
0.0
  0
LINE
  8
0
 62
     0
 10
0.192925
 20
1.74046
 30
0.0
 11
0.150206
 21
1.89343
 31
0.0
  0
LINE
  8
0
 62
     0
 10
0.150206
 20
1.89343
 30
0.0
 11
0.119889
 21
2.04777
 31
0.0
  0
LINE
  8
0
 62
     0
 10
0.119889
 20
2.04777
 30
0.0
 11
0.101975
 21
2.20348
 31
0.0
  0
LINE
  8
0
 62
     0
 10
0.101975
 20
2.20348
 30
0.0
 11
0.0950846
 21
2.36058
 31
0.0
  0
LINE
  8
0
 62
     0
 10
0.0950846
 20
2.36058
 30
0.0
 11
0.0950846
 21
125.61
 31
0.0
  0
LINE
  8
0
 62
     0
 10
0.0950846
 20
125.61
 30
0.0
 11
0.101975
 21
125.767
 31
0.0
  0
LINE
  8
0
 62
     0
 10
0.101975
 20
125.767
 30
0.0
 11
0.119889
 21
125.924
 31
0.0
  0
LINE
  8
0
 62
     0
 10
0.119889
 20
125.924
 30
0.0
 11
0.150206
 21
126.077
 31
0.0
  0
LINE
  8
0
 62
     0
 10
0.150206
 20
126.077
 30
0.0
 11
0.192925
 21
126.23
 31
0.0
  0
LINE
  8
0
 62
     0
 10
0.192925
 20
126.23
 30
0.0
 11
0.248047
 21
126.376
 31
0.0
  0
LINE
  8
0
 62
     0
 10
0.248047
 20
126.376
 30
0.0
 11
0.312815
 21
126.518
 31
0.0
  0
LINE
  8
0
 62
     0
 10
0.312815
 20
126.518
 30
0.0
 11
0.389985
 21
126.655
 31
0.0
  0
LINE
  8
0
 62
     0
 10
0.389985
 20
126.655
 30
0.0
 11
0.4768
 21
126.787
 31
0.0
  0
LINE
  8
0
 62
     0
 10
0.4768
 20
126.787
 30
0.0
 11
0.574643
 21
126.909
 31
0.0
  0
LINE
  8
0
 62
     0
 10
0.574643
 20
126.909
 30
0.0
 11
0.680752
 21
127.025
 31
0.0
  0
LINE
  8
0
 62
     0
 10
0.680752
 20
127.025
 30
0.0
 11
0.796505
 21
127.131
 31
0.0
  0
LINE
  8
0
 62
     0
 10
0.796505
 20
127.131
 30
0.0
 11
0.919152
 21
127.229
 31
0.0
  0
LINE
  8
0
 62
     0
 10
0.919152
 20
127.229
 30
0.0
 11
1.05006
 21
127.316
 31
0.0
  0
LINE
  8
0
 62
     0
 10
1.05006
 20
127.316
 30
0.0
 11
1.18787
 21
127.393
 31
0.0
  0
LINE
  8
0
 62
     0
 10
1.18787
 20
127.393
 30
0.0
 11
1.32981
 21
127.458
 31
0.0
  0
LINE
  8
0
 62
     0
 10
1.32981
 20
127.458
 30
0.0
 11
1.47588
 21
127.513
 31
0.0
  0
LINE
  8
0
 62
     0
 10
1.47588
 20
127.513
 30
0.0
 11
1.62884
 21
127.555
 31
0.0
  0
LINE
  8
0
 62
     0
 10
1.62884
 20
127.555
 30
0.0
 11
1.7818
 21
127.586
 31
0.0
  0
LINE
  8
0
 62
     0
 10
1.7818
 20
127.586
 30
0.0
 11
1.9389
 21
127.604
 31
0.0
  0
LINE
  8
0
 62
     0
 10
1.9389
 20
127.604
 30
0.0
 11
2.096
 21
127.61
 31
0.0
  0
LINE
  8
0
 62
     0
 10
2.096
 20
127.61
 30
0.0
 11
334.897
 21
127.61
 31
0.0
  0
LINE
  8
0
 62
     0
 10
4.5999
 20
6.88054
 30
0.0
 11
4.15477
 21
6.65455
 31
0.0
  0
LINE
  8
0
 62
     0
 10
4.15477
 20
6.65455
 30
0.0
 11
3.80062
 21
6.3004
 31
0.0
  0
LINE
  8
0
 62
     0
 10
3.80062
 20
6.3004
 30
0.0
 11
3.57325
 21
5.85392
 31
0.0
  0
LINE
  8
0
 62
     0
 10
3.57325
 20
5.85392
 30
0.0
 11
3.4947
 21
5.36056
 31
0.0
  0
LINE
  8
0
 62
     0
 10
3.4947
 20
5.36056
 30
0.0
 11
3.57325
 21
4.86449
 31
0.0
  0
LINE
  8
0
 62
     0
 10
3.57325
 20
4.86449
 30
0.0
 11
3.80062
 21
4.41935
 31
0.0
  0
LINE
  8
0
 62
     0
 10
3.80062
 20
4.41935
 30
0.0
 11
4.15477
 21
4.06658
 31
0.0
  0
LINE
  8
0
 62
     0
 10
4.15477
 20
4.06658
 30
0.0
 11
4.5999
 21
3.84059
 31
0.0
  0
LINE
  8
0
 62
     0
 10
4.5999
 20
3.84059
 30
0.0
 11
5.0946
 21
3.76068
 31
0.0
  0
LINE
  8
0
 62
     0
 10
5.0946
 20
3.76068
 30
0.0
 11
5.58934
 21
3.84059
 31
0.0
  0
LINE
  8
0
 62
     0
 10
5.58934
 20
3.84059
 30
0.0
 11
6.03582
 21
4.06658
 31
0.0
  0
LINE
  8
0
 62
     0
 10
6.03582
 20
4.06658
 30
0.0
 11
6.38997
 21
4.41935
 31
0.0
  0
LINE
  8
0
 62
     0
 10
6.38997
 20
4.41935
 30
0.0
 11
6.61596
 21
4.86449
 31
0.0
  0
LINE
  8
0
 62
     0
 10
6.61596
 20
4.86449
 30
0.0
 11
6.69452
 21
5.36056
 31
0.0
  0
LINE
  8
0
 62
     0
 10
6.69452
 20
5.36056
 30
0.0
 11
6.61596
 21
5.85392
 31
0.0
  0
LINE
  8
0
 62
     0
 10
6.61596
 20
5.85392
 30
0.0
 11
6.38997
 21
6.3004
 31
0.0
  0
LINE
  8
0
 62
     0
 10
6.38997
 20
6.3004
 30
0.0
 11
6.03582
 21
6.65455
 31
0.0
  0
LINE
  8
0
 62
     0
 10
6.03582
 20
6.65455
 30
0.0
 11
5.58934
 21
6.88054
 31
0.0
  0
LINE
  8
0
 62
     0
 10
5.58934
 20
6.88054
 30
0.0
 11
5.0946
 21
6.96048
 31
0.0
  0
LINE
  8
0
 62
     0
 10
5.0946
 20
6.96048
 30
0.0
 11
4.5999
 21
6.88054
 31
0.0
  0
LINE
  8
0
 62
     0
 10
113.534
 20
6.88054
 30
0.0
 11
113.089
 21
6.65455
 31
0.0
  0
LINE
  8
0
 62
     0
 10
113.089
 20
6.65455
 30
0.0
 11
112.735
 21
6.3004
 31
0.0
  0
LINE
  8
0
 62
     0
 10
112.735
 20
6.3004
 30
0.0
 11
112.507
 21
5.85392
 31
0.0
  0
LINE
  8
0
 62
     0
 10
112.507
 20
5.85392
 30
0.0
 11
112.429
 21
5.36056
 31
0.0
  0
LINE
  8
0
 62
     0
 10
112.429
 20
5.36056
 30
0.0
 11
112.507
 21
4.86449
 31
0.0
  0
LINE
  8
0
 62
     0
 10
112.507
 20
4.86449
 30
0.0
 11
112.735
 21
4.41935
 31
0.0
  0
LINE
  8
0
 62
     0
 10
112.735
 20
4.41935
 30
0.0
 11
113.089
 21
4.06658
 31
0.0
  0
LINE
  8
0
 62
     0
 10
113.089
 20
4.06658
 30
0.0
 11
113.534
 21
3.84059
 31
0.0
  0
LINE
  8
0
 62
     0
 10
113.534
 20
3.84059
 30
0.0
 11
114.028
 21
3.76068
 31
0.0
  0
LINE
  8
0
 62
     0
 10
114.028
 20
3.76068
 30
0.0
 11
114.523
 21
3.84059
 31
0.0
  0
LINE
  8
0
 62
     0
 10
114.523
 20
3.84059
 30
0.0
 11
114.97
 21
4.06658
 31
0.0
  0
LINE
  8
0
 62
     0
 10
114.97
 20
4.06658
 30
0.0
 11
115.324
 21
4.41935
 31
0.0
  0
LINE
  8
0
 62
     0
 10
115.324
 20
4.41935
 30
0.0
 11
115.55
 21
4.86449
 31
0.0
  0
LINE
  8
0
 62
     0
 10
115.55
 20
4.86449
 30
0.0
 11
115.629
 21
5.36056
 31
0.0
  0
LINE
  8
0
 62
     0
 10
115.629
 20
5.36056
 30
0.0
 11
115.55
 21
5.85392
 31
0.0
  0
LINE
  8
0
 62
     0
 10
115.55
 20
5.85392
 30
0.0
 11
115.324
 21
6.3004
 31
0.0
  0
LINE
  8
0
 62
     0
 10
115.324
 20
6.3004
 30
0.0
 11
114.97
 21
6.65455
 31
0.0
  0
LINE
  8
0
 62
     0
 10
114.97
 20
6.65455
 30
0.0
 11
114.523
 21
6.88054
 31
0.0
  0
LINE
  8
0
 62
     0
 10
114.523
 20
6.88054
 30
0.0
 11
114.028
 21
6.96048
 31
0.0
  0
LINE
  8
0
 62
     0
 10
114.028
 20
6.96048
 30
0.0
 11
113.534
 21
6.88054
 31
0.0
  0
LINE
  8
0
 62
     0
 10
222.468
 20
6.88054
 30
0.0
 11
222.021
 21
6.65455
 31
0.0
  0
LINE
  8
0
 62
     0
 10
222.021
 20
6.65455
 30
0.0
 11
221.667
 21
6.3004
 31
0.0
  0
LINE
  8
0
 62
     0
 10
221.667
 20
6.3004
 30
0.0
 11
221.441
 21
5.85392
 31
0.0
  0
LINE
  8
0
 62
     0
 10
221.441
 20
5.85392
 30
0.0
 11
221.362
 21
5.36056
 31
0.0
  0
LINE
  8
0
 62
     0
 10
221.362
 20
5.36056
 30
0.0
 11
221.441
 21
4.86449
 31
0.0
  0
LINE
  8
0
 62
     0
 10
221.441
 20
4.86449
 30
0.0
 11
221.667
 21
4.41935
 31
0.0
  0
LINE
  8
0
 62
     0
 10
221.667
 20
4.41935
 30
0.0
 11
222.021
 21
4.06658
 31
0.0
  0
LINE
  8
0
 62
     0
 10
222.021
 20
4.06658
 30
0.0
 11
222.468
 21
3.84059
 31
0.0
  0
LINE
  8
0
 62
     0
 10
222.468
 20
3.84059
 30
0.0
 11
222.963
 21
3.76068
 31
0.0
  0
LINE
  8
0
 62
     0
 10
222.963
 20
3.76068
 30
0.0
 11
223.457
 21
3.84059
 31
0.0
  0
LINE
  8
0
 62
     0
 10
223.457
 20
3.84059
 30
0.0
 11
223.902
 21
4.06658
 31
0.0
  0
LINE
  8
0
 62
     0
 10
223.902
 20
4.06658
 30
0.0
 11
224.257
 21
4.41935
 31
0.0
  0
LINE
  8
0
 62
     0
 10
224.257
 20
4.41935
 30
0.0
 11
224.485
 21
4.86449
 31
0.0
  0
LINE
  8
0
 62
     0
 10
224.485
 20
4.86449
 30
0.0
 11
224.562
 21
5.36056
 31
0.0
  0
LINE
  8
0
 62
     0
 10
224.562
 20
5.36056
 30
0.0
 11
224.485
 21
5.85392
 31
0.0
  0
LINE
  8
0
 62
     0
 10
224.485
 20
5.85392
 30
0.0
 11
224.257
 21
6.3004
 31
0.0
  0
LINE
  8
0
 62
     0
 10
224.257
 20
6.3004
 30
0.0
 11
223.902
 21
6.65455
 31
0.0
  0
LINE
  8
0
 62
     0
 10
223.902
 20
6.65455
 30
0.0
 11
223.457
 21
6.88054
 31
0.0
  0
LINE
  8
0
 62
     0
 10
223.457
 20
6.88054
 30
0.0
 11
222.963
 21
6.96048
 31
0.0
  0
LINE
  8
0
 62
     0
 10
222.963
 20
6.96048
 30
0.0
 11
222.468
 21
6.88054
 31
0.0
  0
LINE
  8
0
 62
     0
 10
331.402
 20
6.88054
 30
0.0
 11
330.955
 21
6.65455
 31
0.0
  0
LINE
  8
0
 62
     0
 10
330.955
 20
6.65455
 30
0.0
 11
330.601
 21
6.3004
 31
0.0
  0
LINE
  8
0
 62
     0
 10
330.601
 20
6.3004
 30
0.0
 11
330.375
 21
5.85392
 31
0.0
  0
LINE
  8
0
 62
     0
 10
330.375
 20
5.85392
 30
0.0
 11
330.296
 21
5.36056
 31
0.0
  0
LINE
  8
0
 62
     0
 10
330.296
 20
5.36056
 30
0.0
 11
330.375
 21
4.86449
 31
0.0
  0
LINE
  8
0
 62
     0
 10
330.375
 20
4.86449
 30
0.0
 11
330.601
 21
4.41935
 31
0.0
  0
LINE
  8
0
 62
     0
 10
330.601
 20
4.41935
 30
0.0
 11
330.955
 21
4.06658
 31
0.0
  0
LINE
  8
0
 62
     0
 10
330.955
 20
4.06658
 30
0.0
 11
331.402
 21
3.84059
 31
0.0
  0
LINE
  8
0
 62
     0
 10
331.402
 20
3.84059
 30
0.0
 11
331.897
 21
3.76068
 31
0.0
  0
LINE
  8
0
 62
     0
 10
331.897
 20
3.76068
 30
0.0
 11
332.391
 21
3.84059
 31
0.0
  0
LINE
  8
0
 62
     0
 10
332.391
 20
3.84059
 30
0.0
 11
332.836
 21
4.06658
 31
0.0
  0
LINE
  8
0
 62
     0
 10
332.836
 20
4.06658
 30
0.0
 11
333.19
 21
4.41935
 31
0.0
  0
LINE
  8
0
 62
     0
 10
333.19
 20
4.41935
 30
0.0
 11
333.418
 21
4.86449
 31
0.0
  0
LINE
  8
0
 62
     0
 10
333.418
 20
4.86449
 30
0.0
 11
333.496
 21
5.36056
 31
0.0
  0
LINE
  8
0
 62
     0
 10
333.496
 20
5.36056
 30
0.0
 11
333.418
 21
5.85392
 31
0.0
  0
LINE
  8
0
 62
     0
 10
333.418
 20
5.85392
 30
0.0
 11
333.19
 21
6.3004
 31
0.0
  0
LINE
  8
0
 62
     0
 10
333.19
 20
6.3004
 30
0.0
 11
332.836
 21
6.65455
 31
0.0
  0
LINE
  8
0
 62
     0
 10
332.836
 20
6.65455
 30
0.0
 11
332.391
 21
6.88054
 31
0.0
  0
LINE
  8
0
 62
     0
 10
332.391
 20
6.88054
 30
0.0
 11
331.897
 21
6.96048
 31
0.0
  0
LINE
  8
0
 62
     0
 10
331.897
 20
6.96048
 30
0.0
 11
331.402
 21
6.88054
 31
0.0
  0
LINE
  8
0
 62
     0
 10
140.064
 20
32.8855
 30
0.0
 11
140.064
 21
31.885
 31
0.0
  0
LINE
  8
0
 62
     0
 10
140.064
 20
31.885
 30
0.0
 11
139.263
 21
31.885
 31
0.0
  0
LINE
  8
0
 62
     0
 10
139.263
 20
31.885
 30
0.0
 11
139.263
 21
28.7859
 31
0.0
  0
LINE
  8
0
 62
     0
 10
139.263
 20
28.7859
 30
0.0
 11
140.064
 21
28.7859
 31
0.0
  0
LINE
  8
0
 62
     0
 10
140.064
 20
28.7859
 30
0.0
 11
140.064
 21
28.185
 31
0.0
  0
LINE
  8
0
 62
     0
 10
140.064
 20
28.185
 30
0.0
 11
100.438
 21
28.185
 31
0.0
  0
LINE
  8
0
 62
     0
 10
100.438
 20
28.185
 30
0.0
 11
100.438
 21
31.4151
 31
0.0
  0
LINE
  8
0
 62
     0
 10
100.438
 20
31.4151
 30
0.0
 11
93.6886
 21
31.4151
 31
0.0
  0
LINE
  8
0
 62
     0
 10
93.6886
 20
31.4151
 30
0.0
 11
93.6886
 21
28.185
 31
0.0
  0
LINE
  8
0
 62
     0
 10
93.6886
 20
28.185
 30
0.0
 11
92.8631
 21
28.185
 31
0.0
  0
LINE
  8
0
 62
     0
 10
92.8631
 20
28.185
 30
0.0
 11
92.8631
 21
25.3848
 31
0.0
  0
LINE
  8
0
 62
     0
 10
92.8631
 20
25.3848
 30
0.0
 11
93.6886
 21
25.3848
 31
0.0
  0
LINE
  8
0
 62
     0
 10
93.6886
 20
25.3848
 30
0.0
 11
93.6886
 21
19.1161
 31
0.0
  0
LINE
  8
0
 62
     0
 10
93.6886
 20
19.1161
 30
0.0
 11
95.414
 21
19.1161
 31
0.0
  0
LINE
  8
0
 62
     0
 10
95.414
 20
19.1161
 30
0.0
 11
95.414
 21
17.9145
 31
0.0
  0
LINE
  8
0
 62
     0
 10
95.414
 20
17.9145
 30
0.0
 11
98.7129
 21
17.9145
 31
0.0
  0
LINE
  8
0
 62
     0
 10
98.7129
 20
17.9145
 30
0.0
 11
98.7129
 21
19.1161
 31
0.0
  0
LINE
  8
0
 62
     0
 10
98.7129
 20
19.1161
 30
0.0
 11
100.438
 21
19.1161
 31
0.0
  0
LINE
  8
0
 62
     0
 10
100.438
 20
19.1161
 30
0.0
 11
100.438
 21
23.5865
 31
0.0
  0
LINE
  8
0
 62
     0
 10
100.438
 20
23.5865
 30
0.0
 11
140.064
 21
23.5865
 31
0.0
  0
LINE
  8
0
 62
     0
 10
140.064
 20
23.5865
 30
0.0
 11
140.064
 21
22.9857
 31
0.0
  0
LINE
  8
0
 62
     0
 10
140.064
 20
22.9857
 30
0.0
 11
139.263
 21
22.9857
 31
0.0
  0
LINE
  8
0
 62
     0
 10
139.263
 20
22.9857
 30
0.0
 11
139.263
 21
19.8851
 31
0.0
  0
LINE
  8
0
 62
     0
 10
139.263
 20
19.8851
 30
0.0
 11
140.064
 21
19.8851
 31
0.0
  0
LINE
  8
0
 62
     0
 10
140.064
 20
19.8851
 30
0.0
 11
140.064
 21
18.8847
 31
0.0
  0
LINE
  8
0
 62
     0
 10
140.064
 20
18.8847
 30
0.0
 11
154.063
 21
18.8847
 31
0.0
  0
LINE
  8
0
 62
     0
 10
154.063
 20
18.8847
 30
0.0
 11
154.063
 21
19.8851
 31
0.0
  0
LINE
  8
0
 62
     0
 10
154.063
 20
19.8851
 30
0.0
 11
154.864
 21
19.8851
 31
0.0
  0
LINE
  8
0
 62
     0
 10
154.864
 20
19.8851
 30
0.0
 11
154.864
 21
22.9857
 31
0.0
  0
LINE
  8
0
 62
     0
 10
154.864
 20
22.9857
 30
0.0
 11
154.063
 21
22.9857
 31
0.0
  0
LINE
  8
0
 62
     0
 10
154.063
 20
22.9857
 30
0.0
 11
154.063
 21
23.5865
 31
0.0
  0
LINE
  8
0
 62
     0
 10
154.063
 20
23.5865
 30
0.0
 11
193.689
 21
23.5865
 31
0.0
  0
LINE
  8
0
 62
     0
 10
193.689
 20
23.5865
 30
0.0
 11
193.689
 21
19.1161
 31
0.0
  0
LINE
  8
0
 62
     0
 10
193.689
 20
19.1161
 30
0.0
 11
195.414
 21
19.1161
 31
0.0
  0
LINE
  8
0
 62
     0
 10
195.414
 20
19.1161
 30
0.0
 11
195.414
 21
17.9145
 31
0.0
  0
LINE
  8
0
 62
     0
 10
195.414
 20
17.9145
 30
0.0
 11
198.713
 21
17.9145
 31
0.0
  0
LINE
  8
0
 62
     0
 10
198.713
 20
17.9145
 30
0.0
 11
198.713
 21
19.1161
 31
0.0
  0
LINE
  8
0
 62
     0
 10
198.713
 20
19.1161
 30
0.0
 11
200.438
 21
19.1161
 31
0.0
  0
LINE
  8
0
 62
     0
 10
200.438
 20
19.1161
 30
0.0
 11
200.438
 21
25.3848
 31
0.0
  0
LINE
  8
0
 62
     0
 10
200.438
 20
25.3848
 30
0.0
 11
201.264
 21
25.3848
 31
0.0
  0
LINE
  8
0
 62
     0
 10
201.264
 20
25.3848
 30
0.0
 11
201.264
 21
28.185
 31
0.0
  0
LINE
  8
0
 62
     0
 10
201.264
 20
28.185
 30
0.0
 11
200.438
 21
28.185
 31
0.0
  0
LINE
  8
0
 62
     0
 10
200.438
 20
28.185
 30
0.0
 11
200.438
 21
31.4151
 31
0.0
  0
LINE
  8
0
 62
     0
 10
200.438
 20
31.4151
 30
0.0
 11
193.689
 21
31.4151
 31
0.0
  0
LINE
  8
0
 62
     0
 10
193.689
 20
31.4151
 30
0.0
 11
193.689
 21
28.185
 31
0.0
  0
LINE
  8
0
 62
     0
 10
193.689
 20
28.185
 30
0.0
 11
154.063
 21
28.185
 31
0.0
  0
LINE
  8
0
 62
     0
 10
154.063
 20
28.185
 30
0.0
 11
154.063
 21
28.7859
 31
0.0
  0
LINE
  8
0
 62
     0
 10
154.063
 20
28.7859
 30
0.0
 11
154.864
 21
28.7859
 31
0.0
  0
LINE
  8
0
 62
     0
 10
154.864
 20
28.7859
 30
0.0
 11
154.864
 21
31.885
 31
0.0
  0
LINE
  8
0
 62
     0
 10
154.864
 20
31.885
 30
0.0
 11
154.063
 21
31.885
 31
0.0
  0
LINE
  8
0
 62
     0
 10
154.063
 20
31.885
 30
0.0
 11
154.063
 21
32.8855
 31
0.0
  0
LINE
  8
0
 62
     0
 10
154.063
 20
32.8855
 30
0.0
 11
140.064
 21
32.8855
 31
0.0
  0
LINE
  8
0
 62
     0
 10
304.37
 20
32.8855
 30
0.0
 11
304.37
 21
31.885
 31
0.0
  0
LINE
  8
0
 62
     0
 10
304.37
 20
31.885
 30
0.0
 11
303.571
 21
31.885
 31
0.0
  0
LINE
  8
0
 62
     0
 10
303.571
 20
31.885
 30
0.0
 11
303.571
 21
28.7859
 31
0.0
  0
LINE
  8
0
 62
     0
 10
303.571
 20
28.7859
 30
0.0
 11
304.37
 21
28.7859
 31
0.0
  0
LINE
  8
0
 62
     0
 10
304.37
 20
28.7859
 30
0.0
 11
304.37
 21
22.9857
 31
0.0
  0
LINE
  8
0
 62
     0
 10
304.37
 20
22.9857
 30
0.0
 11
303.571
 21
22.9857
 31
0.0
  0
LINE
  8
0
 62
     0
 10
303.571
 20
22.9857
 30
0.0
 11
303.571
 21
19.8851
 31
0.0
  0
LINE
  8
0
 62
     0
 10
303.571
 20
19.8851
 30
0.0
 11
304.37
 21
19.8851
 31
0.0
  0
LINE
  8
0
 62
     0
 10
304.37
 20
19.8851
 30
0.0
 11
304.37
 21
18.8847
 31
0.0
  0
LINE
  8
0
 62
     0
 10
304.37
 20
18.8847
 30
0.0
 11
318.371
 21
18.8847
 31
0.0
  0
LINE
  8
0
 62
     0
 10
318.371
 20
18.8847
 30
0.0
 11
318.371
 21
19.8851
 31
0.0
  0
LINE
  8
0
 62
     0
 10
318.371
 20
19.8851
 30
0.0
 11
319.17
 21
19.8851
 31
0.0
  0
LINE
  8
0
 62
     0
 10
319.17
 20
19.8851
 30
0.0
 11
319.17
 21
22.9857
 31
0.0
  0
LINE
  8
0
 62
     0
 10
319.17
 20
22.9857
 30
0.0
 11
318.371
 21
22.9857
 31
0.0
  0
LINE
  8
0
 62
     0
 10
318.371
 20
22.9857
 30
0.0
 11
318.371
 21
28.7859
 31
0.0
  0
LINE
  8
0
 62
     0
 10
318.371
 20
28.7859
 30
0.0
 11
319.17
 21
28.7859
 31
0.0
  0
LINE
  8
0
 62
     0
 10
319.17
 20
28.7859
 30
0.0
 11
319.17
 21
31.885
 31
0.0
  0
LINE
  8
0
 62
     0
 10
319.17
 20
31.885
 30
0.0
 11
318.371
 21
31.885
 31
0.0
  0
LINE
  8
0
 62
     0
 10
318.371
 20
31.885
 30
0.0
 11
318.371
 21
32.8855
 31
0.0
  0
LINE
  8
0
 62
     0
 10
318.371
 20
32.8855
 30
0.0
 11
304.37
 21
32.8855
 31
0.0
  0
LINE
  8
0
 62
     0
 10
285.32
 20
32.8855
 30
0.0
 11
285.32
 21
31.885
 31
0.0
  0
LINE
  8
0
 62
     0
 10
285.32
 20
31.885
 30
0.0
 11
284.521
 21
31.885
 31
0.0
  0
LINE
  8
0
 62
     0
 10
284.521
 20
31.885
 30
0.0
 11
284.521
 21
28.7859
 31
0.0
  0
LINE
  8
0
 62
     0
 10
284.521
 20
28.7859
 30
0.0
 11
285.32
 21
28.7859
 31
0.0
  0
LINE
  8
0
 62
     0
 10
285.32
 20
28.7859
 30
0.0
 11
285.32
 21
22.9857
 31
0.0
  0
LINE
  8
0
 62
     0
 10
285.32
 20
22.9857
 30
0.0
 11
284.521
 21
22.9857
 31
0.0
  0
LINE
  8
0
 62
     0
 10
284.521
 20
22.9857
 30
0.0
 11
284.521
 21
19.8851
 31
0.0
  0
LINE
  8
0
 62
     0
 10
284.521
 20
19.8851
 30
0.0
 11
285.32
 21
19.8851
 31
0.0
  0
LINE
  8
0
 62
     0
 10
285.32
 20
19.8851
 30
0.0
 11
285.32
 21
18.8847
 31
0.0
  0
LINE
  8
0
 62
     0
 10
285.32
 20
18.8847
 30
0.0
 11
299.321
 21
18.8847
 31
0.0
  0
LINE
  8
0
 62
     0
 10
299.321
 20
18.8847
 30
0.0
 11
299.321
 21
19.8851
 31
0.0
  0
LINE
  8
0
 62
     0
 10
299.321
 20
19.8851
 30
0.0
 11
300.12
 21
19.8851
 31
0.0
  0
LINE
  8
0
 62
     0
 10
300.12
 20
19.8851
 30
0.0
 11
300.12
 21
22.9857
 31
0.0
  0
LINE
  8
0
 62
     0
 10
300.12
 20
22.9857
 30
0.0
 11
299.321
 21
22.9857
 31
0.0
  0
LINE
  8
0
 62
     0
 10
299.321
 20
22.9857
 30
0.0
 11
299.321
 21
28.7859
 31
0.0
  0
LINE
  8
0
 62
     0
 10
299.321
 20
28.7859
 30
0.0
 11
300.12
 21
28.7859
 31
0.0
  0
LINE
  8
0
 62
     0
 10
300.12
 20
28.7859
 30
0.0
 11
300.12
 21
31.885
 31
0.0
  0
LINE
  8
0
 62
     0
 10
300.12
 20
31.885
 30
0.0
 11
299.321
 21
31.885
 31
0.0
  0
LINE
  8
0
 62
     0
 10
299.321
 20
31.885
 30
0.0
 11
299.321
 21
32.8855
 31
0.0
  0
LINE
  8
0
 62
     0
 10
299.321
 20
32.8855
 30
0.0
 11
285.32
 21
32.8855
 31
0.0
  0
LINE
  8
0
 62
     0
 10
266.27
 20
32.8855
 30
0.0
 11
266.27
 21
31.885
 31
0.0
  0
LINE
  8
0
 62
     0
 10
266.27
 20
31.885
 30
0.0
 11
265.471
 21
31.885
 31
0.0
  0
LINE
  8
0
 62
     0
 10
265.471
 20
31.885
 30
0.0
 11
265.471
 21
28.7859
 31
0.0
  0
LINE
  8
0
 62
     0
 10
265.471
 20
28.7859
 30
0.0
 11
266.27
 21
28.7859
 31
0.0
  0
LINE
  8
0
 62
     0
 10
266.27
 20
28.7859
 30
0.0
 11
266.27
 21
22.9857
 31
0.0
  0
LINE
  8
0
 62
     0
 10
266.27
 20
22.9857
 30
0.0
 11
265.471
 21
22.9857
 31
0.0
  0
LINE
  8
0
 62
     0
 10
265.471
 20
22.9857
 30
0.0
 11
265.471
 21
19.8851
 31
0.0
  0
LINE
  8
0
 62
     0
 10
265.471
 20
19.8851
 30
0.0
 11
266.27
 21
19.8851
 31
0.0
  0
LINE
  8
0
 62
     0
 10
266.27
 20
19.8851
 30
0.0
 11
266.27
 21
18.8847
 31
0.0
  0
LINE
  8
0
 62
     0
 10
266.27
 20
18.8847
 30
0.0
 11
280.271
 21
18.8847
 31
0.0
  0
LINE
  8
0
 62
     0
 10
280.271
 20
18.8847
 30
0.0
 11
280.271
 21
19.8851
 31
0.0
  0
LINE
  8
0
 62
     0
 10
280.271
 20
19.8851
 30
0.0
 11
281.07
 21
19.8851
 31
0.0
  0
LINE
  8
0
 62
     0
 10
281.07
 20
19.8851
 30
0.0
 11
281.07
 21
22.9857
 31
0.0
  0
LINE
  8
0
 62
     0
 10
281.07
 20
22.9857
 30
0.0
 11
280.271
 21
22.9857
 31
0.0
  0
LINE
  8
0
 62
     0
 10
280.271
 20
22.9857
 30
0.0
 11
280.271
 21
28.7859
 31
0.0
  0
LINE
  8
0
 62
     0
 10
280.271
 20
28.7859
 30
0.0
 11
281.07
 21
28.7859
 31
0.0
  0
LINE
  8
0
 62
     0
 10
281.07
 20
28.7859
 30
0.0
 11
281.07
 21
31.885
 31
0.0
  0
LINE
  8
0
 62
     0
 10
281.07
 20
31.885
 30
0.0
 11
280.271
 21
31.885
 31
0.0
  0
LINE
  8
0
 62
     0
 10
280.271
 20
31.885
 30
0.0
 11
280.271
 21
32.8855
 31
0.0
  0
LINE
  8
0
 62
     0
 10
280.271
 20
32.8855
 30
0.0
 11
266.27
 21
32.8855
 31
0.0
  0
LINE
  8
0
 62
     0
 10
242.457
 20
32.8855
 30
0.0
 11
242.457
 21
31.885
 31
0.0
  0
LINE
  8
0
 62
     0
 10
242.457
 20
31.885
 30
0.0
 11
241.657
 21
31.885
 31
0.0
  0
LINE
  8
0
 62
     0
 10
241.657
 20
31.885
 30
0.0
 11
241.657
 21
28.7859
 31
0.0
  0
LINE
  8
0
 62
     0
 10
241.657
 20
28.7859
 30
0.0
 11
242.457
 21
28.7859
 31
0.0
  0
LINE
  8
0
 62
     0
 10
242.457
 20
28.7859
 30
0.0
 11
242.457
 21
22.9857
 31
0.0
  0
LINE
  8
0
 62
     0
 10
242.457
 20
22.9857
 30
0.0
 11
241.657
 21
22.9857
 31
0.0
  0
LINE
  8
0
 62
     0
 10
241.657
 20
22.9857
 30
0.0
 11
241.657
 21
19.8851
 31
0.0
  0
LINE
  8
0
 62
     0
 10
241.657
 20
19.8851
 30
0.0
 11
242.457
 21
19.8851
 31
0.0
  0
LINE
  8
0
 62
     0
 10
242.457
 20
19.8851
 30
0.0
 11
242.457
 21
18.8847
 31
0.0
  0
LINE
  8
0
 62
     0
 10
242.457
 20
18.8847
 30
0.0
 11
256.457
 21
18.8847
 31
0.0
  0
LINE
  8
0
 62
     0
 10
256.457
 20
18.8847
 30
0.0
 11
256.457
 21
19.8851
 31
0.0
  0
LINE
  8
0
 62
     0
 10
256.457
 20
19.8851
 30
0.0
 11
257.258
 21
19.8851
 31
0.0
  0
LINE
  8
0
 62
     0
 10
257.258
 20
19.8851
 30
0.0
 11
257.258
 21
22.9857
 31
0.0
  0
LINE
  8
0
 62
     0
 10
257.258
 20
22.9857
 30
0.0
 11
256.457
 21
22.9857
 31
0.0
  0
LINE
  8
0
 62
     0
 10
256.457
 20
22.9857
 30
0.0
 11
256.457
 21
28.7859
 31
0.0
  0
LINE
  8
0
 62
     0
 10
256.457
 20
28.7859
 30
0.0
 11
257.258
 21
28.7859
 31
0.0
  0
LINE
  8
0
 62
     0
 10
257.258
 20
28.7859
 30
0.0
 11
257.258
 21
31.885
 31
0.0
  0
LINE
  8
0
 62
     0
 10
257.258
 20
31.885
 30
0.0
 11
256.457
 21
31.885
 31
0.0
  0
LINE
  8
0
 62
     0
 10
256.457
 20
31.885
 30
0.0
 11
256.457
 21
32.8855
 31
0.0
  0
LINE
  8
0
 62
     0
 10
256.457
 20
32.8855
 30
0.0
 11
242.457
 21
32.8855
 31
0.0
  0
LINE
  8
0
 62
     0
 10
213.882
 20
32.8855
 30
0.0
 11
213.882
 21
31.885
 31
0.0
  0
LINE
  8
0
 62
     0
 10
213.882
 20
31.885
 30
0.0
 11
213.082
 21
31.885
 31
0.0
  0
LINE
  8
0
 62
     0
 10
213.082
 20
31.885
 30
0.0
 11
213.082
 21
28.7859
 31
0.0
  0
LINE
  8
0
 62
     0
 10
213.082
 20
28.7859
 30
0.0
 11
213.882
 21
28.7859
 31
0.0
  0
LINE
  8
0
 62
     0
 10
213.882
 20
28.7859
 30
0.0
 11
213.882
 21
22.9857
 31
0.0
  0
LINE
  8
0
 62
     0
 10
213.882
 20
22.9857
 30
0.0
 11
213.082
 21
22.9857
 31
0.0
  0
LINE
  8
0
 62
     0
 10
213.082
 20
22.9857
 30
0.0
 11
213.082
 21
19.8851
 31
0.0
  0
LINE
  8
0
 62
     0
 10
213.082
 20
19.8851
 30
0.0
 11
213.882
 21
19.8851
 31
0.0
  0
LINE
  8
0
 62
     0
 10
213.882
 20
19.8851
 30
0.0
 11
213.882
 21
18.8847
 31
0.0
  0
LINE
  8
0
 62
     0
 10
213.882
 20
18.8847
 30
0.0
 11
227.882
 21
18.8847
 31
0.0
  0
LINE
  8
0
 62
     0
 10
227.882
 20
18.8847
 30
0.0
 11
227.882
 21
19.8851
 31
0.0
  0
LINE
  8
0
 62
     0
 10
227.882
 20
19.8851
 30
0.0
 11
228.683
 21
19.8851
 31
0.0
  0
LINE
  8
0
 62
     0
 10
228.683
 20
19.8851
 30
0.0
 11
228.683
 21
22.9857
 31
0.0
  0
LINE
  8
0
 62
     0
 10
228.683
 20
22.9857
 30
0.0
 11
227.882
 21
22.9857
 31
0.0
  0
LINE
  8
0
 62
     0
 10
227.882
 20
22.9857
 30
0.0
 11
227.882
 21
28.7859
 31
0.0
  0
LINE
  8
0
 62
     0
 10
227.882
 20
28.7859
 30
0.0
 11
228.683
 21
28.7859
 31
0.0
  0
LINE
  8
0
 62
     0
 10
228.683
 20
28.7859
 30
0.0
 11
228.683
 21
31.885
 31
0.0
  0
LINE
  8
0
 62
     0
 10
228.683
 20
31.885
 30
0.0
 11
227.882
 21
31.885
 31
0.0
  0
LINE
  8
0
 62
     0
 10
227.882
 20
31.885
 30
0.0
 11
227.882
 21
32.8855
 31
0.0
  0
LINE
  8
0
 62
     0
 10
227.882
 20
32.8855
 30
0.0
 11
213.882
 21
32.8855
 31
0.0
  0
LINE
  8
0
 62
     0
 10
68.6262
 20
32.8855
 30
0.0
 11
68.6262
 21
31.885
 31
0.0
  0
LINE
  8
0
 62
     0
 10
68.6262
 20
31.885
 30
0.0
 11
67.8272
 21
31.885
 31
0.0
  0
LINE
  8
0
 62
     0
 10
67.8272
 20
31.885
 30
0.0
 11
67.8272
 21
28.7859
 31
0.0
  0
LINE
  8
0
 62
     0
 10
67.8272
 20
28.7859
 30
0.0
 11
68.6262
 21
28.7859
 31
0.0
  0
LINE
  8
0
 62
     0
 10
68.6262
 20
28.7859
 30
0.0
 11
68.6262
 21
22.9857
 31
0.0
  0
LINE
  8
0
 62
     0
 10
68.6262
 20
22.9857
 30
0.0
 11
67.8272
 21
22.9857
 31
0.0
  0
LINE
  8
0
 62
     0
 10
67.8272
 20
22.9857
 30
0.0
 11
67.8272
 21
19.8851
 31
0.0
  0
LINE
  8
0
 62
     0
 10
67.8272
 20
19.8851
 30
0.0
 11
68.6262
 21
19.8851
 31
0.0
  0
LINE
  8
0
 62
     0
 10
68.6262
 20
19.8851
 30
0.0
 11
68.6262
 21
18.8847
 31
0.0
  0
LINE
  8
0
 62
     0
 10
68.6262
 20
18.8847
 30
0.0
 11
82.6273
 21
18.8847
 31
0.0
  0
LINE
  8
0
 62
     0
 10
82.6273
 20
18.8847
 30
0.0
 11
82.6273
 21
19.8851
 31
0.0
  0
LINE
  8
0
 62
     0
 10
82.6273
 20
19.8851
 30
0.0
 11
83.4263
 21
19.8851
 31
0.0
  0
LINE
  8
0
 62
     0
 10
83.4263
 20
19.8851
 30
0.0
 11
83.4263
 21
22.9857
 31
0.0
  0
LINE
  8
0
 62
     0
 10
83.4263
 20
22.9857
 30
0.0
 11
82.6273
 21
22.9857
 31
0.0
  0
LINE
  8
0
 62
     0
 10
82.6273
 20
22.9857
 30
0.0
 11
82.6273
 21
28.7859
 31
0.0
  0
LINE
  8
0
 62
     0
 10
82.6273
 20
28.7859
 30
0.0
 11
83.4263
 21
28.7859
 31
0.0
  0
LINE
  8
0
 62
     0
 10
83.4263
 20
28.7859
 30
0.0
 11
83.4263
 21
31.885
 31
0.0
  0
LINE
  8
0
 62
     0
 10
83.4263
 20
31.885
 30
0.0
 11
82.6273
 21
31.885
 31
0.0
  0
LINE
  8
0
 62
     0
 10
82.6273
 20
31.885
 30
0.0
 11
82.6273
 21
32.8855
 31
0.0
  0
LINE
  8
0
 62
     0
 10
82.6273
 20
32.8855
 30
0.0
 11
68.6262
 21
32.8855
 31
0.0
  0
LINE
  8
0
 62
     0
 10
44.8137
 20
32.8855
 30
0.0
 11
44.8137
 21
31.885
 31
0.0
  0
LINE
  8
0
 62
     0
 10
44.8137
 20
31.885
 30
0.0
 11
44.0133
 21
31.885
 31
0.0
  0
LINE
  8
0
 62
     0
 10
44.0133
 20
31.885
 30
0.0
 11
44.0133
 21
28.7859
 31
0.0
  0
LINE
  8
0
 62
     0
 10
44.0133
 20
28.7859
 30
0.0
 11
44.8137
 21
28.7859
 31
0.0
  0
LINE
  8
0
 62
     0
 10
44.8137
 20
28.7859
 30
0.0
 11
44.8137
 21
22.9857
 31
0.0
  0
LINE
  8
0
 62
     0
 10
44.8137
 20
22.9857
 30
0.0
 11
44.0133
 21
22.9857
 31
0.0
  0
LINE
  8
0
 62
     0
 10
44.0133
 20
22.9857
 30
0.0
 11
44.0133
 21
19.8851
 31
0.0
  0
LINE
  8
0
 62
     0
 10
44.0133
 20
19.8851
 30
0.0
 11
44.8137
 21
19.8851
 31
0.0
  0
LINE
  8
0
 62
     0
 10
44.8137
 20
19.8851
 30
0.0
 11
44.8137
 21
18.8847
 31
0.0
  0
LINE
  8
0
 62
     0
 10
44.8137
 20
18.8847
 30
0.0
 11
58.8133
 21
18.8847
 31
0.0
  0
LINE
  8
0
 62
     0
 10
58.8133
 20
18.8847
 30
0.0
 11
58.8133
 21
19.8851
 31
0.0
  0
LINE
  8
0
 62
     0
 10
58.8133
 20
19.8851
 30
0.0
 11
59.6138
 21
19.8851
 31
0.0
  0
LINE
  8
0
 62
     0
 10
59.6138
 20
19.8851
 30
0.0
 11
59.6138
 21
22.9857
 31
0.0
  0
LINE
  8
0
 62
     0
 10
59.6138
 20
22.9857
 30
0.0
 11
58.8133
 21
22.9857
 31
0.0
  0
LINE
  8
0
 62
     0
 10
58.8133
 20
22.9857
 30
0.0
 11
58.8133
 21
28.7859
 31
0.0
  0
LINE
  8
0
 62
     0
 10
58.8133
 20
28.7859
 30
0.0
 11
59.6138
 21
28.7859
 31
0.0
  0
LINE
  8
0
 62
     0
 10
59.6138
 20
28.7859
 30
0.0
 11
59.6138
 21
31.885
 31
0.0
  0
LINE
  8
0
 62
     0
 10
59.6138
 20
31.885
 30
0.0
 11
58.8133
 21
31.885
 31
0.0
  0
LINE
  8
0
 62
     0
 10
58.8133
 20
31.885
 30
0.0
 11
58.8133
 21
32.8855
 31
0.0
  0
LINE
  8
0
 62
     0
 10
58.8133
 20
32.8855
 30
0.0
 11
44.8137
 21
32.8855
 31
0.0
  0
LINE
  8
0
 62
     0
 10
21.0013
 20
32.8855
 30
0.0
 11
21.0013
 21
31.885
 31
0.0
  0
LINE
  8
0
 62
     0
 10
21.0013
 20
31.885
 30
0.0
 11
20.202
 21
31.885
 31
0.0
  0
LINE
  8
0
 62
     0
 10
20.202
 20
31.885
 30
0.0
 11
20.202
 21
28.7859
 31
0.0
  0
LINE
  8
0
 62
     0
 10
20.202
 20
28.7859
 30
0.0
 11
21.0013
 21
28.7859
 31
0.0
  0
LINE
  8
0
 62
     0
 10
21.0013
 20
28.7859
 30
0.0
 11
21.0013
 21
22.9857
 31
0.0
  0
LINE
  8
0
 62
     0
 10
21.0013
 20
22.9857
 30
0.0
 11
20.202
 21
22.9857
 31
0.0
  0
LINE
  8
0
 62
     0
 10
20.202
 20
22.9857
 30
0.0
 11
20.202
 21
19.8851
 31
0.0
  0
LINE
  8
0
 62
     0
 10
20.202
 20
19.8851
 30
0.0
 11
21.0013
 21
19.8851
 31
0.0
  0
LINE
  8
0
 62
     0
 10
21.0013
 20
19.8851
 30
0.0
 11
21.0013
 21
18.8847
 31
0.0
  0
LINE
  8
0
 62
     0
 10
21.0013
 20
18.8847
 30
0.0
 11
35.0022
 21
18.8847
 31
0.0
  0
LINE
  8
0
 62
     0
 10
35.0022
 20
18.8847
 30
0.0
 11
35.0022
 21
19.8851
 31
0.0
  0
LINE
  8
0
 62
     0
 10
35.0022
 20
19.8851
 30
0.0
 11
35.8013
 21
19.8851
 31
0.0
  0
LINE
  8
0
 62
     0
 10
35.8013
 20
19.8851
 30
0.0
 11
35.8013
 21
22.9857
 31
0.0
  0
LINE
  8
0
 62
     0
 10
35.8013
 20
22.9857
 30
0.0
 11
35.0022
 21
22.9857
 31
0.0
  0
LINE
  8
0
 62
     0
 10
35.0022
 20
22.9857
 30
0.0
 11
35.0022
 21
28.7859
 31
0.0
  0
LINE
  8
0
 62
     0
 10
35.0022
 20
28.7859
 30
0.0
 11
35.8013
 21
28.7859
 31
0.0
  0
LINE
  8
0
 62
     0
 10
35.8013
 20
28.7859
 30
0.0
 11
35.8013
 21
31.885
 31
0.0
  0
LINE
  8
0
 62
     0
 10
35.8013
 20
31.885
 30
0.0
 11
35.0022
 21
31.885
 31
0.0
  0
LINE
  8
0
 62
     0
 10
35.0022
 20
31.885
 30
0.0
 11
35.0022
 21
32.8855
 31
0.0
  0
LINE
  8
0
 62
     0
 10
35.0022
 20
32.8855
 30
0.0
 11
21.0013
 21
32.8855
 31
0.0
  0
LINE
  8
0
 62
     0
 10
30.5263
 20
51.9356
 30
0.0
 11
30.5263
 21
50.9351
 31
0.0
  0
LINE
  8
0
 62
     0
 10
30.5263
 20
50.9351
 30
0.0
 11
29.727
 21
50.9351
 31
0.0
  0
LINE
  8
0
 62
     0
 10
29.727
 20
50.9351
 30
0.0
 11
29.727
 21
47.836
 31
0.0
  0
LINE
  8
0
 62
     0
 10
29.727
 20
47.836
 30
0.0
 11
30.5263
 21
47.836
 31
0.0
  0
LINE
  8
0
 62
     0
 10
30.5263
 20
47.836
 30
0.0
 11
30.5263
 21
47.2352
 31
0.0
  0
LINE
  8
0
 62
     0
 10
30.5263
 20
47.2352
 30
0.0
 11
29.0008
 21
47.2352
 31
0.0
  0
LINE
  8
0
 62
     0
 10
29.0008
 20
47.2352
 30
0.0
 11
29.0008
 21
50.4652
 31
0.0
  0
LINE
  8
0
 62
     0
 10
29.0008
 20
50.4652
 30
0.0
 11
22.2512
 21
50.4652
 31
0.0
  0
LINE
  8
0
 62
     0
 10
22.2512
 20
50.4652
 30
0.0
 11
22.2512
 21
47.2352
 31
0.0
  0
LINE
  8
0
 62
     0
 10
22.2512
 20
47.2352
 30
0.0
 11
21.4271
 21
47.2352
 31
0.0
  0
LINE
  8
0
 62
     0
 10
21.4271
 20
47.2352
 30
0.0
 11
21.4271
 21
44.4348
 31
0.0
  0
LINE
  8
0
 62
     0
 10
21.4271
 20
44.4348
 30
0.0
 11
22.2512
 21
44.4348
 31
0.0
  0
LINE
  8
0
 62
     0
 10
22.2512
 20
44.4348
 30
0.0
 11
22.2512
 21
38.1649
 31
0.0
  0
LINE
  8
0
 62
     0
 10
22.2512
 20
38.1649
 30
0.0
 11
23.9765
 21
38.1649
 31
0.0
  0
LINE
  8
0
 62
     0
 10
23.9765
 20
38.1649
 30
0.0
 11
23.9765
 21
36.9644
 31
0.0
  0
LINE
  8
0
 62
     0
 10
23.9765
 20
36.9644
 30
0.0
 11
27.2755
 21
36.9644
 31
0.0
  0
LINE
  8
0
 62
     0
 10
27.2755
 20
36.9644
 30
0.0
 11
27.2755
 21
38.1649
 31
0.0
  0
LINE
  8
0
 62
     0
 10
27.2755
 20
38.1649
 30
0.0
 11
29.0008
 21
38.1649
 31
0.0
  0
LINE
  8
0
 62
     0
 10
29.0008
 20
38.1649
 30
0.0
 11
29.0008
 21
42.635
 31
0.0
  0
LINE
  8
0
 62
     0
 10
29.0008
 20
42.635
 30
0.0
 11
30.5263
 21
42.635
 31
0.0
  0
LINE
  8
0
 62
     0
 10
30.5263
 20
42.635
 30
0.0
 11
30.5263
 21
42.0356
 31
0.0
  0
LINE
  8
0
 62
     0
 10
30.5263
 20
42.0356
 30
0.0
 11
29.727
 21
42.0356
 31
0.0
  0
LINE
  8
0
 62
     0
 10
29.727
 20
42.0356
 30
0.0
 11
29.727
 21
38.935
 31
0.0
  0
LINE
  8
0
 62
     0
 10
29.727
 20
38.935
 30
0.0
 11
30.5263
 21
38.935
 31
0.0
  0
LINE
  8
0
 62
     0
 10
30.5263
 20
38.935
 30
0.0
 11
30.5263
 21
37.9345
 31
0.0
  0
LINE
  8
0
 62
     0
 10
30.5263
 20
37.9345
 30
0.0
 11
44.5273
 21
37.9345
 31
0.0
  0
LINE
  8
0
 62
     0
 10
44.5273
 20
37.9345
 30
0.0
 11
44.5273
 21
38.935
 31
0.0
  0
LINE
  8
0
 62
     0
 10
44.5273
 20
38.935
 30
0.0
 11
45.3263
 21
38.935
 31
0.0
  0
LINE
  8
0
 62
     0
 10
45.3263
 20
38.935
 30
0.0
 11
45.3263
 21
42.0356
 31
0.0
  0
LINE
  8
0
 62
     0
 10
45.3263
 20
42.0356
 30
0.0
 11
44.5273
 21
42.0356
 31
0.0
  0
LINE
  8
0
 62
     0
 10
44.5273
 20
42.0356
 30
0.0
 11
44.5273
 21
42.635
 31
0.0
  0
LINE
  8
0
 62
     0
 10
44.5273
 20
42.635
 30
0.0
 11
46.0513
 21
42.635
 31
0.0
  0
LINE
  8
0
 62
     0
 10
46.0513
 20
42.635
 30
0.0
 11
46.0513
 21
38.1649
 31
0.0
  0
LINE
  8
0
 62
     0
 10
46.0513
 20
38.1649
 30
0.0
 11
47.7767
 21
38.1649
 31
0.0
  0
LINE
  8
0
 62
     0
 10
47.7767
 20
38.1649
 30
0.0
 11
47.7767
 21
36.9644
 31
0.0
  0
LINE
  8
0
 62
     0
 10
47.7767
 20
36.9644
 30
0.0
 11
51.0769
 21
36.9644
 31
0.0
  0
LINE
  8
0
 62
     0
 10
51.0769
 20
36.9644
 30
0.0
 11
51.0769
 21
38.1649
 31
0.0
  0
LINE
  8
0
 62
     0
 10
51.0769
 20
38.1649
 30
0.0
 11
52.801
 21
38.1649
 31
0.0
  0
LINE
  8
0
 62
     0
 10
52.801
 20
38.1649
 30
0.0
 11
52.801
 21
44.4348
 31
0.0
  0
LINE
  8
0
 62
     0
 10
52.801
 20
44.4348
 30
0.0
 11
53.6265
 21
44.4348
 31
0.0
  0
LINE
  8
0
 62
     0
 10
53.6265
 20
44.4348
 30
0.0
 11
53.6265
 21
47.2352
 31
0.0
  0
LINE
  8
0
 62
     0
 10
53.6265
 20
47.2352
 30
0.0
 11
52.801
 21
47.2352
 31
0.0
  0
LINE
  8
0
 62
     0
 10
52.801
 20
47.2352
 30
0.0
 11
52.801
 21
50.4652
 31
0.0
  0
LINE
  8
0
 62
     0
 10
52.801
 20
50.4652
 30
0.0
 11
46.0513
 21
50.4652
 31
0.0
  0
LINE
  8
0
 62
     0
 10
46.0513
 20
50.4652
 30
0.0
 11
46.0513
 21
47.2352
 31
0.0
  0
LINE
  8
0
 62
     0
 10
46.0513
 20
47.2352
 30
0.0
 11
44.5273
 21
47.2352
 31
0.0
  0
LINE
  8
0
 62
     0
 10
44.5273
 20
47.2352
 30
0.0
 11
44.5273
 21
47.836
 31
0.0
  0
LINE
  8
0
 62
     0
 10
44.5273
 20
47.836
 30
0.0
 11
45.3263
 21
47.836
 31
0.0
  0
LINE
  8
0
 62
     0
 10
45.3263
 20
47.836
 30
0.0
 11
45.3263
 21
50.9351
 31
0.0
  0
LINE
  8
0
 62
     0
 10
45.3263
 20
50.9351
 30
0.0
 11
44.5273
 21
50.9351
 31
0.0
  0
LINE
  8
0
 62
     0
 10
44.5273
 20
50.9351
 30
0.0
 11
44.5273
 21
51.9356
 31
0.0
  0
LINE
  8
0
 62
     0
 10
44.5273
 20
51.9356
 30
0.0
 11
30.5263
 21
51.9356
 31
0.0
  0
LINE
  8
0
 62
     0
 10
304.37
 20
51.9356
 30
0.0
 11
304.37
 21
50.9351
 31
0.0
  0
LINE
  8
0
 62
     0
 10
304.37
 20
50.9351
 30
0.0
 11
303.571
 21
50.9351
 31
0.0
  0
LINE
  8
0
 62
     0
 10
303.571
 20
50.9351
 30
0.0
 11
303.571
 21
47.836
 31
0.0
  0
LINE
  8
0
 62
     0
 10
303.571
 20
47.836
 30
0.0
 11
304.37
 21
47.836
 31
0.0
  0
LINE
  8
0
 62
     0
 10
304.37
 20
47.836
 30
0.0
 11
304.37
 21
42.0356
 31
0.0
  0
LINE
  8
0
 62
     0
 10
304.37
 20
42.0356
 30
0.0
 11
303.571
 21
42.0356
 31
0.0
  0
LINE
  8
0
 62
     0
 10
303.571
 20
42.0356
 30
0.0
 11
303.571
 21
38.935
 31
0.0
  0
LINE
  8
0
 62
     0
 10
303.571
 20
38.935
 30
0.0
 11
304.37
 21
38.935
 31
0.0
  0
LINE
  8
0
 62
     0
 10
304.37
 20
38.935
 30
0.0
 11
304.37
 21
37.9345
 31
0.0
  0
LINE
  8
0
 62
     0
 10
304.37
 20
37.9345
 30
0.0
 11
318.371
 21
37.9345
 31
0.0
  0
LINE
  8
0
 62
     0
 10
318.371
 20
37.9345
 30
0.0
 11
318.371
 21
38.935
 31
0.0
  0
LINE
  8
0
 62
     0
 10
318.371
 20
38.935
 30
0.0
 11
319.17
 21
38.935
 31
0.0
  0
LINE
  8
0
 62
     0
 10
319.17
 20
38.935
 30
0.0
 11
319.17
 21
42.0356
 31
0.0
  0
LINE
  8
0
 62
     0
 10
319.17
 20
42.0356
 30
0.0
 11
318.371
 21
42.0356
 31
0.0
  0
LINE
  8
0
 62
     0
 10
318.371
 20
42.0356
 30
0.0
 11
318.371
 21
47.836
 31
0.0
  0
LINE
  8
0
 62
     0
 10
318.371
 20
47.836
 30
0.0
 11
319.17
 21
47.836
 31
0.0
  0
LINE
  8
0
 62
     0
 10
319.17
 20
47.836
 30
0.0
 11
319.17
 21
50.9351
 31
0.0
  0
LINE
  8
0
 62
     0
 10
319.17
 20
50.9351
 30
0.0
 11
318.371
 21
50.9351
 31
0.0
  0
LINE
  8
0
 62
     0
 10
318.371
 20
50.9351
 30
0.0
 11
318.371
 21
51.9356
 31
0.0
  0
LINE
  8
0
 62
     0
 10
318.371
 20
51.9356
 30
0.0
 11
304.37
 21
51.9356
 31
0.0
  0
LINE
  8
0
 62
     0
 10
285.32
 20
51.9356
 30
0.0
 11
285.32
 21
50.9351
 31
0.0
  0
LINE
  8
0
 62
     0
 10
285.32
 20
50.9351
 30
0.0
 11
284.521
 21
50.9351
 31
0.0
  0
LINE
  8
0
 62
     0
 10
284.521
 20
50.9351
 30
0.0
 11
284.521
 21
47.836
 31
0.0
  0
LINE
  8
0
 62
     0
 10
284.521
 20
47.836
 30
0.0
 11
285.32
 21
47.836
 31
0.0
  0
LINE
  8
0
 62
     0
 10
285.32
 20
47.836
 30
0.0
 11
285.32
 21
42.0356
 31
0.0
  0
LINE
  8
0
 62
     0
 10
285.32
 20
42.0356
 30
0.0
 11
284.521
 21
42.0356
 31
0.0
  0
LINE
  8
0
 62
     0
 10
284.521
 20
42.0356
 30
0.0
 11
284.521
 21
38.935
 31
0.0
  0
LINE
  8
0
 62
     0
 10
284.521
 20
38.935
 30
0.0
 11
285.32
 21
38.935
 31
0.0
  0
LINE
  8
0
 62
     0
 10
285.32
 20
38.935
 30
0.0
 11
285.32
 21
37.9345
 31
0.0
  0
LINE
  8
0
 62
     0
 10
285.32
 20
37.9345
 30
0.0
 11
299.321
 21
37.9345
 31
0.0
  0
LINE
  8
0
 62
     0
 10
299.321
 20
37.9345
 30
0.0
 11
299.321
 21
38.935
 31
0.0
  0
LINE
  8
0
 62
     0
 10
299.321
 20
38.935
 30
0.0
 11
300.12
 21
38.935
 31
0.0
  0
LINE
  8
0
 62
     0
 10
300.12
 20
38.935
 30
0.0
 11
300.12
 21
42.0356
 31
0.0
  0
LINE
  8
0
 62
     0
 10
300.12
 20
42.0356
 30
0.0
 11
299.321
 21
42.0356
 31
0.0
  0
LINE
  8
0
 62
     0
 10
299.321
 20
42.0356
 30
0.0
 11
299.321
 21
47.836
 31
0.0
  0
LINE
  8
0
 62
     0
 10
299.321
 20
47.836
 30
0.0
 11
300.12
 21
47.836
 31
0.0
  0
LINE
  8
0
 62
     0
 10
300.12
 20
47.836
 30
0.0
 11
300.12
 21
50.9351
 31
0.0
  0
LINE
  8
0
 62
     0
 10
300.12
 20
50.9351
 30
0.0
 11
299.321
 21
50.9351
 31
0.0
  0
LINE
  8
0
 62
     0
 10
299.321
 20
50.9351
 30
0.0
 11
299.321
 21
51.9356
 31
0.0
  0
LINE
  8
0
 62
     0
 10
299.321
 20
51.9356
 30
0.0
 11
285.32
 21
51.9356
 31
0.0
  0
LINE
  8
0
 62
     0
 10
259.126
 20
51.9356
 30
0.0
 11
259.126
 21
50.9351
 31
0.0
  0
LINE
  8
0
 62
     0
 10
259.126
 20
50.9351
 30
0.0
 11
258.327
 21
50.9351
 31
0.0
  0
LINE
  8
0
 62
     0
 10
258.327
 20
50.9351
 30
0.0
 11
258.327
 21
47.836
 31
0.0
  0
LINE
  8
0
 62
     0
 10
258.327
 20
47.836
 30
0.0
 11
259.126
 21
47.836
 31
0.0
  0
LINE
  8
0
 62
     0
 10
259.126
 20
47.836
 30
0.0
 11
259.126
 21
42.0356
 31
0.0
  0
LINE
  8
0
 62
     0
 10
259.126
 20
42.0356
 30
0.0
 11
258.327
 21
42.0356
 31
0.0
  0
LINE
  8
0
 62
     0
 10
258.327
 20
42.0356
 30
0.0
 11
258.327
 21
38.935
 31
0.0
  0
LINE
  8
0
 62
     0
 10
258.327
 20
38.935
 30
0.0
 11
259.126
 21
38.935
 31
0.0
  0
LINE
  8
0
 62
     0
 10
259.126
 20
38.935
 30
0.0
 11
259.126
 21
37.9345
 31
0.0
  0
LINE
  8
0
 62
     0
 10
259.126
 20
37.9345
 30
0.0
 11
273.127
 21
37.9345
 31
0.0
  0
LINE
  8
0
 62
     0
 10
273.127
 20
37.9345
 30
0.0
 11
273.127
 21
38.935
 31
0.0
  0
LINE
  8
0
 62
     0
 10
273.127
 20
38.935
 30
0.0
 11
273.926
 21
38.935
 31
0.0
  0
LINE
  8
0
 62
     0
 10
273.926
 20
38.935
 30
0.0
 11
273.926
 21
42.0356
 31
0.0
  0
LINE
  8
0
 62
     0
 10
273.926
 20
42.0356
 30
0.0
 11
273.127
 21
42.0356
 31
0.0
  0
LINE
  8
0
 62
     0
 10
273.127
 20
42.0356
 30
0.0
 11
273.127
 21
47.836
 31
0.0
  0
LINE
  8
0
 62
     0
 10
273.127
 20
47.836
 30
0.0
 11
273.926
 21
47.836
 31
0.0
  0
LINE
  8
0
 62
     0
 10
273.926
 20
47.836
 30
0.0
 11
273.926
 21
50.9351
 31
0.0
  0
LINE
  8
0
 62
     0
 10
273.926
 20
50.9351
 30
0.0
 11
273.127
 21
50.9351
 31
0.0
  0
LINE
  8
0
 62
     0
 10
273.127
 20
50.9351
 30
0.0
 11
273.127
 21
51.9356
 31
0.0
  0
LINE
  8
0
 62
     0
 10
273.127
 20
51.9356
 30
0.0
 11
259.126
 21
51.9356
 31
0.0
  0
LINE
  8
0
 62
     0
 10
232.932
 20
51.9356
 30
0.0
 11
232.932
 21
50.9351
 31
0.0
  0
LINE
  8
0
 62
     0
 10
232.932
 20
50.9351
 30
0.0
 11
232.132
 21
50.9351
 31
0.0
  0
LINE
  8
0
 62
     0
 10
232.132
 20
50.9351
 30
0.0
 11
232.132
 21
47.836
 31
0.0
  0
LINE
  8
0
 62
     0
 10
232.132
 20
47.836
 30
0.0
 11
232.932
 21
47.836
 31
0.0
  0
LINE
  8
0
 62
     0
 10
232.932
 20
47.836
 30
0.0
 11
232.932
 21
42.0356
 31
0.0
  0
LINE
  8
0
 62
     0
 10
232.932
 20
42.0356
 30
0.0
 11
232.132
 21
42.0356
 31
0.0
  0
LINE
  8
0
 62
     0
 10
232.132
 20
42.0356
 30
0.0
 11
232.132
 21
38.935
 31
0.0
  0
LINE
  8
0
 62
     0
 10
232.132
 20
38.935
 30
0.0
 11
232.932
 21
38.935
 31
0.0
  0
LINE
  8
0
 62
     0
 10
232.932
 20
38.935
 30
0.0
 11
232.932
 21
37.9345
 31
0.0
  0
LINE
  8
0
 62
     0
 10
232.932
 20
37.9345
 30
0.0
 11
246.932
 21
37.9345
 31
0.0
  0
LINE
  8
0
 62
     0
 10
246.932
 20
37.9345
 30
0.0
 11
246.932
 21
38.935
 31
0.0
  0
LINE
  8
0
 62
     0
 10
246.932
 20
38.935
 30
0.0
 11
247.733
 21
38.935
 31
0.0
  0
LINE
  8
0
 62
     0
 10
247.733
 20
38.935
 30
0.0
 11
247.733
 21
42.0356
 31
0.0
  0
LINE
  8
0
 62
     0
 10
247.733
 20
42.0356
 30
0.0
 11
246.932
 21
42.0356
 31
0.0
  0
LINE
  8
0
 62
     0
 10
246.932
 20
42.0356
 30
0.0
 11
246.932
 21
47.836
 31
0.0
  0
LINE
  8
0
 62
     0
 10
246.932
 20
47.836
 30
0.0
 11
247.733
 21
47.836
 31
0.0
  0
LINE
  8
0
 62
     0
 10
247.733
 20
47.836
 30
0.0
 11
247.733
 21
50.9351
 31
0.0
  0
LINE
  8
0
 62
     0
 10
247.733
 20
50.9351
 30
0.0
 11
246.932
 21
50.9351
 31
0.0
  0
LINE
  8
0
 62
     0
 10
246.932
 20
50.9351
 30
0.0
 11
246.932
 21
51.9356
 31
0.0
  0
LINE
  8
0
 62
     0
 10
246.932
 20
51.9356
 30
0.0
 11
232.932
 21
51.9356
 31
0.0
  0
LINE
  8
0
 62
     0
 10
213.882
 20
51.9356
 30
0.0
 11
213.882
 21
50.9351
 31
0.0
  0
LINE
  8
0
 62
     0
 10
213.882
 20
50.9351
 30
0.0
 11
213.082
 21
50.9351
 31
0.0
  0
LINE
  8
0
 62
     0
 10
213.082
 20
50.9351
 30
0.0
 11
213.082
 21
47.836
 31
0.0
  0
LINE
  8
0
 62
     0
 10
213.082
 20
47.836
 30
0.0
 11
213.882
 21
47.836
 31
0.0
  0
LINE
  8
0
 62
     0
 10
213.882
 20
47.836
 30
0.0
 11
213.882
 21
42.0356
 31
0.0
  0
LINE
  8
0
 62
     0
 10
213.882
 20
42.0356
 30
0.0
 11
213.082
 21
42.0356
 31
0.0
  0
LINE
  8
0
 62
     0
 10
213.082
 20
42.0356
 30
0.0
 11
213.082
 21
38.935
 31
0.0
  0
LINE
  8
0
 62
     0
 10
213.082
 20
38.935
 30
0.0
 11
213.882
 21
38.935
 31
0.0
  0
LINE
  8
0
 62
     0
 10
213.882
 20
38.935
 30
0.0
 11
213.882
 21
37.9345
 31
0.0
  0
LINE
  8
0
 62
     0
 10
213.882
 20
37.9345
 30
0.0
 11
227.882
 21
37.9345
 31
0.0
  0
LINE
  8
0
 62
     0
 10
227.882
 20
37.9345
 30
0.0
 11
227.882
 21
38.935
 31
0.0
  0
LINE
  8
0
 62
     0
 10
227.882
 20
38.935
 30
0.0
 11
228.683
 21
38.935
 31
0.0
  0
LINE
  8
0
 62
     0
 10
228.683
 20
38.935
 30
0.0
 11
228.683
 21
42.0356
 31
0.0
  0
LINE
  8
0
 62
     0
 10
228.683
 20
42.0356
 30
0.0
 11
227.882
 21
42.0356
 31
0.0
  0
LINE
  8
0
 62
     0
 10
227.882
 20
42.0356
 30
0.0
 11
227.882
 21
47.836
 31
0.0
  0
LINE
  8
0
 62
     0
 10
227.882
 20
47.836
 30
0.0
 11
228.683
 21
47.836
 31
0.0
  0
LINE
  8
0
 62
     0
 10
228.683
 20
47.836
 30
0.0
 11
228.683
 21
50.9351
 31
0.0
  0
LINE
  8
0
 62
     0
 10
228.683
 20
50.9351
 30
0.0
 11
227.882
 21
50.9351
 31
0.0
  0
LINE
  8
0
 62
     0
 10
227.882
 20
50.9351
 30
0.0
 11
227.882
 21
51.9356
 31
0.0
  0
LINE
  8
0
 62
     0
 10
227.882
 20
51.9356
 30
0.0
 11
213.882
 21
51.9356
 31
0.0
  0
LINE
  8
0
 62
     0
 10
194.832
 20
51.9356
 30
0.0
 11
194.832
 21
50.9351
 31
0.0
  0
LINE
  8
0
 62
     0
 10
194.832
 20
50.9351
 30
0.0
 11
194.032
 21
50.9351
 31
0.0
  0
LINE
  8
0
 62
     0
 10
194.032
 20
50.9351
 30
0.0
 11
194.032
 21
47.836
 31
0.0
  0
LINE
  8
0
 62
     0
 10
194.032
 20
47.836
 30
0.0
 11
194.832
 21
47.836
 31
0.0
  0
LINE
  8
0
 62
     0
 10
194.832
 20
47.836
 30
0.0
 11
194.832
 21
42.0356
 31
0.0
  0
LINE
  8
0
 62
     0
 10
194.832
 20
42.0356
 30
0.0
 11
194.032
 21
42.0356
 31
0.0
  0
LINE
  8
0
 62
     0
 10
194.032
 20
42.0356
 30
0.0
 11
194.032
 21
38.935
 31
0.0
  0
LINE
  8
0
 62
     0
 10
194.032
 20
38.935
 30
0.0
 11
194.832
 21
38.935
 31
0.0
  0
LINE
  8
0
 62
     0
 10
194.832
 20
38.935
 30
0.0
 11
194.832
 21
37.9345
 31
0.0
  0
LINE
  8
0
 62
     0
 10
194.832
 20
37.9345
 30
0.0
 11
208.832
 21
37.9345
 31
0.0
  0
LINE
  8
0
 62
     0
 10
208.832
 20
37.9345
 30
0.0
 11
208.832
 21
38.935
 31
0.0
  0
LINE
  8
0
 62
     0
 10
208.832
 20
38.935
 30
0.0
 11
209.633
 21
38.935
 31
0.0
  0
LINE
  8
0
 62
     0
 10
209.633
 20
38.935
 30
0.0
 11
209.633
 21
42.0356
 31
0.0
  0
LINE
  8
0
 62
     0
 10
209.633
 20
42.0356
 30
0.0
 11
208.832
 21
42.0356
 31
0.0
  0
LINE
  8
0
 62
     0
 10
208.832
 20
42.0356
 30
0.0
 11
208.832
 21
47.836
 31
0.0
  0
LINE
  8
0
 62
     0
 10
208.832
 20
47.836
 30
0.0
 11
209.633
 21
47.836
 31
0.0
  0
LINE
  8
0
 62
     0
 10
209.633
 20
47.836
 30
0.0
 11
209.633
 21
50.9351
 31
0.0
  0
LINE
  8
0
 62
     0
 10
209.633
 20
50.9351
 30
0.0
 11
208.832
 21
50.9351
 31
0.0
  0
LINE
  8
0
 62
     0
 10
208.832
 20
50.9351
 30
0.0
 11
208.832
 21
51.9356
 31
0.0
  0
LINE
  8
0
 62
     0
 10
208.832
 20
51.9356
 30
0.0
 11
194.832
 21
51.9356
 31
0.0
  0
LINE
  8
0
 62
     0
 10
175.782
 20
51.9356
 30
0.0
 11
175.782
 21
50.9351
 31
0.0
  0
LINE
  8
0
 62
     0
 10
175.782
 20
50.9351
 30
0.0
 11
174.982
 21
50.9351
 31
0.0
  0
LINE
  8
0
 62
     0
 10
174.982
 20
50.9351
 30
0.0
 11
174.982
 21
47.836
 31
0.0
  0
LINE
  8
0
 62
     0
 10
174.982
 20
47.836
 30
0.0
 11
175.782
 21
47.836
 31
0.0
  0
LINE
  8
0
 62
     0
 10
175.782
 20
47.836
 30
0.0
 11
175.782
 21
42.0356
 31
0.0
  0
LINE
  8
0
 62
     0
 10
175.782
 20
42.0356
 30
0.0
 11
174.982
 21
42.0356
 31
0.0
  0
LINE
  8
0
 62
     0
 10
174.982
 20
42.0356
 30
0.0
 11
174.982
 21
38.935
 31
0.0
  0
LINE
  8
0
 62
     0
 10
174.982
 20
38.935
 30
0.0
 11
175.782
 21
38.935
 31
0.0
  0
LINE
  8
0
 62
     0
 10
175.782
 20
38.935
 30
0.0
 11
175.782
 21
37.9345
 31
0.0
  0
LINE
  8
0
 62
     0
 10
175.782
 20
37.9345
 30
0.0
 11
189.782
 21
37.9345
 31
0.0
  0
LINE
  8
0
 62
     0
 10
189.782
 20
37.9345
 30
0.0
 11
189.782
 21
38.935
 31
0.0
  0
LINE
  8
0
 62
     0
 10
189.782
 20
38.935
 30
0.0
 11
190.583
 21
38.935
 31
0.0
  0
LINE
  8
0
 62
     0
 10
190.583
 20
38.935
 30
0.0
 11
190.583
 21
42.0356
 31
0.0
  0
LINE
  8
0
 62
     0
 10
190.583
 20
42.0356
 30
0.0
 11
189.782
 21
42.0356
 31
0.0
  0
LINE
  8
0
 62
     0
 10
189.782
 20
42.0356
 30
0.0
 11
189.782
 21
47.836
 31
0.0
  0
LINE
  8
0
 62
     0
 10
189.782
 20
47.836
 30
0.0
 11
190.583
 21
47.836
 31
0.0
  0
LINE
  8
0
 62
     0
 10
190.583
 20
47.836
 30
0.0
 11
190.583
 21
50.9351
 31
0.0
  0
LINE
  8
0
 62
     0
 10
190.583
 20
50.9351
 30
0.0
 11
189.782
 21
50.9351
 31
0.0
  0
LINE
  8
0
 62
     0
 10
189.782
 20
50.9351
 30
0.0
 11
189.782
 21
51.9356
 31
0.0
  0
LINE
  8
0
 62
     0
 10
189.782
 20
51.9356
 30
0.0
 11
175.782
 21
51.9356
 31
0.0
  0
LINE
  8
0
 62
     0
 10
156.732
 20
51.9356
 30
0.0
 11
156.732
 21
50.9351
 31
0.0
  0
LINE
  8
0
 62
     0
 10
156.732
 20
50.9351
 30
0.0
 11
155.932
 21
50.9351
 31
0.0
  0
LINE
  8
0
 62
     0
 10
155.932
 20
50.9351
 30
0.0
 11
155.932
 21
47.836
 31
0.0
  0
LINE
  8
0
 62
     0
 10
155.932
 20
47.836
 30
0.0
 11
156.732
 21
47.836
 31
0.0
  0
LINE
  8
0
 62
     0
 10
156.732
 20
47.836
 30
0.0
 11
156.732
 21
42.0356
 31
0.0
  0
LINE
  8
0
 62
     0
 10
156.732
 20
42.0356
 30
0.0
 11
155.932
 21
42.0356
 31
0.0
  0
LINE
  8
0
 62
     0
 10
155.932
 20
42.0356
 30
0.0
 11
155.932
 21
38.935
 31
0.0
  0
LINE
  8
0
 62
     0
 10
155.932
 20
38.935
 30
0.0
 11
156.732
 21
38.935
 31
0.0
  0
LINE
  8
0
 62
     0
 10
156.732
 20
38.935
 30
0.0
 11
156.732
 21
37.9345
 31
0.0
  0
LINE
  8
0
 62
     0
 10
156.732
 20
37.9345
 30
0.0
 11
170.732
 21
37.9345
 31
0.0
  0
LINE
  8
0
 62
     0
 10
170.732
 20
37.9345
 30
0.0
 11
170.732
 21
38.935
 31
0.0
  0
LINE
  8
0
 62
     0
 10
170.732
 20
38.935
 30
0.0
 11
171.533
 21
38.935
 31
0.0
  0
LINE
  8
0
 62
     0
 10
171.533
 20
38.935
 30
0.0
 11
171.533
 21
42.0356
 31
0.0
  0
LINE
  8
0
 62
     0
 10
171.533
 20
42.0356
 30
0.0
 11
170.732
 21
42.0356
 31
0.0
  0
LINE
  8
0
 62
     0
 10
170.732
 20
42.0356
 30
0.0
 11
170.732
 21
47.836
 31
0.0
  0
LINE
  8
0
 62
     0
 10
170.732
 20
47.836
 30
0.0
 11
171.533
 21
47.836
 31
0.0
  0
LINE
  8
0
 62
     0
 10
171.533
 20
47.836
 30
0.0
 11
171.533
 21
50.9351
 31
0.0
  0
LINE
  8
0
 62
     0
 10
171.533
 20
50.9351
 30
0.0
 11
170.732
 21
50.9351
 31
0.0
  0
LINE
  8
0
 62
     0
 10
170.732
 20
50.9351
 30
0.0
 11
170.732
 21
51.9356
 31
0.0
  0
LINE
  8
0
 62
     0
 10
170.732
 20
51.9356
 30
0.0
 11
156.732
 21
51.9356
 31
0.0
  0
LINE
  8
0
 62
     0
 10
137.682
 20
51.9356
 30
0.0
 11
137.682
 21
50.9351
 31
0.0
  0
LINE
  8
0
 62
     0
 10
137.682
 20
50.9351
 30
0.0
 11
136.882
 21
50.9351
 31
0.0
  0
LINE
  8
0
 62
     0
 10
136.882
 20
50.9351
 30
0.0
 11
136.882
 21
47.836
 31
0.0
  0
LINE
  8
0
 62
     0
 10
136.882
 20
47.836
 30
0.0
 11
137.682
 21
47.836
 31
0.0
  0
LINE
  8
0
 62
     0
 10
137.682
 20
47.836
 30
0.0
 11
137.682
 21
42.0356
 31
0.0
  0
LINE
  8
0
 62
     0
 10
137.682
 20
42.0356
 30
0.0
 11
136.882
 21
42.0356
 31
0.0
  0
LINE
  8
0
 62
     0
 10
136.882
 20
42.0356
 30
0.0
 11
136.882
 21
38.935
 31
0.0
  0
LINE
  8
0
 62
     0
 10
136.882
 20
38.935
 30
0.0
 11
137.682
 21
38.935
 31
0.0
  0
LINE
  8
0
 62
     0
 10
137.682
 20
38.935
 30
0.0
 11
137.682
 21
37.9345
 31
0.0
  0
LINE
  8
0
 62
     0
 10
137.682
 20
37.9345
 30
0.0
 11
151.682
 21
37.9345
 31
0.0
  0
LINE
  8
0
 62
     0
 10
151.682
 20
37.9345
 30
0.0
 11
151.682
 21
38.935
 31
0.0
  0
LINE
  8
0
 62
     0
 10
151.682
 20
38.935
 30
0.0
 11
152.483
 21
38.935
 31
0.0
  0
LINE
  8
0
 62
     0
 10
152.483
 20
38.935
 30
0.0
 11
152.483
 21
42.0356
 31
0.0
  0
LINE
  8
0
 62
     0
 10
152.483
 20
42.0356
 30
0.0
 11
151.682
 21
42.0356
 31
0.0
  0
LINE
  8
0
 62
     0
 10
151.682
 20
42.0356
 30
0.0
 11
151.682
 21
47.836
 31
0.0
  0
LINE
  8
0
 62
     0
 10
151.682
 20
47.836
 30
0.0
 11
152.483
 21
47.836
 31
0.0
  0
LINE
  8
0
 62
     0
 10
152.483
 20
47.836
 30
0.0
 11
152.483
 21
50.9351
 31
0.0
  0
LINE
  8
0
 62
     0
 10
152.483
 20
50.9351
 30
0.0
 11
151.682
 21
50.9351
 31
0.0
  0
LINE
  8
0
 62
     0
 10
151.682
 20
50.9351
 30
0.0
 11
151.682
 21
51.9356
 31
0.0
  0
LINE
  8
0
 62
     0
 10
151.682
 20
51.9356
 30
0.0
 11
137.682
 21
51.9356
 31
0.0
  0
LINE
  8
0
 62
     0
 10
118.632
 20
51.9356
 30
0.0
 11
118.632
 21
50.9351
 31
0.0
  0
LINE
  8
0
 62
     0
 10
118.632
 20
50.9351
 30
0.0
 11
117.832
 21
50.9351
 31
0.0
  0
LINE
  8
0
 62
     0
 10
117.832
 20
50.9351
 30
0.0
 11
117.832
 21
47.836
 31
0.0
  0
LINE
  8
0
 62
     0
 10
117.832
 20
47.836
 30
0.0
 11
118.632
 21
47.836
 31
0.0
  0
LINE
  8
0
 62
     0
 10
118.632
 20
47.836
 30
0.0
 11
118.632
 21
42.0356
 31
0.0
  0
LINE
  8
0
 62
     0
 10
118.632
 20
42.0356
 30
0.0
 11
117.832
 21
42.0356
 31
0.0
  0
LINE
  8
0
 62
     0
 10
117.832
 20
42.0356
 30
0.0
 11
117.832
 21
38.935
 31
0.0
  0
LINE
  8
0
 62
     0
 10
117.832
 20
38.935
 30
0.0
 11
118.632
 21
38.935
 31
0.0
  0
LINE
  8
0
 62
     0
 10
118.632
 20
38.935
 30
0.0
 11
118.632
 21
37.9345
 31
0.0
  0
LINE
  8
0
 62
     0
 10
118.632
 20
37.9345
 30
0.0
 11
132.632
 21
37.9345
 31
0.0
  0
LINE
  8
0
 62
     0
 10
132.632
 20
37.9345
 30
0.0
 11
132.632
 21
38.935
 31
0.0
  0
LINE
  8
0
 62
     0
 10
132.632
 20
38.935
 30
0.0
 11
133.433
 21
38.935
 31
0.0
  0
LINE
  8
0
 62
     0
 10
133.433
 20
38.935
 30
0.0
 11
133.433
 21
42.0356
 31
0.0
  0
LINE
  8
0
 62
     0
 10
133.433
 20
42.0356
 30
0.0
 11
132.632
 21
42.0356
 31
0.0
  0
LINE
  8
0
 62
     0
 10
132.632
 20
42.0356
 30
0.0
 11
132.632
 21
47.836
 31
0.0
  0
LINE
  8
0
 62
     0
 10
132.632
 20
47.836
 30
0.0
 11
133.433
 21
47.836
 31
0.0
  0
LINE
  8
0
 62
     0
 10
133.433
 20
47.836
 30
0.0
 11
133.433
 21
50.9351
 31
0.0
  0
LINE
  8
0
 62
     0
 10
133.433
 20
50.9351
 30
0.0
 11
132.632
 21
50.9351
 31
0.0
  0
LINE
  8
0
 62
     0
 10
132.632
 20
50.9351
 30
0.0
 11
132.632
 21
51.9356
 31
0.0
  0
LINE
  8
0
 62
     0
 10
132.632
 20
51.9356
 30
0.0
 11
118.632
 21
51.9356
 31
0.0
  0
LINE
  8
0
 62
     0
 10
99.5825
 20
51.9356
 30
0.0
 11
99.5825
 21
50.9351
 31
0.0
  0
LINE
  8
0
 62
     0
 10
99.5825
 20
50.9351
 30
0.0
 11
98.782
 21
50.9351
 31
0.0
  0
LINE
  8
0
 62
     0
 10
98.782
 20
50.9351
 30
0.0
 11
98.782
 21
47.836
 31
0.0
  0
LINE
  8
0
 62
     0
 10
98.782
 20
47.836
 30
0.0
 11
99.5825
 21
47.836
 31
0.0
  0
LINE
  8
0
 62
     0
 10
99.5825
 20
47.836
 30
0.0
 11
99.5825
 21
42.0356
 31
0.0
  0
LINE
  8
0
 62
     0
 10
99.5825
 20
42.0356
 30
0.0
 11
98.782
 21
42.0356
 31
0.0
  0
LINE
  8
0
 62
     0
 10
98.782
 20
42.0356
 30
0.0
 11
98.782
 21
38.935
 31
0.0
  0
LINE
  8
0
 62
     0
 10
98.782
 20
38.935
 30
0.0
 11
99.5825
 21
38.935
 31
0.0
  0
LINE
  8
0
 62
     0
 10
99.5825
 20
38.935
 30
0.0
 11
99.5825
 21
37.9345
 31
0.0
  0
LINE
  8
0
 62
     0
 10
99.5825
 20
37.9345
 30
0.0
 11
113.582
 21
37.9345
 31
0.0
  0
LINE
  8
0
 62
     0
 10
113.582
 20
37.9345
 30
0.0
 11
113.582
 21
38.935
 31
0.0
  0
LINE
  8
0
 62
     0
 10
113.582
 20
38.935
 30
0.0
 11
114.383
 21
38.935
 31
0.0
  0
LINE
  8
0
 62
     0
 10
114.383
 20
38.935
 30
0.0
 11
114.383
 21
42.0356
 31
0.0
  0
LINE
  8
0
 62
     0
 10
114.383
 20
42.0356
 30
0.0
 11
113.582
 21
42.0356
 31
0.0
  0
LINE
  8
0
 62
     0
 10
113.582
 20
42.0356
 30
0.0
 11
113.582
 21
47.836
 31
0.0
  0
LINE
  8
0
 62
     0
 10
113.582
 20
47.836
 30
0.0
 11
114.383
 21
47.836
 31
0.0
  0
LINE
  8
0
 62
     0
 10
114.383
 20
47.836
 30
0.0
 11
114.383
 21
50.9351
 31
0.0
  0
LINE
  8
0
 62
     0
 10
114.383
 20
50.9351
 30
0.0
 11
113.582
 21
50.9351
 31
0.0
  0
LINE
  8
0
 62
     0
 10
113.582
 20
50.9351
 30
0.0
 11
113.582
 21
51.9356
 31
0.0
  0
LINE
  8
0
 62
     0
 10
113.582
 20
51.9356
 30
0.0
 11
99.5825
 21
51.9356
 31
0.0
  0
LINE
  8
0
 62
     0
 10
80.5325
 20
51.9356
 30
0.0
 11
80.5325
 21
50.9351
 31
0.0
  0
LINE
  8
0
 62
     0
 10
80.5325
 20
50.9351
 30
0.0
 11
79.732
 21
50.9351
 31
0.0
  0
LINE
  8
0
 62
     0
 10
79.732
 20
50.9351
 30
0.0
 11
79.732
 21
47.836
 31
0.0
  0
LINE
  8
0
 62
     0
 10
79.732
 20
47.836
 30
0.0
 11
80.5325
 21
47.836
 31
0.0
  0
LINE
  8
0
 62
     0
 10
80.5325
 20
47.836
 30
0.0
 11
80.5325
 21
42.0356
 31
0.0
  0
LINE
  8
0
 62
     0
 10
80.5325
 20
42.0356
 30
0.0
 11
79.732
 21
42.0356
 31
0.0
  0
LINE
  8
0
 62
     0
 10
79.732
 20
42.0356
 30
0.0
 11
79.732
 21
38.935
 31
0.0
  0
LINE
  8
0
 62
     0
 10
79.732
 20
38.935
 30
0.0
 11
80.5325
 21
38.935
 31
0.0
  0
LINE
  8
0
 62
     0
 10
80.5325
 20
38.935
 30
0.0
 11
80.5325
 21
37.9345
 31
0.0
  0
LINE
  8
0
 62
     0
 10
80.5325
 20
37.9345
 30
0.0
 11
94.5321
 21
37.9345
 31
0.0
  0
LINE
  8
0
 62
     0
 10
94.5321
 20
37.9345
 30
0.0
 11
94.5321
 21
38.935
 31
0.0
  0
LINE
  8
0
 62
     0
 10
94.5321
 20
38.935
 30
0.0
 11
95.3326
 21
38.935
 31
0.0
  0
LINE
  8
0
 62
     0
 10
95.3326
 20
38.935
 30
0.0
 11
95.3326
 21
42.0356
 31
0.0
  0
LINE
  8
0
 62
     0
 10
95.3326
 20
42.0356
 30
0.0
 11
94.5321
 21
42.0356
 31
0.0
  0
LINE
  8
0
 62
     0
 10
94.5321
 20
42.0356
 30
0.0
 11
94.5321
 21
47.836
 31
0.0
  0
LINE
  8
0
 62
     0
 10
94.5321
 20
47.836
 30
0.0
 11
95.3326
 21
47.836
 31
0.0
  0
LINE
  8
0
 62
     0
 10
95.3326
 20
47.836
 30
0.0
 11
95.3326
 21
50.9351
 31
0.0
  0
LINE
  8
0
 62
     0
 10
95.3326
 20
50.9351
 30
0.0
 11
94.5321
 21
50.9351
 31
0.0
  0
LINE
  8
0
 62
     0
 10
94.5321
 20
50.9351
 30
0.0
 11
94.5321
 21
51.9356
 31
0.0
  0
LINE
  8
0
 62
     0
 10
94.5321
 20
51.9356
 30
0.0
 11
80.5325
 21
51.9356
 31
0.0
  0
LINE
  8
0
 62
     0
 10
61.4825
 20
51.9356
 30
0.0
 11
61.4825
 21
50.9351
 31
0.0
  0
LINE
  8
0
 62
     0
 10
61.4825
 20
50.9351
 30
0.0
 11
60.682
 21
50.9351
 31
0.0
  0
LINE
  8
0
 62
     0
 10
60.682
 20
50.9351
 30
0.0
 11
60.682
 21
47.836
 31
0.0
  0
LINE
  8
0
 62
     0
 10
60.682
 20
47.836
 30
0.0
 11
61.4825
 21
47.836
 31
0.0
  0
LINE
  8
0
 62
     0
 10
61.4825
 20
47.836
 30
0.0
 11
61.4825
 21
42.0356
 31
0.0
  0
LINE
  8
0
 62
     0
 10
61.4825
 20
42.0356
 30
0.0
 11
60.682
 21
42.0356
 31
0.0
  0
LINE
  8
0
 62
     0
 10
60.682
 20
42.0356
 30
0.0
 11
60.682
 21
38.935
 31
0.0
  0
LINE
  8
0
 62
     0
 10
60.682
 20
38.935
 30
0.0
 11
61.4825
 21
38.935
 31
0.0
  0
LINE
  8
0
 62
     0
 10
61.4825
 20
38.935
 30
0.0
 11
61.4825
 21
37.9345
 31
0.0
  0
LINE
  8
0
 62
     0
 10
61.4825
 20
37.9345
 30
0.0
 11
75.4821
 21
37.9345
 31
0.0
  0
LINE
  8
0
 62
     0
 10
75.4821
 20
37.9345
 30
0.0
 11
75.4821
 21
38.935
 31
0.0
  0
LINE
  8
0
 62
     0
 10
75.4821
 20
38.935
 30
0.0
 11
76.2825
 21
38.935
 31
0.0
  0
LINE
  8
0
 62
     0
 10
76.2825
 20
38.935
 30
0.0
 11
76.2825
 21
42.0356
 31
0.0
  0
LINE
  8
0
 62
     0
 10
76.2825
 20
42.0356
 30
0.0
 11
75.4821
 21
42.0356
 31
0.0
  0
LINE
  8
0
 62
     0
 10
75.4821
 20
42.0356
 30
0.0
 11
75.4821
 21
47.836
 31
0.0
  0
LINE
  8
0
 62
     0
 10
75.4821
 20
47.836
 30
0.0
 11
76.2825
 21
47.836
 31
0.0
  0
LINE
  8
0
 62
     0
 10
76.2825
 20
47.836
 30
0.0
 11
76.2825
 21
50.9351
 31
0.0
  0
LINE
  8
0
 62
     0
 10
76.2825
 20
50.9351
 30
0.0
 11
75.4821
 21
50.9351
 31
0.0
  0
LINE
  8
0
 62
     0
 10
75.4821
 20
50.9351
 30
0.0
 11
75.4821
 21
51.9356
 31
0.0
  0
LINE
  8
0
 62
     0
 10
75.4821
 20
51.9356
 30
0.0
 11
61.4825
 21
51.9356
 31
0.0
  0
LINE
  8
0
 62
     0
 10
273.414
 20
70.9856
 30
0.0
 11
273.414
 21
69.9851
 31
0.0
  0
LINE
  8
0
 62
     0
 10
273.414
 20
69.9851
 30
0.0
 11
272.613
 21
69.9851
 31
0.0
  0
LINE
  8
0
 62
     0
 10
272.613
 20
69.9851
 30
0.0
 11
272.613
 21
66.8845
 31
0.0
  0
LINE
  8
0
 62
     0
 10
272.613
 20
66.8845
 30
0.0
 11
273.414
 21
66.8845
 31
0.0
  0
LINE
  8
0
 62
     0
 10
273.414
 20
66.8845
 30
0.0
 11
273.414
 21
66.2852
 31
0.0
  0
LINE
  8
0
 62
     0
 10
273.414
 20
66.2852
 30
0.0
 11
271.888
 21
66.2852
 31
0.0
  0
LINE
  8
0
 62
     0
 10
271.888
 20
66.2852
 30
0.0
 11
271.888
 21
69.5152
 31
0.0
  0
LINE
  8
0
 62
     0
 10
271.888
 20
69.5152
 30
0.0
 11
265.139
 21
69.5152
 31
0.0
  0
LINE
  8
0
 62
     0
 10
265.139
 20
69.5152
 30
0.0
 11
265.139
 21
66.2852
 31
0.0
  0
LINE
  8
0
 62
     0
 10
265.139
 20
66.2852
 30
0.0
 11
264.313
 21
66.2852
 31
0.0
  0
LINE
  8
0
 62
     0
 10
264.313
 20
66.2852
 30
0.0
 11
264.313
 21
63.4848
 31
0.0
  0
LINE
  8
0
 62
     0
 10
264.313
 20
63.4848
 30
0.0
 11
265.139
 21
63.4848
 31
0.0
  0
LINE
  8
0
 62
     0
 10
265.139
 20
63.4848
 30
0.0
 11
265.139
 21
57.2149
 31
0.0
  0
LINE
  8
0
 62
     0
 10
265.139
 20
57.2149
 30
0.0
 11
266.864
 21
57.2149
 31
0.0
  0
LINE
  8
0
 62
     0
 10
266.864
 20
57.2149
 30
0.0
 11
266.864
 21
56.0144
 31
0.0
  0
LINE
  8
0
 62
     0
 10
266.864
 20
56.0144
 30
0.0
 11
270.163
 21
56.0144
 31
0.0
  0
LINE
  8
0
 62
     0
 10
270.163
 20
56.0144
 30
0.0
 11
270.163
 21
57.2149
 31
0.0
  0
LINE
  8
0
 62
     0
 10
270.163
 20
57.2149
 30
0.0
 11
271.888
 21
57.2149
 31
0.0
  0
LINE
  8
0
 62
     0
 10
271.888
 20
57.2149
 30
0.0
 11
271.888
 21
61.685
 31
0.0
  0
LINE
  8
0
 62
     0
 10
271.888
 20
61.685
 30
0.0
 11
273.414
 21
61.685
 31
0.0
  0
LINE
  8
0
 62
     0
 10
273.414
 20
61.685
 30
0.0
 11
273.414
 21
61.0856
 31
0.0
  0
LINE
  8
0
 62
     0
 10
273.414
 20
61.0856
 30
0.0
 11
272.613
 21
61.0856
 31
0.0
  0
LINE
  8
0
 62
     0
 10
272.613
 20
61.0856
 30
0.0
 11
272.613
 21
57.985
 31
0.0
  0
LINE
  8
0
 62
     0
 10
272.613
 20
57.985
 30
0.0
 11
273.414
 21
57.985
 31
0.0
  0
LINE
  8
0
 62
     0
 10
273.414
 20
57.985
 30
0.0
 11
273.414
 21
56.9845
 31
0.0
  0
LINE
  8
0
 62
     0
 10
273.414
 20
56.9845
 30
0.0
 11
287.413
 21
56.9845
 31
0.0
  0
LINE
  8
0
 62
     0
 10
287.413
 20
56.9845
 30
0.0
 11
287.413
 21
57.985
 31
0.0
  0
LINE
  8
0
 62
     0
 10
287.413
 20
57.985
 30
0.0
 11
288.214
 21
57.985
 31
0.0
  0
LINE
  8
0
 62
     0
 10
288.214
 20
57.985
 30
0.0
 11
288.214
 21
61.0856
 31
0.0
  0
LINE
  8
0
 62
     0
 10
288.214
 20
61.0856
 30
0.0
 11
287.413
 21
61.0856
 31
0.0
  0
LINE
  8
0
 62
     0
 10
287.413
 20
61.0856
 30
0.0
 11
287.413
 21
61.685
 31
0.0
  0
LINE
  8
0
 62
     0
 10
287.413
 20
61.685
 30
0.0
 11
288.939
 21
61.685
 31
0.0
  0
LINE
  8
0
 62
     0
 10
288.939
 20
61.685
 30
0.0
 11
288.939
 21
57.2149
 31
0.0
  0
LINE
  8
0
 62
     0
 10
288.939
 20
57.2149
 30
0.0
 11
290.664
 21
57.2149
 31
0.0
  0
LINE
  8
0
 62
     0
 10
290.664
 20
57.2149
 30
0.0
 11
290.664
 21
56.0144
 31
0.0
  0
LINE
  8
0
 62
     0
 10
290.664
 20
56.0144
 30
0.0
 11
293.963
 21
56.0144
 31
0.0
  0
LINE
  8
0
 62
     0
 10
293.963
 20
56.0144
 30
0.0
 11
293.963
 21
57.2149
 31
0.0
  0
LINE
  8
0
 62
     0
 10
293.963
 20
57.2149
 30
0.0
 11
295.688
 21
57.2149
 31
0.0
  0
LINE
  8
0
 62
     0
 10
295.688
 20
57.2149
 30
0.0
 11
295.688
 21
63.4848
 31
0.0
  0
LINE
  8
0
 62
     0
 10
295.688
 20
63.4848
 30
0.0
 11
296.514
 21
63.4848
 31
0.0
  0
LINE
  8
0
 62
     0
 10
296.514
 20
63.4848
 30
0.0
 11
296.514
 21
66.2852
 31
0.0
  0
LINE
  8
0
 62
     0
 10
296.514
 20
66.2852
 30
0.0
 11
295.688
 21
66.2852
 31
0.0
  0
LINE
  8
0
 62
     0
 10
295.688
 20
66.2852
 30
0.0
 11
295.688
 21
69.5152
 31
0.0
  0
LINE
  8
0
 62
     0
 10
295.688
 20
69.5152
 30
0.0
 11
288.939
 21
69.5152
 31
0.0
  0
LINE
  8
0
 62
     0
 10
288.939
 20
69.5152
 30
0.0
 11
288.939
 21
66.2852
 31
0.0
  0
LINE
  8
0
 62
     0
 10
288.939
 20
66.2852
 30
0.0
 11
287.413
 21
66.2852
 31
0.0
  0
LINE
  8
0
 62
     0
 10
287.413
 20
66.2852
 30
0.0
 11
287.413
 21
66.8845
 31
0.0
  0
LINE
  8
0
 62
     0
 10
287.413
 20
66.8845
 30
0.0
 11
288.214
 21
66.8845
 31
0.0
  0
LINE
  8
0
 62
     0
 10
288.214
 20
66.8845
 30
0.0
 11
288.214
 21
69.9851
 31
0.0
  0
LINE
  8
0
 62
     0
 10
288.214
 20
69.9851
 30
0.0
 11
287.413
 21
69.9851
 31
0.0
  0
LINE
  8
0
 62
     0
 10
287.413
 20
69.9851
 30
0.0
 11
287.413
 21
70.9856
 31
0.0
  0
LINE
  8
0
 62
     0
 10
287.413
 20
70.9856
 30
0.0
 11
273.414
 21
70.9856
 31
0.0
  0
LINE
  8
0
 62
     0
 10
304.37
 20
70.9856
 30
0.0
 11
304.37
 21
69.9851
 31
0.0
  0
LINE
  8
0
 62
     0
 10
304.37
 20
69.9851
 30
0.0
 11
303.571
 21
69.9851
 31
0.0
  0
LINE
  8
0
 62
     0
 10
303.571
 20
69.9851
 30
0.0
 11
303.571
 21
66.8845
 31
0.0
  0
LINE
  8
0
 62
     0
 10
303.571
 20
66.8845
 30
0.0
 11
304.37
 21
66.8845
 31
0.0
  0
LINE
  8
0
 62
     0
 10
304.37
 20
66.8845
 30
0.0
 11
304.37
 21
61.0856
 31
0.0
  0
LINE
  8
0
 62
     0
 10
304.37
 20
61.0856
 30
0.0
 11
303.571
 21
61.0856
 31
0.0
  0
LINE
  8
0
 62
     0
 10
303.571
 20
61.0856
 30
0.0
 11
303.571
 21
57.985
 31
0.0
  0
LINE
  8
0
 62
     0
 10
303.571
 20
57.985
 30
0.0
 11
304.37
 21
57.985
 31
0.0
  0
LINE
  8
0
 62
     0
 10
304.37
 20
57.985
 30
0.0
 11
304.37
 21
56.9845
 31
0.0
  0
LINE
  8
0
 62
     0
 10
304.37
 20
56.9845
 30
0.0
 11
318.371
 21
56.9845
 31
0.0
  0
LINE
  8
0
 62
     0
 10
318.371
 20
56.9845
 30
0.0
 11
318.371
 21
57.985
 31
0.0
  0
LINE
  8
0
 62
     0
 10
318.371
 20
57.985
 30
0.0
 11
319.17
 21
57.985
 31
0.0
  0
LINE
  8
0
 62
     0
 10
319.17
 20
57.985
 30
0.0
 11
319.17
 21
61.0856
 31
0.0
  0
LINE
  8
0
 62
     0
 10
319.17
 20
61.0856
 30
0.0
 11
318.371
 21
61.0856
 31
0.0
  0
LINE
  8
0
 62
     0
 10
318.371
 20
61.0856
 30
0.0
 11
318.371
 21
66.8845
 31
0.0
  0
LINE
  8
0
 62
     0
 10
318.371
 20
66.8845
 30
0.0
 11
319.17
 21
66.8845
 31
0.0
  0
LINE
  8
0
 62
     0
 10
319.17
 20
66.8845
 30
0.0
 11
319.17
 21
69.9851
 31
0.0
  0
LINE
  8
0
 62
     0
 10
319.17
 20
69.9851
 30
0.0
 11
318.371
 21
69.9851
 31
0.0
  0
LINE
  8
0
 62
     0
 10
318.371
 20
69.9851
 30
0.0
 11
318.371
 21
70.9856
 31
0.0
  0
LINE
  8
0
 62
     0
 10
318.371
 20
70.9856
 30
0.0
 11
304.37
 21
70.9856
 31
0.0
  0
LINE
  8
0
 62
     0
 10
242.457
 20
70.9856
 30
0.0
 11
242.457
 21
69.9851
 31
0.0
  0
LINE
  8
0
 62
     0
 10
242.457
 20
69.9851
 30
0.0
 11
241.657
 21
69.9851
 31
0.0
  0
LINE
  8
0
 62
     0
 10
241.657
 20
69.9851
 30
0.0
 11
241.657
 21
66.8845
 31
0.0
  0
LINE
  8
0
 62
     0
 10
241.657
 20
66.8845
 30
0.0
 11
242.457
 21
66.8845
 31
0.0
  0
LINE
  8
0
 62
     0
 10
242.457
 20
66.8845
 30
0.0
 11
242.457
 21
61.0856
 31
0.0
  0
LINE
  8
0
 62
     0
 10
242.457
 20
61.0856
 30
0.0
 11
241.657
 21
61.0856
 31
0.0
  0
LINE
  8
0
 62
     0
 10
241.657
 20
61.0856
 30
0.0
 11
241.657
 21
57.985
 31
0.0
  0
LINE
  8
0
 62
     0
 10
241.657
 20
57.985
 30
0.0
 11
242.457
 21
57.985
 31
0.0
  0
LINE
  8
0
 62
     0
 10
242.457
 20
57.985
 30
0.0
 11
242.457
 21
56.9845
 31
0.0
  0
LINE
  8
0
 62
     0
 10
242.457
 20
56.9845
 30
0.0
 11
256.457
 21
56.9845
 31
0.0
  0
LINE
  8
0
 62
     0
 10
256.457
 20
56.9845
 30
0.0
 11
256.457
 21
57.985
 31
0.0
  0
LINE
  8
0
 62
     0
 10
256.457
 20
57.985
 30
0.0
 11
257.258
 21
57.985
 31
0.0
  0
LINE
  8
0
 62
     0
 10
257.258
 20
57.985
 30
0.0
 11
257.258
 21
61.0856
 31
0.0
  0
LINE
  8
0
 62
     0
 10
257.258
 20
61.0856
 30
0.0
 11
256.457
 21
61.0856
 31
0.0
  0
LINE
  8
0
 62
     0
 10
256.457
 20
61.0856
 30
0.0
 11
256.457
 21
66.8845
 31
0.0
  0
LINE
  8
0
 62
     0
 10
256.457
 20
66.8845
 30
0.0
 11
257.258
 21
66.8845
 31
0.0
  0
LINE
  8
0
 62
     0
 10
257.258
 20
66.8845
 30
0.0
 11
257.258
 21
69.9851
 31
0.0
  0
LINE
  8
0
 62
     0
 10
257.258
 20
69.9851
 30
0.0
 11
256.457
 21
69.9851
 31
0.0
  0
LINE
  8
0
 62
     0
 10
256.457
 20
69.9851
 30
0.0
 11
256.457
 21
70.9856
 31
0.0
  0
LINE
  8
0
 62
     0
 10
256.457
 20
70.9856
 30
0.0
 11
242.457
 21
70.9856
 31
0.0
  0
LINE
  8
0
 62
     0
 10
223.407
 20
70.9856
 30
0.0
 11
223.407
 21
69.9851
 31
0.0
  0
LINE
  8
0
 62
     0
 10
223.407
 20
69.9851
 30
0.0
 11
222.607
 21
69.9851
 31
0.0
  0
LINE
  8
0
 62
     0
 10
222.607
 20
69.9851
 30
0.0
 11
222.607
 21
66.8845
 31
0.0
  0
LINE
  8
0
 62
     0
 10
222.607
 20
66.8845
 30
0.0
 11
223.407
 21
66.8845
 31
0.0
  0
LINE
  8
0
 62
     0
 10
223.407
 20
66.8845
 30
0.0
 11
223.407
 21
61.0856
 31
0.0
  0
LINE
  8
0
 62
     0
 10
223.407
 20
61.0856
 30
0.0
 11
222.607
 21
61.0856
 31
0.0
  0
LINE
  8
0
 62
     0
 10
222.607
 20
61.0856
 30
0.0
 11
222.607
 21
57.985
 31
0.0
  0
LINE
  8
0
 62
     0
 10
222.607
 20
57.985
 30
0.0
 11
223.407
 21
57.985
 31
0.0
  0
LINE
  8
0
 62
     0
 10
223.407
 20
57.985
 30
0.0
 11
223.407
 21
56.9845
 31
0.0
  0
LINE
  8
0
 62
     0
 10
223.407
 20
56.9845
 30
0.0
 11
237.407
 21
56.9845
 31
0.0
  0
LINE
  8
0
 62
     0
 10
237.407
 20
56.9845
 30
0.0
 11
237.407
 21
57.985
 31
0.0
  0
LINE
  8
0
 62
     0
 10
237.407
 20
57.985
 30
0.0
 11
238.208
 21
57.985
 31
0.0
  0
LINE
  8
0
 62
     0
 10
238.208
 20
57.985
 30
0.0
 11
238.208
 21
61.0856
 31
0.0
  0
LINE
  8
0
 62
     0
 10
238.208
 20
61.0856
 30
0.0
 11
237.407
 21
61.0856
 31
0.0
  0
LINE
  8
0
 62
     0
 10
237.407
 20
61.0856
 30
0.0
 11
237.407
 21
66.8845
 31
0.0
  0
LINE
  8
0
 62
     0
 10
237.407
 20
66.8845
 30
0.0
 11
238.208
 21
66.8845
 31
0.0
  0
LINE
  8
0
 62
     0
 10
238.208
 20
66.8845
 30
0.0
 11
238.208
 21
69.9851
 31
0.0
  0
LINE
  8
0
 62
     0
 10
238.208
 20
69.9851
 30
0.0
 11
237.407
 21
69.9851
 31
0.0
  0
LINE
  8
0
 62
     0
 10
237.407
 20
69.9851
 30
0.0
 11
237.407
 21
70.9856
 31
0.0
  0
LINE
  8
0
 62
     0
 10
237.407
 20
70.9856
 30
0.0
 11
223.407
 21
70.9856
 31
0.0
  0
LINE
  8
0
 62
     0
 10
204.357
 20
70.9856
 30
0.0
 11
204.357
 21
69.9851
 31
0.0
  0
LINE
  8
0
 62
     0
 10
204.357
 20
69.9851
 30
0.0
 11
203.557
 21
69.9851
 31
0.0
  0
LINE
  8
0
 62
     0
 10
203.557
 20
69.9851
 30
0.0
 11
203.557
 21
66.8845
 31
0.0
  0
LINE
  8
0
 62
     0
 10
203.557
 20
66.8845
 30
0.0
 11
204.357
 21
66.8845
 31
0.0
  0
LINE
  8
0
 62
     0
 10
204.357
 20
66.8845
 30
0.0
 11
204.357
 21
61.0856
 31
0.0
  0
LINE
  8
0
 62
     0
 10
204.357
 20
61.0856
 30
0.0
 11
203.557
 21
61.0856
 31
0.0
  0
LINE
  8
0
 62
     0
 10
203.557
 20
61.0856
 30
0.0
 11
203.557
 21
57.985
 31
0.0
  0
LINE
  8
0
 62
     0
 10
203.557
 20
57.985
 30
0.0
 11
204.357
 21
57.985
 31
0.0
  0
LINE
  8
0
 62
     0
 10
204.357
 20
57.985
 30
0.0
 11
204.357
 21
56.9845
 31
0.0
  0
LINE
  8
0
 62
     0
 10
204.357
 20
56.9845
 30
0.0
 11
218.357
 21
56.9845
 31
0.0
  0
LINE
  8
0
 62
     0
 10
218.357
 20
56.9845
 30
0.0
 11
218.357
 21
57.985
 31
0.0
  0
LINE
  8
0
 62
     0
 10
218.357
 20
57.985
 30
0.0
 11
219.158
 21
57.985
 31
0.0
  0
LINE
  8
0
 62
     0
 10
219.158
 20
57.985
 30
0.0
 11
219.158
 21
61.0856
 31
0.0
  0
LINE
  8
0
 62
     0
 10
219.158
 20
61.0856
 30
0.0
 11
218.357
 21
61.0856
 31
0.0
  0
LINE
  8
0
 62
     0
 10
218.357
 20
61.0856
 30
0.0
 11
218.357
 21
66.8845
 31
0.0
  0
LINE
  8
0
 62
     0
 10
218.357
 20
66.8845
 30
0.0
 11
219.158
 21
66.8845
 31
0.0
  0
LINE
  8
0
 62
     0
 10
219.158
 20
66.8845
 30
0.0
 11
219.158
 21
69.9851
 31
0.0
  0
LINE
  8
0
 62
     0
 10
219.158
 20
69.9851
 30
0.0
 11
218.357
 21
69.9851
 31
0.0
  0
LINE
  8
0
 62
     0
 10
218.357
 20
69.9851
 30
0.0
 11
218.357
 21
70.9856
 31
0.0
  0
LINE
  8
0
 62
     0
 10
218.357
 20
70.9856
 30
0.0
 11
204.357
 21
70.9856
 31
0.0
  0
LINE
  8
0
 62
     0
 10
185.307
 20
70.9856
 30
0.0
 11
185.307
 21
69.9851
 31
0.0
  0
LINE
  8
0
 62
     0
 10
185.307
 20
69.9851
 30
0.0
 11
184.507
 21
69.9851
 31
0.0
  0
LINE
  8
0
 62
     0
 10
184.507
 20
69.9851
 30
0.0
 11
184.507
 21
66.8845
 31
0.0
  0
LINE
  8
0
 62
     0
 10
184.507
 20
66.8845
 30
0.0
 11
185.307
 21
66.8845
 31
0.0
  0
LINE
  8
0
 62
     0
 10
185.307
 20
66.8845
 30
0.0
 11
185.307
 21
61.0856
 31
0.0
  0
LINE
  8
0
 62
     0
 10
185.307
 20
61.0856
 30
0.0
 11
184.507
 21
61.0856
 31
0.0
  0
LINE
  8
0
 62
     0
 10
184.507
 20
61.0856
 30
0.0
 11
184.507
 21
57.985
 31
0.0
  0
LINE
  8
0
 62
     0
 10
184.507
 20
57.985
 30
0.0
 11
185.307
 21
57.985
 31
0.0
  0
LINE
  8
0
 62
     0
 10
185.307
 20
57.985
 30
0.0
 11
185.307
 21
56.9845
 31
0.0
  0
LINE
  8
0
 62
     0
 10
185.307
 20
56.9845
 30
0.0
 11
199.307
 21
56.9845
 31
0.0
  0
LINE
  8
0
 62
     0
 10
199.307
 20
56.9845
 30
0.0
 11
199.307
 21
57.985
 31
0.0
  0
LINE
  8
0
 62
     0
 10
199.307
 20
57.985
 30
0.0
 11
200.108
 21
57.985
 31
0.0
  0
LINE
  8
0
 62
     0
 10
200.108
 20
57.985
 30
0.0
 11
200.108
 21
61.0856
 31
0.0
  0
LINE
  8
0
 62
     0
 10
200.108
 20
61.0856
 30
0.0
 11
199.307
 21
61.0856
 31
0.0
  0
LINE
  8
0
 62
     0
 10
199.307
 20
61.0856
 30
0.0
 11
199.307
 21
66.8845
 31
0.0
  0
LINE
  8
0
 62
     0
 10
199.307
 20
66.8845
 30
0.0
 11
200.108
 21
66.8845
 31
0.0
  0
LINE
  8
0
 62
     0
 10
200.108
 20
66.8845
 30
0.0
 11
200.108
 21
69.9851
 31
0.0
  0
LINE
  8
0
 62
     0
 10
200.108
 20
69.9851
 30
0.0
 11
199.307
 21
69.9851
 31
0.0
  0
LINE
  8
0
 62
     0
 10
199.307
 20
69.9851
 30
0.0
 11
199.307
 21
70.9856
 31
0.0
  0
LINE
  8
0
 62
     0
 10
199.307
 20
70.9856
 30
0.0
 11
185.307
 21
70.9856
 31
0.0
  0
LINE
  8
0
 62
     0
 10
166.257
 20
70.9856
 30
0.0
 11
166.257
 21
69.9851
 31
0.0
  0
LINE
  8
0
 62
     0
 10
166.257
 20
69.9851
 30
0.0
 11
165.457
 21
69.9851
 31
0.0
  0
LINE
  8
0
 62
     0
 10
165.457
 20
69.9851
 30
0.0
 11
165.457
 21
66.8845
 31
0.0
  0
LINE
  8
0
 62
     0
 10
165.457
 20
66.8845
 30
0.0
 11
166.257
 21
66.8845
 31
0.0
  0
LINE
  8
0
 62
     0
 10
166.257
 20
66.8845
 30
0.0
 11
166.257
 21
61.0856
 31
0.0
  0
LINE
  8
0
 62
     0
 10
166.257
 20
61.0856
 30
0.0
 11
165.457
 21
61.0856
 31
0.0
  0
LINE
  8
0
 62
     0
 10
165.457
 20
61.0856
 30
0.0
 11
165.457
 21
57.985
 31
0.0
  0
LINE
  8
0
 62
     0
 10
165.457
 20
57.985
 30
0.0
 11
166.257
 21
57.985
 31
0.0
  0
LINE
  8
0
 62
     0
 10
166.257
 20
57.985
 30
0.0
 11
166.257
 21
56.9845
 31
0.0
  0
LINE
  8
0
 62
     0
 10
166.257
 20
56.9845
 30
0.0
 11
180.257
 21
56.9845
 31
0.0
  0
LINE
  8
0
 62
     0
 10
180.257
 20
56.9845
 30
0.0
 11
180.257
 21
57.985
 31
0.0
  0
LINE
  8
0
 62
     0
 10
180.257
 20
57.985
 30
0.0
 11
181.058
 21
57.985
 31
0.0
  0
LINE
  8
0
 62
     0
 10
181.058
 20
57.985
 30
0.0
 11
181.058
 21
61.0856
 31
0.0
  0
LINE
  8
0
 62
     0
 10
181.058
 20
61.0856
 30
0.0
 11
180.257
 21
61.0856
 31
0.0
  0
LINE
  8
0
 62
     0
 10
180.257
 20
61.0856
 30
0.0
 11
180.257
 21
66.8845
 31
0.0
  0
LINE
  8
0
 62
     0
 10
180.257
 20
66.8845
 30
0.0
 11
181.058
 21
66.8845
 31
0.0
  0
LINE
  8
0
 62
     0
 10
181.058
 20
66.8845
 30
0.0
 11
181.058
 21
69.9851
 31
0.0
  0
LINE
  8
0
 62
     0
 10
181.058
 20
69.9851
 30
0.0
 11
180.257
 21
69.9851
 31
0.0
  0
LINE
  8
0
 62
     0
 10
180.257
 20
69.9851
 30
0.0
 11
180.257
 21
70.9856
 31
0.0
  0
LINE
  8
0
 62
     0
 10
180.257
 20
70.9856
 30
0.0
 11
166.257
 21
70.9856
 31
0.0
  0
LINE
  8
0
 62
     0
 10
147.207
 20
70.9856
 30
0.0
 11
147.207
 21
69.9851
 31
0.0
  0
LINE
  8
0
 62
     0
 10
147.207
 20
69.9851
 30
0.0
 11
146.407
 21
69.9851
 31
0.0
  0
LINE
  8
0
 62
     0
 10
146.407
 20
69.9851
 30
0.0
 11
146.407
 21
66.8845
 31
0.0
  0
LINE
  8
0
 62
     0
 10
146.407
 20
66.8845
 30
0.0
 11
147.207
 21
66.8845
 31
0.0
  0
LINE
  8
0
 62
     0
 10
147.207
 20
66.8845
 30
0.0
 11
147.207
 21
61.0856
 31
0.0
  0
LINE
  8
0
 62
     0
 10
147.207
 20
61.0856
 30
0.0
 11
146.407
 21
61.0856
 31
0.0
  0
LINE
  8
0
 62
     0
 10
146.407
 20
61.0856
 30
0.0
 11
146.407
 21
57.985
 31
0.0
  0
LINE
  8
0
 62
     0
 10
146.407
 20
57.985
 30
0.0
 11
147.207
 21
57.985
 31
0.0
  0
LINE
  8
0
 62
     0
 10
147.207
 20
57.985
 30
0.0
 11
147.207
 21
56.9845
 31
0.0
  0
LINE
  8
0
 62
     0
 10
147.207
 20
56.9845
 30
0.0
 11
161.207
 21
56.9845
 31
0.0
  0
LINE
  8
0
 62
     0
 10
161.207
 20
56.9845
 30
0.0
 11
161.207
 21
57.985
 31
0.0
  0
LINE
  8
0
 62
     0
 10
161.207
 20
57.985
 30
0.0
 11
162.008
 21
57.985
 31
0.0
  0
LINE
  8
0
 62
     0
 10
162.008
 20
57.985
 30
0.0
 11
162.008
 21
61.0856
 31
0.0
  0
LINE
  8
0
 62
     0
 10
162.008
 20
61.0856
 30
0.0
 11
161.207
 21
61.0856
 31
0.0
  0
LINE
  8
0
 62
     0
 10
161.207
 20
61.0856
 30
0.0
 11
161.207
 21
66.8845
 31
0.0
  0
LINE
  8
0
 62
     0
 10
161.207
 20
66.8845
 30
0.0
 11
162.008
 21
66.8845
 31
0.0
  0
LINE
  8
0
 62
     0
 10
162.008
 20
66.8845
 30
0.0
 11
162.008
 21
69.9851
 31
0.0
  0
LINE
  8
0
 62
     0
 10
162.008
 20
69.9851
 30
0.0
 11
161.207
 21
69.9851
 31
0.0
  0
LINE
  8
0
 62
     0
 10
161.207
 20
69.9851
 30
0.0
 11
161.207
 21
70.9856
 31
0.0
  0
LINE
  8
0
 62
     0
 10
161.207
 20
70.9856
 30
0.0
 11
147.207
 21
70.9856
 31
0.0
  0
LINE
  8
0
 62
     0
 10
128.157
 20
70.9856
 30
0.0
 11
128.157
 21
69.9851
 31
0.0
  0
LINE
  8
0
 62
     0
 10
128.157
 20
69.9851
 30
0.0
 11
127.357
 21
69.9851
 31
0.0
  0
LINE
  8
0
 62
     0
 10
127.357
 20
69.9851
 30
0.0
 11
127.357
 21
66.8845
 31
0.0
  0
LINE
  8
0
 62
     0
 10
127.357
 20
66.8845
 30
0.0
 11
128.157
 21
66.8845
 31
0.0
  0
LINE
  8
0
 62
     0
 10
128.157
 20
66.8845
 30
0.0
 11
128.157
 21
61.0856
 31
0.0
  0
LINE
  8
0
 62
     0
 10
128.157
 20
61.0856
 30
0.0
 11
127.357
 21
61.0856
 31
0.0
  0
LINE
  8
0
 62
     0
 10
127.357
 20
61.0856
 30
0.0
 11
127.357
 21
57.985
 31
0.0
  0
LINE
  8
0
 62
     0
 10
127.357
 20
57.985
 30
0.0
 11
128.157
 21
57.985
 31
0.0
  0
LINE
  8
0
 62
     0
 10
128.157
 20
57.985
 30
0.0
 11
128.157
 21
56.9845
 31
0.0
  0
LINE
  8
0
 62
     0
 10
128.157
 20
56.9845
 30
0.0
 11
142.157
 21
56.9845
 31
0.0
  0
LINE
  8
0
 62
     0
 10
142.157
 20
56.9845
 30
0.0
 11
142.157
 21
57.985
 31
0.0
  0
LINE
  8
0
 62
     0
 10
142.157
 20
57.985
 30
0.0
 11
142.958
 21
57.985
 31
0.0
  0
LINE
  8
0
 62
     0
 10
142.958
 20
57.985
 30
0.0
 11
142.958
 21
61.0856
 31
0.0
  0
LINE
  8
0
 62
     0
 10
142.958
 20
61.0856
 30
0.0
 11
142.157
 21
61.0856
 31
0.0
  0
LINE
  8
0
 62
     0
 10
142.157
 20
61.0856
 30
0.0
 11
142.157
 21
66.8845
 31
0.0
  0
LINE
  8
0
 62
     0
 10
142.157
 20
66.8845
 30
0.0
 11
142.958
 21
66.8845
 31
0.0
  0
LINE
  8
0
 62
     0
 10
142.958
 20
66.8845
 30
0.0
 11
142.958
 21
69.9851
 31
0.0
  0
LINE
  8
0
 62
     0
 10
142.958
 20
69.9851
 30
0.0
 11
142.157
 21
69.9851
 31
0.0
  0
LINE
  8
0
 62
     0
 10
142.157
 20
69.9851
 30
0.0
 11
142.157
 21
70.9856
 31
0.0
  0
LINE
  8
0
 62
     0
 10
142.157
 20
70.9856
 30
0.0
 11
128.157
 21
70.9856
 31
0.0
  0
LINE
  8
0
 62
     0
 10
109.107
 20
70.9856
 30
0.0
 11
109.107
 21
69.9851
 31
0.0
  0
LINE
  8
0
 62
     0
 10
109.107
 20
69.9851
 30
0.0
 11
108.307
 21
69.9851
 31
0.0
  0
LINE
  8
0
 62
     0
 10
108.307
 20
69.9851
 30
0.0
 11
108.307
 21
66.8845
 31
0.0
  0
LINE
  8
0
 62
     0
 10
108.307
 20
66.8845
 30
0.0
 11
109.107
 21
66.8845
 31
0.0
  0
LINE
  8
0
 62
     0
 10
109.107
 20
66.8845
 30
0.0
 11
109.107
 21
61.0856
 31
0.0
  0
LINE
  8
0
 62
     0
 10
109.107
 20
61.0856
 30
0.0
 11
108.307
 21
61.0856
 31
0.0
  0
LINE
  8
0
 62
     0
 10
108.307
 20
61.0856
 30
0.0
 11
108.307
 21
57.985
 31
0.0
  0
LINE
  8
0
 62
     0
 10
108.307
 20
57.985
 30
0.0
 11
109.107
 21
57.985
 31
0.0
  0
LINE
  8
0
 62
     0
 10
109.107
 20
57.985
 30
0.0
 11
109.107
 21
56.9845
 31
0.0
  0
LINE
  8
0
 62
     0
 10
109.107
 20
56.9845
 30
0.0
 11
123.107
 21
56.9845
 31
0.0
  0
LINE
  8
0
 62
     0
 10
123.107
 20
56.9845
 30
0.0
 11
123.107
 21
57.985
 31
0.0
  0
LINE
  8
0
 62
     0
 10
123.107
 20
57.985
 30
0.0
 11
123.908
 21
57.985
 31
0.0
  0
LINE
  8
0
 62
     0
 10
123.908
 20
57.985
 30
0.0
 11
123.908
 21
61.0856
 31
0.0
  0
LINE
  8
0
 62
     0
 10
123.908
 20
61.0856
 30
0.0
 11
123.107
 21
61.0856
 31
0.0
  0
LINE
  8
0
 62
     0
 10
123.107
 20
61.0856
 30
0.0
 11
123.107
 21
66.8845
 31
0.0
  0
LINE
  8
0
 62
     0
 10
123.107
 20
66.8845
 30
0.0
 11
123.908
 21
66.8845
 31
0.0
  0
LINE
  8
0
 62
     0
 10
123.908
 20
66.8845
 30
0.0
 11
123.908
 21
69.9851
 31
0.0
  0
LINE
  8
0
 62
     0
 10
123.908
 20
69.9851
 30
0.0
 11
123.107
 21
69.9851
 31
0.0
  0
LINE
  8
0
 62
     0
 10
123.107
 20
69.9851
 30
0.0
 11
123.107
 21
70.9856
 31
0.0
  0
LINE
  8
0
 62
     0
 10
123.107
 20
70.9856
 30
0.0
 11
109.107
 21
70.9856
 31
0.0
  0
LINE
  8
0
 62
     0
 10
90.0575
 20
70.9856
 30
0.0
 11
90.0575
 21
69.9851
 31
0.0
  0
LINE
  8
0
 62
     0
 10
90.0575
 20
69.9851
 30
0.0
 11
89.257
 21
69.9851
 31
0.0
  0
LINE
  8
0
 62
     0
 10
89.257
 20
69.9851
 30
0.0
 11
89.257
 21
66.8845
 31
0.0
  0
LINE
  8
0
 62
     0
 10
89.257
 20
66.8845
 30
0.0
 11
90.0575
 21
66.8845
 31
0.0
  0
LINE
  8
0
 62
     0
 10
90.0575
 20
66.8845
 30
0.0
 11
90.0575
 21
61.0856
 31
0.0
  0
LINE
  8
0
 62
     0
 10
90.0575
 20
61.0856
 30
0.0
 11
89.257
 21
61.0856
 31
0.0
  0
LINE
  8
0
 62
     0
 10
89.257
 20
61.0856
 30
0.0
 11
89.257
 21
57.985
 31
0.0
  0
LINE
  8
0
 62
     0
 10
89.257
 20
57.985
 30
0.0
 11
90.0575
 21
57.985
 31
0.0
  0
LINE
  8
0
 62
     0
 10
90.0575
 20
57.985
 30
0.0
 11
90.0575
 21
56.9845
 31
0.0
  0
LINE
  8
0
 62
     0
 10
90.0575
 20
56.9845
 30
0.0
 11
104.057
 21
56.9845
 31
0.0
  0
LINE
  8
0
 62
     0
 10
104.057
 20
56.9845
 30
0.0
 11
104.057
 21
57.985
 31
0.0
  0
LINE
  8
0
 62
     0
 10
104.057
 20
57.985
 30
0.0
 11
104.858
 21
57.985
 31
0.0
  0
LINE
  8
0
 62
     0
 10
104.858
 20
57.985
 30
0.0
 11
104.858
 21
61.0856
 31
0.0
  0
LINE
  8
0
 62
     0
 10
104.858
 20
61.0856
 30
0.0
 11
104.057
 21
61.0856
 31
0.0
  0
LINE
  8
0
 62
     0
 10
104.057
 20
61.0856
 30
0.0
 11
104.057
 21
66.8845
 31
0.0
  0
LINE
  8
0
 62
     0
 10
104.057
 20
66.8845
 30
0.0
 11
104.858
 21
66.8845
 31
0.0
  0
LINE
  8
0
 62
     0
 10
104.858
 20
66.8845
 30
0.0
 11
104.858
 21
69.9851
 31
0.0
  0
LINE
  8
0
 62
     0
 10
104.858
 20
69.9851
 30
0.0
 11
104.057
 21
69.9851
 31
0.0
  0
LINE
  8
0
 62
     0
 10
104.057
 20
69.9851
 30
0.0
 11
104.057
 21
70.9856
 31
0.0
  0
LINE
  8
0
 62
     0
 10
104.057
 20
70.9856
 30
0.0
 11
90.0575
 21
70.9856
 31
0.0
  0
LINE
  8
0
 62
     0
 10
71.0075
 20
70.9856
 30
0.0
 11
71.0075
 21
69.9851
 31
0.0
  0
LINE
  8
0
 62
     0
 10
71.0075
 20
69.9851
 30
0.0
 11
70.207
 21
69.9851
 31
0.0
  0
LINE
  8
0
 62
     0
 10
70.207
 20
69.9851
 30
0.0
 11
70.207
 21
66.8845
 31
0.0
  0
LINE
  8
0
 62
     0
 10
70.207
 20
66.8845
 30
0.0
 11
71.0075
 21
66.8845
 31
0.0
  0
LINE
  8
0
 62
     0
 10
71.0075
 20
66.8845
 30
0.0
 11
71.0075
 21
61.0856
 31
0.0
  0
LINE
  8
0
 62
     0
 10
71.0075
 20
61.0856
 30
0.0
 11
70.207
 21
61.0856
 31
0.0
  0
LINE
  8
0
 62
     0
 10
70.207
 20
61.0856
 30
0.0
 11
70.207
 21
57.985
 31
0.0
  0
LINE
  8
0
 62
     0
 10
70.207
 20
57.985
 30
0.0
 11
71.0075
 21
57.985
 31
0.0
  0
LINE
  8
0
 62
     0
 10
71.0075
 20
57.985
 30
0.0
 11
71.0075
 21
56.9845
 31
0.0
  0
LINE
  8
0
 62
     0
 10
71.0075
 20
56.9845
 30
0.0
 11
85.0071
 21
56.9845
 31
0.0
  0
LINE
  8
0
 62
     0
 10
85.0071
 20
56.9845
 30
0.0
 11
85.0071
 21
57.985
 31
0.0
  0
LINE
  8
0
 62
     0
 10
85.0071
 20
57.985
 30
0.0
 11
85.8075
 21
57.985
 31
0.0
  0
LINE
  8
0
 62
     0
 10
85.8075
 20
57.985
 30
0.0
 11
85.8075
 21
61.0856
 31
0.0
  0
LINE
  8
0
 62
     0
 10
85.8075
 20
61.0856
 30
0.0
 11
85.0071
 21
61.0856
 31
0.0
  0
LINE
  8
0
 62
     0
 10
85.0071
 20
61.0856
 30
0.0
 11
85.0071
 21
66.8845
 31
0.0
  0
LINE
  8
0
 62
     0
 10
85.0071
 20
66.8845
 30
0.0
 11
85.8075
 21
66.8845
 31
0.0
  0
LINE
  8
0
 62
     0
 10
85.8075
 20
66.8845
 30
0.0
 11
85.8075
 21
69.9851
 31
0.0
  0
LINE
  8
0
 62
     0
 10
85.8075
 20
69.9851
 30
0.0
 11
85.0071
 21
69.9851
 31
0.0
  0
LINE
  8
0
 62
     0
 10
85.0071
 20
69.9851
 30
0.0
 11
85.0071
 21
70.9856
 31
0.0
  0
LINE
  8
0
 62
     0
 10
85.0071
 20
70.9856
 30
0.0
 11
71.0075
 21
70.9856
 31
0.0
  0
LINE
  8
0
 62
     0
 10
51.9575
 20
70.9856
 30
0.0
 11
51.9575
 21
69.9851
 31
0.0
  0
LINE
  8
0
 62
     0
 10
51.9575
 20
69.9851
 30
0.0
 11
51.157
 21
69.9851
 31
0.0
  0
LINE
  8
0
 62
     0
 10
51.157
 20
69.9851
 30
0.0
 11
51.157
 21
66.8845
 31
0.0
  0
LINE
  8
0
 62
     0
 10
51.157
 20
66.8845
 30
0.0
 11
51.9575
 21
66.8845
 31
0.0
  0
LINE
  8
0
 62
     0
 10
51.9575
 20
66.8845
 30
0.0
 11
51.9575
 21
61.0856
 31
0.0
  0
LINE
  8
0
 62
     0
 10
51.9575
 20
61.0856
 30
0.0
 11
51.157
 21
61.0856
 31
0.0
  0
LINE
  8
0
 62
     0
 10
51.157
 20
61.0856
 30
0.0
 11
51.157
 21
57.985
 31
0.0
  0
LINE
  8
0
 62
     0
 10
51.157
 20
57.985
 30
0.0
 11
51.9575
 21
57.985
 31
0.0
  0
LINE
  8
0
 62
     0
 10
51.9575
 20
57.985
 30
0.0
 11
51.9575
 21
56.9845
 31
0.0
  0
LINE
  8
0
 62
     0
 10
51.9575
 20
56.9845
 30
0.0
 11
65.9571
 21
56.9845
 31
0.0
  0
LINE
  8
0
 62
     0
 10
65.9571
 20
56.9845
 30
0.0
 11
65.9571
 21
57.985
 31
0.0
  0
LINE
  8
0
 62
     0
 10
65.9571
 20
57.985
 30
0.0
 11
66.7575
 21
57.985
 31
0.0
  0
LINE
  8
0
 62
     0
 10
66.7575
 20
57.985
 30
0.0
 11
66.7575
 21
61.0856
 31
0.0
  0
LINE
  8
0
 62
     0
 10
66.7575
 20
61.0856
 30
0.0
 11
65.9571
 21
61.0856
 31
0.0
  0
LINE
  8
0
 62
     0
 10
65.9571
 20
61.0856
 30
0.0
 11
65.9571
 21
66.8845
 31
0.0
  0
LINE
  8
0
 62
     0
 10
65.9571
 20
66.8845
 30
0.0
 11
66.7575
 21
66.8845
 31
0.0
  0
LINE
  8
0
 62
     0
 10
66.7575
 20
66.8845
 30
0.0
 11
66.7575
 21
69.9851
 31
0.0
  0
LINE
  8
0
 62
     0
 10
66.7575
 20
69.9851
 30
0.0
 11
65.9571
 21
69.9851
 31
0.0
  0
LINE
  8
0
 62
     0
 10
65.9571
 20
69.9851
 30
0.0
 11
65.9571
 21
70.9856
 31
0.0
  0
LINE
  8
0
 62
     0
 10
65.9571
 20
70.9856
 30
0.0
 11
51.9575
 21
70.9856
 31
0.0
  0
LINE
  8
0
 62
     0
 10
25.7638
 20
70.9856
 30
0.0
 11
25.7638
 21
69.9851
 31
0.0
  0
LINE
  8
0
 62
     0
 10
25.7638
 20
69.9851
 30
0.0
 11
24.9632
 21
69.9851
 31
0.0
  0
LINE
  8
0
 62
     0
 10
24.9632
 20
69.9851
 30
0.0
 11
24.9632
 21
66.8845
 31
0.0
  0
LINE
  8
0
 62
     0
 10
24.9632
 20
66.8845
 30
0.0
 11
25.7638
 21
66.8845
 31
0.0
  0
LINE
  8
0
 62
     0
 10
25.7638
 20
66.8845
 30
0.0
 11
25.7638
 21
61.0856
 31
0.0
  0
LINE
  8
0
 62
     0
 10
25.7638
 20
61.0856
 30
0.0
 11
24.9632
 21
61.0856
 31
0.0
  0
LINE
  8
0
 62
     0
 10
24.9632
 20
61.0856
 30
0.0
 11
24.9632
 21
57.985
 31
0.0
  0
LINE
  8
0
 62
     0
 10
24.9632
 20
57.985
 30
0.0
 11
25.7638
 21
57.985
 31
0.0
  0
LINE
  8
0
 62
     0
 10
25.7638
 20
57.985
 30
0.0
 11
25.7638
 21
56.9845
 31
0.0
  0
LINE
  8
0
 62
     0
 10
25.7638
 20
56.9845
 30
0.0
 11
39.7633
 21
56.9845
 31
0.0
  0
LINE
  8
0
 62
     0
 10
39.7633
 20
56.9845
 30
0.0
 11
39.7633
 21
57.985
 31
0.0
  0
LINE
  8
0
 62
     0
 10
39.7633
 20
57.985
 30
0.0
 11
40.5638
 21
57.985
 31
0.0
  0
LINE
  8
0
 62
     0
 10
40.5638
 20
57.985
 30
0.0
 11
40.5638
 21
61.0856
 31
0.0
  0
LINE
  8
0
 62
     0
 10
40.5638
 20
61.0856
 30
0.0
 11
39.7633
 21
61.0856
 31
0.0
  0
LINE
  8
0
 62
     0
 10
39.7633
 20
61.0856
 30
0.0
 11
39.7633
 21
66.8845
 31
0.0
  0
LINE
  8
0
 62
     0
 10
39.7633
 20
66.8845
 30
0.0
 11
40.5638
 21
66.8845
 31
0.0
  0
LINE
  8
0
 62
     0
 10
40.5638
 20
66.8845
 30
0.0
 11
40.5638
 21
69.9851
 31
0.0
  0
LINE
  8
0
 62
     0
 10
40.5638
 20
69.9851
 30
0.0
 11
39.7633
 21
69.9851
 31
0.0
  0
LINE
  8
0
 62
     0
 10
39.7633
 20
69.9851
 30
0.0
 11
39.7633
 21
70.9856
 31
0.0
  0
LINE
  8
0
 62
     0
 10
39.7633
 20
70.9856
 30
0.0
 11
25.7638
 21
70.9856
 31
0.0
  0
LINE
  8
0
 62
     0
 10
4.5999
 20
65.5066
 30
0.0
 11
4.15477
 21
65.2791
 31
0.0
  0
LINE
  8
0
 62
     0
 10
4.15477
 20
65.2791
 30
0.0
 11
3.80062
 21
64.9249
 31
0.0
  0
LINE
  8
0
 62
     0
 10
3.80062
 20
64.9249
 30
0.0
 11
3.57325
 21
64.4783
 31
0.0
  0
LINE
  8
0
 62
     0
 10
3.57325
 20
64.4783
 30
0.0
 11
3.4947
 21
63.9851
 31
0.0
  0
LINE
  8
0
 62
     0
 10
3.4947
 20
63.9851
 30
0.0
 11
3.57325
 21
63.4919
 31
0.0
  0
LINE
  8
0
 62
     0
 10
3.57325
 20
63.4919
 30
0.0
 11
3.80062
 21
63.0453
 31
0.0
  0
LINE
  8
0
 62
     0
 10
3.80062
 20
63.0453
 30
0.0
 11
4.15477
 21
62.6911
 31
0.0
  0
LINE
  8
0
 62
     0
 10
4.15477
 20
62.6911
 30
0.0
 11
4.5999
 21
62.4639
 31
0.0
  0
LINE
  8
0
 62
     0
 10
4.5999
 20
62.4639
 30
0.0
 11
5.0946
 21
62.3852
 31
0.0
  0
LINE
  8
0
 62
     0
 10
5.0946
 20
62.3852
 30
0.0
 11
5.58934
 21
62.4639
 31
0.0
  0
LINE
  8
0
 62
     0
 10
5.58934
 20
62.4639
 30
0.0
 11
6.03582
 21
62.6911
 31
0.0
  0
LINE
  8
0
 62
     0
 10
6.03582
 20
62.6911
 30
0.0
 11
6.38997
 21
63.0453
 31
0.0
  0
LINE
  8
0
 62
     0
 10
6.38997
 20
63.0453
 30
0.0
 11
6.61596
 21
63.4919
 31
0.0
  0
LINE
  8
0
 62
     0
 10
6.61596
 20
63.4919
 30
0.0
 11
6.69452
 21
63.9851
 31
0.0
  0
LINE
  8
0
 62
     0
 10
6.69452
 20
63.9851
 30
0.0
 11
6.61596
 21
64.4783
 31
0.0
  0
LINE
  8
0
 62
     0
 10
6.61596
 20
64.4783
 30
0.0
 11
6.38997
 21
64.9249
 31
0.0
  0
LINE
  8
0
 62
     0
 10
6.38997
 20
64.9249
 30
0.0
 11
6.03582
 21
65.2791
 31
0.0
  0
LINE
  8
0
 62
     0
 10
6.03582
 20
65.2791
 30
0.0
 11
5.58934
 21
65.5066
 31
0.0
  0
LINE
  8
0
 62
     0
 10
5.58934
 20
65.5066
 30
0.0
 11
5.0946
 21
65.5849
 31
0.0
  0
LINE
  8
0
 62
     0
 10
5.0946
 20
65.5849
 30
0.0
 11
4.5999
 21
65.5066
 31
0.0
  0
LINE
  8
0
 62
     0
 10
331.402
 20
65.5066
 30
0.0
 11
330.955
 21
65.2791
 31
0.0
  0
LINE
  8
0
 62
     0
 10
330.955
 20
65.2791
 30
0.0
 11
330.601
 21
64.9249
 31
0.0
  0
LINE
  8
0
 62
     0
 10
330.601
 20
64.9249
 30
0.0
 11
330.375
 21
64.4783
 31
0.0
  0
LINE
  8
0
 62
     0
 10
330.375
 20
64.4783
 30
0.0
 11
330.296
 21
63.9851
 31
0.0
  0
LINE
  8
0
 62
     0
 10
330.296
 20
63.9851
 30
0.0
 11
330.375
 21
63.4919
 31
0.0
  0
LINE
  8
0
 62
     0
 10
330.375
 20
63.4919
 30
0.0
 11
330.601
 21
63.0453
 31
0.0
  0
LINE
  8
0
 62
     0
 10
330.601
 20
63.0453
 30
0.0
 11
330.955
 21
62.6911
 31
0.0
  0
LINE
  8
0
 62
     0
 10
330.955
 20
62.6911
 30
0.0
 11
331.402
 21
62.4639
 31
0.0
  0
LINE
  8
0
 62
     0
 10
331.402
 20
62.4639
 30
0.0
 11
331.897
 21
62.3852
 31
0.0
  0
LINE
  8
0
 62
     0
 10
331.897
 20
62.3852
 30
0.0
 11
332.391
 21
62.4639
 31
0.0
  0
LINE
  8
0
 62
     0
 10
332.391
 20
62.4639
 30
0.0
 11
332.836
 21
62.6911
 31
0.0
  0
LINE
  8
0
 62
     0
 10
332.836
 20
62.6911
 30
0.0
 11
333.19
 21
63.0453
 31
0.0
  0
LINE
  8
0
 62
     0
 10
333.19
 20
63.0453
 30
0.0
 11
333.418
 21
63.4919
 31
0.0
  0
LINE
  8
0
 62
     0
 10
333.418
 20
63.4919
 30
0.0
 11
333.496
 21
63.9851
 31
0.0
  0
LINE
  8
0
 62
     0
 10
333.496
 20
63.9851
 30
0.0
 11
333.418
 21
64.4783
 31
0.0
  0
LINE
  8
0
 62
     0
 10
333.418
 20
64.4783
 30
0.0
 11
333.19
 21
64.9249
 31
0.0
  0
LINE
  8
0
 62
     0
 10
333.19
 20
64.9249
 30
0.0
 11
332.836
 21
65.2791
 31
0.0
  0
LINE
  8
0
 62
     0
 10
332.836
 20
65.2791
 30
0.0
 11
332.391
 21
65.5066
 31
0.0
  0
LINE
  8
0
 62
     0
 10
332.391
 20
65.5066
 30
0.0
 11
331.897
 21
65.5849
 31
0.0
  0
LINE
  8
0
 62
     0
 10
331.897
 20
65.5849
 30
0.0
 11
331.402
 21
65.5066
 31
0.0
  0
LINE
  8
0
 62
     0
 10
304.37
 20
90.0356
 30
0.0
 11
304.37
 21
89.0351
 31
0.0
  0
LINE
  8
0
 62
     0
 10
304.37
 20
89.0351
 30
0.0
 11
303.571
 21
89.0351
 31
0.0
  0
LINE
  8
0
 62
     0
 10
303.571
 20
89.0351
 30
0.0
 11
303.571
 21
85.9345
 31
0.0
  0
LINE
  8
0
 62
     0
 10
303.571
 20
85.9345
 30
0.0
 11
304.37
 21
85.9345
 31
0.0
  0
LINE
  8
0
 62
     0
 10
304.37
 20
85.9345
 30
0.0
 11
304.37
 21
80.1356
 31
0.0
  0
LINE
  8
0
 62
     0
 10
304.37
 20
80.1356
 30
0.0
 11
303.571
 21
80.1356
 31
0.0
  0
LINE
  8
0
 62
     0
 10
303.571
 20
80.1356
 30
0.0
 11
303.571
 21
77.035
 31
0.0
  0
LINE
  8
0
 62
     0
 10
303.571
 20
77.035
 30
0.0
 11
304.37
 21
77.035
 31
0.0
  0
LINE
  8
0
 62
     0
 10
304.37
 20
77.035
 30
0.0
 11
304.37
 21
76.0345
 31
0.0
  0
LINE
  8
0
 62
     0
 10
304.37
 20
76.0345
 30
0.0
 11
318.371
 21
76.0345
 31
0.0
  0
LINE
  8
0
 62
     0
 10
318.371
 20
76.0345
 30
0.0
 11
318.371
 21
77.035
 31
0.0
  0
LINE
  8
0
 62
     0
 10
318.371
 20
77.035
 30
0.0
 11
319.17
 21
77.035
 31
0.0
  0
LINE
  8
0
 62
     0
 10
319.17
 20
77.035
 30
0.0
 11
319.17
 21
80.1356
 31
0.0
  0
LINE
  8
0
 62
     0
 10
319.17
 20
80.1356
 30
0.0
 11
318.371
 21
80.1356
 31
0.0
  0
LINE
  8
0
 62
     0
 10
318.371
 20
80.1356
 30
0.0
 11
318.371
 21
85.9345
 31
0.0
  0
LINE
  8
0
 62
     0
 10
318.371
 20
85.9345
 30
0.0
 11
319.17
 21
85.9345
 31
0.0
  0
LINE
  8
0
 62
     0
 10
319.17
 20
85.9345
 30
0.0
 11
319.17
 21
89.0351
 31
0.0
  0
LINE
  8
0
 62
     0
 10
319.17
 20
89.0351
 30
0.0
 11
318.371
 21
89.0351
 31
0.0
  0
LINE
  8
0
 62
     0
 10
318.371
 20
89.0351
 30
0.0
 11
318.371
 21
90.0356
 31
0.0
  0
LINE
  8
0
 62
     0
 10
318.371
 20
90.0356
 30
0.0
 11
304.37
 21
90.0356
 31
0.0
  0
LINE
  8
0
 62
     0
 10
280.557
 20
90.0356
 30
0.0
 11
280.557
 21
89.0351
 31
0.0
  0
LINE
  8
0
 62
     0
 10
280.557
 20
89.0351
 30
0.0
 11
279.757
 21
89.0351
 31
0.0
  0
LINE
  8
0
 62
     0
 10
279.757
 20
89.0351
 30
0.0
 11
279.757
 21
85.9345
 31
0.0
  0
LINE
  8
0
 62
     0
 10
279.757
 20
85.9345
 30
0.0
 11
280.557
 21
85.9345
 31
0.0
  0
LINE
  8
0
 62
     0
 10
280.557
 20
85.9345
 30
0.0
 11
280.557
 21
80.1356
 31
0.0
  0
LINE
  8
0
 62
     0
 10
280.557
 20
80.1356
 30
0.0
 11
279.757
 21
80.1356
 31
0.0
  0
LINE
  8
0
 62
     0
 10
279.757
 20
80.1356
 30
0.0
 11
279.757
 21
77.035
 31
0.0
  0
LINE
  8
0
 62
     0
 10
279.757
 20
77.035
 30
0.0
 11
280.557
 21
77.035
 31
0.0
  0
LINE
  8
0
 62
     0
 10
280.557
 20
77.035
 30
0.0
 11
280.557
 21
76.0345
 31
0.0
  0
LINE
  8
0
 62
     0
 10
280.557
 20
76.0345
 30
0.0
 11
294.557
 21
76.0345
 31
0.0
  0
LINE
  8
0
 62
     0
 10
294.557
 20
76.0345
 30
0.0
 11
294.557
 21
77.035
 31
0.0
  0
LINE
  8
0
 62
     0
 10
294.557
 20
77.035
 30
0.0
 11
295.358
 21
77.035
 31
0.0
  0
LINE
  8
0
 62
     0
 10
295.358
 20
77.035
 30
0.0
 11
295.358
 21
80.1356
 31
0.0
  0
LINE
  8
0
 62
     0
 10
295.358
 20
80.1356
 30
0.0
 11
294.557
 21
80.1356
 31
0.0
  0
LINE
  8
0
 62
     0
 10
294.557
 20
80.1356
 30
0.0
 11
294.557
 21
85.9345
 31
0.0
  0
LINE
  8
0
 62
     0
 10
294.557
 20
85.9345
 30
0.0
 11
295.358
 21
85.9345
 31
0.0
  0
LINE
  8
0
 62
     0
 10
295.358
 20
85.9345
 30
0.0
 11
295.358
 21
89.0351
 31
0.0
  0
LINE
  8
0
 62
     0
 10
295.358
 20
89.0351
 30
0.0
 11
294.557
 21
89.0351
 31
0.0
  0
LINE
  8
0
 62
     0
 10
294.557
 20
89.0351
 30
0.0
 11
294.557
 21
90.0356
 31
0.0
  0
LINE
  8
0
 62
     0
 10
294.557
 20
90.0356
 30
0.0
 11
280.557
 21
90.0356
 31
0.0
  0
LINE
  8
0
 62
     0
 10
256.745
 20
90.0356
 30
0.0
 11
256.745
 21
89.0351
 31
0.0
  0
LINE
  8
0
 62
     0
 10
256.745
 20
89.0351
 30
0.0
 11
255.946
 21
89.0351
 31
0.0
  0
LINE
  8
0
 62
     0
 10
255.946
 20
89.0351
 30
0.0
 11
255.946
 21
85.9345
 31
0.0
  0
LINE
  8
0
 62
     0
 10
255.946
 20
85.9345
 30
0.0
 11
256.745
 21
85.9345
 31
0.0
  0
LINE
  8
0
 62
     0
 10
256.745
 20
85.9345
 30
0.0
 11
256.745
 21
80.1356
 31
0.0
  0
LINE
  8
0
 62
     0
 10
256.745
 20
80.1356
 30
0.0
 11
255.946
 21
80.1356
 31
0.0
  0
LINE
  8
0
 62
     0
 10
255.946
 20
80.1356
 30
0.0
 11
255.946
 21
77.035
 31
0.0
  0
LINE
  8
0
 62
     0
 10
255.946
 20
77.035
 30
0.0
 11
256.745
 21
77.035
 31
0.0
  0
LINE
  8
0
 62
     0
 10
256.745
 20
77.035
 30
0.0
 11
256.745
 21
76.0345
 31
0.0
  0
LINE
  8
0
 62
     0
 10
256.745
 20
76.0345
 30
0.0
 11
270.746
 21
76.0345
 31
0.0
  0
LINE
  8
0
 62
     0
 10
270.746
 20
76.0345
 30
0.0
 11
270.746
 21
77.035
 31
0.0
  0
LINE
  8
0
 62
     0
 10
270.746
 20
77.035
 30
0.0
 11
271.545
 21
77.035
 31
0.0
  0
LINE
  8
0
 62
     0
 10
271.545
 20
77.035
 30
0.0
 11
271.545
 21
80.1356
 31
0.0
  0
LINE
  8
0
 62
     0
 10
271.545
 20
80.1356
 30
0.0
 11
270.746
 21
80.1356
 31
0.0
  0
LINE
  8
0
 62
     0
 10
270.746
 20
80.1356
 30
0.0
 11
270.746
 21
85.9345
 31
0.0
  0
LINE
  8
0
 62
     0
 10
270.746
 20
85.9345
 30
0.0
 11
271.545
 21
85.9345
 31
0.0
  0
LINE
  8
0
 62
     0
 10
271.545
 20
85.9345
 30
0.0
 11
271.545
 21
89.0351
 31
0.0
  0
LINE
  8
0
 62
     0
 10
271.545
 20
89.0351
 30
0.0
 11
270.746
 21
89.0351
 31
0.0
  0
LINE
  8
0
 62
     0
 10
270.746
 20
89.0351
 30
0.0
 11
270.746
 21
90.0356
 31
0.0
  0
LINE
  8
0
 62
     0
 10
270.746
 20
90.0356
 30
0.0
 11
256.745
 21
90.0356
 31
0.0
  0
LINE
  8
0
 62
     0
 10
237.695
 20
90.0356
 30
0.0
 11
237.695
 21
89.0351
 31
0.0
  0
LINE
  8
0
 62
     0
 10
237.695
 20
89.0351
 30
0.0
 11
236.896
 21
89.0351
 31
0.0
  0
LINE
  8
0
 62
     0
 10
236.896
 20
89.0351
 30
0.0
 11
236.896
 21
85.9345
 31
0.0
  0
LINE
  8
0
 62
     0
 10
236.896
 20
85.9345
 30
0.0
 11
237.695
 21
85.9345
 31
0.0
  0
LINE
  8
0
 62
     0
 10
237.695
 20
85.9345
 30
0.0
 11
237.695
 21
80.1356
 31
0.0
  0
LINE
  8
0
 62
     0
 10
237.695
 20
80.1356
 30
0.0
 11
236.896
 21
80.1356
 31
0.0
  0
LINE
  8
0
 62
     0
 10
236.896
 20
80.1356
 30
0.0
 11
236.896
 21
77.035
 31
0.0
  0
LINE
  8
0
 62
     0
 10
236.896
 20
77.035
 30
0.0
 11
237.695
 21
77.035
 31
0.0
  0
LINE
  8
0
 62
     0
 10
237.695
 20
77.035
 30
0.0
 11
237.695
 21
76.0345
 31
0.0
  0
LINE
  8
0
 62
     0
 10
237.695
 20
76.0345
 30
0.0
 11
251.696
 21
76.0345
 31
0.0
  0
LINE
  8
0
 62
     0
 10
251.696
 20
76.0345
 30
0.0
 11
251.696
 21
77.035
 31
0.0
  0
LINE
  8
0
 62
     0
 10
251.696
 20
77.035
 30
0.0
 11
252.494
 21
77.035
 31
0.0
  0
LINE
  8
0
 62
     0
 10
252.494
 20
77.035
 30
0.0
 11
252.494
 21
80.1356
 31
0.0
  0
LINE
  8
0
 62
     0
 10
252.494
 20
80.1356
 30
0.0
 11
251.696
 21
80.1356
 31
0.0
  0
LINE
  8
0
 62
     0
 10
251.696
 20
80.1356
 30
0.0
 11
251.696
 21
85.9345
 31
0.0
  0
LINE
  8
0
 62
     0
 10
251.696
 20
85.9345
 30
0.0
 11
252.494
 21
85.9345
 31
0.0
  0
LINE
  8
0
 62
     0
 10
252.494
 20
85.9345
 30
0.0
 11
252.494
 21
89.0351
 31
0.0
  0
LINE
  8
0
 62
     0
 10
252.494
 20
89.0351
 30
0.0
 11
251.696
 21
89.0351
 31
0.0
  0
LINE
  8
0
 62
     0
 10
251.696
 20
89.0351
 30
0.0
 11
251.696
 21
90.0356
 31
0.0
  0
LINE
  8
0
 62
     0
 10
251.696
 20
90.0356
 30
0.0
 11
237.695
 21
90.0356
 31
0.0
  0
LINE
  8
0
 62
     0
 10
218.645
 20
90.0356
 30
0.0
 11
218.645
 21
89.0351
 31
0.0
  0
LINE
  8
0
 62
     0
 10
218.645
 20
89.0351
 30
0.0
 11
217.846
 21
89.0351
 31
0.0
  0
LINE
  8
0
 62
     0
 10
217.846
 20
89.0351
 30
0.0
 11
217.846
 21
85.9345
 31
0.0
  0
LINE
  8
0
 62
     0
 10
217.846
 20
85.9345
 30
0.0
 11
218.645
 21
85.9345
 31
0.0
  0
LINE
  8
0
 62
     0
 10
218.645
 20
85.9345
 30
0.0
 11
218.645
 21
80.1356
 31
0.0
  0
LINE
  8
0
 62
     0
 10
218.645
 20
80.1356
 30
0.0
 11
217.846
 21
80.1356
 31
0.0
  0
LINE
  8
0
 62
     0
 10
217.846
 20
80.1356
 30
0.0
 11
217.846
 21
77.035
 31
0.0
  0
LINE
  8
0
 62
     0
 10
217.846
 20
77.035
 30
0.0
 11
218.645
 21
77.035
 31
0.0
  0
LINE
  8
0
 62
     0
 10
218.645
 20
77.035
 30
0.0
 11
218.645
 21
76.0345
 31
0.0
  0
LINE
  8
0
 62
     0
 10
218.645
 20
76.0345
 30
0.0
 11
232.646
 21
76.0345
 31
0.0
  0
LINE
  8
0
 62
     0
 10
232.646
 20
76.0345
 30
0.0
 11
232.646
 21
77.035
 31
0.0
  0
LINE
  8
0
 62
     0
 10
232.646
 20
77.035
 30
0.0
 11
233.445
 21
77.035
 31
0.0
  0
LINE
  8
0
 62
     0
 10
233.445
 20
77.035
 30
0.0
 11
233.445
 21
80.1356
 31
0.0
  0
LINE
  8
0
 62
     0
 10
233.445
 20
80.1356
 30
0.0
 11
232.646
 21
80.1356
 31
0.0
  0
LINE
  8
0
 62
     0
 10
232.646
 20
80.1356
 30
0.0
 11
232.646
 21
85.9345
 31
0.0
  0
LINE
  8
0
 62
     0
 10
232.646
 20
85.9345
 30
0.0
 11
233.445
 21
85.9345
 31
0.0
  0
LINE
  8
0
 62
     0
 10
233.445
 20
85.9345
 30
0.0
 11
233.445
 21
89.0351
 31
0.0
  0
LINE
  8
0
 62
     0
 10
233.445
 20
89.0351
 30
0.0
 11
232.646
 21
89.0351
 31
0.0
  0
LINE
  8
0
 62
     0
 10
232.646
 20
89.0351
 30
0.0
 11
232.646
 21
90.0356
 31
0.0
  0
LINE
  8
0
 62
     0
 10
232.646
 20
90.0356
 30
0.0
 11
218.645
 21
90.0356
 31
0.0
  0
LINE
  8
0
 62
     0
 10
199.595
 20
90.0356
 30
0.0
 11
199.595
 21
89.0351
 31
0.0
  0
LINE
  8
0
 62
     0
 10
199.595
 20
89.0351
 30
0.0
 11
198.796
 21
89.0351
 31
0.0
  0
LINE
  8
0
 62
     0
 10
198.796
 20
89.0351
 30
0.0
 11
198.796
 21
85.9345
 31
0.0
  0
LINE
  8
0
 62
     0
 10
198.796
 20
85.9345
 30
0.0
 11
199.595
 21
85.9345
 31
0.0
  0
LINE
  8
0
 62
     0
 10
199.595
 20
85.9345
 30
0.0
 11
199.595
 21
80.1356
 31
0.0
  0
LINE
  8
0
 62
     0
 10
199.595
 20
80.1356
 30
0.0
 11
198.796
 21
80.1356
 31
0.0
  0
LINE
  8
0
 62
     0
 10
198.796
 20
80.1356
 30
0.0
 11
198.796
 21
77.035
 31
0.0
  0
LINE
  8
0
 62
     0
 10
198.796
 20
77.035
 30
0.0
 11
199.595
 21
77.035
 31
0.0
  0
LINE
  8
0
 62
     0
 10
199.595
 20
77.035
 30
0.0
 11
199.595
 21
76.0345
 31
0.0
  0
LINE
  8
0
 62
     0
 10
199.595
 20
76.0345
 30
0.0
 11
213.596
 21
76.0345
 31
0.0
  0
LINE
  8
0
 62
     0
 10
213.596
 20
76.0345
 30
0.0
 11
213.596
 21
77.035
 31
0.0
  0
LINE
  8
0
 62
     0
 10
213.596
 20
77.035
 30
0.0
 11
214.395
 21
77.035
 31
0.0
  0
LINE
  8
0
 62
     0
 10
214.395
 20
77.035
 30
0.0
 11
214.395
 21
80.1356
 31
0.0
  0
LINE
  8
0
 62
     0
 10
214.395
 20
80.1356
 30
0.0
 11
213.596
 21
80.1356
 31
0.0
  0
LINE
  8
0
 62
     0
 10
213.596
 20
80.1356
 30
0.0
 11
213.596
 21
85.9345
 31
0.0
  0
LINE
  8
0
 62
     0
 10
213.596
 20
85.9345
 30
0.0
 11
214.395
 21
85.9345
 31
0.0
  0
LINE
  8
0
 62
     0
 10
214.395
 20
85.9345
 30
0.0
 11
214.395
 21
89.0351
 31
0.0
  0
LINE
  8
0
 62
     0
 10
214.395
 20
89.0351
 30
0.0
 11
213.596
 21
89.0351
 31
0.0
  0
LINE
  8
0
 62
     0
 10
213.596
 20
89.0351
 30
0.0
 11
213.596
 21
90.0356
 31
0.0
  0
LINE
  8
0
 62
     0
 10
213.596
 20
90.0356
 30
0.0
 11
199.595
 21
90.0356
 31
0.0
  0
LINE
  8
0
 62
     0
 10
180.545
 20
90.0356
 30
0.0
 11
180.545
 21
89.0351
 31
0.0
  0
LINE
  8
0
 62
     0
 10
180.545
 20
89.0351
 30
0.0
 11
179.746
 21
89.0351
 31
0.0
  0
LINE
  8
0
 62
     0
 10
179.746
 20
89.0351
 30
0.0
 11
179.746
 21
85.9345
 31
0.0
  0
LINE
  8
0
 62
     0
 10
179.746
 20
85.9345
 30
0.0
 11
180.545
 21
85.9345
 31
0.0
  0
LINE
  8
0
 62
     0
 10
180.545
 20
85.9345
 30
0.0
 11
180.545
 21
80.1356
 31
0.0
  0
LINE
  8
0
 62
     0
 10
180.545
 20
80.1356
 30
0.0
 11
179.746
 21
80.1356
 31
0.0
  0
LINE
  8
0
 62
     0
 10
179.746
 20
80.1356
 30
0.0
 11
179.746
 21
77.035
 31
0.0
  0
LINE
  8
0
 62
     0
 10
179.746
 20
77.035
 30
0.0
 11
180.545
 21
77.035
 31
0.0
  0
LINE
  8
0
 62
     0
 10
180.545
 20
77.035
 30
0.0
 11
180.545
 21
76.0345
 31
0.0
  0
LINE
  8
0
 62
     0
 10
180.545
 20
76.0345
 30
0.0
 11
194.546
 21
76.0345
 31
0.0
  0
LINE
  8
0
 62
     0
 10
194.546
 20
76.0345
 30
0.0
 11
194.546
 21
77.035
 31
0.0
  0
LINE
  8
0
 62
     0
 10
194.546
 20
77.035
 30
0.0
 11
195.345
 21
77.035
 31
0.0
  0
LINE
  8
0
 62
     0
 10
195.345
 20
77.035
 30
0.0
 11
195.345
 21
80.1356
 31
0.0
  0
LINE
  8
0
 62
     0
 10
195.345
 20
80.1356
 30
0.0
 11
194.546
 21
80.1356
 31
0.0
  0
LINE
  8
0
 62
     0
 10
194.546
 20
80.1356
 30
0.0
 11
194.546
 21
85.9345
 31
0.0
  0
LINE
  8
0
 62
     0
 10
194.546
 20
85.9345
 30
0.0
 11
195.345
 21
85.9345
 31
0.0
  0
LINE
  8
0
 62
     0
 10
195.345
 20
85.9345
 30
0.0
 11
195.345
 21
89.0351
 31
0.0
  0
LINE
  8
0
 62
     0
 10
195.345
 20
89.0351
 30
0.0
 11
194.546
 21
89.0351
 31
0.0
  0
LINE
  8
0
 62
     0
 10
194.546
 20
89.0351
 30
0.0
 11
194.546
 21
90.0356
 31
0.0
  0
LINE
  8
0
 62
     0
 10
194.546
 20
90.0356
 30
0.0
 11
180.545
 21
90.0356
 31
0.0
  0
LINE
  8
0
 62
     0
 10
161.495
 20
90.0356
 30
0.0
 11
161.495
 21
89.0351
 31
0.0
  0
LINE
  8
0
 62
     0
 10
161.495
 20
89.0351
 30
0.0
 11
160.696
 21
89.0351
 31
0.0
  0
LINE
  8
0
 62
     0
 10
160.696
 20
89.0351
 30
0.0
 11
160.696
 21
85.9345
 31
0.0
  0
LINE
  8
0
 62
     0
 10
160.696
 20
85.9345
 30
0.0
 11
161.495
 21
85.9345
 31
0.0
  0
LINE
  8
0
 62
     0
 10
161.495
 20
85.9345
 30
0.0
 11
161.495
 21
80.1356
 31
0.0
  0
LINE
  8
0
 62
     0
 10
161.495
 20
80.1356
 30
0.0
 11
160.696
 21
80.1356
 31
0.0
  0
LINE
  8
0
 62
     0
 10
160.696
 20
80.1356
 30
0.0
 11
160.696
 21
77.035
 31
0.0
  0
LINE
  8
0
 62
     0
 10
160.696
 20
77.035
 30
0.0
 11
161.495
 21
77.035
 31
0.0
  0
LINE
  8
0
 62
     0
 10
161.495
 20
77.035
 30
0.0
 11
161.495
 21
76.0345
 31
0.0
  0
LINE
  8
0
 62
     0
 10
161.495
 20
76.0345
 30
0.0
 11
175.496
 21
76.0345
 31
0.0
  0
LINE
  8
0
 62
     0
 10
175.496
 20
76.0345
 30
0.0
 11
175.496
 21
77.035
 31
0.0
  0
LINE
  8
0
 62
     0
 10
175.496
 20
77.035
 30
0.0
 11
176.295
 21
77.035
 31
0.0
  0
LINE
  8
0
 62
     0
 10
176.295
 20
77.035
 30
0.0
 11
176.295
 21
80.1356
 31
0.0
  0
LINE
  8
0
 62
     0
 10
176.295
 20
80.1356
 30
0.0
 11
175.496
 21
80.1356
 31
0.0
  0
LINE
  8
0
 62
     0
 10
175.496
 20
80.1356
 30
0.0
 11
175.496
 21
85.9345
 31
0.0
  0
LINE
  8
0
 62
     0
 10
175.496
 20
85.9345
 30
0.0
 11
176.295
 21
85.9345
 31
0.0
  0
LINE
  8
0
 62
     0
 10
176.295
 20
85.9345
 30
0.0
 11
176.295
 21
89.0351
 31
0.0
  0
LINE
  8
0
 62
     0
 10
176.295
 20
89.0351
 30
0.0
 11
175.496
 21
89.0351
 31
0.0
  0
LINE
  8
0
 62
     0
 10
175.496
 20
89.0351
 30
0.0
 11
175.496
 21
90.0356
 31
0.0
  0
LINE
  8
0
 62
     0
 10
175.496
 20
90.0356
 30
0.0
 11
161.495
 21
90.0356
 31
0.0
  0
LINE
  8
0
 62
     0
 10
142.445
 20
90.0356
 30
0.0
 11
142.445
 21
89.0351
 31
0.0
  0
LINE
  8
0
 62
     0
 10
142.445
 20
89.0351
 30
0.0
 11
141.646
 21
89.0351
 31
0.0
  0
LINE
  8
0
 62
     0
 10
141.646
 20
89.0351
 30
0.0
 11
141.646
 21
85.9345
 31
0.0
  0
LINE
  8
0
 62
     0
 10
141.646
 20
85.9345
 30
0.0
 11
142.445
 21
85.9345
 31
0.0
  0
LINE
  8
0
 62
     0
 10
142.445
 20
85.9345
 30
0.0
 11
142.445
 21
80.1356
 31
0.0
  0
LINE
  8
0
 62
     0
 10
142.445
 20
80.1356
 30
0.0
 11
141.646
 21
80.1356
 31
0.0
  0
LINE
  8
0
 62
     0
 10
141.646
 20
80.1356
 30
0.0
 11
141.646
 21
77.035
 31
0.0
  0
LINE
  8
0
 62
     0
 10
141.646
 20
77.035
 30
0.0
 11
142.445
 21
77.035
 31
0.0
  0
LINE
  8
0
 62
     0
 10
142.445
 20
77.035
 30
0.0
 11
142.445
 21
76.0345
 31
0.0
  0
LINE
  8
0
 62
     0
 10
142.445
 20
76.0345
 30
0.0
 11
156.446
 21
76.0345
 31
0.0
  0
LINE
  8
0
 62
     0
 10
156.446
 20
76.0345
 30
0.0
 11
156.446
 21
77.035
 31
0.0
  0
LINE
  8
0
 62
     0
 10
156.446
 20
77.035
 30
0.0
 11
157.245
 21
77.035
 31
0.0
  0
LINE
  8
0
 62
     0
 10
157.245
 20
77.035
 30
0.0
 11
157.245
 21
80.1356
 31
0.0
  0
LINE
  8
0
 62
     0
 10
157.245
 20
80.1356
 30
0.0
 11
156.446
 21
80.1356
 31
0.0
  0
LINE
  8
0
 62
     0
 10
156.446
 20
80.1356
 30
0.0
 11
156.446
 21
85.9345
 31
0.0
  0
LINE
  8
0
 62
     0
 10
156.446
 20
85.9345
 30
0.0
 11
157.245
 21
85.9345
 31
0.0
  0
LINE
  8
0
 62
     0
 10
157.245
 20
85.9345
 30
0.0
 11
157.245
 21
89.0351
 31
0.0
  0
LINE
  8
0
 62
     0
 10
157.245
 20
89.0351
 30
0.0
 11
156.446
 21
89.0351
 31
0.0
  0
LINE
  8
0
 62
     0
 10
156.446
 20
89.0351
 30
0.0
 11
156.446
 21
90.0356
 31
0.0
  0
LINE
  8
0
 62
     0
 10
156.446
 20
90.0356
 30
0.0
 11
142.445
 21
90.0356
 31
0.0
  0
LINE
  8
0
 62
     0
 10
123.395
 20
90.0356
 30
0.0
 11
123.395
 21
89.0351
 31
0.0
  0
LINE
  8
0
 62
     0
 10
123.395
 20
89.0351
 30
0.0
 11
122.596
 21
89.0351
 31
0.0
  0
LINE
  8
0
 62
     0
 10
122.596
 20
89.0351
 30
0.0
 11
122.596
 21
85.9345
 31
0.0
  0
LINE
  8
0
 62
     0
 10
122.596
 20
85.9345
 30
0.0
 11
123.395
 21
85.9345
 31
0.0
  0
LINE
  8
0
 62
     0
 10
123.395
 20
85.9345
 30
0.0
 11
123.395
 21
80.1356
 31
0.0
  0
LINE
  8
0
 62
     0
 10
123.395
 20
80.1356
 30
0.0
 11
122.596
 21
80.1356
 31
0.0
  0
LINE
  8
0
 62
     0
 10
122.596
 20
80.1356
 30
0.0
 11
122.596
 21
77.035
 31
0.0
  0
LINE
  8
0
 62
     0
 10
122.596
 20
77.035
 30
0.0
 11
123.395
 21
77.035
 31
0.0
  0
LINE
  8
0
 62
     0
 10
123.395
 20
77.035
 30
0.0
 11
123.395
 21
76.0345
 31
0.0
  0
LINE
  8
0
 62
     0
 10
123.395
 20
76.0345
 30
0.0
 11
137.396
 21
76.0345
 31
0.0
  0
LINE
  8
0
 62
     0
 10
137.396
 20
76.0345
 30
0.0
 11
137.396
 21
77.035
 31
0.0
  0
LINE
  8
0
 62
     0
 10
137.396
 20
77.035
 30
0.0
 11
138.195
 21
77.035
 31
0.0
  0
LINE
  8
0
 62
     0
 10
138.195
 20
77.035
 30
0.0
 11
138.195
 21
80.1356
 31
0.0
  0
LINE
  8
0
 62
     0
 10
138.195
 20
80.1356
 30
0.0
 11
137.396
 21
80.1356
 31
0.0
  0
LINE
  8
0
 62
     0
 10
137.396
 20
80.1356
 30
0.0
 11
137.396
 21
85.9345
 31
0.0
  0
LINE
  8
0
 62
     0
 10
137.396
 20
85.9345
 30
0.0
 11
138.195
 21
85.9345
 31
0.0
  0
LINE
  8
0
 62
     0
 10
138.195
 20
85.9345
 30
0.0
 11
138.195
 21
89.0351
 31
0.0
  0
LINE
  8
0
 62
     0
 10
138.195
 20
89.0351
 30
0.0
 11
137.396
 21
89.0351
 31
0.0
  0
LINE
  8
0
 62
     0
 10
137.396
 20
89.0351
 30
0.0
 11
137.396
 21
90.0356
 31
0.0
  0
LINE
  8
0
 62
     0
 10
137.396
 20
90.0356
 30
0.0
 11
123.395
 21
90.0356
 31
0.0
  0
LINE
  8
0
 62
     0
 10
104.345
 20
90.0356
 30
0.0
 11
104.345
 21
89.0351
 31
0.0
  0
LINE
  8
0
 62
     0
 10
104.345
 20
89.0351
 30
0.0
 11
103.546
 21
89.0351
 31
0.0
  0
LINE
  8
0
 62
     0
 10
103.546
 20
89.0351
 30
0.0
 11
103.546
 21
85.9345
 31
0.0
  0
LINE
  8
0
 62
     0
 10
103.546
 20
85.9345
 30
0.0
 11
104.345
 21
85.9345
 31
0.0
  0
LINE
  8
0
 62
     0
 10
104.345
 20
85.9345
 30
0.0
 11
104.345
 21
80.1356
 31
0.0
  0
LINE
  8
0
 62
     0
 10
104.345
 20
80.1356
 30
0.0
 11
103.546
 21
80.1356
 31
0.0
  0
LINE
  8
0
 62
     0
 10
103.546
 20
80.1356
 30
0.0
 11
103.546
 21
77.035
 31
0.0
  0
LINE
  8
0
 62
     0
 10
103.546
 20
77.035
 30
0.0
 11
104.345
 21
77.035
 31
0.0
  0
LINE
  8
0
 62
     0
 10
104.345
 20
77.035
 30
0.0
 11
104.345
 21
76.0345
 31
0.0
  0
LINE
  8
0
 62
     0
 10
104.345
 20
76.0345
 30
0.0
 11
118.346
 21
76.0345
 31
0.0
  0
LINE
  8
0
 62
     0
 10
118.346
 20
76.0345
 30
0.0
 11
118.346
 21
77.035
 31
0.0
  0
LINE
  8
0
 62
     0
 10
118.346
 20
77.035
 30
0.0
 11
119.145
 21
77.035
 31
0.0
  0
LINE
  8
0
 62
     0
 10
119.145
 20
77.035
 30
0.0
 11
119.145
 21
80.1356
 31
0.0
  0
LINE
  8
0
 62
     0
 10
119.145
 20
80.1356
 30
0.0
 11
118.346
 21
80.1356
 31
0.0
  0
LINE
  8
0
 62
     0
 10
118.346
 20
80.1356
 30
0.0
 11
118.346
 21
85.9345
 31
0.0
  0
LINE
  8
0
 62
     0
 10
118.346
 20
85.9345
 30
0.0
 11
119.145
 21
85.9345
 31
0.0
  0
LINE
  8
0
 62
     0
 10
119.145
 20
85.9345
 30
0.0
 11
119.145
 21
89.0351
 31
0.0
  0
LINE
  8
0
 62
     0
 10
119.145
 20
89.0351
 30
0.0
 11
118.346
 21
89.0351
 31
0.0
  0
LINE
  8
0
 62
     0
 10
118.346
 20
89.0351
 30
0.0
 11
118.346
 21
90.0356
 31
0.0
  0
LINE
  8
0
 62
     0
 10
118.346
 20
90.0356
 30
0.0
 11
104.345
 21
90.0356
 31
0.0
  0
LINE
  8
0
 62
     0
 10
85.295
 20
90.0356
 30
0.0
 11
85.295
 21
89.0351
 31
0.0
  0
LINE
  8
0
 62
     0
 10
85.295
 20
89.0351
 30
0.0
 11
84.4959
 21
89.0351
 31
0.0
  0
LINE
  8
0
 62
     0
 10
84.4959
 20
89.0351
 30
0.0
 11
84.4959
 21
85.9345
 31
0.0
  0
LINE
  8
0
 62
     0
 10
84.4959
 20
85.9345
 30
0.0
 11
85.295
 21
85.9345
 31
0.0
  0
LINE
  8
0
 62
     0
 10
85.295
 20
85.9345
 30
0.0
 11
85.295
 21
80.1356
 31
0.0
  0
LINE
  8
0
 62
     0
 10
85.295
 20
80.1356
 30
0.0
 11
84.4959
 21
80.1356
 31
0.0
  0
LINE
  8
0
 62
     0
 10
84.4959
 20
80.1356
 30
0.0
 11
84.4959
 21
77.035
 31
0.0
  0
LINE
  8
0
 62
     0
 10
84.4959
 20
77.035
 30
0.0
 11
85.295
 21
77.035
 31
0.0
  0
LINE
  8
0
 62
     0
 10
85.295
 20
77.035
 30
0.0
 11
85.295
 21
76.0345
 31
0.0
  0
LINE
  8
0
 62
     0
 10
85.295
 20
76.0345
 30
0.0
 11
99.296
 21
76.0345
 31
0.0
  0
LINE
  8
0
 62
     0
 10
99.296
 20
76.0345
 30
0.0
 11
99.296
 21
77.035
 31
0.0
  0
LINE
  8
0
 62
     0
 10
99.296
 20
77.035
 30
0.0
 11
100.095
 21
77.035
 31
0.0
  0
LINE
  8
0
 62
     0
 10
100.095
 20
77.035
 30
0.0
 11
100.095
 21
80.1356
 31
0.0
  0
LINE
  8
0
 62
     0
 10
100.095
 20
80.1356
 30
0.0
 11
99.296
 21
80.1356
 31
0.0
  0
LINE
  8
0
 62
     0
 10
99.296
 20
80.1356
 30
0.0
 11
99.296
 21
85.9345
 31
0.0
  0
LINE
  8
0
 62
     0
 10
99.296
 20
85.9345
 30
0.0
 11
100.095
 21
85.9345
 31
0.0
  0
LINE
  8
0
 62
     0
 10
100.095
 20
85.9345
 30
0.0
 11
100.095
 21
89.0351
 31
0.0
  0
LINE
  8
0
 62
     0
 10
100.095
 20
89.0351
 30
0.0
 11
99.296
 21
89.0351
 31
0.0
  0
LINE
  8
0
 62
     0
 10
99.296
 20
89.0351
 30
0.0
 11
99.296
 21
90.0356
 31
0.0
  0
LINE
  8
0
 62
     0
 10
99.296
 20
90.0356
 30
0.0
 11
85.295
 21
90.0356
 31
0.0
  0
LINE
  8
0
 62
     0
 10
66.245
 20
90.0356
 30
0.0
 11
66.245
 21
89.0351
 31
0.0
  0
LINE
  8
0
 62
     0
 10
66.245
 20
89.0351
 30
0.0
 11
65.4459
 21
89.0351
 31
0.0
  0
LINE
  8
0
 62
     0
 10
65.4459
 20
89.0351
 30
0.0
 11
65.4459
 21
85.9345
 31
0.0
  0
LINE
  8
0
 62
     0
 10
65.4459
 20
85.9345
 30
0.0
 11
66.245
 21
85.9345
 31
0.0
  0
LINE
  8
0
 62
     0
 10
66.245
 20
85.9345
 30
0.0
 11
66.245
 21
80.1356
 31
0.0
  0
LINE
  8
0
 62
     0
 10
66.245
 20
80.1356
 30
0.0
 11
65.4459
 21
80.1356
 31
0.0
  0
LINE
  8
0
 62
     0
 10
65.4459
 20
80.1356
 30
0.0
 11
65.4459
 21
77.035
 31
0.0
  0
LINE
  8
0
 62
     0
 10
65.4459
 20
77.035
 30
0.0
 11
66.245
 21
77.035
 31
0.0
  0
LINE
  8
0
 62
     0
 10
66.245
 20
77.035
 30
0.0
 11
66.245
 21
76.0345
 31
0.0
  0
LINE
  8
0
 62
     0
 10
66.245
 20
76.0345
 30
0.0
 11
80.246
 21
76.0345
 31
0.0
  0
LINE
  8
0
 62
     0
 10
80.246
 20
76.0345
 30
0.0
 11
80.246
 21
77.035
 31
0.0
  0
LINE
  8
0
 62
     0
 10
80.246
 20
77.035
 30
0.0
 11
81.045
 21
77.035
 31
0.0
  0
LINE
  8
0
 62
     0
 10
81.045
 20
77.035
 30
0.0
 11
81.045
 21
80.1356
 31
0.0
  0
LINE
  8
0
 62
     0
 10
81.045
 20
80.1356
 30
0.0
 11
80.246
 21
80.1356
 31
0.0
  0
LINE
  8
0
 62
     0
 10
80.246
 20
80.1356
 30
0.0
 11
80.246
 21
85.9345
 31
0.0
  0
LINE
  8
0
 62
     0
 10
80.246
 20
85.9345
 30
0.0
 11
81.045
 21
85.9345
 31
0.0
  0
LINE
  8
0
 62
     0
 10
81.045
 20
85.9345
 30
0.0
 11
81.045
 21
89.0351
 31
0.0
  0
LINE
  8
0
 62
     0
 10
81.045
 20
89.0351
 30
0.0
 11
80.246
 21
89.0351
 31
0.0
  0
LINE
  8
0
 62
     0
 10
80.246
 20
89.0351
 30
0.0
 11
80.246
 21
90.0356
 31
0.0
  0
LINE
  8
0
 62
     0
 10
80.246
 20
90.0356
 30
0.0
 11
66.245
 21
90.0356
 31
0.0
  0
LINE
  8
0
 62
     0
 10
47.195
 20
90.0356
 30
0.0
 11
47.195
 21
89.0351
 31
0.0
  0
LINE
  8
0
 62
     0
 10
47.195
 20
89.0351
 30
0.0
 11
46.3959
 21
89.0351
 31
0.0
  0
LINE
  8
0
 62
     0
 10
46.3959
 20
89.0351
 30
0.0
 11
46.3959
 21
85.9345
 31
0.0
  0
LINE
  8
0
 62
     0
 10
46.3959
 20
85.9345
 30
0.0
 11
47.195
 21
85.9345
 31
0.0
  0
LINE
  8
0
 62
     0
 10
47.195
 20
85.9345
 30
0.0
 11
47.195
 21
80.1356
 31
0.0
  0
LINE
  8
0
 62
     0
 10
47.195
 20
80.1356
 30
0.0
 11
46.3959
 21
80.1356
 31
0.0
  0
LINE
  8
0
 62
     0
 10
46.3959
 20
80.1356
 30
0.0
 11
46.3959
 21
77.035
 31
0.0
  0
LINE
  8
0
 62
     0
 10
46.3959
 20
77.035
 30
0.0
 11
47.195
 21
77.035
 31
0.0
  0
LINE
  8
0
 62
     0
 10
47.195
 20
77.035
 30
0.0
 11
47.195
 21
76.0345
 31
0.0
  0
LINE
  8
0
 62
     0
 10
47.195
 20
76.0345
 30
0.0
 11
61.196
 21
76.0345
 31
0.0
  0
LINE
  8
0
 62
     0
 10
61.196
 20
76.0345
 30
0.0
 11
61.196
 21
77.035
 31
0.0
  0
LINE
  8
0
 62
     0
 10
61.196
 20
77.035
 30
0.0
 11
61.995
 21
77.035
 31
0.0
  0
LINE
  8
0
 62
     0
 10
61.995
 20
77.035
 30
0.0
 11
61.995
 21
80.1356
 31
0.0
  0
LINE
  8
0
 62
     0
 10
61.995
 20
80.1356
 30
0.0
 11
61.196
 21
80.1356
 31
0.0
  0
LINE
  8
0
 62
     0
 10
61.196
 20
80.1356
 30
0.0
 11
61.196
 21
85.9345
 31
0.0
  0
LINE
  8
0
 62
     0
 10
61.196
 20
85.9345
 30
0.0
 11
61.995
 21
85.9345
 31
0.0
  0
LINE
  8
0
 62
     0
 10
61.995
 20
85.9345
 30
0.0
 11
61.995
 21
89.0351
 31
0.0
  0
LINE
  8
0
 62
     0
 10
61.995
 20
89.0351
 30
0.0
 11
61.196
 21
89.0351
 31
0.0
  0
LINE
  8
0
 62
     0
 10
61.196
 20
89.0351
 30
0.0
 11
61.196
 21
90.0356
 31
0.0
  0
LINE
  8
0
 62
     0
 10
61.196
 20
90.0356
 30
0.0
 11
47.195
 21
90.0356
 31
0.0
  0
LINE
  8
0
 62
     0
 10
23.3826
 20
90.0356
 30
0.0
 11
23.3826
 21
89.0351
 31
0.0
  0
LINE
  8
0
 62
     0
 10
23.3826
 20
89.0351
 30
0.0
 11
22.5819
 21
89.0351
 31
0.0
  0
LINE
  8
0
 62
     0
 10
22.5819
 20
89.0351
 30
0.0
 11
22.5819
 21
85.9345
 31
0.0
  0
LINE
  8
0
 62
     0
 10
22.5819
 20
85.9345
 30
0.0
 11
23.3826
 21
85.9345
 31
0.0
  0
LINE
  8
0
 62
     0
 10
23.3826
 20
85.9345
 30
0.0
 11
23.3826
 21
80.1356
 31
0.0
  0
LINE
  8
0
 62
     0
 10
23.3826
 20
80.1356
 30
0.0
 11
22.5819
 21
80.1356
 31
0.0
  0
LINE
  8
0
 62
     0
 10
22.5819
 20
80.1356
 30
0.0
 11
22.5819
 21
77.035
 31
0.0
  0
LINE
  8
0
 62
     0
 10
22.5819
 20
77.035
 30
0.0
 11
23.3826
 21
77.035
 31
0.0
  0
LINE
  8
0
 62
     0
 10
23.3826
 20
77.035
 30
0.0
 11
23.3826
 21
76.0345
 31
0.0
  0
LINE
  8
0
 62
     0
 10
23.3826
 20
76.0345
 30
0.0
 11
37.3821
 21
76.0345
 31
0.0
  0
LINE
  8
0
 62
     0
 10
37.3821
 20
76.0345
 30
0.0
 11
37.3821
 21
77.035
 31
0.0
  0
LINE
  8
0
 62
     0
 10
37.3821
 20
77.035
 30
0.0
 11
38.1826
 21
77.035
 31
0.0
  0
LINE
  8
0
 62
     0
 10
38.1826
 20
77.035
 30
0.0
 11
38.1826
 21
80.1356
 31
0.0
  0
LINE
  8
0
 62
     0
 10
38.1826
 20
80.1356
 30
0.0
 11
37.3821
 21
80.1356
 31
0.0
  0
LINE
  8
0
 62
     0
 10
37.3821
 20
80.1356
 30
0.0
 11
37.3821
 21
85.9345
 31
0.0
  0
LINE
  8
0
 62
     0
 10
37.3821
 20
85.9345
 30
0.0
 11
38.1826
 21
85.9345
 31
0.0
  0
LINE
  8
0
 62
     0
 10
38.1826
 20
85.9345
 30
0.0
 11
38.1826
 21
89.0351
 31
0.0
  0
LINE
  8
0
 62
     0
 10
38.1826
 20
89.0351
 30
0.0
 11
37.3821
 21
89.0351
 31
0.0
  0
LINE
  8
0
 62
     0
 10
37.3821
 20
89.0351
 30
0.0
 11
37.3821
 21
90.0356
 31
0.0
  0
LINE
  8
0
 62
     0
 10
37.3821
 20
90.0356
 30
0.0
 11
23.3826
 21
90.0356
 31
0.0
  0
LINE
  8
0
 62
     0
 10
275.795
 20
109.086
 30
0.0
 11
275.795
 21
108.085
 31
0.0
  0
LINE
  8
0
 62
     0
 10
275.795
 20
108.085
 30
0.0
 11
274.996
 21
108.085
 31
0.0
  0
LINE
  8
0
 62
     0
 10
274.996
 20
108.085
 30
0.0
 11
274.996
 21
104.985
 31
0.0
  0
LINE
  8
0
 62
     0
 10
274.996
 20
104.985
 30
0.0
 11
275.795
 21
104.985
 31
0.0
  0
LINE
  8
0
 62
     0
 10
275.795
 20
104.985
 30
0.0
 11
275.795
 21
104.386
 31
0.0
  0
LINE
  8
0
 62
     0
 10
275.795
 20
104.386
 30
0.0
 11
274.271
 21
104.386
 31
0.0
  0
LINE
  8
0
 62
     0
 10
274.271
 20
104.386
 30
0.0
 11
274.271
 21
107.617
 31
0.0
  0
LINE
  8
0
 62
     0
 10
274.271
 20
107.617
 30
0.0
 11
267.52
 21
107.617
 31
0.0
  0
LINE
  8
0
 62
     0
 10
267.52
 20
107.617
 30
0.0
 11
267.52
 21
104.386
 31
0.0
  0
LINE
  8
0
 62
     0
 10
267.52
 20
104.386
 30
0.0
 11
266.696
 21
104.386
 31
0.0
  0
LINE
  8
0
 62
     0
 10
266.696
 20
104.386
 30
0.0
 11
266.696
 21
101.585
 31
0.0
  0
LINE
  8
0
 62
     0
 10
266.696
 20
101.585
 30
0.0
 11
267.52
 21
101.585
 31
0.0
  0
LINE
  8
0
 62
     0
 10
267.52
 20
101.585
 30
0.0
 11
267.52
 21
95.3149
 31
0.0
  0
LINE
  8
0
 62
     0
 10
267.52
 20
95.3149
 30
0.0
 11
269.245
 21
95.3149
 31
0.0
  0
LINE
  8
0
 62
     0
 10
269.245
 20
95.3149
 30
0.0
 11
269.245
 21
94.1144
 31
0.0
  0
LINE
  8
0
 62
     0
 10
269.245
 20
94.1144
 30
0.0
 11
272.546
 21
94.1144
 31
0.0
  0
LINE
  8
0
 62
     0
 10
272.546
 20
94.1144
 30
0.0
 11
272.546
 21
95.3149
 31
0.0
  0
LINE
  8
0
 62
     0
 10
272.546
 20
95.3149
 30
0.0
 11
274.271
 21
95.3149
 31
0.0
  0
LINE
  8
0
 62
     0
 10
274.271
 20
95.3149
 30
0.0
 11
274.271
 21
99.7864
 31
0.0
  0
LINE
  8
0
 62
     0
 10
274.271
 20
99.7864
 30
0.0
 11
275.795
 21
99.7864
 31
0.0
  0
LINE
  8
0
 62
     0
 10
275.795
 20
99.7864
 30
0.0
 11
275.795
 21
99.1856
 31
0.0
  0
LINE
  8
0
 62
     0
 10
275.795
 20
99.1856
 30
0.0
 11
274.996
 21
99.1856
 31
0.0
  0
LINE
  8
0
 62
     0
 10
274.996
 20
99.1856
 30
0.0
 11
274.996
 21
96.085
 31
0.0
  0
LINE
  8
0
 62
     0
 10
274.996
 20
96.085
 30
0.0
 11
275.795
 21
96.085
 31
0.0
  0
LINE
  8
0
 62
     0
 10
275.795
 20
96.085
 30
0.0
 11
275.795
 21
95.0845
 31
0.0
  0
LINE
  8
0
 62
     0
 10
275.795
 20
95.0845
 30
0.0
 11
289.796
 21
95.0845
 31
0.0
  0
LINE
  8
0
 62
     0
 10
289.796
 20
95.0845
 30
0.0
 11
289.796
 21
96.085
 31
0.0
  0
LINE
  8
0
 62
     0
 10
289.796
 20
96.085
 30
0.0
 11
290.595
 21
96.085
 31
0.0
  0
LINE
  8
0
 62
     0
 10
290.595
 20
96.085
 30
0.0
 11
290.595
 21
99.1856
 31
0.0
  0
LINE
  8
0
 62
     0
 10
290.595
 20
99.1856
 30
0.0
 11
289.796
 21
99.1856
 31
0.0
  0
LINE
  8
0
 62
     0
 10
289.796
 20
99.1856
 30
0.0
 11
289.796
 21
99.7864
 31
0.0
  0
LINE
  8
0
 62
     0
 10
289.796
 20
99.7864
 30
0.0
 11
291.32
 21
99.7864
 31
0.0
  0
LINE
  8
0
 62
     0
 10
291.32
 20
99.7864
 30
0.0
 11
291.32
 21
95.3149
 31
0.0
  0
LINE
  8
0
 62
     0
 10
291.32
 20
95.3149
 30
0.0
 11
293.045
 21
95.3149
 31
0.0
  0
LINE
  8
0
 62
     0
 10
293.045
 20
95.3149
 30
0.0
 11
293.045
 21
94.1144
 31
0.0
  0
LINE
  8
0
 62
     0
 10
293.045
 20
94.1144
 30
0.0
 11
296.346
 21
94.1144
 31
0.0
  0
LINE
  8
0
 62
     0
 10
296.346
 20
94.1144
 30
0.0
 11
296.346
 21
95.3149
 31
0.0
  0
LINE
  8
0
 62
     0
 10
296.346
 20
95.3149
 30
0.0
 11
298.071
 21
95.3149
 31
0.0
  0
LINE
  8
0
 62
     0
 10
298.071
 20
95.3149
 30
0.0
 11
298.071
 21
101.585
 31
0.0
  0
LINE
  8
0
 62
     0
 10
298.071
 20
101.585
 30
0.0
 11
298.895
 21
101.585
 31
0.0
  0
LINE
  8
0
 62
     0
 10
298.895
 20
101.585
 30
0.0
 11
298.895
 21
104.386
 31
0.0
  0
LINE
  8
0
 62
     0
 10
298.895
 20
104.386
 30
0.0
 11
298.071
 21
104.386
 31
0.0
  0
LINE
  8
0
 62
     0
 10
298.071
 20
104.386
 30
0.0
 11
298.071
 21
107.617
 31
0.0
  0
LINE
  8
0
 62
     0
 10
298.071
 20
107.617
 30
0.0
 11
291.32
 21
107.617
 31
0.0
  0
LINE
  8
0
 62
     0
 10
291.32
 20
107.617
 30
0.0
 11
291.32
 21
104.386
 31
0.0
  0
LINE
  8
0
 62
     0
 10
291.32
 20
104.386
 30
0.0
 11
289.796
 21
104.386
 31
0.0
  0
LINE
  8
0
 62
     0
 10
289.796
 20
104.386
 30
0.0
 11
289.796
 21
104.985
 31
0.0
  0
LINE
  8
0
 62
     0
 10
289.796
 20
104.985
 30
0.0
 11
290.595
 21
104.985
 31
0.0
  0
LINE
  8
0
 62
     0
 10
290.595
 20
104.985
 30
0.0
 11
290.595
 21
108.085
 31
0.0
  0
LINE
  8
0
 62
     0
 10
290.595
 20
108.085
 30
0.0
 11
289.796
 21
108.085
 31
0.0
  0
LINE
  8
0
 62
     0
 10
289.796
 20
108.085
 30
0.0
 11
289.796
 21
109.086
 31
0.0
  0
LINE
  8
0
 62
     0
 10
289.796
 20
109.086
 30
0.0
 11
275.795
 21
109.086
 31
0.0
  0
LINE
  8
0
 62
     0
 10
304.37
 20
109.086
 30
0.0
 11
304.37
 21
108.085
 31
0.0
  0
LINE
  8
0
 62
     0
 10
304.37
 20
108.085
 30
0.0
 11
303.571
 21
108.085
 31
0.0
  0
LINE
  8
0
 62
     0
 10
303.571
 20
108.085
 30
0.0
 11
303.571
 21
104.985
 31
0.0
  0
LINE
  8
0
 62
     0
 10
303.571
 20
104.985
 30
0.0
 11
304.37
 21
104.985
 31
0.0
  0
LINE
  8
0
 62
     0
 10
304.37
 20
104.985
 30
0.0
 11
304.37
 21
99.1856
 31
0.0
  0
LINE
  8
0
 62
     0
 10
304.37
 20
99.1856
 30
0.0
 11
303.571
 21
99.1856
 31
0.0
  0
LINE
  8
0
 62
     0
 10
303.571
 20
99.1856
 30
0.0
 11
303.571
 21
96.085
 31
0.0
  0
LINE
  8
0
 62
     0
 10
303.571
 20
96.085
 30
0.0
 11
304.37
 21
96.085
 31
0.0
  0
LINE
  8
0
 62
     0
 10
304.37
 20
96.085
 30
0.0
 11
304.37
 21
95.0845
 31
0.0
  0
LINE
  8
0
 62
     0
 10
304.37
 20
95.0845
 30
0.0
 11
318.371
 21
95.0845
 31
0.0
  0
LINE
  8
0
 62
     0
 10
318.371
 20
95.0845
 30
0.0
 11
318.371
 21
96.085
 31
0.0
  0
LINE
  8
0
 62
     0
 10
318.371
 20
96.085
 30
0.0
 11
319.17
 21
96.085
 31
0.0
  0
LINE
  8
0
 62
     0
 10
319.17
 20
96.085
 30
0.0
 11
319.17
 21
99.1856
 31
0.0
  0
LINE
  8
0
 62
     0
 10
319.17
 20
99.1856
 30
0.0
 11
318.371
 21
99.1856
 31
0.0
  0
LINE
  8
0
 62
     0
 10
318.371
 20
99.1856
 30
0.0
 11
318.371
 21
104.985
 31
0.0
  0
LINE
  8
0
 62
     0
 10
318.371
 20
104.985
 30
0.0
 11
319.17
 21
104.985
 31
0.0
  0
LINE
  8
0
 62
     0
 10
319.17
 20
104.985
 30
0.0
 11
319.17
 21
108.085
 31
0.0
  0
LINE
  8
0
 62
     0
 10
319.17
 20
108.085
 30
0.0
 11
318.371
 21
108.085
 31
0.0
  0
LINE
  8
0
 62
     0
 10
318.371
 20
108.085
 30
0.0
 11
318.371
 21
109.086
 31
0.0
  0
LINE
  8
0
 62
     0
 10
318.371
 20
109.086
 30
0.0
 11
304.37
 21
109.086
 31
0.0
  0
LINE
  8
0
 62
     0
 10
247.22
 20
109.086
 30
0.0
 11
247.22
 21
108.085
 31
0.0
  0
LINE
  8
0
 62
     0
 10
247.22
 20
108.085
 30
0.0
 11
246.421
 21
108.085
 31
0.0
  0
LINE
  8
0
 62
     0
 10
246.421
 20
108.085
 30
0.0
 11
246.421
 21
104.985
 31
0.0
  0
LINE
  8
0
 62
     0
 10
246.421
 20
104.985
 30
0.0
 11
247.22
 21
104.985
 31
0.0
  0
LINE
  8
0
 62
     0
 10
247.22
 20
104.985
 30
0.0
 11
247.22
 21
99.1856
 31
0.0
  0
LINE
  8
0
 62
     0
 10
247.22
 20
99.1856
 30
0.0
 11
246.421
 21
99.1856
 31
0.0
  0
LINE
  8
0
 62
     0
 10
246.421
 20
99.1856
 30
0.0
 11
246.421
 21
96.085
 31
0.0
  0
LINE
  8
0
 62
     0
 10
246.421
 20
96.085
 30
0.0
 11
247.22
 21
96.085
 31
0.0
  0
LINE
  8
0
 62
     0
 10
247.22
 20
96.085
 30
0.0
 11
247.22
 21
95.0845
 31
0.0
  0
LINE
  8
0
 62
     0
 10
247.22
 20
95.0845
 30
0.0
 11
261.221
 21
95.0845
 31
0.0
  0
LINE
  8
0
 62
     0
 10
261.221
 20
95.0845
 30
0.0
 11
261.221
 21
96.085
 31
0.0
  0
LINE
  8
0
 62
     0
 10
261.221
 20
96.085
 30
0.0
 11
262.02
 21
96.085
 31
0.0
  0
LINE
  8
0
 62
     0
 10
262.02
 20
96.085
 30
0.0
 11
262.02
 21
99.1856
 31
0.0
  0
LINE
  8
0
 62
     0
 10
262.02
 20
99.1856
 30
0.0
 11
261.221
 21
99.1856
 31
0.0
  0
LINE
  8
0
 62
     0
 10
261.221
 20
99.1856
 30
0.0
 11
261.221
 21
104.985
 31
0.0
  0
LINE
  8
0
 62
     0
 10
261.221
 20
104.985
 30
0.0
 11
262.02
 21
104.985
 31
0.0
  0
LINE
  8
0
 62
     0
 10
262.02
 20
104.985
 30
0.0
 11
262.02
 21
108.085
 31
0.0
  0
LINE
  8
0
 62
     0
 10
262.02
 20
108.085
 30
0.0
 11
261.221
 21
108.085
 31
0.0
  0
LINE
  8
0
 62
     0
 10
261.221
 20
108.085
 30
0.0
 11
261.221
 21
109.086
 31
0.0
  0
LINE
  8
0
 62
     0
 10
261.221
 20
109.086
 30
0.0
 11
247.22
 21
109.086
 31
0.0
  0
LINE
  8
0
 62
     0
 10
228.17
 20
109.086
 30
0.0
 11
228.17
 21
108.085
 31
0.0
  0
LINE
  8
0
 62
     0
 10
228.17
 20
108.085
 30
0.0
 11
227.371
 21
108.085
 31
0.0
  0
LINE
  8
0
 62
     0
 10
227.371
 20
108.085
 30
0.0
 11
227.371
 21
104.985
 31
0.0
  0
LINE
  8
0
 62
     0
 10
227.371
 20
104.985
 30
0.0
 11
228.17
 21
104.985
 31
0.0
  0
LINE
  8
0
 62
     0
 10
228.17
 20
104.985
 30
0.0
 11
228.17
 21
99.1856
 31
0.0
  0
LINE
  8
0
 62
     0
 10
228.17
 20
99.1856
 30
0.0
 11
227.371
 21
99.1856
 31
0.0
  0
LINE
  8
0
 62
     0
 10
227.371
 20
99.1856
 30
0.0
 11
227.371
 21
96.085
 31
0.0
  0
LINE
  8
0
 62
     0
 10
227.371
 20
96.085
 30
0.0
 11
228.17
 21
96.085
 31
0.0
  0
LINE
  8
0
 62
     0
 10
228.17
 20
96.085
 30
0.0
 11
228.17
 21
95.0845
 31
0.0
  0
LINE
  8
0
 62
     0
 10
228.17
 20
95.0845
 30
0.0
 11
242.171
 21
95.0845
 31
0.0
  0
LINE
  8
0
 62
     0
 10
242.171
 20
95.0845
 30
0.0
 11
242.171
 21
96.085
 31
0.0
  0
LINE
  8
0
 62
     0
 10
242.171
 20
96.085
 30
0.0
 11
242.97
 21
96.085
 31
0.0
  0
LINE
  8
0
 62
     0
 10
242.97
 20
96.085
 30
0.0
 11
242.97
 21
99.1856
 31
0.0
  0
LINE
  8
0
 62
     0
 10
242.97
 20
99.1856
 30
0.0
 11
242.171
 21
99.1856
 31
0.0
  0
LINE
  8
0
 62
     0
 10
242.171
 20
99.1856
 30
0.0
 11
242.171
 21
104.985
 31
0.0
  0
LINE
  8
0
 62
     0
 10
242.171
 20
104.985
 30
0.0
 11
242.97
 21
104.985
 31
0.0
  0
LINE
  8
0
 62
     0
 10
242.97
 20
104.985
 30
0.0
 11
242.97
 21
108.085
 31
0.0
  0
LINE
  8
0
 62
     0
 10
242.97
 20
108.085
 30
0.0
 11
242.171
 21
108.085
 31
0.0
  0
LINE
  8
0
 62
     0
 10
242.171
 20
108.085
 30
0.0
 11
242.171
 21
109.086
 31
0.0
  0
LINE
  8
0
 62
     0
 10
242.171
 20
109.086
 30
0.0
 11
228.17
 21
109.086
 31
0.0
  0
LINE
  8
0
 62
     0
 10
209.12
 20
109.086
 30
0.0
 11
209.12
 21
108.085
 31
0.0
  0
LINE
  8
0
 62
     0
 10
209.12
 20
108.085
 30
0.0
 11
208.321
 21
108.085
 31
0.0
  0
LINE
  8
0
 62
     0
 10
208.321
 20
108.085
 30
0.0
 11
208.321
 21
104.985
 31
0.0
  0
LINE
  8
0
 62
     0
 10
208.321
 20
104.985
 30
0.0
 11
209.12
 21
104.985
 31
0.0
  0
LINE
  8
0
 62
     0
 10
209.12
 20
104.985
 30
0.0
 11
209.12
 21
99.1856
 31
0.0
  0
LINE
  8
0
 62
     0
 10
209.12
 20
99.1856
 30
0.0
 11
208.321
 21
99.1856
 31
0.0
  0
LINE
  8
0
 62
     0
 10
208.321
 20
99.1856
 30
0.0
 11
208.321
 21
96.085
 31
0.0
  0
LINE
  8
0
 62
     0
 10
208.321
 20
96.085
 30
0.0
 11
209.12
 21
96.085
 31
0.0
  0
LINE
  8
0
 62
     0
 10
209.12
 20
96.085
 30
0.0
 11
209.12
 21
95.0845
 31
0.0
  0
LINE
  8
0
 62
     0
 10
209.12
 20
95.0845
 30
0.0
 11
223.121
 21
95.0845
 31
0.0
  0
LINE
  8
0
 62
     0
 10
223.121
 20
95.0845
 30
0.0
 11
223.121
 21
96.085
 31
0.0
  0
LINE
  8
0
 62
     0
 10
223.121
 20
96.085
 30
0.0
 11
223.92
 21
96.085
 31
0.0
  0
LINE
  8
0
 62
     0
 10
223.92
 20
96.085
 30
0.0
 11
223.92
 21
99.1856
 31
0.0
  0
LINE
  8
0
 62
     0
 10
223.92
 20
99.1856
 30
0.0
 11
223.121
 21
99.1856
 31
0.0
  0
LINE
  8
0
 62
     0
 10
223.121
 20
99.1856
 30
0.0
 11
223.121
 21
104.985
 31
0.0
  0
LINE
  8
0
 62
     0
 10
223.121
 20
104.985
 30
0.0
 11
223.92
 21
104.985
 31
0.0
  0
LINE
  8
0
 62
     0
 10
223.92
 20
104.985
 30
0.0
 11
223.92
 21
108.085
 31
0.0
  0
LINE
  8
0
 62
     0
 10
223.92
 20
108.085
 30
0.0
 11
223.121
 21
108.085
 31
0.0
  0
LINE
  8
0
 62
     0
 10
223.121
 20
108.085
 30
0.0
 11
223.121
 21
109.086
 31
0.0
  0
LINE
  8
0
 62
     0
 10
223.121
 20
109.086
 30
0.0
 11
209.12
 21
109.086
 31
0.0
  0
LINE
  8
0
 62
     0
 10
190.07
 20
109.086
 30
0.0
 11
190.07
 21
108.085
 31
0.0
  0
LINE
  8
0
 62
     0
 10
190.07
 20
108.085
 30
0.0
 11
189.271
 21
108.085
 31
0.0
  0
LINE
  8
0
 62
     0
 10
189.271
 20
108.085
 30
0.0
 11
189.271
 21
104.985
 31
0.0
  0
LINE
  8
0
 62
     0
 10
189.271
 20
104.985
 30
0.0
 11
190.07
 21
104.985
 31
0.0
  0
LINE
  8
0
 62
     0
 10
190.07
 20
104.985
 30
0.0
 11
190.07
 21
99.1856
 31
0.0
  0
LINE
  8
0
 62
     0
 10
190.07
 20
99.1856
 30
0.0
 11
189.271
 21
99.1856
 31
0.0
  0
LINE
  8
0
 62
     0
 10
189.271
 20
99.1856
 30
0.0
 11
189.271
 21
96.085
 31
0.0
  0
LINE
  8
0
 62
     0
 10
189.271
 20
96.085
 30
0.0
 11
190.07
 21
96.085
 31
0.0
  0
LINE
  8
0
 62
     0
 10
190.07
 20
96.085
 30
0.0
 11
190.07
 21
95.0845
 31
0.0
  0
LINE
  8
0
 62
     0
 10
190.07
 20
95.0845
 30
0.0
 11
204.071
 21
95.0845
 31
0.0
  0
LINE
  8
0
 62
     0
 10
204.071
 20
95.0845
 30
0.0
 11
204.071
 21
96.085
 31
0.0
  0
LINE
  8
0
 62
     0
 10
204.071
 20
96.085
 30
0.0
 11
204.87
 21
96.085
 31
0.0
  0
LINE
  8
0
 62
     0
 10
204.87
 20
96.085
 30
0.0
 11
204.87
 21
99.1856
 31
0.0
  0
LINE
  8
0
 62
     0
 10
204.87
 20
99.1856
 30
0.0
 11
204.071
 21
99.1856
 31
0.0
  0
LINE
  8
0
 62
     0
 10
204.071
 20
99.1856
 30
0.0
 11
204.071
 21
104.985
 31
0.0
  0
LINE
  8
0
 62
     0
 10
204.071
 20
104.985
 30
0.0
 11
204.87
 21
104.985
 31
0.0
  0
LINE
  8
0
 62
     0
 10
204.87
 20
104.985
 30
0.0
 11
204.87
 21
108.085
 31
0.0
  0
LINE
  8
0
 62
     0
 10
204.87
 20
108.085
 30
0.0
 11
204.071
 21
108.085
 31
0.0
  0
LINE
  8
0
 62
     0
 10
204.071
 20
108.085
 30
0.0
 11
204.071
 21
109.086
 31
0.0
  0
LINE
  8
0
 62
     0
 10
204.071
 20
109.086
 30
0.0
 11
190.07
 21
109.086
 31
0.0
  0
LINE
  8
0
 62
     0
 10
171.02
 20
109.086
 30
0.0
 11
171.02
 21
108.085
 31
0.0
  0
LINE
  8
0
 62
     0
 10
171.02
 20
108.085
 30
0.0
 11
170.221
 21
108.085
 31
0.0
  0
LINE
  8
0
 62
     0
 10
170.221
 20
108.085
 30
0.0
 11
170.221
 21
104.985
 31
0.0
  0
LINE
  8
0
 62
     0
 10
170.221
 20
104.985
 30
0.0
 11
171.02
 21
104.985
 31
0.0
  0
LINE
  8
0
 62
     0
 10
171.02
 20
104.985
 30
0.0
 11
171.02
 21
99.1856
 31
0.0
  0
LINE
  8
0
 62
     0
 10
171.02
 20
99.1856
 30
0.0
 11
170.221
 21
99.1856
 31
0.0
  0
LINE
  8
0
 62
     0
 10
170.221
 20
99.1856
 30
0.0
 11
170.221
 21
96.085
 31
0.0
  0
LINE
  8
0
 62
     0
 10
170.221
 20
96.085
 30
0.0
 11
171.02
 21
96.085
 31
0.0
  0
LINE
  8
0
 62
     0
 10
171.02
 20
96.085
 30
0.0
 11
171.02
 21
95.0845
 31
0.0
  0
LINE
  8
0
 62
     0
 10
171.02
 20
95.0845
 30
0.0
 11
185.021
 21
95.0845
 31
0.0
  0
LINE
  8
0
 62
     0
 10
185.021
 20
95.0845
 30
0.0
 11
185.021
 21
96.085
 31
0.0
  0
LINE
  8
0
 62
     0
 10
185.021
 20
96.085
 30
0.0
 11
185.82
 21
96.085
 31
0.0
  0
LINE
  8
0
 62
     0
 10
185.82
 20
96.085
 30
0.0
 11
185.82
 21
99.1856
 31
0.0
  0
LINE
  8
0
 62
     0
 10
185.82
 20
99.1856
 30
0.0
 11
185.021
 21
99.1856
 31
0.0
  0
LINE
  8
0
 62
     0
 10
185.021
 20
99.1856
 30
0.0
 11
185.021
 21
104.985
 31
0.0
  0
LINE
  8
0
 62
     0
 10
185.021
 20
104.985
 30
0.0
 11
185.82
 21
104.985
 31
0.0
  0
LINE
  8
0
 62
     0
 10
185.82
 20
104.985
 30
0.0
 11
185.82
 21
108.085
 31
0.0
  0
LINE
  8
0
 62
     0
 10
185.82
 20
108.085
 30
0.0
 11
185.021
 21
108.085
 31
0.0
  0
LINE
  8
0
 62
     0
 10
185.021
 20
108.085
 30
0.0
 11
185.021
 21
109.086
 31
0.0
  0
LINE
  8
0
 62
     0
 10
185.021
 20
109.086
 30
0.0
 11
171.02
 21
109.086
 31
0.0
  0
LINE
  8
0
 62
     0
 10
151.97
 20
109.086
 30
0.0
 11
151.97
 21
108.085
 31
0.0
  0
LINE
  8
0
 62
     0
 10
151.97
 20
108.085
 30
0.0
 11
151.171
 21
108.085
 31
0.0
  0
LINE
  8
0
 62
     0
 10
151.171
 20
108.085
 30
0.0
 11
151.171
 21
104.985
 31
0.0
  0
LINE
  8
0
 62
     0
 10
151.171
 20
104.985
 30
0.0
 11
151.97
 21
104.985
 31
0.0
  0
LINE
  8
0
 62
     0
 10
151.97
 20
104.985
 30
0.0
 11
151.97
 21
99.1856
 31
0.0
  0
LINE
  8
0
 62
     0
 10
151.97
 20
99.1856
 30
0.0
 11
151.171
 21
99.1856
 31
0.0
  0
LINE
  8
0
 62
     0
 10
151.171
 20
99.1856
 30
0.0
 11
151.171
 21
96.085
 31
0.0
  0
LINE
  8
0
 62
     0
 10
151.171
 20
96.085
 30
0.0
 11
151.97
 21
96.085
 31
0.0
  0
LINE
  8
0
 62
     0
 10
151.97
 20
96.085
 30
0.0
 11
151.97
 21
95.0845
 31
0.0
  0
LINE
  8
0
 62
     0
 10
151.97
 20
95.0845
 30
0.0
 11
165.971
 21
95.0845
 31
0.0
  0
LINE
  8
0
 62
     0
 10
165.971
 20
95.0845
 30
0.0
 11
165.971
 21
96.085
 31
0.0
  0
LINE
  8
0
 62
     0
 10
165.971
 20
96.085
 30
0.0
 11
166.77
 21
96.085
 31
0.0
  0
LINE
  8
0
 62
     0
 10
166.77
 20
96.085
 30
0.0
 11
166.77
 21
99.1856
 31
0.0
  0
LINE
  8
0
 62
     0
 10
166.77
 20
99.1856
 30
0.0
 11
165.971
 21
99.1856
 31
0.0
  0
LINE
  8
0
 62
     0
 10
165.971
 20
99.1856
 30
0.0
 11
165.971
 21
104.985
 31
0.0
  0
LINE
  8
0
 62
     0
 10
165.971
 20
104.985
 30
0.0
 11
166.77
 21
104.985
 31
0.0
  0
LINE
  8
0
 62
     0
 10
166.77
 20
104.985
 30
0.0
 11
166.77
 21
108.085
 31
0.0
  0
LINE
  8
0
 62
     0
 10
166.77
 20
108.085
 30
0.0
 11
165.971
 21
108.085
 31
0.0
  0
LINE
  8
0
 62
     0
 10
165.971
 20
108.085
 30
0.0
 11
165.971
 21
109.086
 31
0.0
  0
LINE
  8
0
 62
     0
 10
165.971
 20
109.086
 30
0.0
 11
151.97
 21
109.086
 31
0.0
  0
LINE
  8
0
 62
     0
 10
132.92
 20
109.086
 30
0.0
 11
132.92
 21
108.085
 31
0.0
  0
LINE
  8
0
 62
     0
 10
132.92
 20
108.085
 30
0.0
 11
132.12
 21
108.085
 31
0.0
  0
LINE
  8
0
 62
     0
 10
132.12
 20
108.085
 30
0.0
 11
132.12
 21
104.985
 31
0.0
  0
LINE
  8
0
 62
     0
 10
132.12
 20
104.985
 30
0.0
 11
132.92
 21
104.985
 31
0.0
  0
LINE
  8
0
 62
     0
 10
132.92
 20
104.985
 30
0.0
 11
132.92
 21
99.1856
 31
0.0
  0
LINE
  8
0
 62
     0
 10
132.92
 20
99.1856
 30
0.0
 11
132.12
 21
99.1856
 31
0.0
  0
LINE
  8
0
 62
     0
 10
132.12
 20
99.1856
 30
0.0
 11
132.12
 21
96.085
 31
0.0
  0
LINE
  8
0
 62
     0
 10
132.12
 20
96.085
 30
0.0
 11
132.92
 21
96.085
 31
0.0
  0
LINE
  8
0
 62
     0
 10
132.92
 20
96.085
 30
0.0
 11
132.92
 21
95.0845
 31
0.0
  0
LINE
  8
0
 62
     0
 10
132.92
 20
95.0845
 30
0.0
 11
146.921
 21
95.0845
 31
0.0
  0
LINE
  8
0
 62
     0
 10
146.921
 20
95.0845
 30
0.0
 11
146.921
 21
96.085
 31
0.0
  0
LINE
  8
0
 62
     0
 10
146.921
 20
96.085
 30
0.0
 11
147.72
 21
96.085
 31
0.0
  0
LINE
  8
0
 62
     0
 10
147.72
 20
96.085
 30
0.0
 11
147.72
 21
99.1856
 31
0.0
  0
LINE
  8
0
 62
     0
 10
147.72
 20
99.1856
 30
0.0
 11
146.921
 21
99.1856
 31
0.0
  0
LINE
  8
0
 62
     0
 10
146.921
 20
99.1856
 30
0.0
 11
146.921
 21
104.985
 31
0.0
  0
LINE
  8
0
 62
     0
 10
146.921
 20
104.985
 30
0.0
 11
147.72
 21
104.985
 31
0.0
  0
LINE
  8
0
 62
     0
 10
147.72
 20
104.985
 30
0.0
 11
147.72
 21
108.085
 31
0.0
  0
LINE
  8
0
 62
     0
 10
147.72
 20
108.085
 30
0.0
 11
146.921
 21
108.085
 31
0.0
  0
LINE
  8
0
 62
     0
 10
146.921
 20
108.085
 30
0.0
 11
146.921
 21
109.086
 31
0.0
  0
LINE
  8
0
 62
     0
 10
146.921
 20
109.086
 30
0.0
 11
132.92
 21
109.086
 31
0.0
  0
LINE
  8
0
 62
     0
 10
113.87
 20
109.086
 30
0.0
 11
113.87
 21
108.085
 31
0.0
  0
LINE
  8
0
 62
     0
 10
113.87
 20
108.085
 30
0.0
 11
113.071
 21
108.085
 31
0.0
  0
LINE
  8
0
 62
     0
 10
113.071
 20
108.085
 30
0.0
 11
113.071
 21
104.985
 31
0.0
  0
LINE
  8
0
 62
     0
 10
113.071
 20
104.985
 30
0.0
 11
113.87
 21
104.985
 31
0.0
  0
LINE
  8
0
 62
     0
 10
113.87
 20
104.985
 30
0.0
 11
113.87
 21
99.1856
 31
0.0
  0
LINE
  8
0
 62
     0
 10
113.87
 20
99.1856
 30
0.0
 11
113.071
 21
99.1856
 31
0.0
  0
LINE
  8
0
 62
     0
 10
113.071
 20
99.1856
 30
0.0
 11
113.071
 21
96.085
 31
0.0
  0
LINE
  8
0
 62
     0
 10
113.071
 20
96.085
 30
0.0
 11
113.87
 21
96.085
 31
0.0
  0
LINE
  8
0
 62
     0
 10
113.87
 20
96.085
 30
0.0
 11
113.87
 21
95.0845
 31
0.0
  0
LINE
  8
0
 62
     0
 10
113.87
 20
95.0845
 30
0.0
 11
127.87
 21
95.0845
 31
0.0
  0
LINE
  8
0
 62
     0
 10
127.87
 20
95.0845
 30
0.0
 11
127.87
 21
96.085
 31
0.0
  0
LINE
  8
0
 62
     0
 10
127.87
 20
96.085
 30
0.0
 11
128.67
 21
96.085
 31
0.0
  0
LINE
  8
0
 62
     0
 10
128.67
 20
96.085
 30
0.0
 11
128.67
 21
99.1856
 31
0.0
  0
LINE
  8
0
 62
     0
 10
128.67
 20
99.1856
 30
0.0
 11
127.87
 21
99.1856
 31
0.0
  0
LINE
  8
0
 62
     0
 10
127.87
 20
99.1856
 30
0.0
 11
127.87
 21
104.985
 31
0.0
  0
LINE
  8
0
 62
     0
 10
127.87
 20
104.985
 30
0.0
 11
128.67
 21
104.985
 31
0.0
  0
LINE
  8
0
 62
     0
 10
128.67
 20
104.985
 30
0.0
 11
128.67
 21
108.085
 31
0.0
  0
LINE
  8
0
 62
     0
 10
128.67
 20
108.085
 30
0.0
 11
127.87
 21
108.085
 31
0.0
  0
LINE
  8
0
 62
     0
 10
127.87
 20
108.085
 30
0.0
 11
127.87
 21
109.086
 31
0.0
  0
LINE
  8
0
 62
     0
 10
127.87
 20
109.086
 30
0.0
 11
113.87
 21
109.086
 31
0.0
  0
LINE
  8
0
 62
     0
 10
94.82
 20
109.086
 30
0.0
 11
94.82
 21
108.085
 31
0.0
  0
LINE
  8
0
 62
     0
 10
94.82
 20
108.085
 30
0.0
 11
94.0209
 21
108.085
 31
0.0
  0
LINE
  8
0
 62
     0
 10
94.0209
 20
108.085
 30
0.0
 11
94.0209
 21
104.985
 31
0.0
  0
LINE
  8
0
 62
     0
 10
94.0209
 20
104.985
 30
0.0
 11
94.82
 21
104.985
 31
0.0
  0
LINE
  8
0
 62
     0
 10
94.82
 20
104.985
 30
0.0
 11
94.82
 21
99.1856
 31
0.0
  0
LINE
  8
0
 62
     0
 10
94.82
 20
99.1856
 30
0.0
 11
94.0209
 21
99.1856
 31
0.0
  0
LINE
  8
0
 62
     0
 10
94.0209
 20
99.1856
 30
0.0
 11
94.0209
 21
96.085
 31
0.0
  0
LINE
  8
0
 62
     0
 10
94.0209
 20
96.085
 30
0.0
 11
94.82
 21
96.085
 31
0.0
  0
LINE
  8
0
 62
     0
 10
94.82
 20
96.085
 30
0.0
 11
94.82
 21
95.0845
 31
0.0
  0
LINE
  8
0
 62
     0
 10
94.82
 20
95.0845
 30
0.0
 11
108.821
 21
95.0845
 31
0.0
  0
LINE
  8
0
 62
     0
 10
108.821
 20
95.0845
 30
0.0
 11
108.821
 21
96.085
 31
0.0
  0
LINE
  8
0
 62
     0
 10
108.821
 20
96.085
 30
0.0
 11
109.619
 21
96.085
 31
0.0
  0
LINE
  8
0
 62
     0
 10
109.619
 20
96.085
 30
0.0
 11
109.619
 21
99.1856
 31
0.0
  0
LINE
  8
0
 62
     0
 10
109.619
 20
99.1856
 30
0.0
 11
108.821
 21
99.1856
 31
0.0
  0
LINE
  8
0
 62
     0
 10
108.821
 20
99.1856
 30
0.0
 11
108.821
 21
104.985
 31
0.0
  0
LINE
  8
0
 62
     0
 10
108.821
 20
104.985
 30
0.0
 11
109.619
 21
104.985
 31
0.0
  0
LINE
  8
0
 62
     0
 10
109.619
 20
104.985
 30
0.0
 11
109.619
 21
108.085
 31
0.0
  0
LINE
  8
0
 62
     0
 10
109.619
 20
108.085
 30
0.0
 11
108.821
 21
108.085
 31
0.0
  0
LINE
  8
0
 62
     0
 10
108.821
 20
108.085
 30
0.0
 11
108.821
 21
109.086
 31
0.0
  0
LINE
  8
0
 62
     0
 10
108.821
 20
109.086
 30
0.0
 11
94.82
 21
109.086
 31
0.0
  0
LINE
  8
0
 62
     0
 10
75.77
 20
109.086
 30
0.0
 11
75.77
 21
108.085
 31
0.0
  0
LINE
  8
0
 62
     0
 10
75.77
 20
108.085
 30
0.0
 11
74.9709
 21
108.085
 31
0.0
  0
LINE
  8
0
 62
     0
 10
74.9709
 20
108.085
 30
0.0
 11
74.9709
 21
104.985
 31
0.0
  0
LINE
  8
0
 62
     0
 10
74.9709
 20
104.985
 30
0.0
 11
75.77
 21
104.985
 31
0.0
  0
LINE
  8
0
 62
     0
 10
75.77
 20
104.985
 30
0.0
 11
75.77
 21
99.1856
 31
0.0
  0
LINE
  8
0
 62
     0
 10
75.77
 20
99.1856
 30
0.0
 11
74.9709
 21
99.1856
 31
0.0
  0
LINE
  8
0
 62
     0
 10
74.9709
 20
99.1856
 30
0.0
 11
74.9709
 21
96.085
 31
0.0
  0
LINE
  8
0
 62
     0
 10
74.9709
 20
96.085
 30
0.0
 11
75.77
 21
96.085
 31
0.0
  0
LINE
  8
0
 62
     0
 10
75.77
 20
96.085
 30
0.0
 11
75.77
 21
95.0845
 31
0.0
  0
LINE
  8
0
 62
     0
 10
75.77
 20
95.0845
 30
0.0
 11
89.771
 21
95.0845
 31
0.0
  0
LINE
  8
0
 62
     0
 10
89.771
 20
95.0845
 30
0.0
 11
89.771
 21
96.085
 31
0.0
  0
LINE
  8
0
 62
     0
 10
89.771
 20
96.085
 30
0.0
 11
90.5701
 21
96.085
 31
0.0
  0
LINE
  8
0
 62
     0
 10
90.5701
 20
96.085
 30
0.0
 11
90.5701
 21
99.1856
 31
0.0
  0
LINE
  8
0
 62
     0
 10
90.5701
 20
99.1856
 30
0.0
 11
89.771
 21
99.1856
 31
0.0
  0
LINE
  8
0
 62
     0
 10
89.771
 20
99.1856
 30
0.0
 11
89.771
 21
104.985
 31
0.0
  0
LINE
  8
0
 62
     0
 10
89.771
 20
104.985
 30
0.0
 11
90.5701
 21
104.985
 31
0.0
  0
LINE
  8
0
 62
     0
 10
90.5701
 20
104.985
 30
0.0
 11
90.5701
 21
108.085
 31
0.0
  0
LINE
  8
0
 62
     0
 10
90.5701
 20
108.085
 30
0.0
 11
89.771
 21
108.085
 31
0.0
  0
LINE
  8
0
 62
     0
 10
89.771
 20
108.085
 30
0.0
 11
89.771
 21
109.086
 31
0.0
  0
LINE
  8
0
 62
     0
 10
89.771
 20
109.086
 30
0.0
 11
75.77
 21
109.086
 31
0.0
  0
LINE
  8
0
 62
     0
 10
56.72
 20
109.086
 30
0.0
 11
56.72
 21
108.085
 31
0.0
  0
LINE
  8
0
 62
     0
 10
56.72
 20
108.085
 30
0.0
 11
55.9209
 21
108.085
 31
0.0
  0
LINE
  8
0
 62
     0
 10
55.9209
 20
108.085
 30
0.0
 11
55.9209
 21
104.985
 31
0.0
  0
LINE
  8
0
 62
     0
 10
55.9209
 20
104.985
 30
0.0
 11
56.72
 21
104.985
 31
0.0
  0
LINE
  8
0
 62
     0
 10
56.72
 20
104.985
 30
0.0
 11
56.72
 21
99.1856
 31
0.0
  0
LINE
  8
0
 62
     0
 10
56.72
 20
99.1856
 30
0.0
 11
55.9209
 21
99.1856
 31
0.0
  0
LINE
  8
0
 62
     0
 10
55.9209
 20
99.1856
 30
0.0
 11
55.9209
 21
96.085
 31
0.0
  0
LINE
  8
0
 62
     0
 10
55.9209
 20
96.085
 30
0.0
 11
56.72
 21
96.085
 31
0.0
  0
LINE
  8
0
 62
     0
 10
56.72
 20
96.085
 30
0.0
 11
56.72
 21
95.0845
 31
0.0
  0
LINE
  8
0
 62
     0
 10
56.72
 20
95.0845
 30
0.0
 11
70.721
 21
95.0845
 31
0.0
  0
LINE
  8
0
 62
     0
 10
70.721
 20
95.0845
 30
0.0
 11
70.721
 21
96.085
 31
0.0
  0
LINE
  8
0
 62
     0
 10
70.721
 20
96.085
 30
0.0
 11
71.52
 21
96.085
 31
0.0
  0
LINE
  8
0
 62
     0
 10
71.52
 20
96.085
 30
0.0
 11
71.52
 21
99.1856
 31
0.0
  0
LINE
  8
0
 62
     0
 10
71.52
 20
99.1856
 30
0.0
 11
70.721
 21
99.1856
 31
0.0
  0
LINE
  8
0
 62
     0
 10
70.721
 20
99.1856
 30
0.0
 11
70.721
 21
104.985
 31
0.0
  0
LINE
  8
0
 62
     0
 10
70.721
 20
104.985
 30
0.0
 11
71.52
 21
104.985
 31
0.0
  0
LINE
  8
0
 62
     0
 10
71.52
 20
104.985
 30
0.0
 11
71.52
 21
108.085
 31
0.0
  0
LINE
  8
0
 62
     0
 10
71.52
 20
108.085
 30
0.0
 11
70.721
 21
108.085
 31
0.0
  0
LINE
  8
0
 62
     0
 10
70.721
 20
108.085
 30
0.0
 11
70.721
 21
109.086
 31
0.0
  0
LINE
  8
0
 62
     0
 10
70.721
 20
109.086
 30
0.0
 11
56.72
 21
109.086
 31
0.0
  0
LINE
  8
0
 62
     0
 10
37.67
 20
109.086
 30
0.0
 11
37.67
 21
108.085
 31
0.0
  0
LINE
  8
0
 62
     0
 10
37.67
 20
108.085
 30
0.0
 11
36.8709
 21
108.085
 31
0.0
  0
LINE
  8
0
 62
     0
 10
36.8709
 20
108.085
 30
0.0
 11
36.8709
 21
104.985
 31
0.0
  0
LINE
  8
0
 62
     0
 10
36.8709
 20
104.985
 30
0.0
 11
37.67
 21
104.985
 31
0.0
  0
LINE
  8
0
 62
     0
 10
37.67
 20
104.985
 30
0.0
 11
37.67
 21
99.1856
 31
0.0
  0
LINE
  8
0
 62
     0
 10
37.67
 20
99.1856
 30
0.0
 11
36.8709
 21
99.1856
 31
0.0
  0
LINE
  8
0
 62
     0
 10
36.8709
 20
99.1856
 30
0.0
 11
36.8709
 21
96.085
 31
0.0
  0
LINE
  8
0
 62
     0
 10
36.8709
 20
96.085
 30
0.0
 11
37.67
 21
96.085
 31
0.0
  0
LINE
  8
0
 62
     0
 10
37.67
 20
96.085
 30
0.0
 11
37.67
 21
95.0845
 31
0.0
  0
LINE
  8
0
 62
     0
 10
37.67
 20
95.0845
 30
0.0
 11
51.671
 21
95.0845
 31
0.0
  0
LINE
  8
0
 62
     0
 10
51.671
 20
95.0845
 30
0.0
 11
51.671
 21
96.085
 31
0.0
  0
LINE
  8
0
 62
     0
 10
51.671
 20
96.085
 30
0.0
 11
52.47
 21
96.085
 31
0.0
  0
LINE
  8
0
 62
     0
 10
52.47
 20
96.085
 30
0.0
 11
52.47
 21
99.1856
 31
0.0
  0
LINE
  8
0
 62
     0
 10
52.47
 20
99.1856
 30
0.0
 11
51.671
 21
99.1856
 31
0.0
  0
LINE
  8
0
 62
     0
 10
51.671
 20
99.1856
 30
0.0
 11
51.671
 21
104.985
 31
0.0
  0
LINE
  8
0
 62
     0
 10
51.671
 20
104.985
 30
0.0
 11
52.47
 21
104.985
 31
0.0
  0
LINE
  8
0
 62
     0
 10
52.47
 20
104.985
 30
0.0
 11
52.47
 21
108.085
 31
0.0
  0
LINE
  8
0
 62
     0
 10
52.47
 20
108.085
 30
0.0
 11
51.671
 21
108.085
 31
0.0
  0
LINE
  8
0
 62
     0
 10
51.671
 20
108.085
 30
0.0
 11
51.671
 21
109.086
 31
0.0
  0
LINE
  8
0
 62
     0
 10
51.671
 20
109.086
 30
0.0
 11
37.67
 21
109.086
 31
0.0
  0
LINE
  8
0
 62
     0
 10
18.6201
 20
109.086
 30
0.0
 11
18.6201
 21
108.085
 31
0.0
  0
LINE
  8
0
 62
     0
 10
18.6201
 20
108.085
 30
0.0
 11
17.8194
 21
108.085
 31
0.0
  0
LINE
  8
0
 62
     0
 10
17.8194
 20
108.085
 30
0.0
 11
17.8194
 21
104.985
 31
0.0
  0
LINE
  8
0
 62
     0
 10
17.8194
 20
104.985
 30
0.0
 11
18.6201
 21
104.985
 31
0.0
  0
LINE
  8
0
 62
     0
 10
18.6201
 20
104.985
 30
0.0
 11
18.6201
 21
99.1856
 31
0.0
  0
LINE
  8
0
 62
     0
 10
18.6201
 20
99.1856
 30
0.0
 11
17.8194
 21
99.1856
 31
0.0
  0
LINE
  8
0
 62
     0
 10
17.8194
 20
99.1856
 30
0.0
 11
17.8194
 21
96.085
 31
0.0
  0
LINE
  8
0
 62
     0
 10
17.8194
 20
96.085
 30
0.0
 11
18.6201
 21
96.085
 31
0.0
  0
LINE
  8
0
 62
     0
 10
18.6201
 20
96.085
 30
0.0
 11
18.6201
 21
95.0845
 31
0.0
  0
LINE
  8
0
 62
     0
 10
18.6201
 20
95.0845
 30
0.0
 11
32.6209
 21
95.0845
 31
0.0
  0
LINE
  8
0
 62
     0
 10
32.6209
 20
95.0845
 30
0.0
 11
32.6209
 21
96.085
 31
0.0
  0
LINE
  8
0
 62
     0
 10
32.6209
 20
96.085
 30
0.0
 11
33.4188
 21
96.085
 31
0.0
  0
LINE
  8
0
 62
     0
 10
33.4188
 20
96.085
 30
0.0
 11
33.4188
 21
99.1856
 31
0.0
  0
LINE
  8
0
 62
     0
 10
33.4188
 20
99.1856
 30
0.0
 11
32.6209
 21
99.1856
 31
0.0
  0
LINE
  8
0
 62
     0
 10
32.6209
 20
99.1856
 30
0.0
 11
32.6209
 21
104.985
 31
0.0
  0
LINE
  8
0
 62
     0
 10
32.6209
 20
104.985
 30
0.0
 11
33.4188
 21
104.985
 31
0.0
  0
LINE
  8
0
 62
     0
 10
33.4188
 20
104.985
 30
0.0
 11
33.4188
 21
108.085
 31
0.0
  0
LINE
  8
0
 62
     0
 10
33.4188
 20
108.085
 30
0.0
 11
32.6209
 21
108.085
 31
0.0
  0
LINE
  8
0
 62
     0
 10
32.6209
 20
108.085
 30
0.0
 11
32.6209
 21
109.086
 31
0.0
  0
LINE
  8
0
 62
     0
 10
32.6209
 20
109.086
 30
0.0
 11
18.6201
 21
109.086
 31
0.0
  0
LINE
  8
0
 62
     0
 10
4.5999
 20
124.132
 30
0.0
 11
4.15477
 21
123.905
 31
0.0
  0
LINE
  8
0
 62
     0
 10
4.15477
 20
123.905
 30
0.0
 11
3.80062
 21
123.551
 31
0.0
  0
LINE
  8
0
 62
     0
 10
3.80062
 20
123.551
 30
0.0
 11
3.57325
 21
123.106
 31
0.0
  0
LINE
  8
0
 62
     0
 10
3.57325
 20
123.106
 30
0.0
 11
3.4947
 21
122.61
 31
0.0
  0
LINE
  8
0
 62
     0
 10
3.4947
 20
122.61
 30
0.0
 11
3.57325
 21
122.116
 31
0.0
  0
LINE
  8
0
 62
     0
 10
3.57325
 20
122.116
 30
0.0
 11
3.80062
 21
121.67
 31
0.0
  0
LINE
  8
0
 62
     0
 10
3.80062
 20
121.67
 30
0.0
 11
4.15477
 21
121.316
 31
0.0
  0
LINE
  8
0
 62
     0
 10
4.15477
 20
121.316
 30
0.0
 11
4.5999
 21
121.09
 31
0.0
  0
LINE
  8
0
 62
     0
 10
4.5999
 20
121.09
 30
0.0
 11
5.0946
 21
121.01
 31
0.0
  0
LINE
  8
0
 62
     0
 10
5.0946
 20
121.01
 30
0.0
 11
5.58934
 21
121.09
 31
0.0
  0
LINE
  8
0
 62
     0
 10
5.58934
 20
121.09
 30
0.0
 11
6.03582
 21
121.316
 31
0.0
  0
LINE
  8
0
 62
     0
 10
6.03582
 20
121.316
 30
0.0
 11
6.38997
 21
121.67
 31
0.0
  0
LINE
  8
0
 62
     0
 10
6.38997
 20
121.67
 30
0.0
 11
6.61596
 21
122.116
 31
0.0
  0
LINE
  8
0
 62
     0
 10
6.61596
 20
122.116
 30
0.0
 11
6.69452
 21
122.61
 31
0.0
  0
LINE
  8
0
 62
     0
 10
6.69452
 20
122.61
 30
0.0
 11
6.61596
 21
123.106
 31
0.0
  0
LINE
  8
0
 62
     0
 10
6.61596
 20
123.106
 30
0.0
 11
6.38997
 21
123.551
 31
0.0
  0
LINE
  8
0
 62
     0
 10
6.38997
 20
123.551
 30
0.0
 11
6.03582
 21
123.905
 31
0.0
  0
LINE
  8
0
 62
     0
 10
6.03582
 20
123.905
 30
0.0
 11
5.58934
 21
124.132
 31
0.0
  0
LINE
  8
0
 62
     0
 10
5.58934
 20
124.132
 30
0.0
 11
5.0946
 21
124.21
 31
0.0
  0
LINE
  8
0
 62
     0
 10
5.0946
 20
124.21
 30
0.0
 11
4.5999
 21
124.132
 31
0.0
  0
LINE
  8
0
 62
     0
 10
331.402
 20
124.132
 30
0.0
 11
330.955
 21
123.905
 31
0.0
  0
LINE
  8
0
 62
     0
 10
330.955
 20
123.905
 30
0.0
 11
330.601
 21
123.551
 31
0.0
  0
LINE
  8
0
 62
     0
 10
330.601
 20
123.551
 30
0.0
 11
330.375
 21
123.106
 31
0.0
  0
LINE
  8
0
 62
     0
 10
330.375
 20
123.106
 30
0.0
 11
330.296
 21
122.61
 31
0.0
  0
LINE
  8
0
 62
     0
 10
330.296
 20
122.61
 30
0.0
 11
330.375
 21
122.116
 31
0.0
  0
LINE
  8
0
 62
     0
 10
330.375
 20
122.116
 30
0.0
 11
330.601
 21
121.67
 31
0.0
  0
LINE
  8
0
 62
     0
 10
330.601
 20
121.67
 30
0.0
 11
330.955
 21
121.316
 31
0.0
  0
LINE
  8
0
 62
     0
 10
330.955
 20
121.316
 30
0.0
 11
331.402
 21
121.09
 31
0.0
  0
LINE
  8
0
 62
     0
 10
331.402
 20
121.09
 30
0.0
 11
331.897
 21
121.01
 31
0.0
  0
LINE
  8
0
 62
     0
 10
331.897
 20
121.01
 30
0.0
 11
332.391
 21
121.09
 31
0.0
  0
LINE
  8
0
 62
     0
 10
332.391
 20
121.09
 30
0.0
 11
332.836
 21
121.316
 31
0.0
  0
LINE
  8
0
 62
     0
 10
332.836
 20
121.316
 30
0.0
 11
333.19
 21
121.67
 31
0.0
  0
LINE
  8
0
 62
     0
 10
333.19
 20
121.67
 30
0.0
 11
333.418
 21
122.116
 31
0.0
  0
LINE
  8
0
 62
     0
 10
333.418
 20
122.116
 30
0.0
 11
333.496
 21
122.61
 31
0.0
  0
LINE
  8
0
 62
     0
 10
333.496
 20
122.61
 30
0.0
 11
333.418
 21
123.106
 31
0.0
  0
LINE
  8
0
 62
     0
 10
333.418
 20
123.106
 30
0.0
 11
333.19
 21
123.551
 31
0.0
  0
LINE
  8
0
 62
     0
 10
333.19
 20
123.551
 30
0.0
 11
332.836
 21
123.905
 31
0.0
  0
LINE
  8
0
 62
     0
 10
332.836
 20
123.905
 30
0.0
 11
332.391
 21
124.132
 31
0.0
  0
LINE
  8
0
 62
     0
 10
332.391
 20
124.132
 30
0.0
 11
331.897
 21
124.21
 31
0.0
  0
LINE
  8
0
 62
     0
 10
331.897
 20
124.21
 30
0.0
 11
331.402
 21
124.132
 31
0.0
  0
LINE
  8
0
 62
     0
 10
222.468
 20
124.132
 30
0.0
 11
222.021
 21
123.905
 31
0.0
  0
LINE
  8
0
 62
     0
 10
222.021
 20
123.905
 30
0.0
 11
221.667
 21
123.551
 31
0.0
  0
LINE
  8
0
 62
     0
 10
221.667
 20
123.551
 30
0.0
 11
221.441
 21
123.106
 31
0.0
  0
LINE
  8
0
 62
     0
 10
221.441
 20
123.106
 30
0.0
 11
221.362
 21
122.61
 31
0.0
  0
LINE
  8
0
 62
     0
 10
221.362
 20
122.61
 30
0.0
 11
221.441
 21
122.116
 31
0.0
  0
LINE
  8
0
 62
     0
 10
221.441
 20
122.116
 30
0.0
 11
221.667
 21
121.67
 31
0.0
  0
LINE
  8
0
 62
     0
 10
221.667
 20
121.67
 30
0.0
 11
222.021
 21
121.316
 31
0.0
  0
LINE
  8
0
 62
     0
 10
222.021
 20
121.316
 30
0.0
 11
222.468
 21
121.09
 31
0.0
  0
LINE
  8
0
 62
     0
 10
222.468
 20
121.09
 30
0.0
 11
222.963
 21
121.01
 31
0.0
  0
LINE
  8
0
 62
     0
 10
222.963
 20
121.01
 30
0.0
 11
223.457
 21
121.09
 31
0.0
  0
LINE
  8
0
 62
     0
 10
223.457
 20
121.09
 30
0.0
 11
223.902
 21
121.316
 31
0.0
  0
LINE
  8
0
 62
     0
 10
223.902
 20
121.316
 30
0.0
 11
224.257
 21
121.67
 31
0.0
  0
LINE
  8
0
 62
     0
 10
224.257
 20
121.67
 30
0.0
 11
224.485
 21
122.116
 31
0.0
  0
LINE
  8
0
 62
     0
 10
224.485
 20
122.116
 30
0.0
 11
224.562
 21
122.61
 31
0.0
  0
LINE
  8
0
 62
     0
 10
224.562
 20
122.61
 30
0.0
 11
224.485
 21
123.106
 31
0.0
  0
LINE
  8
0
 62
     0
 10
224.485
 20
123.106
 30
0.0
 11
224.257
 21
123.551
 31
0.0
  0
LINE
  8
0
 62
     0
 10
224.257
 20
123.551
 30
0.0
 11
223.902
 21
123.905
 31
0.0
  0
LINE
  8
0
 62
     0
 10
223.902
 20
123.905
 30
0.0
 11
223.457
 21
124.132
 31
0.0
  0
LINE
  8
0
 62
     0
 10
223.457
 20
124.132
 30
0.0
 11
222.963
 21
124.21
 31
0.0
  0
LINE
  8
0
 62
     0
 10
222.963
 20
124.21
 30
0.0
 11
222.468
 21
124.132
 31
0.0
  0
LINE
  8
0
 62
     0
 10
113.534
 20
124.132
 30
0.0
 11
113.089
 21
123.905
 31
0.0
  0
LINE
  8
0
 62
     0
 10
113.089
 20
123.905
 30
0.0
 11
112.735
 21
123.551
 31
0.0
  0
LINE
  8
0
 62
     0
 10
112.735
 20
123.551
 30
0.0
 11
112.507
 21
123.106
 31
0.0
  0
LINE
  8
0
 62
     0
 10
112.507
 20
123.106
 30
0.0
 11
112.429
 21
122.61
 31
0.0
  0
LINE
  8
0
 62
     0
 10
112.429
 20
122.61
 30
0.0
 11
112.507
 21
122.116
 31
0.0
  0
LINE
  8
0
 62
     0
 10
112.507
 20
122.116
 30
0.0
 11
112.735
 21
121.67
 31
0.0
  0
LINE
  8
0
 62
     0
 10
112.735
 20
121.67
 30
0.0
 11
113.089
 21
121.316
 31
0.0
  0
LINE
  8
0
 62
     0
 10
113.089
 20
121.316
 30
0.0
 11
113.534
 21
121.09
 31
0.0
  0
LINE
  8
0
 62
     0
 10
113.534
 20
121.09
 30
0.0
 11
114.028
 21
121.01
 31
0.0
  0
LINE
  8
0
 62
     0
 10
114.028
 20
121.01
 30
0.0
 11
114.523
 21
121.09
 31
0.0
  0
LINE
  8
0
 62
     0
 10
114.523
 20
121.09
 30
0.0
 11
114.97
 21
121.316
 31
0.0
  0
LINE
  8
0
 62
     0
 10
114.97
 20
121.316
 30
0.0
 11
115.324
 21
121.67
 31
0.0
  0
LINE
  8
0
 62
     0
 10
115.324
 20
121.67
 30
0.0
 11
115.55
 21
122.116
 31
0.0
  0
LINE
  8
0
 62
     0
 10
115.55
 20
122.116
 30
0.0
 11
115.629
 21
122.61
 31
0.0
  0
LINE
  8
0
 62
     0
 10
115.629
 20
122.61
 30
0.0
 11
115.55
 21
123.106
 31
0.0
  0
LINE
  8
0
 62
     0
 10
115.55
 20
123.106
 30
0.0
 11
115.324
 21
123.551
 31
0.0
  0
LINE
  8
0
 62
     0
 10
115.324
 20
123.551
 30
0.0
 11
114.97
 21
123.905
 31
0.0
  0
LINE
  8
0
 62
     0
 10
114.97
 20
123.905
 30
0.0
 11
114.523
 21
124.132
 31
0.0
  0
LINE
  8
0
 62
     0
 10
114.523
 20
124.132
 30
0.0
 11
114.028
 21
124.21
 31
0.0
  0
LINE
  8
0
 62
     0
 10
114.028
 20
124.21
 30
0.0
 11
113.534
 21
124.132
 31
0.0
  0
ENDSEC
  0
EOF
