M48
; DRILL file {KiCad (5.1.5)-3} date 20/04/2020 21:52:31
; FORMAT={-:-/ absolute / inch / decimal}
; #@! TF.CreationDate,2020-04-20T21:52:31+02:00
; #@! TF.GenerationSoftware,Kicad,Pcbnew,(5.1.5)-3
; #@! TF.FileFunction,Plated,1,2,PTH
FMAT,2
INCH
T1C0.0315
T2C0.0430
T3C0.0579
%
G90
G05
T1
X11.9688Y-7.1063
X11.9688Y-7.4062
X10.8438Y-7.1063
X10.8438Y-7.4062
X11.2188Y-4.1063
X11.2188Y-4.4062
X10.8438Y-4.8563
X10.8438Y-5.1562
X8.2188Y-4.1063
X8.2188Y-4.4062
X6.9062Y-6.3563
X6.9062Y-6.6562
X4.8438Y-4.8563
X4.8438Y-5.1562
X12.375Y-4.1063
X12.375Y-4.4062
X13.2188Y-5.6063
X13.2188Y-5.9062
X7.9062Y-7.1063
X7.9062Y-7.4062
X12.7188Y-7.1063
X12.7188Y-7.4062
X5.0312Y-5.6063
X5.0312Y-5.9062
X4.4688Y-4.1063
X4.4688Y-4.4062
X5.4062Y-6.3563
X5.4062Y-6.6562
X13.2812Y-4.8563
X13.2812Y-5.1562
X7.4688Y-4.1063
X7.4688Y-4.4062
X13.5Y-5.6063
X13.5Y-5.9062
X12.7188Y-6.3563
X12.7188Y-6.6562
X3.1562Y-7.1063
X3.1562Y-7.4062
X8.5938Y-4.8563
X8.5938Y-5.1562
X4.0938Y-4.8563
X4.0938Y-5.1562
X5.2188Y-4.1063
X5.2188Y-4.4062
X8.4062Y-6.3563
X8.4062Y-6.6562
X6.3438Y-4.8563
X6.3438Y-5.1562
X9.7188Y-4.1063
X9.7188Y-4.4062
X3.7188Y-6.3563
X3.7188Y-6.6562
X13.4688Y-7.1063
X13.4688Y-7.4062
X5.0312Y-7.1063
X5.0312Y-7.4062
X9.9062Y-6.3563
X9.9062Y-6.6562
X9.3438Y-4.8563
X9.3438Y-5.1562
X2.9688Y-4.1063
X2.9688Y-4.4062
X7.6562Y-6.3563
X7.6562Y-6.6562
X7.8438Y-4.8563
X7.8438Y-5.1562
X13.2812Y-4.1063
X13.2812Y-4.4062
X8.7812Y-5.6063
X8.7812Y-5.9062
X12.3438Y-4.8563
X12.3438Y-5.1562
X10.4688Y-4.1063
X10.4688Y-4.4062
X4.6562Y-6.3563
X4.6562Y-6.6562
X11.4062Y-6.3563
X11.4062Y-6.6562
X10.6562Y-6.3563
X10.6562Y-6.6562
X3.3125Y-5.6063
X3.3125Y-5.9062
X3.7188Y-4.1063
X3.7188Y-4.4062
X7.2812Y-5.6063
X7.2812Y-5.9062
X12.5625Y-4.8563
X12.5625Y-5.1562
X11.9688Y-4.1063
X11.9688Y-4.4062
X6.5312Y-5.6063
X6.5312Y-5.9062
X11.5938Y-4.8563
X11.5938Y-5.1562
X6.1562Y-6.3563
X6.1562Y-6.6562
X13.4688Y-6.3563
X13.4688Y-6.6562
X14.1875Y-7.1063
X14.1875Y-7.4062
X10.0938Y-4.8563
X10.0938Y-5.1562
X5.9688Y-4.1063
X5.9688Y-4.4062
X11.7812Y-5.6063
X11.7812Y-5.9062
X5.5938Y-4.8563
X5.5938Y-5.1562
X8.9688Y-4.1063
X8.9688Y-4.4062
X9.1562Y-6.3563
X9.1562Y-6.6562
X4.2812Y-5.6063
X4.2812Y-5.9062
X11.0312Y-5.6063
X11.0312Y-5.9062
X4.0938Y-7.1063
X4.0938Y-7.4062
X12.4375Y-6.3563
X12.4375Y-6.6562
X5.7812Y-5.6063
X5.7812Y-5.9062
X6.7188Y-4.1063
X6.7188Y-4.4062
X10.2812Y-5.6063
X10.2812Y-5.9062
X7.0938Y-4.8563
X7.0938Y-5.1562
X3.1875Y-4.8563
X3.1875Y-5.1562
X8.0312Y-5.6063
X8.0312Y-5.9062
X9.5312Y-5.6063
X9.5312Y-5.9062
T2
X13.5437Y-4.275
X13.5437Y-4.375
X13.5437Y-4.475
X13.5437Y-4.575
X13.5437Y-4.675
X13.5437Y-4.775
X13.5437Y-4.875
X13.5437Y-4.975
X13.5437Y-5.075
X13.5437Y-5.175
X13.5437Y-5.275
X13.5437Y-5.375
X13.6437Y-5.375
X13.7438Y-5.375
X13.8438Y-5.375
X13.9437Y-5.375
X14.0437Y-5.375
X14.1348Y-5.375
X14.1437Y-4.275
X14.1437Y-4.375
X14.1437Y-4.475
X14.1437Y-4.575
X14.1437Y-4.675
X14.1437Y-4.775
X14.1437Y-4.875
X14.1437Y-4.975
X14.1437Y-5.075
X14.1437Y-5.175
X14.1437Y-5.275
T3
X9.7562Y-5.65
X10.0062Y-5.55
X10.8812Y-6.4
X11.1312Y-6.3
X8.6312Y-6.4
X8.8812Y-6.3
X4.3187Y-4.9
X4.5687Y-4.8
X13.6937Y-4.15
X13.9437Y-4.05
X5.0687Y-4.9
X5.3187Y-4.8
X9.5687Y-4.9
X9.8187Y-4.8
X4.4125Y-7.15
X4.6625Y-7.05
X8.2562Y-5.65
X8.5062Y-5.55
X2.5375Y-7.15
X2.7875Y-7.05
X8.8187Y-4.9
X9.0687Y-4.8
X12.475Y-5.65
X12.725Y-5.55
X2.9125Y-6.4
X3.1625Y-6.3
X3.1938Y-4.15
X3.4438Y-4.05
X4.6937Y-4.15
X4.9437Y-4.05
X5.8187Y-4.9
X6.0687Y-4.8
X3.5688Y-4.9
X3.8188Y-4.8
X10.3187Y-4.9
X10.5687Y-4.8
X10.1312Y-7.15
X10.3812Y-7.05
X3.7563Y-5.65
X4.0062Y-5.55
X3.475Y-7.15
X3.725Y-7.05
X13.6937Y-5.65
X13.9437Y-5.55
X4.1312Y-6.4
X4.3812Y-6.3
X2.4438Y-4.15
X2.6938Y-4.05
X5.4437Y-4.15
X5.6937Y-4.05
X8.4437Y-4.15
X8.6937Y-4.05
X11.8187Y-4.9
X12.0687Y-4.8
X12.9437Y-7.15
X13.1937Y-7.05
X12.7562Y-4.9
X13.0062Y-4.8
X11.2562Y-7.15
X11.5062Y-7.05
X7.8812Y-6.4
X8.1312Y-6.3
X11.9125Y-6.4
X12.1625Y-6.3
X13.6937Y-6.4
X13.9437Y-6.3
X6.1937Y-4.15
X6.4437Y-4.05
X9.1937Y-4.15
X9.4437Y-4.05
X2.725Y-5.65
X2.975Y-5.55
X12.1937Y-7.15
X12.4437Y-7.05
X13.6937Y-4.9
X13.9437Y-4.8
X11.2562Y-5.65
X11.5062Y-5.55
X9.3812Y-6.4
X9.6312Y-6.3
X5.6312Y-6.4
X5.8812Y-6.3
X3.9438Y-4.15
X4.1937Y-4.05
X6.9437Y-4.15
X7.1937Y-4.05
X9.9437Y-4.15
X10.1937Y-4.05
X11.0687Y-4.9
X11.3187Y-4.8
X6.0062Y-5.65
X6.2562Y-5.55
X13.6937Y-7.15
X13.9437Y-7.05
X7.5062Y-5.65
X7.7562Y-5.55
X7.225Y-7.15
X7.475Y-7.05
X4.8812Y-6.4
X5.1312Y-6.3
X10.1312Y-6.4
X10.3812Y-6.3
X12.9437Y-6.4
X13.1937Y-6.3
X11.4437Y-4.15
X11.6937Y-4.05
X6.5687Y-4.9
X6.8187Y-4.8
X2.6313Y-4.9
X2.8813Y-4.8
X4.5062Y-5.65
X4.7562Y-5.55
X6.7562Y-5.65
X7.0062Y-5.55
X7.3187Y-4.9
X7.5687Y-4.8
X10.5062Y-5.65
X10.7562Y-5.55
X6.3812Y-6.4
X6.6312Y-6.3
X7.1312Y-6.4
X7.3812Y-6.3
X10.6937Y-4.15
X10.9437Y-4.05
X7.6937Y-4.15
X7.9437Y-4.05
X12.5687Y-4.15
X12.8187Y-4.05
X9.0062Y-5.65
X9.2562Y-5.55
X5.2562Y-5.65
X5.5062Y-5.55
X8.0687Y-4.9
X8.3187Y-4.8
T0
M30
