G04 #@! TF.GenerationSoftware,KiCad,Pcbnew,(5.1.5)-3*
G04 #@! TF.CreationDate,2020-04-20T21:52:19+02:00*
G04 #@! TF.ProjectId,odyssey67,6f647973-7365-4793-9637-2e6b69636164,1.0*
G04 #@! TF.SameCoordinates,Original*
G04 #@! TF.FileFunction,Copper,L1,Top*
G04 #@! TF.FilePolarity,Positive*
%FSLAX46Y46*%
G04 Gerber Fmt 4.6, Leading zero omitted, Abs format (unit mm)*
G04 Created by KiCad (PCBNEW (5.1.5)-3) date 2020-04-20 21:52:19*
%MOMM*%
%LPD*%
G04 APERTURE LIST*
%ADD10C,1.752600*%
%ADD11R,1.752600X1.752600*%
%ADD12C,2.250000*%
%ADD13R,1.600000X1.600000*%
%ADD14O,1.600000X1.600000*%
%ADD15C,0.250000*%
G04 APERTURE END LIST*
D10*
X356711250Y-136525000D03*
X354171250Y-136525000D03*
X351631250Y-136525000D03*
X349091250Y-136525000D03*
X346551250Y-136525000D03*
X344011250Y-108585000D03*
X359022650Y-136525000D03*
X344011250Y-111125000D03*
X344011250Y-113665000D03*
X344011250Y-116205000D03*
X344011250Y-118745000D03*
X344011250Y-121285000D03*
X344011250Y-123825000D03*
X344011250Y-126365000D03*
X344011250Y-128905000D03*
X344011250Y-131445000D03*
X344011250Y-133985000D03*
X344011250Y-136525000D03*
X359251250Y-133985000D03*
X359251250Y-131445000D03*
X359251250Y-128905000D03*
X359251250Y-126365000D03*
X359251250Y-123825000D03*
X359251250Y-121285000D03*
X359251250Y-118745000D03*
X359251250Y-116205000D03*
X359251250Y-113665000D03*
X359251250Y-111125000D03*
D11*
X359251250Y-108585000D03*
D12*
X347821250Y-181610000D03*
X354171250Y-179070000D03*
X328771250Y-181610000D03*
X335121250Y-179070000D03*
X309721250Y-181610000D03*
X316071250Y-179070000D03*
X285908750Y-181610000D03*
X292258750Y-179070000D03*
X257333750Y-181610000D03*
X263683750Y-179070000D03*
X183515000Y-181610000D03*
X189865000Y-179070000D03*
X112077500Y-181610000D03*
X118427500Y-179070000D03*
X88265000Y-181610000D03*
X94615000Y-179070000D03*
X64452500Y-181610000D03*
X70802500Y-179070000D03*
X347821250Y-162560000D03*
X354171250Y-160020000D03*
X328771250Y-162560000D03*
X335121250Y-160020000D03*
X302577500Y-162560000D03*
X308927500Y-160020000D03*
X276383750Y-162560000D03*
X282733750Y-160020000D03*
X257333750Y-162560000D03*
X263683750Y-160020000D03*
X238283750Y-162560000D03*
X244633750Y-160020000D03*
X219233750Y-162560000D03*
X225583750Y-160020000D03*
X200183750Y-162560000D03*
X206533750Y-160020000D03*
X181133750Y-162560000D03*
X187483750Y-160020000D03*
X162083750Y-162560000D03*
X168433750Y-160020000D03*
X143033750Y-162560000D03*
X149383750Y-160020000D03*
X123983750Y-162560000D03*
X130333750Y-160020000D03*
X104933750Y-162560000D03*
X111283750Y-160020000D03*
X73977500Y-162560000D03*
X80327500Y-160020000D03*
X347821250Y-143510000D03*
X354171250Y-140970000D03*
X316865000Y-143510000D03*
X323215000Y-140970000D03*
X285908750Y-143510000D03*
X292258750Y-140970000D03*
X247808750Y-143510000D03*
X254158750Y-140970000D03*
X266858750Y-143510000D03*
X273208750Y-140970000D03*
X228758750Y-143510000D03*
X235108750Y-140970000D03*
X209708750Y-143510000D03*
X216058750Y-140970000D03*
X190658750Y-143510000D03*
X197008750Y-140970000D03*
X171608750Y-143510000D03*
X177958750Y-140970000D03*
X152558750Y-143510000D03*
X158908750Y-140970000D03*
X133508750Y-143510000D03*
X139858750Y-140970000D03*
X114458750Y-143510000D03*
X120808750Y-140970000D03*
X95408750Y-143510000D03*
X101758750Y-140970000D03*
X69215000Y-143510000D03*
X75565000Y-140970000D03*
X347821250Y-124460000D03*
X354171250Y-121920000D03*
X324008750Y-124460000D03*
X330358750Y-121920000D03*
X300196250Y-124460000D03*
X306546250Y-121920000D03*
X281146250Y-124460000D03*
X287496250Y-121920000D03*
X262096250Y-124460000D03*
X268446250Y-121920000D03*
X243046250Y-124460000D03*
X249396250Y-121920000D03*
X223996250Y-124460000D03*
X230346250Y-121920000D03*
X204946250Y-124460000D03*
X211296250Y-121920000D03*
X185896250Y-124460000D03*
X192246250Y-121920000D03*
X166846250Y-124460000D03*
X173196250Y-121920000D03*
X147796250Y-124460000D03*
X154146250Y-121920000D03*
X128746250Y-124460000D03*
X135096250Y-121920000D03*
X109696250Y-124460000D03*
X116046250Y-121920000D03*
X90646250Y-124460000D03*
X96996250Y-121920000D03*
X66833750Y-124460000D03*
X73183750Y-121920000D03*
X347821250Y-105410000D03*
X354171250Y-102870000D03*
X319246250Y-105410000D03*
X325596250Y-102870000D03*
X290671250Y-105410000D03*
X297021250Y-102870000D03*
X271621250Y-105410000D03*
X277971250Y-102870000D03*
X252571250Y-105410000D03*
X258921250Y-102870000D03*
X233521250Y-105410000D03*
X239871250Y-102870000D03*
X214471250Y-105410000D03*
X220821250Y-102870000D03*
X195421250Y-105410000D03*
X201771250Y-102870000D03*
X176371250Y-105410000D03*
X182721250Y-102870000D03*
X157321250Y-105410000D03*
X163671250Y-102870000D03*
X138271250Y-105410000D03*
X144621250Y-102870000D03*
X119221250Y-105410000D03*
X125571250Y-102870000D03*
X100171250Y-105410000D03*
X106521250Y-102870000D03*
X62071250Y-105410000D03*
X68421250Y-102870000D03*
X81121250Y-105410000D03*
X87471250Y-102870000D03*
D13*
X360362500Y-188118750D03*
D14*
X360362500Y-180498750D03*
D13*
X342106250Y-188118750D03*
D14*
X342106250Y-180498750D03*
D13*
X323056250Y-188118750D03*
D14*
X323056250Y-180498750D03*
D13*
X304006250Y-188118750D03*
D14*
X304006250Y-180498750D03*
D13*
X275431250Y-188118750D03*
D14*
X275431250Y-180498750D03*
D13*
X200818750Y-188118750D03*
D14*
X200818750Y-180498750D03*
D13*
X127793750Y-188118750D03*
D14*
X127793750Y-180498750D03*
D13*
X103981250Y-188118750D03*
D14*
X103981250Y-180498750D03*
D13*
X80168750Y-188118750D03*
D14*
X80168750Y-180498750D03*
D13*
X342106250Y-169068750D03*
D14*
X342106250Y-161448750D03*
D13*
X323056250Y-169068750D03*
D14*
X323056250Y-161448750D03*
D13*
X315912500Y-169068750D03*
D14*
X315912500Y-161448750D03*
D13*
X289718750Y-169068750D03*
D14*
X289718750Y-161448750D03*
D13*
X270668750Y-169068750D03*
D14*
X270668750Y-161448750D03*
D13*
X251618750Y-169068750D03*
D14*
X251618750Y-161448750D03*
D13*
X232568750Y-169068750D03*
D14*
X232568750Y-161448750D03*
D13*
X213518750Y-169068750D03*
D14*
X213518750Y-161448750D03*
D13*
X194468750Y-169068750D03*
D14*
X194468750Y-161448750D03*
D13*
X175418750Y-169068750D03*
D14*
X175418750Y-161448750D03*
D13*
X156368750Y-169068750D03*
D14*
X156368750Y-161448750D03*
D13*
X137318750Y-169068750D03*
D14*
X137318750Y-161448750D03*
D13*
X118268750Y-169068750D03*
D14*
X118268750Y-161448750D03*
D13*
X94456250Y-169068750D03*
D14*
X94456250Y-161448750D03*
D13*
X342900000Y-150018750D03*
D14*
X342900000Y-142398750D03*
D13*
X335756250Y-150018750D03*
D14*
X335756250Y-142398750D03*
D13*
X299243750Y-150018750D03*
D14*
X299243750Y-142398750D03*
D13*
X280193750Y-150018750D03*
D14*
X280193750Y-142398750D03*
D13*
X261143750Y-150018750D03*
D14*
X261143750Y-142398750D03*
D13*
X242093750Y-150018750D03*
D14*
X242093750Y-142398750D03*
D13*
X223043750Y-150018750D03*
D14*
X223043750Y-142398750D03*
D13*
X203993750Y-150018750D03*
D14*
X203993750Y-142398750D03*
D13*
X184943750Y-150018750D03*
D14*
X184943750Y-142398750D03*
D13*
X165893750Y-150018750D03*
D14*
X165893750Y-142398750D03*
D13*
X146843750Y-150018750D03*
D14*
X146843750Y-142398750D03*
D13*
X127793750Y-150018750D03*
D14*
X127793750Y-142398750D03*
D13*
X108743750Y-150018750D03*
D14*
X108743750Y-142398750D03*
D13*
X84137500Y-150018750D03*
D14*
X84137500Y-142398750D03*
D13*
X337343750Y-130968750D03*
D14*
X337343750Y-123348750D03*
D13*
X319087500Y-130968750D03*
D14*
X319087500Y-123348750D03*
D13*
X313531250Y-130968750D03*
D14*
X313531250Y-123348750D03*
D13*
X294481250Y-130968750D03*
D14*
X294481250Y-123348750D03*
D13*
X275431250Y-130968750D03*
D14*
X275431250Y-123348750D03*
D13*
X256381250Y-130968750D03*
D14*
X256381250Y-123348750D03*
D13*
X237331250Y-130968750D03*
D14*
X237331250Y-123348750D03*
D13*
X218281250Y-130968750D03*
D14*
X218281250Y-123348750D03*
D13*
X199231250Y-130968750D03*
D14*
X199231250Y-123348750D03*
D13*
X180181250Y-130968750D03*
D14*
X180181250Y-123348750D03*
D13*
X161131250Y-130968750D03*
D14*
X161131250Y-123348750D03*
D13*
X142081250Y-130968750D03*
D14*
X142081250Y-123348750D03*
D13*
X123031250Y-130968750D03*
D14*
X123031250Y-123348750D03*
D13*
X103981250Y-130968750D03*
D14*
X103981250Y-123348750D03*
D13*
X80962500Y-130968750D03*
D14*
X80962500Y-123348750D03*
D13*
X337343750Y-111918750D03*
D14*
X337343750Y-104298750D03*
D13*
X314325000Y-111918750D03*
D14*
X314325000Y-104298750D03*
D13*
X304006250Y-111918750D03*
D14*
X304006250Y-104298750D03*
D13*
X284956250Y-111918750D03*
D14*
X284956250Y-104298750D03*
D13*
X265906250Y-111918750D03*
D14*
X265906250Y-104298750D03*
D13*
X246856250Y-111918750D03*
D14*
X246856250Y-104298750D03*
D13*
X227806250Y-111918750D03*
D14*
X227806250Y-104298750D03*
D13*
X208756250Y-111918750D03*
D14*
X208756250Y-104298750D03*
D13*
X189706250Y-111918750D03*
D14*
X189706250Y-104298750D03*
D13*
X170656250Y-111918750D03*
D14*
X170656250Y-104298750D03*
D13*
X151606250Y-111918750D03*
D14*
X151606250Y-104298750D03*
D13*
X132556250Y-111918750D03*
D14*
X132556250Y-104298750D03*
D13*
X113506250Y-111918750D03*
D14*
X113506250Y-104298750D03*
D13*
X94456250Y-111918750D03*
D14*
X94456250Y-104298750D03*
D13*
X75406250Y-111918750D03*
D14*
X75406250Y-104298750D03*
D15*
X73977500Y-102870000D02*
X75406250Y-104298750D01*
X68421250Y-102870000D02*
X73977500Y-102870000D01*
X343120000Y-118745000D02*
X344011250Y-118745000D01*
X337343750Y-112968750D02*
X343120000Y-118745000D01*
X337343750Y-111918750D02*
X337343750Y-112968750D01*
X93027500Y-102870000D02*
X94456250Y-104298750D01*
X87471250Y-102870000D02*
X93027500Y-102870000D01*
X112077500Y-102870000D02*
X113506250Y-104298750D01*
X106521250Y-102870000D02*
X112077500Y-102870000D01*
X131127500Y-102870000D02*
X132556250Y-104298750D01*
X125571250Y-102870000D02*
X131127500Y-102870000D01*
X150177500Y-102870000D02*
X151606250Y-104298750D01*
X144621250Y-102870000D02*
X150177500Y-102870000D01*
X169227500Y-102870000D02*
X170656250Y-104298750D01*
X163671250Y-102870000D02*
X169227500Y-102870000D01*
X188277500Y-102870000D02*
X189706250Y-104298750D01*
X182721250Y-102870000D02*
X188277500Y-102870000D01*
X207327500Y-102870000D02*
X208756250Y-104298750D01*
X201771250Y-102870000D02*
X207327500Y-102870000D01*
X226377500Y-102870000D02*
X227806250Y-104298750D01*
X220821250Y-102870000D02*
X226377500Y-102870000D01*
X245427500Y-102870000D02*
X246856250Y-104298750D01*
X239871250Y-102870000D02*
X245427500Y-102870000D01*
X264477500Y-102870000D02*
X265906250Y-104298750D01*
X258921250Y-102870000D02*
X264477500Y-102870000D01*
X283527500Y-102870000D02*
X284956250Y-104298750D01*
X277971250Y-102870000D02*
X283527500Y-102870000D01*
X302577500Y-102870000D02*
X304006250Y-104298750D01*
X297021250Y-102870000D02*
X302577500Y-102870000D01*
X315753750Y-102870000D02*
X325596250Y-102870000D01*
X314325000Y-104298750D02*
X315753750Y-102870000D01*
X338772500Y-102870000D02*
X354171250Y-102870000D01*
X337343750Y-104298750D02*
X338772500Y-102870000D01*
X79533750Y-121920000D02*
X80962500Y-123348750D01*
X73183750Y-121920000D02*
X79533750Y-121920000D01*
X345674951Y-137401299D02*
X346551250Y-136525000D01*
X345349949Y-137726301D02*
X345674951Y-137401299D01*
X343051301Y-137726301D02*
X345349949Y-137726301D01*
X337343750Y-132018750D02*
X343051301Y-137726301D01*
X337343750Y-130968750D02*
X337343750Y-132018750D01*
X102552500Y-121920000D02*
X103981250Y-123348750D01*
X96996250Y-121920000D02*
X102552500Y-121920000D01*
X116046250Y-121920000D02*
X116046250Y-122078750D01*
X121602500Y-121920000D02*
X123031250Y-123348750D01*
X116046250Y-121920000D02*
X121602500Y-121920000D01*
X140652500Y-121920000D02*
X142081250Y-123348750D01*
X135096250Y-121920000D02*
X140652500Y-121920000D01*
X159702500Y-121920000D02*
X161131250Y-123348750D01*
X154146250Y-121920000D02*
X159702500Y-121920000D01*
X178752500Y-121920000D02*
X180181250Y-123348750D01*
X173196250Y-121920000D02*
X178752500Y-121920000D01*
X197802500Y-121920000D02*
X199231250Y-123348750D01*
X192246250Y-121920000D02*
X197802500Y-121920000D01*
X216852500Y-121920000D02*
X218281250Y-123348750D01*
X211296250Y-121920000D02*
X216852500Y-121920000D01*
X235902500Y-121920000D02*
X237331250Y-123348750D01*
X230346250Y-121920000D02*
X235902500Y-121920000D01*
X254952500Y-121920000D02*
X256381250Y-123348750D01*
X249396250Y-121920000D02*
X254952500Y-121920000D01*
X274002500Y-121920000D02*
X275431250Y-123348750D01*
X268446250Y-121920000D02*
X274002500Y-121920000D01*
X293052500Y-121920000D02*
X294481250Y-123348750D01*
X287496250Y-121920000D02*
X293052500Y-121920000D01*
X312102500Y-121920000D02*
X313531250Y-123348750D01*
X306546250Y-121920000D02*
X312102500Y-121920000D01*
X82708750Y-140970000D02*
X84137500Y-142398750D01*
X75565000Y-140970000D02*
X82708750Y-140970000D01*
X107315000Y-140970000D02*
X108743750Y-142398750D01*
X101758750Y-140970000D02*
X107315000Y-140970000D01*
X126365000Y-140970000D02*
X127793750Y-142398750D01*
X120808750Y-140970000D02*
X126365000Y-140970000D01*
X145415000Y-140970000D02*
X146843750Y-142398750D01*
X139858750Y-140970000D02*
X145415000Y-140970000D01*
X164465000Y-140970000D02*
X165893750Y-142398750D01*
X158908750Y-140970000D02*
X164465000Y-140970000D01*
X183515000Y-140970000D02*
X184943750Y-142398750D01*
X177958750Y-140970000D02*
X183515000Y-140970000D01*
X202565000Y-140970000D02*
X203993750Y-142398750D01*
X197008750Y-140970000D02*
X202565000Y-140970000D01*
X221615000Y-140970000D02*
X223043750Y-142398750D01*
X216058750Y-140970000D02*
X221615000Y-140970000D01*
X240665000Y-140970000D02*
X242093750Y-142398750D01*
X235108750Y-140970000D02*
X240665000Y-140970000D01*
X259715000Y-140970000D02*
X261143750Y-142398750D01*
X254158750Y-140970000D02*
X259715000Y-140970000D01*
X278765000Y-140970000D02*
X280193750Y-142398750D01*
X273208750Y-140970000D02*
X278765000Y-140970000D01*
X297815000Y-140970000D02*
X299243750Y-142398750D01*
X292258750Y-140970000D02*
X297815000Y-140970000D01*
X93027500Y-160020000D02*
X94456250Y-161448750D01*
X80327500Y-160020000D02*
X93027500Y-160020000D01*
X116840000Y-160020000D02*
X118268750Y-161448750D01*
X111283750Y-160020000D02*
X116840000Y-160020000D01*
X135890000Y-160020000D02*
X137318750Y-161448750D01*
X130333750Y-160020000D02*
X135890000Y-160020000D01*
X154940000Y-160020000D02*
X156368750Y-161448750D01*
X149383750Y-160020000D02*
X154940000Y-160020000D01*
X173990000Y-160020000D02*
X175418750Y-161448750D01*
X168433750Y-160020000D02*
X173990000Y-160020000D01*
X193040000Y-160020000D02*
X194468750Y-161448750D01*
X187483750Y-160020000D02*
X193040000Y-160020000D01*
X212090000Y-160020000D02*
X213518750Y-161448750D01*
X206533750Y-160020000D02*
X212090000Y-160020000D01*
X231140000Y-160020000D02*
X232568750Y-161448750D01*
X225583750Y-160020000D02*
X231140000Y-160020000D01*
X250190000Y-160020000D02*
X251618750Y-161448750D01*
X244633750Y-160020000D02*
X250190000Y-160020000D01*
X269240000Y-160020000D02*
X270668750Y-161448750D01*
X263683750Y-160020000D02*
X269240000Y-160020000D01*
X288290000Y-160020000D02*
X289718750Y-161448750D01*
X282733750Y-160020000D02*
X288290000Y-160020000D01*
X314483750Y-160020000D02*
X315912500Y-161448750D01*
X308927500Y-160020000D02*
X314483750Y-160020000D01*
X78740000Y-179070000D02*
X80168750Y-180498750D01*
X70802500Y-179070000D02*
X78740000Y-179070000D01*
X102552500Y-179070000D02*
X103981250Y-180498750D01*
X94615000Y-179070000D02*
X102552500Y-179070000D01*
X126365000Y-179070000D02*
X127793750Y-180498750D01*
X118427500Y-179070000D02*
X126365000Y-179070000D01*
X199390000Y-179070000D02*
X200818750Y-180498750D01*
X189865000Y-179070000D02*
X199390000Y-179070000D01*
X274002500Y-179070000D02*
X275431250Y-180498750D01*
X263683750Y-179070000D02*
X274002500Y-179070000D01*
X302577500Y-179070000D02*
X304006250Y-180498750D01*
X292258750Y-179070000D02*
X302577500Y-179070000D01*
X321627500Y-179070000D02*
X323056250Y-180498750D01*
X316071250Y-179070000D02*
X321627500Y-179070000D01*
X340677500Y-179070000D02*
X342106250Y-180498750D01*
X335121250Y-179070000D02*
X340677500Y-179070000D01*
X358933750Y-179070000D02*
X360362500Y-180498750D01*
X354171250Y-179070000D02*
X358933750Y-179070000D01*
X62071250Y-119697500D02*
X66833750Y-124460000D01*
X62071250Y-105410000D02*
X62071250Y-119697500D01*
X66833750Y-141128750D02*
X69215000Y-143510000D01*
X66833750Y-124460000D02*
X66833750Y-141128750D01*
X69215000Y-157797500D02*
X73977500Y-162560000D01*
X69215000Y-143510000D02*
X69215000Y-157797500D01*
X68200151Y-177862349D02*
X65577499Y-180485001D01*
X68200151Y-166746359D02*
X68200151Y-177862349D01*
X65577499Y-180485001D02*
X64452500Y-181610000D01*
X72386510Y-162560000D02*
X68200151Y-166746359D01*
X73977500Y-162560000D02*
X72386510Y-162560000D01*
X81121250Y-114935000D02*
X90646250Y-124460000D01*
X81121250Y-105410000D02*
X81121250Y-114935000D01*
X90646250Y-138747500D02*
X95408750Y-143510000D01*
X90646250Y-124460000D02*
X90646250Y-138747500D01*
X95408750Y-153035000D02*
X104933750Y-162560000D01*
X95408750Y-143510000D02*
X95408750Y-153035000D01*
X89855990Y-181610000D02*
X88265000Y-181610000D01*
X104933750Y-166532240D02*
X89855990Y-181610000D01*
X104933750Y-162560000D02*
X104933750Y-166532240D01*
X100171250Y-114935000D02*
X109696250Y-124460000D01*
X100171250Y-105410000D02*
X100171250Y-114935000D01*
X109696250Y-138747500D02*
X114458750Y-143510000D01*
X109696250Y-124460000D02*
X109696250Y-138747500D01*
X114458750Y-153035000D02*
X123983750Y-162560000D01*
X114458750Y-143510000D02*
X114458750Y-153035000D01*
X123983750Y-169703750D02*
X112077500Y-181610000D01*
X123983750Y-162560000D02*
X123983750Y-169703750D01*
X119221250Y-114935000D02*
X128746250Y-124460000D01*
X119221250Y-105410000D02*
X119221250Y-114935000D01*
X128746250Y-138747500D02*
X133508750Y-143510000D01*
X128746250Y-124460000D02*
X128746250Y-138747500D01*
X133508750Y-153035000D02*
X143033750Y-162560000D01*
X133508750Y-143510000D02*
X133508750Y-153035000D01*
X138271250Y-114935000D02*
X147796250Y-124460000D01*
X138271250Y-105410000D02*
X138271250Y-114935000D01*
X147796250Y-138747500D02*
X152558750Y-143510000D01*
X147796250Y-124460000D02*
X147796250Y-138747500D01*
X152558750Y-153035000D02*
X162083750Y-162560000D01*
X152558750Y-143510000D02*
X152558750Y-153035000D01*
X157321250Y-114935000D02*
X166846250Y-124460000D01*
X157321250Y-105410000D02*
X157321250Y-114935000D01*
X166846250Y-138747500D02*
X171608750Y-143510000D01*
X166846250Y-124460000D02*
X166846250Y-138747500D01*
X171608750Y-153035000D02*
X181133750Y-162560000D01*
X171608750Y-143510000D02*
X171608750Y-153035000D01*
X181133750Y-179228750D02*
X183515000Y-181610000D01*
X181133750Y-162560000D02*
X181133750Y-179228750D01*
X176371250Y-114935000D02*
X185896250Y-124460000D01*
X176371250Y-105410000D02*
X176371250Y-114935000D01*
X185896250Y-138747500D02*
X190658750Y-143510000D01*
X185896250Y-124460000D02*
X185896250Y-138747500D01*
X190658750Y-153035000D02*
X200183750Y-162560000D01*
X190658750Y-143510000D02*
X190658750Y-153035000D01*
X195421250Y-114935000D02*
X204946250Y-124460000D01*
X195421250Y-105410000D02*
X195421250Y-114935000D01*
X204946250Y-138747500D02*
X209708750Y-143510000D01*
X204946250Y-124460000D02*
X204946250Y-138747500D01*
X209708750Y-153035000D02*
X219233750Y-162560000D01*
X209708750Y-143510000D02*
X209708750Y-153035000D01*
X214471250Y-114935000D02*
X223996250Y-124460000D01*
X214471250Y-105410000D02*
X214471250Y-114935000D01*
X223996250Y-138747500D02*
X228758750Y-143510000D01*
X223996250Y-124460000D02*
X223996250Y-138747500D01*
X228758750Y-153035000D02*
X238283750Y-162560000D01*
X228758750Y-143510000D02*
X228758750Y-153035000D01*
X233521250Y-114935000D02*
X243046250Y-124460000D01*
X233521250Y-105410000D02*
X233521250Y-114935000D01*
X243046250Y-138747500D02*
X247808750Y-143510000D01*
X243046250Y-124460000D02*
X243046250Y-138747500D01*
X247808750Y-153035000D02*
X257333750Y-162560000D01*
X247808750Y-143510000D02*
X247808750Y-153035000D01*
X257333750Y-164150990D02*
X257333750Y-181610000D01*
X257333750Y-162560000D02*
X257333750Y-164150990D01*
X252571250Y-114935000D02*
X262096250Y-124460000D01*
X252571250Y-105410000D02*
X252571250Y-114935000D01*
X262096250Y-138747500D02*
X266858750Y-143510000D01*
X262096250Y-124460000D02*
X262096250Y-138747500D01*
X266858750Y-153035000D02*
X276383750Y-162560000D01*
X266858750Y-143510000D02*
X266858750Y-153035000D01*
X276383750Y-172085000D02*
X285908750Y-181610000D01*
X276383750Y-162560000D02*
X276383750Y-172085000D01*
X271621250Y-114935000D02*
X281146250Y-124460000D01*
X271621250Y-105410000D02*
X271621250Y-114935000D01*
X281146250Y-138747500D02*
X285908750Y-143510000D01*
X281146250Y-124460000D02*
X281146250Y-138747500D01*
X285908750Y-145891250D02*
X302577500Y-162560000D01*
X285908750Y-143510000D02*
X285908750Y-145891250D01*
X302577500Y-174466250D02*
X309721250Y-181610000D01*
X302577500Y-162560000D02*
X302577500Y-174466250D01*
X290671250Y-114935000D02*
X300196250Y-124460000D01*
X290671250Y-105410000D02*
X290671250Y-114935000D01*
X300196250Y-126841250D02*
X316865000Y-143510000D01*
X300196250Y-124460000D02*
X300196250Y-126841250D01*
X319246250Y-119697500D02*
X324008750Y-124460000D01*
X319246250Y-105410000D02*
X319246250Y-119697500D01*
X328771250Y-160969010D02*
X328771250Y-162560000D01*
X328771250Y-147290248D02*
X328771250Y-160969010D01*
X325499849Y-144018847D02*
X328771250Y-147290248D01*
X324008750Y-126050990D02*
X325499849Y-127542089D01*
X325499849Y-127542089D02*
X325499849Y-144018847D01*
X324008750Y-124460000D02*
X324008750Y-126050990D01*
X328771250Y-162560000D02*
X328771250Y-181610000D01*
X334486250Y-124460000D02*
X344011250Y-133985000D01*
X324008750Y-124460000D02*
X334486250Y-124460000D01*
X347821250Y-107000990D02*
X347821250Y-124460000D01*
X347821250Y-105410000D02*
X347821250Y-107000990D01*
X347821250Y-124460000D02*
X347821250Y-143510000D01*
X347821250Y-145100990D02*
X347821250Y-162560000D01*
X347821250Y-143510000D02*
X347821250Y-145100990D01*
X347821250Y-164150990D02*
X347821250Y-181610000D01*
X347821250Y-162560000D02*
X347821250Y-164150990D01*
X351631250Y-139700000D02*
X351631250Y-136525000D01*
X347821250Y-143510000D02*
X351631250Y-139700000D01*
M02*
