G04 #@! TF.GenerationSoftware,KiCad,Pcbnew,(5.1.5)-3*
G04 #@! TF.CreationDate,2020-04-20T21:52:19+02:00*
G04 #@! TF.ProjectId,odyssey67,6f647973-7365-4793-9637-2e6b69636164,1.0*
G04 #@! TF.SameCoordinates,Original*
G04 #@! TF.FileFunction,Copper,L2,Bot*
G04 #@! TF.FilePolarity,Positive*
%FSLAX46Y46*%
G04 Gerber Fmt 4.6, Leading zero omitted, Abs format (unit mm)*
G04 Created by KiCad (PCBNEW (5.1.5)-3) date 2020-04-20 21:52:19*
%MOMM*%
%LPD*%
G04 APERTURE LIST*
%ADD10C,1.752600*%
%ADD11R,1.752600X1.752600*%
%ADD12C,2.250000*%
%ADD13R,1.600000X1.600000*%
%ADD14O,1.600000X1.600000*%
%ADD15C,0.250000*%
G04 APERTURE END LIST*
D10*
X356711250Y-136525000D03*
X354171250Y-136525000D03*
X351631250Y-136525000D03*
X349091250Y-136525000D03*
X346551250Y-136525000D03*
X344011250Y-108585000D03*
X359022650Y-136525000D03*
X344011250Y-111125000D03*
X344011250Y-113665000D03*
X344011250Y-116205000D03*
X344011250Y-118745000D03*
X344011250Y-121285000D03*
X344011250Y-123825000D03*
X344011250Y-126365000D03*
X344011250Y-128905000D03*
X344011250Y-131445000D03*
X344011250Y-133985000D03*
X344011250Y-136525000D03*
X359251250Y-133985000D03*
X359251250Y-131445000D03*
X359251250Y-128905000D03*
X359251250Y-126365000D03*
X359251250Y-123825000D03*
X359251250Y-121285000D03*
X359251250Y-118745000D03*
X359251250Y-116205000D03*
X359251250Y-113665000D03*
X359251250Y-111125000D03*
D11*
X359251250Y-108585000D03*
D12*
X347821250Y-181610000D03*
X354171250Y-179070000D03*
X328771250Y-181610000D03*
X335121250Y-179070000D03*
X309721250Y-181610000D03*
X316071250Y-179070000D03*
X285908750Y-181610000D03*
X292258750Y-179070000D03*
X257333750Y-181610000D03*
X263683750Y-179070000D03*
X183515000Y-181610000D03*
X189865000Y-179070000D03*
X112077500Y-181610000D03*
X118427500Y-179070000D03*
X88265000Y-181610000D03*
X94615000Y-179070000D03*
X64452500Y-181610000D03*
X70802500Y-179070000D03*
X347821250Y-162560000D03*
X354171250Y-160020000D03*
X328771250Y-162560000D03*
X335121250Y-160020000D03*
X302577500Y-162560000D03*
X308927500Y-160020000D03*
X276383750Y-162560000D03*
X282733750Y-160020000D03*
X257333750Y-162560000D03*
X263683750Y-160020000D03*
X238283750Y-162560000D03*
X244633750Y-160020000D03*
X219233750Y-162560000D03*
X225583750Y-160020000D03*
X200183750Y-162560000D03*
X206533750Y-160020000D03*
X181133750Y-162560000D03*
X187483750Y-160020000D03*
X162083750Y-162560000D03*
X168433750Y-160020000D03*
X143033750Y-162560000D03*
X149383750Y-160020000D03*
X123983750Y-162560000D03*
X130333750Y-160020000D03*
X104933750Y-162560000D03*
X111283750Y-160020000D03*
X73977500Y-162560000D03*
X80327500Y-160020000D03*
X347821250Y-143510000D03*
X354171250Y-140970000D03*
X316865000Y-143510000D03*
X323215000Y-140970000D03*
X285908750Y-143510000D03*
X292258750Y-140970000D03*
X247808750Y-143510000D03*
X254158750Y-140970000D03*
X266858750Y-143510000D03*
X273208750Y-140970000D03*
X228758750Y-143510000D03*
X235108750Y-140970000D03*
X209708750Y-143510000D03*
X216058750Y-140970000D03*
X190658750Y-143510000D03*
X197008750Y-140970000D03*
X171608750Y-143510000D03*
X177958750Y-140970000D03*
X152558750Y-143510000D03*
X158908750Y-140970000D03*
X133508750Y-143510000D03*
X139858750Y-140970000D03*
X114458750Y-143510000D03*
X120808750Y-140970000D03*
X95408750Y-143510000D03*
X101758750Y-140970000D03*
X69215000Y-143510000D03*
X75565000Y-140970000D03*
X347821250Y-124460000D03*
X354171250Y-121920000D03*
X324008750Y-124460000D03*
X330358750Y-121920000D03*
X300196250Y-124460000D03*
X306546250Y-121920000D03*
X281146250Y-124460000D03*
X287496250Y-121920000D03*
X262096250Y-124460000D03*
X268446250Y-121920000D03*
X243046250Y-124460000D03*
X249396250Y-121920000D03*
X223996250Y-124460000D03*
X230346250Y-121920000D03*
X204946250Y-124460000D03*
X211296250Y-121920000D03*
X185896250Y-124460000D03*
X192246250Y-121920000D03*
X166846250Y-124460000D03*
X173196250Y-121920000D03*
X147796250Y-124460000D03*
X154146250Y-121920000D03*
X128746250Y-124460000D03*
X135096250Y-121920000D03*
X109696250Y-124460000D03*
X116046250Y-121920000D03*
X90646250Y-124460000D03*
X96996250Y-121920000D03*
X66833750Y-124460000D03*
X73183750Y-121920000D03*
X347821250Y-105410000D03*
X354171250Y-102870000D03*
X319246250Y-105410000D03*
X325596250Y-102870000D03*
X290671250Y-105410000D03*
X297021250Y-102870000D03*
X271621250Y-105410000D03*
X277971250Y-102870000D03*
X252571250Y-105410000D03*
X258921250Y-102870000D03*
X233521250Y-105410000D03*
X239871250Y-102870000D03*
X214471250Y-105410000D03*
X220821250Y-102870000D03*
X195421250Y-105410000D03*
X201771250Y-102870000D03*
X176371250Y-105410000D03*
X182721250Y-102870000D03*
X157321250Y-105410000D03*
X163671250Y-102870000D03*
X138271250Y-105410000D03*
X144621250Y-102870000D03*
X119221250Y-105410000D03*
X125571250Y-102870000D03*
X100171250Y-105410000D03*
X106521250Y-102870000D03*
X62071250Y-105410000D03*
X68421250Y-102870000D03*
X81121250Y-105410000D03*
X87471250Y-102870000D03*
D13*
X360362500Y-188118750D03*
D14*
X360362500Y-180498750D03*
D13*
X342106250Y-188118750D03*
D14*
X342106250Y-180498750D03*
D13*
X323056250Y-188118750D03*
D14*
X323056250Y-180498750D03*
D13*
X304006250Y-188118750D03*
D14*
X304006250Y-180498750D03*
D13*
X275431250Y-188118750D03*
D14*
X275431250Y-180498750D03*
D13*
X200818750Y-188118750D03*
D14*
X200818750Y-180498750D03*
D13*
X127793750Y-188118750D03*
D14*
X127793750Y-180498750D03*
D13*
X103981250Y-188118750D03*
D14*
X103981250Y-180498750D03*
D13*
X80168750Y-188118750D03*
D14*
X80168750Y-180498750D03*
D13*
X342106250Y-169068750D03*
D14*
X342106250Y-161448750D03*
D13*
X323056250Y-169068750D03*
D14*
X323056250Y-161448750D03*
D13*
X315912500Y-169068750D03*
D14*
X315912500Y-161448750D03*
D13*
X289718750Y-169068750D03*
D14*
X289718750Y-161448750D03*
D13*
X270668750Y-169068750D03*
D14*
X270668750Y-161448750D03*
D13*
X251618750Y-169068750D03*
D14*
X251618750Y-161448750D03*
D13*
X232568750Y-169068750D03*
D14*
X232568750Y-161448750D03*
D13*
X213518750Y-169068750D03*
D14*
X213518750Y-161448750D03*
D13*
X194468750Y-169068750D03*
D14*
X194468750Y-161448750D03*
D13*
X175418750Y-169068750D03*
D14*
X175418750Y-161448750D03*
D13*
X156368750Y-169068750D03*
D14*
X156368750Y-161448750D03*
D13*
X137318750Y-169068750D03*
D14*
X137318750Y-161448750D03*
D13*
X118268750Y-169068750D03*
D14*
X118268750Y-161448750D03*
D13*
X94456250Y-169068750D03*
D14*
X94456250Y-161448750D03*
D13*
X342900000Y-150018750D03*
D14*
X342900000Y-142398750D03*
D13*
X335756250Y-150018750D03*
D14*
X335756250Y-142398750D03*
D13*
X299243750Y-150018750D03*
D14*
X299243750Y-142398750D03*
D13*
X280193750Y-150018750D03*
D14*
X280193750Y-142398750D03*
D13*
X261143750Y-150018750D03*
D14*
X261143750Y-142398750D03*
D13*
X242093750Y-150018750D03*
D14*
X242093750Y-142398750D03*
D13*
X223043750Y-150018750D03*
D14*
X223043750Y-142398750D03*
D13*
X203993750Y-150018750D03*
D14*
X203993750Y-142398750D03*
D13*
X184943750Y-150018750D03*
D14*
X184943750Y-142398750D03*
D13*
X165893750Y-150018750D03*
D14*
X165893750Y-142398750D03*
D13*
X146843750Y-150018750D03*
D14*
X146843750Y-142398750D03*
D13*
X127793750Y-150018750D03*
D14*
X127793750Y-142398750D03*
D13*
X108743750Y-150018750D03*
D14*
X108743750Y-142398750D03*
D13*
X84137500Y-150018750D03*
D14*
X84137500Y-142398750D03*
D13*
X337343750Y-130968750D03*
D14*
X337343750Y-123348750D03*
D13*
X319087500Y-130968750D03*
D14*
X319087500Y-123348750D03*
D13*
X313531250Y-130968750D03*
D14*
X313531250Y-123348750D03*
D13*
X294481250Y-130968750D03*
D14*
X294481250Y-123348750D03*
D13*
X275431250Y-130968750D03*
D14*
X275431250Y-123348750D03*
D13*
X256381250Y-130968750D03*
D14*
X256381250Y-123348750D03*
D13*
X237331250Y-130968750D03*
D14*
X237331250Y-123348750D03*
D13*
X218281250Y-130968750D03*
D14*
X218281250Y-123348750D03*
D13*
X199231250Y-130968750D03*
D14*
X199231250Y-123348750D03*
D13*
X180181250Y-130968750D03*
D14*
X180181250Y-123348750D03*
D13*
X161131250Y-130968750D03*
D14*
X161131250Y-123348750D03*
D13*
X142081250Y-130968750D03*
D14*
X142081250Y-123348750D03*
D13*
X123031250Y-130968750D03*
D14*
X123031250Y-123348750D03*
D13*
X103981250Y-130968750D03*
D14*
X103981250Y-123348750D03*
D13*
X80962500Y-130968750D03*
D14*
X80962500Y-123348750D03*
D13*
X337343750Y-111918750D03*
D14*
X337343750Y-104298750D03*
D13*
X314325000Y-111918750D03*
D14*
X314325000Y-104298750D03*
D13*
X304006250Y-111918750D03*
D14*
X304006250Y-104298750D03*
D13*
X284956250Y-111918750D03*
D14*
X284956250Y-104298750D03*
D13*
X265906250Y-111918750D03*
D14*
X265906250Y-104298750D03*
D13*
X246856250Y-111918750D03*
D14*
X246856250Y-104298750D03*
D13*
X227806250Y-111918750D03*
D14*
X227806250Y-104298750D03*
D13*
X208756250Y-111918750D03*
D14*
X208756250Y-104298750D03*
D13*
X189706250Y-111918750D03*
D14*
X189706250Y-104298750D03*
D13*
X170656250Y-111918750D03*
D14*
X170656250Y-104298750D03*
D13*
X151606250Y-111918750D03*
D14*
X151606250Y-104298750D03*
D13*
X132556250Y-111918750D03*
D14*
X132556250Y-104298750D03*
D13*
X113506250Y-111918750D03*
D14*
X113506250Y-104298750D03*
D13*
X94456250Y-111918750D03*
D14*
X94456250Y-104298750D03*
D13*
X75406250Y-111918750D03*
D14*
X75406250Y-104298750D03*
D15*
X75406250Y-111918750D02*
X94456250Y-111918750D01*
X94456250Y-111918750D02*
X113506250Y-111918750D01*
X113506250Y-111918750D02*
X132556250Y-111918750D01*
X132556250Y-111918750D02*
X151606250Y-111918750D01*
X151606250Y-111918750D02*
X170656250Y-111918750D01*
X170656250Y-111918750D02*
X189706250Y-111918750D01*
X189706250Y-111918750D02*
X208756250Y-111918750D01*
X208756250Y-111918750D02*
X227806250Y-111918750D01*
X227806250Y-111918750D02*
X246856250Y-111918750D01*
X246856250Y-111918750D02*
X265906250Y-111918750D01*
X265906250Y-111918750D02*
X284956250Y-111918750D01*
X284956250Y-111918750D02*
X304006250Y-111918750D01*
X304006250Y-111918750D02*
X314325000Y-111918750D01*
X314325000Y-111918750D02*
X337343750Y-111918750D01*
X80962500Y-130968750D02*
X103981250Y-130968750D01*
X103981250Y-130968750D02*
X123031250Y-130968750D01*
X123031250Y-130968750D02*
X142081250Y-130968750D01*
X142081250Y-130968750D02*
X161131250Y-130968750D01*
X161131250Y-130968750D02*
X180181250Y-130968750D01*
X180181250Y-130968750D02*
X199231250Y-130968750D01*
X199231250Y-130968750D02*
X218281250Y-130968750D01*
X218281250Y-130968750D02*
X237331250Y-130968750D01*
X237331250Y-130968750D02*
X256381250Y-130968750D01*
X256381250Y-130968750D02*
X275431250Y-130968750D01*
X275431250Y-130968750D02*
X294481250Y-130968750D01*
X294481250Y-130968750D02*
X313531250Y-130968750D01*
X313531250Y-130968750D02*
X319087500Y-130968750D01*
X319087500Y-130968750D02*
X337343750Y-130968750D01*
X320516250Y-121920000D02*
X330358750Y-121920000D01*
X319087500Y-123348750D02*
X320516250Y-121920000D01*
X352580260Y-121920000D02*
X354171250Y-121920000D01*
X352013959Y-122486301D02*
X352580260Y-121920000D01*
X338206199Y-122486301D02*
X352013959Y-122486301D01*
X337343750Y-123348750D02*
X338206199Y-122486301D01*
X84137500Y-150018750D02*
X108743750Y-150018750D01*
X108743750Y-150018750D02*
X127793750Y-150018750D01*
X128843750Y-150018750D02*
X146843750Y-150018750D01*
X127793750Y-150018750D02*
X128843750Y-150018750D01*
X146843750Y-150018750D02*
X165893750Y-150018750D01*
X165893750Y-150018750D02*
X184943750Y-150018750D01*
X184943750Y-150018750D02*
X203993750Y-150018750D01*
X203993750Y-150018750D02*
X223043750Y-150018750D01*
X223043750Y-150018750D02*
X242093750Y-150018750D01*
X242093750Y-150018750D02*
X261143750Y-150018750D01*
X261143750Y-150018750D02*
X280193750Y-150018750D01*
X280193750Y-150018750D02*
X299243750Y-150018750D01*
X299243750Y-150018750D02*
X335756250Y-150018750D01*
X335756250Y-150018750D02*
X342900000Y-150018750D01*
X355047549Y-137401299D02*
X354171250Y-136525000D01*
X351094474Y-150018750D02*
X355621251Y-145491973D01*
X355621251Y-137975001D02*
X355047549Y-137401299D01*
X355621251Y-145491973D02*
X355621251Y-137975001D01*
X342900000Y-150018750D02*
X351094474Y-150018750D01*
X334327500Y-140970000D02*
X335756250Y-142398750D01*
X323215000Y-140970000D02*
X334327500Y-140970000D01*
X344328750Y-140970000D02*
X354171250Y-140970000D01*
X342900000Y-142398750D02*
X344328750Y-140970000D01*
X94456250Y-169068750D02*
X118268750Y-169068750D01*
X118268750Y-169068750D02*
X137318750Y-169068750D01*
X137318750Y-169068750D02*
X156368750Y-169068750D01*
X156368750Y-169068750D02*
X175418750Y-169068750D01*
X175418750Y-169068750D02*
X194468750Y-169068750D01*
X194468750Y-169068750D02*
X213518750Y-169068750D01*
X213518750Y-169068750D02*
X232568750Y-169068750D01*
X232568750Y-169068750D02*
X251618750Y-169068750D01*
X251618750Y-169068750D02*
X270668750Y-169068750D01*
X270668750Y-169068750D02*
X289718750Y-169068750D01*
X289718750Y-169068750D02*
X315912500Y-169068750D01*
X315912500Y-169068750D02*
X323056250Y-169068750D01*
X323056250Y-169068750D02*
X342106250Y-169068750D01*
X357587549Y-137401299D02*
X356711250Y-136525000D01*
X357911251Y-137725001D02*
X357587549Y-137401299D01*
X357911251Y-146626001D02*
X357911251Y-137725001D01*
X355621251Y-148916001D02*
X357911251Y-146626001D01*
X355621251Y-164541973D02*
X355621251Y-148916001D01*
X351094474Y-169068750D02*
X355621251Y-164541973D01*
X342106250Y-169068750D02*
X351094474Y-169068750D01*
X324485000Y-160020000D02*
X335121250Y-160020000D01*
X323056250Y-161448750D02*
X324485000Y-160020000D01*
X343535000Y-160020000D02*
X354171250Y-160020000D01*
X342106250Y-161448750D02*
X343535000Y-160020000D01*
X80168750Y-188118750D02*
X103981250Y-188118750D01*
X103981250Y-188118750D02*
X127793750Y-188118750D01*
X128843750Y-188118750D02*
X200818750Y-188118750D01*
X127793750Y-188118750D02*
X128843750Y-188118750D01*
X201868750Y-188118750D02*
X275431250Y-188118750D01*
X200818750Y-188118750D02*
X201868750Y-188118750D01*
X275431250Y-188118750D02*
X304006250Y-188118750D01*
X304006250Y-188118750D02*
X323056250Y-188118750D01*
X323056250Y-188118750D02*
X342106250Y-188118750D01*
X342106250Y-188118750D02*
X360362500Y-188118750D01*
X359022650Y-185728900D02*
X359022650Y-137764275D01*
X360362500Y-187068750D02*
X359022650Y-185728900D01*
X359022650Y-137764275D02*
X359022650Y-136525000D01*
X360362500Y-188118750D02*
X360362500Y-187068750D01*
X360127549Y-133108701D02*
X359251250Y-133985000D01*
X363152611Y-130083639D02*
X360127549Y-133108701D01*
X363152611Y-105886899D02*
X363152611Y-130083639D01*
X353681657Y-96415945D02*
X363152611Y-105886899D01*
X77101295Y-96415945D02*
X353681657Y-96415945D01*
X68107240Y-105410000D02*
X77101295Y-96415945D01*
X62071250Y-105410000D02*
X68107240Y-105410000D01*
X360127549Y-130568701D02*
X359251250Y-131445000D01*
X362702601Y-127993649D02*
X360127549Y-130568701D01*
X362702601Y-106073299D02*
X362702601Y-127993649D01*
X353495256Y-96865954D02*
X362702601Y-106073299D01*
X89665296Y-96865954D02*
X353495256Y-96865954D01*
X81121250Y-105410000D02*
X89665296Y-96865954D01*
X360127549Y-128028701D02*
X359251250Y-128905000D01*
X362252591Y-125903659D02*
X360127549Y-128028701D01*
X362252591Y-106259699D02*
X362252591Y-125903659D01*
X353308855Y-97315963D02*
X362252591Y-106259699D01*
X108265288Y-97315962D02*
X353308855Y-97315963D01*
X100171250Y-105410000D02*
X108265288Y-97315962D01*
X361802581Y-106446099D02*
X361802581Y-123813669D01*
X353122454Y-97765972D02*
X361802581Y-106446099D01*
X128456268Y-97765972D02*
X353122454Y-97765972D01*
X120812240Y-105410000D02*
X128456268Y-97765972D01*
X360127549Y-125488701D02*
X359251250Y-126365000D01*
X361802581Y-123813669D02*
X360127549Y-125488701D01*
X119221250Y-105410000D02*
X120812240Y-105410000D01*
X360127549Y-122948701D02*
X359251250Y-123825000D01*
X361352571Y-121723679D02*
X360127549Y-122948701D01*
X361352571Y-106632499D02*
X361352571Y-121723679D01*
X352936053Y-98215981D02*
X361352571Y-106632499D01*
X147056259Y-98215981D02*
X352936053Y-98215981D01*
X139862240Y-105410000D02*
X147056259Y-98215981D01*
X138271250Y-105410000D02*
X139862240Y-105410000D01*
X360902561Y-119633689D02*
X360127549Y-120408701D01*
X360902561Y-106818899D02*
X360902561Y-119633689D01*
X352749652Y-98665990D02*
X360902561Y-106818899D01*
X165656250Y-98665990D02*
X352749652Y-98665990D01*
X360127549Y-120408701D02*
X359251250Y-121285000D01*
X158912240Y-105410000D02*
X165656250Y-98665990D01*
X157321250Y-105410000D02*
X158912240Y-105410000D01*
X360452551Y-107005299D02*
X360452551Y-117543699D01*
X360127549Y-117868701D02*
X359251250Y-118745000D01*
X360452551Y-117543699D02*
X360127549Y-117868701D01*
X352563251Y-99115999D02*
X360452551Y-107005299D01*
X182665251Y-99115999D02*
X352563251Y-99115999D01*
X176371250Y-105410000D02*
X182665251Y-99115999D01*
X343134951Y-120408701D02*
X344011250Y-121285000D01*
X342746240Y-120019990D02*
X343134951Y-120408701D01*
X210977250Y-120019990D02*
X342746240Y-120019990D01*
X206537240Y-124460000D02*
X210977250Y-120019990D01*
X204946250Y-124460000D02*
X206537240Y-124460000D01*
X343134951Y-124701299D02*
X344011250Y-123825000D01*
X332799997Y-120469999D02*
X337031297Y-124701299D01*
X229577241Y-120469999D02*
X332799997Y-120469999D01*
X337031297Y-124701299D02*
X343134951Y-124701299D01*
X225587240Y-124460000D02*
X229577241Y-120469999D01*
X223996250Y-124460000D02*
X225587240Y-124460000D01*
X338282499Y-132093751D02*
X343134951Y-127241299D01*
X343134951Y-127241299D02*
X344011250Y-126365000D01*
X249399740Y-143510000D02*
X260815989Y-132093751D01*
X260815989Y-132093751D02*
X338282499Y-132093751D01*
X247808750Y-143510000D02*
X249399740Y-143510000D01*
X343134951Y-129781299D02*
X344011250Y-128905000D01*
X279415979Y-132543761D02*
X340372489Y-132543761D01*
X268449740Y-143510000D02*
X279415979Y-132543761D01*
X340372489Y-132543761D02*
X343134951Y-129781299D01*
X266858750Y-143510000D02*
X268449740Y-143510000D01*
X343134951Y-132321299D02*
X344011250Y-131445000D01*
X296424979Y-132993771D02*
X342462479Y-132993771D01*
X342462479Y-132993771D02*
X343134951Y-132321299D01*
X285908750Y-143510000D02*
X296424979Y-132993771D01*
X342771975Y-136525000D02*
X344011250Y-136525000D01*
X325440990Y-136525000D02*
X342771975Y-136525000D01*
X318455990Y-143510000D02*
X325440990Y-136525000D01*
X316865000Y-143510000D02*
X318455990Y-143510000D01*
M02*
