M48
; DRILL file {KiCad (5.1.5)-3} date 20/04/2020 21:52:31
; FORMAT={-:-/ absolute / inch / decimal}
; #@! TF.CreationDate,2020-04-20T21:52:31+02:00
; #@! TF.GenerationSoftware,Kicad,Pcbnew,(5.1.5)-3
; #@! TF.FileFunction,NonPlated,1,2,NPTH
FMAT,2
INCH
T1C0.0689
T2C0.1200
T3C0.1570
%
G90
G05
T1
X3.1437Y-4.25
X3.5437Y-4.25
X4.6437Y-4.25
X5.0438Y-4.25
X5.7687Y-5.0
X6.1688Y-5.0
X3.5187Y-5.0
X3.9187Y-5.0
X10.2687Y-5.0
X10.6687Y-5.0
X10.0812Y-7.25
X10.4812Y-7.25
X3.7062Y-5.75
X4.1063Y-5.75
X3.425Y-7.25
X3.825Y-7.25
X13.6437Y-5.75
X14.0437Y-5.75
X4.0812Y-6.5
X4.4813Y-6.5
X2.3937Y-4.25
X2.7937Y-4.25
X5.3937Y-4.25
X5.7938Y-4.25
X8.3937Y-4.25
X8.7937Y-4.25
X11.7687Y-5.0
X12.1687Y-5.0
X12.8937Y-7.25
X13.2937Y-7.25
X12.7062Y-5.0
X13.1062Y-5.0
X11.2062Y-7.25
X11.6062Y-7.25
X7.8312Y-6.5
X8.2312Y-6.5
X11.8625Y-6.5
X12.2625Y-6.5
X13.6437Y-6.5
X14.0437Y-6.5
X6.1437Y-4.25
X6.5438Y-4.25
X9.1437Y-4.25
X9.5437Y-4.25
X2.675Y-5.75
X3.075Y-5.75
X12.1437Y-7.25
X12.5437Y-7.25
X13.6437Y-5.0
X14.0437Y-5.0
X11.2062Y-5.75
X11.6062Y-5.75
X9.3312Y-6.5
X9.7312Y-6.5
X5.5812Y-6.5
X5.9813Y-6.5
X3.8937Y-4.25
X4.2938Y-4.25
X6.8937Y-4.25
X7.2938Y-4.25
X9.8937Y-4.25
X10.2937Y-4.25
X11.0187Y-5.0
X11.4187Y-5.0
X5.9562Y-5.75
X6.3563Y-5.75
X13.6437Y-7.25
X14.0437Y-7.25
X7.4562Y-5.75
X7.8563Y-5.75
X7.175Y-7.25
X7.575Y-7.25
X4.8312Y-6.5
X5.2313Y-6.5
X10.0812Y-6.5
X10.4812Y-6.5
X12.8937Y-6.5
X13.2937Y-6.5
X11.3937Y-4.25
X11.7937Y-4.25
X6.5187Y-5.0
X6.9188Y-5.0
X2.5812Y-5.0
X2.9812Y-5.0
X4.4562Y-5.75
X4.8563Y-5.75
X6.7062Y-5.75
X7.1063Y-5.75
X7.2687Y-5.0
X7.6688Y-5.0
X10.4562Y-5.75
X10.8562Y-5.75
X6.3312Y-6.5
X6.7313Y-6.5
X7.0812Y-6.5
X7.4813Y-6.5
X10.6437Y-4.25
X11.0437Y-4.25
X7.6437Y-4.25
X8.0437Y-4.25
X12.5187Y-4.25
X12.9187Y-4.25
X8.9562Y-5.75
X9.3562Y-5.75
X5.2062Y-5.75
X5.6063Y-5.75
X8.0187Y-5.0
X8.4187Y-5.0
X9.7062Y-5.75
X10.1062Y-5.75
X10.8312Y-6.5
X11.2312Y-6.5
X8.5812Y-6.5
X8.9812Y-6.5
X4.2687Y-5.0
X4.6688Y-5.0
X13.6437Y-4.25
X14.0437Y-4.25
X5.0187Y-5.0
X5.4188Y-5.0
X9.5187Y-5.0
X9.9187Y-5.0
X4.3625Y-7.25
X4.7625Y-7.25
X8.2062Y-5.75
X8.6062Y-5.75
X2.4875Y-7.25
X2.8875Y-7.25
X8.7687Y-5.0
X9.1687Y-5.0
X12.425Y-5.75
X12.825Y-5.75
X2.8625Y-6.5
X3.2625Y-6.5
T2
X5.4065Y-6.975
X9.3435Y-6.975
X12.25Y-3.975
X13.1875Y-3.975
X12.1562Y-5.475
X13.0938Y-5.475
X2.5938Y-6.225
X3.5312Y-6.225
T3
X10.4688Y-5.0
X10.2812Y-7.25
X3.9062Y-5.75
X3.625Y-7.25
X13.8438Y-5.75
X4.2812Y-6.5
X2.5938Y-4.25
X5.5938Y-4.25
X8.5938Y-4.25
X11.9688Y-5.0
X13.0938Y-7.25
X12.9062Y-5.0
X11.4062Y-7.25
X8.0312Y-6.5
X12.0625Y-6.5
X13.8438Y-6.5
X6.3438Y-4.25
X9.3438Y-4.25
X2.875Y-5.75
X12.3438Y-7.25
X13.8438Y-5.0
X11.4062Y-5.75
X9.5312Y-6.5
X5.7812Y-6.5
X4.0938Y-4.25
X7.0938Y-4.25
X10.0938Y-4.25
X11.2188Y-5.0
X6.1562Y-5.75
X13.8438Y-7.25
X7.6562Y-5.75
X5.4065Y-7.575
X7.375Y-7.25
X9.3435Y-7.575
X5.0312Y-6.5
X10.2812Y-6.5
X13.0938Y-6.5
X11.5938Y-4.25
X6.7188Y-5.0
X2.7812Y-5.0
X4.6562Y-5.75
X6.9062Y-5.75
X7.4688Y-5.0
X10.6562Y-5.75
X6.5312Y-6.5
X7.2812Y-6.5
X10.8438Y-4.25
X7.8438Y-4.25
X12.25Y-4.575
X12.7188Y-4.25
X13.1875Y-4.575
X9.1562Y-5.75
X5.4062Y-5.75
X8.2188Y-5.0
X9.9062Y-5.75
X11.0312Y-6.5
X8.7812Y-6.5
X4.4688Y-5.0
X13.8438Y-4.25
X5.2188Y-5.0
X9.7188Y-5.0
X4.5625Y-7.25
X8.4062Y-5.75
X2.6875Y-7.25
X8.9688Y-5.0
X12.1562Y-6.075
X12.625Y-5.75
X13.0938Y-6.075
X2.5938Y-6.825
X3.0625Y-6.5
X3.5312Y-6.825
X3.3438Y-4.25
X4.8438Y-4.25
X5.9688Y-5.0
X3.7188Y-5.0
T0
M30
